<?xml version="1.0" encoding="utf-8"?>
<!-- Generator: Adobe Illustrator 26.2.1, SVG Export Plug-In . SVG Version: 6.00 Build 0)  -->
<svg version="1.1" id="Ebene_1" xmlns="http://www.w3.org/2000/svg" xmlns:xlink="http://www.w3.org/1999/xlink" x="0px" y="0px"
	 viewBox="0 0 125.4 91.4" style="enable-background:new 0 0 125.4 91.4;" xml:space="preserve">
<style type="text/css">
	.st0{fill:#E53D17;}
	.st1{fill:#685649;}
</style>
<g>
	<path class="st0" d="M11.3,44.5h8.2l1.9,5.7c0.2,0.4,0.1,0.7-0.1,0.9l-2.5,1.9V53h8.6v-0.1l-1.5-1.5c-0.4-0.4-0.6-0.7-0.8-1.3
		l-7.3-21.4h-5.3v0.1l1.9,2.1c0.4,0.5,0.5,0.6,0.3,1.3L9,49.3c-0.2,0.6-0.3,0.7-0.9,1.2l-2.8,2.3V53h7.8v-0.1l-2.9-2.3
		C9.5,50,9.4,50,9.6,49.4L11.3,44.5z M15.4,32.3l3.9,11.6h-7.8L15.4,32.3z"/>
	<path class="st0" d="M31.3,50.6c0,0.4-0.1,0.5-0.4,0.7l-3,1.6V53h17.5v-7.7h-0.1l-3.2,6.7c-0.2,0.4-0.5,0.4-1.2,0.4h-5.5
		c-0.4,0-0.6-0.1-0.6-0.8V31.1c0-0.4,0-0.4,0.4-0.7l3-1.6v-0.1H27.9v0.1l3,1.6c0.4,0.2,0.4,0.3,0.4,0.7V50.6z"/>
	<path class="st0" d="M57,43.5c4.8,0,8.8-2.7,8.8-7.5c0-5.2-3.6-7.4-8.3-7.4H47.1v0.1l3,1.6c0.4,0.2,0.4,0.3,0.4,0.7v19.5
		c0,0.4-0.1,0.5-0.4,0.7l-3,1.6V53h11.7v-0.1l-4.3-1.7c-0.4-0.2-0.4-0.4-0.4-1v-6.6H57z M54.1,30c0-0.6,0.1-0.7,0.7-0.7h1.7
		c3,0,5.5,1.8,5.5,6.7c0,5.3-2.8,6.9-5.5,6.9h-2.3V30z"/>
	<path class="st0" d="M73.9,50.6V31.1c0-0.4,0-0.4,0.4-0.7l3-1.6v-0.1H66.9v0.1l3,1.6c0.4,0.2,0.4,0.3,0.4,0.7v19.5
		c0,0.4-0.1,0.5-0.4,0.7l-3,1.6V53h10.4v-0.1l-3-1.6C73.9,51.1,73.9,51,73.9,50.6z"/>
	<path class="st0" d="M97.8,32.2c0-0.5,0.1-0.7,0.6-1l3.3-2.4v-0.1h-8.3v0.1l3.3,2.4c0.5,0.4,0.6,0.6,0.6,1V49L84.8,28.7h-6v0.1
		l2.9,2c0.3,0.3,0.4,0.6,0.4,1.2v17.5c0,0.5-0.1,0.7-0.6,1l-3.3,2.4V53h8.3v-0.1l-3.3-2.4c-0.5-0.3-0.6-0.5-0.6-1V32.2L95.4,53h2.4
		V32.2z"/>
	<path class="st0" d="M120.1,53v-7.4H120l-3.1,6.3c-0.2,0.4-0.5,0.4-1.2,0.4h-6.1c-0.4,0-0.6-0.1-0.6-0.8V40.9h4.2
		c0.5,0,0.7,0.1,1,0.6l2.2,3.1h0.1v-8.1h-0.1l-2.2,3.1c-0.3,0.5-0.5,0.6-1,0.7h-4.2V30.1c0-0.7,0.1-0.8,0.6-0.8h6.1
		c0.5,0,0.7,0.1,1,0.6l2.9,6.2h0.1v-7.5h-17.7v0.1l3,1.6c0.4,0.2,0.4,0.3,0.4,0.7v19.5c0,0.4-0.1,0.5-0.4,0.7l-3,1.6V53H120.1z"/>
	<path class="st0" d="M16.1,69c0-0.4,0-0.4,0.4-0.7l3-1.6v-0.1H9.1v0.1l3,1.6c0.4,0.2,0.4,0.3,0.4,0.7v19.5c0,0.4-0.1,0.5-0.4,0.7
		l-3,1.6v0.1h10.4v-0.1l-3-1.6c-0.4-0.2-0.4-0.3-0.4-0.7V69z M26,69.8c0.5-0.5,0.8-0.7,1.5-1l3.8-2.1v-0.1h-9v0.1l3,2
		c0.4,0.3,0.6,0.5,0.1,0.9l-8.9,9.1l9,12.2h5.7v-0.1l-2.4-1.9c-0.4-0.3-0.7-0.6-1.1-1.1l-8.3-11.1L26,69.8z"/>
	<path class="st0" d="M49.9,82.4V70.2c0-0.5,0-0.7,0.6-1l3.3-2.4v-0.1h-8.4v0.1l3.3,2.4c0.5,0.3,0.6,0.6,0.6,1v12.3
		c0,5-2,7.9-5.7,7.9c-3.8,0-5.8-2.5-5.8-7.2v-14c0-0.4,0-0.5,0.4-0.7l2.9-1.7v-0.1H31v0.1l2.7,1.7c0.4,0.2,0.4,0.3,0.4,0.7v14.7
		c0,4.1,1.9,7.4,8.3,7.4C47.9,91.3,49.9,87.6,49.9,82.4z M38.6,62c0,0.9,0.8,1.8,1.8,1.8c1,0,1.8-0.9,1.8-1.8c0-1-0.8-1.8-1.8-1.8
		C39.4,60.1,38.6,61,38.6,62z M44.3,62c0,0.9,0.8,1.8,1.8,1.8c1,0,1.8-0.9,1.8-1.8c0-1-0.8-1.8-1.8-1.8C45.1,60.1,44.3,61,44.3,62z"
		/>
	<path class="st0" d="M65.6,91.3c1.5,0,3.7-0.1,5.8-0.6v-7.6h-0.1L67.8,90c-0.2,0.4-0.4,0.6-1,0.6c-0.4,0-0.8,0.1-1.2,0.1
		c-5.2,0-7.5-4.3-7.5-11.9c0-7,1.9-11.9,7.2-11.9c0.4,0,0.9,0,1.4,0.1c0.6,0.1,0.8,0.1,1.1,0.7l3.5,6.7h0.1v-7.3
		c-2.2-0.5-4.4-0.8-6.2-0.8c-7.1,0-11.2,5.2-11.2,12.6C53.9,86.1,57.4,91.3,65.6,91.3z"/>
	<path class="st0" d="M94.8,69c0-0.4,0-0.4,0.4-0.7l3-1.6v-0.1H87.8v0.1l3,1.6c0.4,0.2,0.4,0.3,0.4,0.7v9.1H80.9V69
		c0-0.4,0-0.4,0.4-0.7l3-1.6v-0.1H73.9v0.1l3,1.6c0.4,0.2,0.4,0.3,0.4,0.7v19.5c0,0.4-0.1,0.5-0.4,0.7l-3,1.6v0.1h10.4v-0.1l-3-1.6
		c-0.4-0.2-0.4-0.3-0.4-0.7v-9.7h10.4v9.7c0,0.4-0.1,0.5-0.4,0.7l-3,1.6v0.1h10.4v-0.1l-3-1.6c-0.4-0.2-0.4-0.3-0.4-0.7V69z"/>
	<path class="st0" d="M117.5,90.9v-7.4h-0.1l-3.1,6.3c-0.2,0.4-0.5,0.4-1.2,0.4h-6.1c-0.4,0-0.6-0.1-0.6-0.8V78.9h4.2
		c0.5,0,0.7,0.1,1,0.6l2.2,3.1h0.1v-8.1h-0.1l-2.2,3.1c-0.3,0.5-0.5,0.6-1,0.7h-4.2V68.1c0-0.7,0.1-0.8,0.6-0.8h6.1
		c0.5,0,0.7,0.1,1,0.6l2.9,6.2h0.1v-7.5H99.5v0.1l3,1.6c0.4,0.2,0.4,0.3,0.4,0.7v19.5c0,0.4-0.1,0.5-0.4,0.7l-3,1.6v0.1H117.5z"/>
	<path class="st1" d="M64.3,6.6c-0.1-0.1-0.1-0.1-0.2-0.1C64.2,6.5,64.3,6.6,64.3,6.6z"/>
	<path class="st1" d="M64,1.7C64,1.8,64,1.8,64,1.7C64,1.9,64,2,64,2.1H64C64.1,2,64.1,1.8,64,1.7C64.1,1.7,64.1,1.7,64,1.7
		c0.1,0.1,0.1,0.1,0.1,0.1c0,0.1,0,0.3-0.1,0.4c0.1,0.1,0.1,0.1,0.1,0c0.1-0.1,0.1-0.3,0.1-0.5c0,0.1,0,0.3,0,0.5
		c0,0.1,0.1,0.1,0.1,0c0-0.2,0.1-0.5,0-0.7c0,0,0,0.1,0.1,0.1h0.1c0-0.1,0-0.1-0.1-0.1c0,0,0,0,0,0.1c0,0,0-0.1,0-0.1v0.1
		c0.1,0,0.1,0,0.1,0.1c0.1,0,0.1,0.1,0.1,0.1c0-0.1-0.1-0.1-0.1-0.1s0.1,0,0.1-0.1V1.4c-0.1,0-0.1,0-0.2,0c0,0-0.1,0-0.1-0.1
		s0-0.1-0.1-0.2h-0.1V1c0-0.1-0.1-0.1-0.1,0S64,1.1,64,1.2c0,0.1,0,0.1,0,0.1c-0.1,0-0.1-0.1,0-0.1c0-0.1-0.1-0.1,0-0.1V1
		c0,0-0.1,0-0.1,0.1v0.1c0,0.1,0,0.1,0,0.1c0-0.1-0.1-0.1-0.1-0.1c0,0.1,0,0.1,0,0.1c0,0.1,0,0.1,0,0.1C63.9,1.5,63.9,1.7,64,1.7
		C64,1.7,64,1.7,64,1.7z M64.2,1.2c0,0.1,0,0.1,0,0.1C64.1,1.3,64.1,1.3,64.2,1.2z M64,1.4c0.1,0,0.1,0.1,0.1,0.1
		C64.1,1.5,64.1,1.5,64,1.4z"/>
	<path class="st1" d="M63.7,1.5C63.7,1.5,63.7,1.5,63.7,1.5C63.7,1.4,63.7,1.4,63.7,1.5C63.7,1.4,63.6,1.4,63.7,1.5
		c-0.1-0.1-0.2-0.1-0.3-0.1v0.1C63.4,1.5,63.5,1.5,63.7,1.5C63.6,1.4,63.6,1.4,63.7,1.5z"/>
	<path class="st1" d="M63.3,0.5C63.2,0.5,63.2,0.5,63.3,0.5C63.2,0.5,63.2,0.6,63.3,0.5C63.3,0.6,63.3,0.5,63.3,0.5z"/>
	<path class="st1" d="M59.4,10.7c-0.1-0.5-0.4-1-0.8-1.4c0.1,0.2,0.3,0.4,0.4,0.7c0,0,0,0.1,0.1,0.1c0-0.1-0.1-0.1-0.1-0.1
		c-0.1-0.2-0.3-0.4-0.5-0.6c0.1,0.2,0.3,0.4,0.5,0.7c0.1,0.2,0.2,0.4,0.4,0.6c-0.1,0-0.3-0.1-0.4-0.1c0,0,0,0,0,0.1
		C59.1,10.6,59.2,10.7,59.4,10.7C59.4,10.8,59.4,10.8,59.4,10.7C59.4,10.7,59.4,10.7,59.4,10.7z M59.2,10.5c0,0.1,0.1,0.1,0.1,0.1
		C59.3,10.7,59.2,10.7,59.2,10.5C59.3,10.6,59.2,10.6,59.2,10.5z"/>
	<path class="st1" d="M59.7,11c-0.1-0.3-0.1-0.6-0.3-0.9c-0.1-0.3-0.3-0.6-0.4-0.9H59c0.1,0.3,0.3,0.6,0.4,0.9
		C59.5,10.4,59.6,10.7,59.7,11z"/>
	<path class="st1" d="M57.1,8.9C57.2,8.9,57.2,8.9,57.1,8.9z"/>
	<path class="st1" d="M57.5,9c0,0.1,0,0.1,0.1,0.1L57.5,9C57.5,9.1,57.5,9.1,57.5,9z"/>
	<path class="st1" d="M57.5,9C57.4,9,57.4,9,57.5,9C57.4,9,57.4,9,57.5,9C57.5,9,57.4,9,57.5,9C57.5,9,57.5,9,57.5,9z"/>
	<path class="st1" d="M62.5,1.4c0,0.1,0,0.2,0.1,0.4C62.6,1.6,62.6,1.4,62.5,1.4z"/>
	<path class="st1" d="M63.7,1.1c-0.1-0.1,0-0.4,0.1-0.5c-0.1,0.1-0.4,0.3-0.3,0.5C63.6,1.1,63.7,1.1,63.7,1.1
		C63.7,1.2,63.7,1.2,63.7,1.1z"/>
	<path class="st1" d="M64.1,0.5C64,0.5,64,0.5,64.1,0.5z"/>
	<path class="st1" d="M58.8,10.4C58.8,10.4,58.8,10.4,58.8,10.4l0.1,0.1c0,0,0,0,0-0.1C58.8,10.4,58.8,10.3,58.8,10.4
		C58.7,10.3,58.7,10.3,58.8,10.4z"/>
	<path class="st1" d="M58.8,10.3c-0.1-0.1-0.1-0.1-0.1-0.1C58.6,10.1,58.7,10.2,58.8,10.3C58.7,10.3,58.7,10.3,58.8,10.3z"/>
	<path class="st1" d="M58.3,8.2c0.1,0.1,0.1,0.1,0.1,0.1c-0.1-0.1-0.1-0.3-0.2-0.4C58.3,8.1,58.3,8.1,58.3,8.2z"/>
	<path class="st1" d="M60.1,9C60.2,9,60.1,9,60.1,9C60.2,9,60.2,9,60.1,9C60.2,9,60.2,9,60.1,9z"/>
	<path class="st1" d="M58.6,10.1c-0.2-0.4-0.6-0.7-0.8-1c0.1,0.2,0.4,0.4,0.5,0.6C58.4,9.8,58.5,10,58.6,10.1z"/>
	<path class="st1" d="M62.9,0.5C62.9,0.5,62.9,0.5,62.9,0.5z"/>
	<path class="st1" d="M61.3,8.4c-0.1-0.2-0.2-0.4-0.4-0.6c-0.1-0.2-0.3-0.4-0.5-0.6c0.1,0.1,0.3,0.4,0.4,0.5
		C61,7.9,61.1,8.1,61.3,8.4c0.1,0.1,0.1,0.4,0.3,0.6c0,0.1,0.1,0.1,0.1,0.1L61.6,9C61.5,8.8,61.4,8.6,61.3,8.4z"/>
	<path class="st1" d="M59.8,2.7c-0.1,0.1-0.1,0.1-0.1,0.1C59.7,2.8,59.7,2.8,59.8,2.7z"/>
	<path class="st1" d="M60,2.7c0-0.1,0-0.1,0-0.2V2.4c0-0.1,0.1-0.1,0.1-0.1v0.1h0.1c0-0.1,0-0.1,0-0.1s0-0.1-0.1-0.1
		c0-0.1,0-0.1-0.1-0.1h-0.1c-0.1,0-0.1,0-0.2,0.1c0,0.1,0,0.1,0,0.2c-0.1,0-0.1,0-0.1-0.1c0,0,0,0,0-0.1l0.1-0.1
		c-0.1,0.1-0.1,0.2-0.2,0.4c0,0.1,0,0.1,0.1,0.1s0.1,0,0.1-0.1v0.1c0,0.1,0.1,0,0.1,0V2.6c0.1-0.1,0.1-0.1,0.1-0.1v0.1
		c0,0,0,0,0.1,0H60c0,0,0.1,0.1,0,0.2V3c0.1,0,0.1,0,0.2,0C60.2,2.8,60.1,2.8,60,2.7z M59.8,2.3c0.1-0.1,0.1-0.1,0.1-0.1
		C59.9,2.3,59.9,2.3,59.8,2.3z"/>
	<path class="st1" d="M60.5,4.2C60.5,4.3,60.5,4.3,60.5,4.2z"/>
	<path class="st1" d="M60.5,4.3c0,0.1,0.1,0.2,0.1,0.4C60.6,4.6,60.5,4.4,60.5,4.3z"/>
	<path class="st1" d="M59.5,3.7C59.6,3.7,59.6,3.7,59.5,3.7c0.1-0.1,0.1-0.1,0.1-0.1c0,0,0,0,0-0.1h0.1c-0.1,0.1-0.1,0.3-0.1,0.4
		c0-0.1,0-0.1,0-0.2c0-0.1,0.1-0.1,0.1-0.2c0.1,0,0.3,0.1,0.4,0V3.4c-0.1,0-0.1,0-0.2,0c0,0,0,0-0.1,0l-0.1,0.1V3.4h-0.1
		c0.1-0.1,0.1-0.1,0.1-0.1c0.1,0,0.1,0,0.1,0c0.1,0,0.1,0,0.2,0c0,0,0,0,0-0.1c-0.1,0-0.1,0-0.3,0c0.1,0.1,0.1,0,0.1,0.1
		c0.1,0,0.1,0,0.1,0c0,0.1,0,0.1-0.1,0c-0.1,0-0.1,0-0.1,0s0,0,0-0.1c0,0,0,0-0.1,0h0.1c0,0,0,0,0.1,0c0-0.1,0.1-0.1,0.1-0.1L59.9,3
		c-0.1,0-0.1,0-0.2,0.1c0,0,0,0,0,0.1c0,0,0,0,0-0.1c-0.1,0.1-0.1,0.1-0.1,0.1c-0.1,0.1-0.2,0.1-0.3,0.2c0,0,0,0-0.1,0.1
		c-0.1,0.1-0.1,0.1-0.2,0.1v0.1c0.1,0,0.1-0.1,0.1-0.1c0,0.1-0.1,0.1-0.1,0.1s0,0-0.1,0v0.1c0,0,0,0,0.1,0c0,0,0,0.1,0.1,0.1L59.3,4
		c0.1,0-0.3,0-0.4-0.3c0-0.3,0.3-0.4,0.5-0.4c0.1,0,0.1,0,0.1-0.1c0-0.1,0-0.1,0.1-0.3c-0.1,0.1-0.2,0.1-0.2,0.2c0,0,0,0,0-0.1v0.1
		c-0.4,0.1-0.7,0.4-0.5,0.7C59,4,59.3,4,59.4,3.9C59.4,3.8,59.5,3.8,59.5,3.7z M59.7,3.5C59.5,3.5,59.5,3.5,59.7,3.5z M59.5,3.5
		C59.5,3.6,59.5,3.6,59.5,3.5L59.5,3.5C59.4,3.5,59.4,3.5,59.5,3.5z"/>
	<path class="st1" d="M60.7,2.3C60.7,2.2,60.7,2.2,60.7,2.3C60.7,2.2,60.7,2.2,60.7,2.3C60.7,2.2,60.7,2.3,60.7,2.3z"/>
	<path class="st1" d="M59.4,3C59.4,3,59.4,3,59.4,3z"/>
	<path class="st1" d="M61.3,1.8L61.3,1.8C61.2,2,61.1,2,61.1,2c0.1,0,0.1,0,0.1,0C61.3,2,61.3,1.9,61.3,1.8z"/>
	<path class="st1" d="M60.5,2.6C60.6,2.6,60.6,2.6,60.5,2.6C60.6,2.6,60.6,2.6,60.5,2.6C60.6,2.5,60.6,2.5,60.5,2.6z"/>
	<path class="st1" d="M60,2C60,2.1,60.1,2.1,60,2C60,2,60,2,60,2z"/>
	<path class="st1" d="M59.9,3.4c-0.1,0-0.1,0.1-0.2,0.1h0.1C59.9,3.4,59.9,3.4,59.9,3.4z"/>
	<path class="st1" d="M63.2,13.8c0,0.1-0.1,0.4-0.1,0.5c0,0.1,0,0.1,0,0.2C63.2,14.3,63.2,14.1,63.2,13.8z"/>
	<path class="st1" d="M60.2,3c0,0.1,0,0.1-0.1,0.1c0.1-0.1,0.1-0.1,0.2-0.1c0,0,0,0,0-0.1C60.4,3,60.3,3,60.2,3z"/>
	<path class="st1" d="M63.1,11.3c0-0.1,0-0.1-0.1-0.1c0-0.1,0-0.1-0.1-0.3c-0.1-0.7-0.1-1.5-0.2-2.2c0-0.1,0-0.4,0-0.5h0.1
		c0.1-0.4,0.1-0.7,0.1-1.1c0.1,0,0.1,0,0.1-0.1c0-0.1-0.1-0.1-0.1-0.1c0-0.1,0-0.1,0-0.1c0-0.3,0.1-0.6,0.1-0.9
		c0-0.1,0.1-0.3,0.1-0.4c0-0.1,0-0.1,0.1-0.2c0.1-0.1,0.1-0.4,0.1-0.6c0-0.1,0.1-0.4,0.1-0.6c0-0.1,0.1-0.3,0.1-0.4
		c0.1-0.3,0.3-0.5,0.3-0.8h-0.1c-0.1,0.1-0.1,0.5-0.3,0.7c0,0.1-0.1,0.1-0.1,0.3c0-0.1,0.1-0.2,0.1-0.3c0-0.1,0.1-0.1,0.1-0.1
		c0.1-0.2,0.1-0.4,0.1-0.5c0-0.1,0-0.1,0.1-0.1c0.1,0,0.1,0,0.1,0C64,2.8,64,2.8,64.2,2.8c0.4,0,0.5-0.6,0.4-1
		c0.3,0.1,0.7,0.2,0.8-0.2c0.1-0.5-0.5-0.5-0.9-0.5c0.1-0.3-0.1-0.5-0.4-0.5c0.2,0,0.4,0.3,0.4,0.5c0,0.1,0,0.1,0.1,0.1
		c0.3,0,0.7,0,0.8,0.3c0.1,0.2-0.1,0.3-0.3,0.4c-0.1,0-0.3-0.1-0.4-0.1h-0.1c-0.1,0-0.1,0.1-0.1,0.1c0.1,0.1,0.1,0.3,0.1,0.5
		c-0.1,0.1-0.1,0.4-0.4,0.4c-0.1,0-0.2-0.1-0.3-0.1c-0.1-0.2-0.1-0.3-0.1-0.4c0-0.1,0-0.1,0-0.1V2.2c0-0.1,0-0.1,0-0.1
		c0-0.1,0.1-0.2,0.1-0.3c0-0.1-0.1-0.1-0.1,0c0,0.1-0.1,0.1-0.1,0.1c0,0.1-0.1,0.4-0.1,0.5c0-0.1,0-0.1,0-0.1c0-0.1,0.1-0.2,0.1-0.4
		c0.1,0,0.1-0.1,0-0.1c-0.3,0.1-0.7-0.1-0.7-0.4c0-0.1,0-0.2,0.1-0.3c-0.1,0.1-0.2,0.1-0.3,0.3c0,0.1,0,0.2,0.1,0.3
		c0,0,0,0.1-0.1,0.1c0-0.1,0-0.1-0.1-0.1c0-0.1-0.1-0.1-0.1,0v0.1h-0.1v0.1c0,0,0,0-0.1,0L62.7,2c0,0.7,0.1,1.4,0.1,2.2h0.1
		c0.1-0.7,0.1-1.5,0-2.2c0.1,0.4,0.1,0.7,0.1,1.1s-0.1,0.8-0.1,1.3c0,0.2-0.1,0.4-0.1,0.6c0.1-0.2,0.1-0.4,0.1-0.4
		c0-0.3-0.1-0.6-0.1-0.9c-0.1-0.4-0.2-0.8-0.5-1.1c0-0.1,0-0.1-0.1-0.1c0,0.1,0,0.1,0,0.1s0-0.1,0.1-0.1c0.1,0.1,0.1,0,0.1-0.1
		c0.1-0.1,0.2-0.1,0.3-0.2c0.1-0.2-0.1-0.4-0.1-0.5c-0.1-0.1,0-0.1,0.1-0.1c0,0,0-0.1-0.1-0.1c-0.1,0.1-0.1,0.1-0.2,0.1
		c-0.1,0-0.2-0.1-0.3-0.1c0.1-0.1,0.2-0.2,0.2-0.3c0.1-0.1,0.1-0.1,0.2-0.2c0,0,0,0,0.1,0c0.1,0.1,0.1,0.2,0.3,0.2
		c0,0,0,0.1,0.1,0.1c0.1,0,0.1,0,0.1-0.1c0,0,0.1,0,0.1-0.1C63,0.9,63.1,0.8,63,0.7c0,0-0.1,0-0.1-0.1V0.5c0,0-0.1,0-0.1-0.1
		c0.1,0,0.1,0,0.1,0.1V0.5C63,0.5,63,0.5,63.1,0.6h0.1c0-0.1-0.1-0.3-0.3-0.3c0.1-0.1,0.2-0.2,0.4-0.1c0.3,0.1,0.3,0.4,0,0.6
		c0.3,0,0.3-0.4,0.1-0.6c-0.2-0.2-0.5-0.1-0.7,0.1h-0.1C62.5,0.2,62.2,0,62,0.2c-0.1,0.1-0.1,0.3-0.1,0.4c0,0,0,0-0.1,0
		c-0.1,0-0.7,0.1-0.7,0.5c-0.4-0.1-0.8,0.1-1,0.4c-0.1-0.1-0.4-0.2-0.6-0.1c-0.2,0.1-0.3,0.4-0.2,0.6c0,0.1,0.1,0.2,0.1,0.3
		c-0.3,0.1-0.6,0.2-0.5,0.6c0,0.1,0.3,0.3,0.4,0.2c-0.1-0.1-0.1,0-0.2-0.1c-0.1-0.1-0.2-0.2-0.1-0.4c0.1-0.2,0.4-0.2,0.5-0.3
		c0.1,0,0.1-0.1,0-0.1c-0.1,0-0.1-0.2-0.1-0.3c0-0.1,0.1-0.3,0.2-0.4c0.3-0.1,0.7,0.1,0.5,0.4c0,0.1-0.1,0,0,0c0,0,0-0.1,0.1-0.1
		C60.3,2,60.5,2,60.7,2.1c0.1,0,0.1,0,0.1,0c-0.1,0.1-0.1,0.2-0.1,0.3s0.1,0.1,0.1,0s0.1-0.2,0.1-0.3c-0.1,0-0.1,0-0.1,0
		C60.8,2,60.9,2,61,2l0.1-0.1C61,1.9,61,2,60.9,2C61,2,61,2,61,2c0,0.1,0,0.2,0,0.3c0.1-0.1,0.1-0.1,0.1-0.3c0,0.1,0,0.1,0,0.2
		c0-0.1,0-0.1,0.1-0.1c0-0.1,0.1-0.2,0.1-0.3c0.1,0,0.1,0,0.1,0.1c0.1,0,0.1,0.1,0.1,0.1c0.1-0.1-0.1-0.1-0.2-0.1
		c0.1-0.1,0.1-0.1,0.1-0.1c0.1,0.1,0.1,0.1,0.1,0.1c0.1,0,0.2,0,0.3,0.1c0,0,0.1,0,0-0.1c-0.1,0-0.1,0-0.1-0.1
		c-0.1-0.1-0.1-0.1-0.2-0.1c0.1-0.1,0.1-0.2,0-0.3v0.1c-0.1,0-0.1-0.1-0.1-0.1h0.1l-0.1-0.1c0.1-0.1,0.1-0.1,0.1-0.1
		c0,0,0-0.1-0.1-0.1c0,0.1-0.1,0.1-0.1,0.1c-0.1,0-0.1,0-0.1,0s-0.3,0.1-0.3,0.2c-0.1,0-0.1,0-0.2,0c0,0-0.1,0.1,0,0.1
		c0.1,0,0.1,0.1,0.2,0.1c0,0.1,0,0.1,0.1,0.1c-0.1,0.1-0.1,0.1-0.2,0.1v0.1c0,0,0-0.1-0.1,0C60.6,2,60.5,2,60.5,2s0,0-0.1,0
		c-0.1,0-0.2-0.1-0.3-0.3c0-0.4,0.7-0.7,1-0.5c0.1,0,0.1,0,0.1-0.1c-0.1-0.2,0.3-0.4,0.6-0.4C62,0.7,62,0.8,62,0.8
		C62,0.9,62.1,1,62,1c0,0,0,0,0,0.1c0,0,0,0-0.1,0.1c-0.1,0.1-0.1,0.1-0.2,0.2c-0.1,0,0,0.1,0,0.1C62,1.4,62.5,1.7,62.3,2
		c-0.1,0.2-0.3,0.2-0.5,0.2c-0.1,0-0.1-0.1-0.2-0.1c0,0,0,0,0-0.1C61.4,2,61.4,2,61.4,2c0,0.1,0.1,0.1,0.1,0.2
		c0,0.1-0.1,0.4-0.3,0.4c0-0.1-0.1-0.1-0.1-0.1H61c0,0.1,0.1,0.1,0.1,0.1c-0.1,0-0.3-0.1-0.4-0.2c0.1-0.1,0.1-0.1,0.1-0.1
		s0-0.1-0.1,0c0,0.1,0,0.1,0,0.2c0,0.1,0,0.1-0.1,0.1c0.1,0.1,0.1,0.1,0.1,0.1c-0.1,0-0.1-0.1-0.1-0.1c0,0,0,0,0,0.1
		c0,0,0-0.1-0.1-0.1h-0.1c-0.1,0.1-0.1,0.1,0.1,0.2c0,0.1,0,0.1,0,0.3c0,0,0.1,0.1,0.1,0.2c0.1,0.2-0.1,0.4-0.3,0.4
		c0.2,0.1,0,0.1-0.2,0.1c-0.1,0-0.1,0-0.1-0.1c-0.1,0-0.1,0-0.1,0.1c0,0.1,0.1,0.3,0,0.4c0,0.1-0.1,0.4-0.3,0.3
		c-0.1,0-0.1-0.1-0.1-0.3c0-0.1,0-0.1,0-0.3c-0.1,0.3-0.1,0.7,0.2,0.7S60,4.4,60,4.2c0.1,0.2,0.3,0.4,0.4,0.5l0.1,0.1
		c0,0.1,0.1,0.1,0.1,0.1h0.1V4.8c0.1,0.1,0.2,0.1,0.3,0.1c0.1,0.1,0.4,0.3,0.5,0.5c0.1,0.1,0.4,0.4,0.5,0.5c0.1,0.2,0.3,0.4,0.5,0.6
		c0.1,0.1,0.1,0.3,0.2,0.4c0,0.2,0,0.4,0,0.6c0,0.4,0,0.7,0,1.1c0,0.5,0.1,1.1,0.1,1.7c-0.1-0.4-0.2-0.9-0.3-1.3
		c-0.1-0.3-0.1-0.5-0.3-0.7C62.1,8.3,62,8.1,62,8.1c0-0.3-0.1-0.5-0.1-0.6c-0.4-0.8-1.5-0.5-1.9-1.1c-0.1-0.1-0.1,0-0.1,0.1
		s0.1,0.1,0.1,0.1c0.1,0.2,0.3,0.4,0.4,0.7c-0.1-0.2-0.2-0.4-0.4-0.6c0.5,0.3,1.3,0.3,1.6,0.9c0.1,0.3,0.1,0.4,0.3,0.7
		c0.1,0.2,0.3,0.5,0.3,0.7c-0.1-0.2-0.1-0.4-0.3-0.6c-0.1-0.1-0.1-0.3-0.2-0.4h-0.1c-0.1-0.1-0.1-0.1-0.1-0.1
		c0.2,0.4,0.4,0.7,0.6,1.2c0.1,0.1,0.1,0.3,0.1,0.4v0.1c0.1,0.1,0.1,0.3,0.1,0.4c-0.1-0.1-0.1-0.2-0.2-0.3C62.1,9.3,62,9,61.9,8.7
		c-0.1-0.1-0.1-0.4-0.3-0.5c0.1-0.4-0.4-0.7-0.7-1.1c0.1,0.3,0.3,0.5,0.5,0.7c0,0-0.1,0,0,0.1s0.1,0.1,0.1,0.2
		c-0.1-0.1-0.1-0.1-0.2-0.3c-0.1-0.3-0.4-0.7-0.6-1c0,0-0.1,0-0.1,0.1c0.1,0.1,0.3,0.4,0.4,0.5c0.1,0.1,0.1,0.4,0.3,0.5V7.9
		c0.1,0.1,0.2,0.3,0.3,0.5c0.1,0.2,0.2,0.5,0.3,0.7C62,9.3,62,9.4,62.1,9.6L62,9.5c-0.1-0.1-0.3-0.3-0.4-0.4c0.2,0.3,0.6,0.5,0.8,1
		c0,0.1,0.1,0.1,0.1,0.1c0,0.1,0.1,0.2,0.1,0.4c0,0,0-0.1,0.1-0.1c0.1,0.4,0.3,0.7,0.4,1c0.1,0.7,0.1,1.5,0.1,2.2
		C63.3,13,63.2,12.2,63.1,11.3z M63.7,2.4C63.7,2.5,63.7,2.5,63.7,2.4C63.7,2.5,63.7,2.5,63.7,2.4C63.7,2.5,63.7,2.5,63.7,2.4z
		 M63,3.9c0.1-0.4,0.1-0.8,0.1-1.2c0-0.3,0-0.6-0.1-1C63.1,1.9,63.4,2,63.6,2c-0.1,0.1-0.1,0.4-0.1,0.5l0.1,0.1
		c-0.1,0.1-0.1,0.4-0.1,0.5c-0.1,0.4-0.2,0.7-0.3,1.1c-0.1,0.1-0.1,0.3-0.1,0.4c0.1-0.5,0.1-1,0.1-1.4C63.1,3.8,63,4.3,63,4.8
		c0,0,0.1,0.1,0.1,0c0,0.1-0.1,0.4-0.1,0.5v0.1c0-0.2,0-0.4-0.1-0.7C63,4.5,63,4.2,63,3.9z M61.3,1.7c-0.1,0.1-0.1,0.1-0.1,0.1
		C61.2,1.7,61.2,1.7,61.3,1.7z M61.1,1.9c0,0.1,0,0.1-0.1,0.1C61.1,2,61.1,1.9,61.1,1.9z M62.6,0.8C62.7,0.8,62.7,0.8,62.6,0.8z
		 M62.6,0.6C62.7,0.6,62.7,0.6,62.6,0.6c0.1-0.1,0.1-0.1,0.1-0.1c0.1,0,0.1,0.1,0.1,0.1c-0.1,0-0.1,0-0.1,0
		C62.7,0.6,62.6,0.6,62.6,0.6C62.6,0.6,62.6,0.6,62.6,0.6z M61.9,0.5c0-0.1,0.1-0.3,0.3-0.3c0.1,0,0.3,0.1,0.3,0.2
		c0,0.1-0.1,0.1-0.1,0.1c0,0.1,0,0.1,0.1,0.1c0.1-0.1,0.1-0.1,0.1-0.1v0.1l-0.1-0.1c-0.1,0-0.1,0-0.1,0h-0.1c0,0.1,0.1,0.1,0.1,0.1
		c-0.1,0.1-0.1,0.1-0.1,0.1s-0.1,0-0.1,0.1c0,0,0-0.1-0.1-0.1c0,0,0.1,0,0-0.1C62,0.7,61.9,0.6,61.9,0.5z M61.9,2.3
		C62,2.3,62,2.3,61.9,2.3z M61.7,2.3c0,0,0.1,0.1,0.1,0.1c-0.1,0-0.1,0.1-0.1,0.1C61.7,2.4,61.7,2.4,61.7,2.3z M61.9,2.4
		c0,0.1,0,0.1,0,0.2h-0.1C61.8,2.6,61.8,2.6,61.9,2.4z M61.7,2.6C61.7,2.6,61.7,2.6,61.7,2.6C61.7,2.6,61.7,2.6,61.7,2.6
		C61.6,2.5,61.6,2.6,61.7,2.6C61.7,2.5,61.7,2.5,61.7,2.6z M61.6,2.3c0,0.1,0,0.1,0,0.1C61.5,2.4,61.5,2.4,61.6,2.3z M61.1,2.6
		c0,0.1,0,0.1,0,0.1c0,0,0,0,0,0.1c0,0,0,0-0.1-0.1c0-0.1-0.1,0-0.1,0s0,0-0.1-0.1C61.1,2.7,61.1,2.7,61.1,2.6z M61.1,3
		C61.1,3,61.1,3,61.1,3L61.1,3z M61.1,2.8C61.1,2.9,61.1,2.9,61.1,2.8C61,2.8,61,2.8,61.1,2.8C61,2.8,61,2.8,61.1,2.8z M60.9,3.1
		C60.9,3.1,60.9,3.1,60.9,3.1z M60.5,2.9C60.5,2.8,60.5,2.8,60.5,2.9c0.1,0,0.1,0,0.1,0C60.5,2.9,60.5,2.9,60.5,2.9z M60.5,2.8
		C60.6,2.8,60.6,2.8,60.5,2.8c0.1,0.1,0.2,0.1,0.4,0.2C60.8,3,60.7,2.9,60.5,2.8z M60.3,4.4c0-0.1,0-0.1,0-0.1
		c0,0.1,0.1,0.1,0.1,0.3C60.3,4.5,60.3,4.4,60.3,4.4z M60.7,4.8C60.6,4.7,60.6,4.7,60.7,4.8c-0.1-0.1-0.1-0.1-0.1-0.1
		c-0.1-0.1-0.1-0.2-0.1-0.4h0.1c0,0,0,0-0.1-0.1c0.1,0,0-0.1,0-0.1h-0.1c0,0.1,0,0.1,0,0.1C60.2,4,60.2,4,60.2,4
		c0-0.1-0.1-0.1-0.1-0.1c0.1,0,0.2,0,0.3,0C60.5,4.2,60.5,4.5,60.7,4.8c0-0.3-0.1-0.5-0.1-0.8h0.1c0.1,0.1,0.1,0.1,0.2,0.3
		C61,4.4,60.9,4.8,60.7,4.8z M60.9,4.8c0.1,0,0.3,0.1,0.3,0.1s0,0,0.1,0C61.3,5,61.4,5,61.4,5C61.2,5,61.1,4.9,60.9,4.8z M61,4.8
		C61,4.8,61,4.7,61,4.8c0.1-0.1,0.1,0,0.2,0l0.1,0.1C61.1,4.8,61.1,4.8,61,4.8z M61.4,5.2L61.4,5.2c0.2,0.1,0.3,0.2,0.4,0.3
		C61.6,5.3,61.5,5.2,61.4,5.2z M62.7,6.6c-0.2-0.4-0.4-0.7-0.7-1c-0.1-0.1-0.3-0.3-0.4-0.4C61.5,5,61.4,5,61.3,4.9
		c0-0.1-0.2-0.2-0.2-0.3c0.1-0.2-0.1-0.6-0.4-0.7h0.1c0.1-0.1,0.4-0.3,0.3-0.5c0-0.1,0-0.1-0.1-0.1c0.1,0,0.1,0,0.1,0
		s0.1,0.1,0.1,0.1c0.1,0.2,0.2,0.4,0.4,0.7c0.1,0.3,0.3,0.5,0.4,0.8c0.3,0.4,0.4,1,0.6,1.6C62.7,6.5,62.7,6.5,62.7,6.6z M62.7,6.1
		c-0.1-0.4-0.2-0.8-0.4-1.3c-0.1-0.3-0.4-0.6-0.5-0.8c0-0.1-0.1-0.3-0.2-0.4c0,0,0,0,0-0.1c0-0.1-0.1-0.1-0.1-0.1
		c-0.1-0.1-0.1-0.1-0.1-0.2c0,0,0,0-0.1,0l-0.1-0.1L61.2,3c0.3,0.3,0.5,0.7,0.7,1c0.3,0.5,0.6,1.1,0.7,1.7C62.7,5.8,62.7,6,62.7,6.1
		z M62.7,5.5C62.5,5,62.3,4.4,62,4c-0.2-0.4-0.4-0.7-0.7-1c0.1-0.1,0.1-0.1,0.1-0.1c-0.1,0-0.1-0.1-0.2-0.1c0.1-0.1,0.1-0.1,0.2-0.1
		c0.1-0.1,0.1-0.1,0.1-0.1c0.1,0.2,0.3,0.4,0.5,0.4c0,0,0.1,0,0.1-0.1c0.1,0.2,0.1,0.4,0.3,0.6c0,0.1,0,0.1,0.1,0.1
		c0.1,0.4,0.1,1,0.2,1.3c0.1,0.2,0.1,0.4,0.1,0.6C62.7,5.5,62.7,5.5,62.7,5.5z M62.6,4.4c-0.1-0.6-0.3-1.2-0.5-1.7
		c0.2,0.3,0.4,0.7,0.5,1C62.7,4,62.7,4.3,62.6,4.4C62.7,4.4,62.7,4.4,62.6,4.4z M62.9,6c0,0.1-0.1,0.3-0.1,0.5c0-0.1,0-0.1,0-0.1
		C62.8,6.2,62.8,6.1,62.9,6c0-0.1-0.1-0.1-0.1-0.2c0-0.1,0-0.3,0-0.4c0-0.1,0-0.2,0-0.3C62.9,5.3,62.9,5.6,62.9,6z M62.3,9.4
		c0-0.1,0-0.1,0-0.1c0.1,0.1,0.1,0.4,0.1,0.5C62.5,9.7,62.4,9.6,62.3,9.4z"/>
	<path class="st1" d="M60.6,4.6C60.6,4.7,60.6,4.7,60.6,4.6z"/>
	<path class="st1" d="M58.3,9.9c-0.1-0.3-0.4-0.6-0.6-0.7c0.1,0.1,0.2,0.2,0.3,0.3c0.1,0.1,0.1,0.2,0.2,0.3c-0.1,0-0.1-0.1-0.1-0.1
		C58,9.6,58,9.5,57.9,9.3c-0.1-0.1-0.1-0.1-0.2-0.3c0,0-0.1,0-0.1,0.1c0.1,0.1,0.1,0.1,0.2,0.3c0,0,0,0-0.1-0.1
		c-0.1-0.1-0.1-0.1-0.1-0.1c0.1,0.1,0.1,0.1,0.1,0.2c0.3,0.3,0.5,0.6,0.9,0.8l-0.1-0.1c0.1,0,0.1,0.1,0.1,0.1
		C58.5,10.1,58.4,10.1,58.3,9.9z"/>
	<path class="st1" d="M59.6,3.7c0,0.1-0.1,0.3-0.1,0.4C59.5,4,59.5,3.8,59.6,3.7z"/>
	<path class="st1" d="M60.8,4.6c0-0.1,0-0.2-0.1-0.3h-0.1c0,0.1,0,0.1,0,0.1c0-0.1-0.1-0.2-0.1-0.4C60.6,4.2,60.7,4.4,60.8,4.6z"/>
	<path class="st1" d="M62.7,15.3c0,0.1,0,0.2,0,0.3c0,0,0.1,0.1,0.1,0c0.1-0.3,0.1-0.7,0.1-0.9c-0.1-0.3-0.1-0.7-0.2-0.9
		c-0.1-0.1-0.1-0.1-0.1-0.3c0,0,0,0,0-0.1s0-0.1,0-0.1c0,0,0,0.1,0.1,0.1c0.2,0.4,0.3,0.8,0.4,1.3c0-0.4-0.1-0.9-0.4-1.3
		c-0.1-0.3-0.3-0.6-0.5-0.9v-0.1c0.1,0.2,0.3,0.4,0.5,0.7c0.1,0.3,0.4,0.6,0.4,0.9c0.1,0.4,0.1,0.8-0.1,1.3c0,0.1,0.1,0.1,0.1,0
		c0.1-0.2,0.1-0.4,0.1-0.7c0-0.1,0-0.1,0-0.2c-0.1-0.4-0.1-0.7-0.4-1c-0.3-0.3-0.6-0.6-0.8-0.9c-0.1-0.1-0.1-0.2-0.2-0.3
		c-0.1-0.1-0.1-0.3-0.3-0.4c-0.1-1-0.5-2.2-1.4-2.7h-0.1c0.1,0.1,0.2,0.2,0.4,0.3c0.1,0.1,0.1,0.1,0.1,0.2c0.1,0.1,0.1,0.1,0.1,0.2
		h0.1V9.7c0.1,0.2,0.3,0.4,0.4,0.7c0.1,0.1,0.1,0.4,0.1,0.5c-0.1-0.2-0.2-0.5-0.4-0.7c0-0.1-0.1-0.1-0.1-0.1s-0.1-0.1-0.1-0.1
		c-0.1-0.2-0.2-0.4-0.4-0.6c-0.1,0-0.2-0.1-0.2-0.1c0,0.1,0,0.1,0,0.2c-0.1-0.3-0.4-0.5-0.6-0.7c-0.1-0.1-0.1,0-0.1,0.1v0.1
		c-0.4-0.3-0.7-0.6-1.1-0.9C58.2,7.8,58.2,8,58.2,8c0.3,0.2,0.5,0.4,0.7,0.6c0.3,0.4,0.6,0.7,0.8,1.1h0.1c0.1,0.3,0.3,0.6,0.4,0.9
		c0.1,0.3,0.1,0.5,0.2,0.8l-0.1-0.1c0-0.3-0.1-0.5-0.2-0.8c-0.1-0.3-0.1-0.5-0.3-0.7h-0.1c-0.1-0.1-0.1-0.1-0.1-0.2
		c0-0.1-0.1-0.1-0.1,0l-0.1-0.1c-0.3-0.4-0.6-0.7-1-1.1v0.1C58.8,8.7,59,9,59.2,9.3c0.1,0.3,0.2,0.6,0.3,0.9
		c0.1,0.3,0.2,0.6,0.3,0.8c0-0.3-0.1-0.6-0.3-0.9c-0.1-0.3-0.2-0.5-0.3-0.8c0.1,0.1,0.1,0.1,0.2,0.3c0.1,0.1,0.1,0.2,0.2,0.3
		c0.1,0.1,0.1,0.4,0.1,0.5c0.1,0.2,0.1,0.5,0.2,0.7h0.1c0,0.1,0.1,0,0.1,0c0-0.1-0.1-0.3-0.1-0.4c0.1,0.2,0.1,0.4,0.2,0.7
		c0,0,0,0-0.1,0c-0.2-0.1-0.4-0.3-0.7-0.4h0.1c0-0.3-0.1-0.6-0.3-0.9c-0.1-0.3-0.3-0.6-0.5-0.9h-0.1c0.1,0.3,0.3,0.5,0.4,0.7
		c-0.3-0.5-0.8-1-1.3-1.3c0.3,0.4,0.7,0.7,1,1c0.3,0.4,0.5,0.8,0.7,1.3c0,0,0,0,0,0.1c0,0,0,0-0.1,0c0,0,0,0,0.1,0c0,0,0,0,0,0.1
		c-0.1,0-0.1-0.1-0.1-0.1c-0.7-0.2-1.3-0.6-1.8-1.1c0-0.1-0.1-0.1-0.1-0.1h-0.1c-0.1-0.1-0.3-0.4-0.3-0.6c0,0,0,0,0,0.1
		c0.1,0.3,0.3,0.7,0.5,0.9c0.1,0.1,0.1,0.3,0.1,0.4c0.1,0.2,0.3,0.4,0.4,0.5c0.2,0.3,0.5,0.4,0.8,0.6c-0.1,0-0.1,0.1,0,0.1
		s0.1,0.1,0.2,0.1c0.1,0,0.1,0,0.1-0.1c0.1,0,0.1,0,0.1,0l-0.1-0.1c0,0-0.1,0-0.1-0.1c0,0,0.1,0,0.1,0.1c0.1,0,0.2,0.1,0.3,0.1
		c0.1,0.1,0.4,0.1,0.6,0.1c0.1-0.1,0.2,0,0.3,0c-0.1,0-0.1,0-0.2,0c0.1,0.1,0.3,0.1,0.5,0.1c0.1,0.1,0.1,0.1,0.1,0.1
		c-0.1-0.1-0.3-0.1-0.4-0.1c-0.4-0.1-0.7-0.1-1.1,0v0.1c0.2,0,0.5,0,0.7,0c0.2,0,0.5,0.1,0.7,0.1c-0.1,0-0.1,0-0.1,0
		c-0.2-0.1-0.4-0.1-0.6-0.1c-0.1,0-0.1,0-0.1-0.1c-0.1,0-0.2,0-0.4-0.1c-0.1,0-0.5-0.1-0.7-0.2c0,0,0,0,0,0.1
		c-0.2,0.5,1.1,0.5,1.3,0.5c0.1,0,0.1,0,0.3,0.1c0.1,0.1,0.2,0.1,0.3,0.1c0.1-0.1,0.4-0.1,0.7,0.1c0.1,0.1,0.1,0.2,0.3,0.3
		c0.1,0.1,0.1,0.2,0.1,0.3H62c0-0.1,0-0.1,0-0.1L62,13c0.1,0.3,0.3,0.5,0.4,0.9c0.1,0.3,0.1,0.6,0.2,0.9
		C62.7,14.9,62.7,15.1,62.7,15.3c-0.1,0.7-0.6,1.2-1.2,1.6c-0.1,0,0,0.1,0.1,0.1C62.1,16.5,62.5,16,62.7,15.3z M61.1,10.8
		c0.1,0.1,0.1,0.3,0.1,0.4v0.1c0,0.1,0,0.2,0.1,0.3c0-0.1-0.1-0.1-0.1-0.1c0-0.1,0-0.2-0.1-0.3C61.2,11.1,61.2,11,61.1,10.8
		c0-0.1-0.1-0.2-0.1-0.3c0,0.1,0.1,0.1,0.1,0.1C61.1,10.7,61.1,10.7,61.1,10.8z M60.6,9.8c0,0.1,0.1,0.1,0.1,0.1
		c0.1,0.1,0.1,0.1,0.1,0.2c0.1,0.3,0.1,0.5,0.3,0.7c0,0.1,0,0.1,0,0.2c-0.1-0.5-0.4-1.1-0.7-1.6C60.5,9.6,60.5,9.7,60.6,9.8z
		 M61.1,11.6L61.1,11.6c0.1,0,0.1,0,0.1,0.1h0.1v0.1C61.3,11.8,61.2,11.7,61.1,11.6z M61.4,11.8C61.4,11.9,61.4,11.9,61.4,11.8z
		 M60.3,9.3c0.1,0.1,0.1,0.1,0.1,0.1h-0.1C60.3,9.3,60.3,9.3,60.3,9.3z M59.9,9.2c0.1,0.2,0.3,0.4,0.4,0.7c0,0.1,0.1,0.1,0.1,0.1
		c0-0.1-0.1-0.1-0.1-0.1c-0.2-0.4-0.5-0.8-0.8-1.2V8.7C59.7,8.8,59.8,9,59.9,9.2z M60.1,11.4c-0.1,0-0.1,0-0.1,0
		c0-0.1-0.1-0.1-0.1-0.1C59.9,11.3,60,11.3,60.1,11.4C60.1,11.3,60.1,11.3,60.1,11.4z M59.7,11.1c-0.2-0.1-0.5-0.2-0.7-0.3
		c-0.2-0.1-0.4-0.2-0.6-0.4c0.5,0.3,1,0.6,1.6,0.8C59.9,11.2,59.7,11.2,59.7,11.1z M59.4,11.3c-0.1,0.1-0.1,0.1-0.2,0
		c0.1,0,0.1-0.1,0.1-0.1c0.1,0.1,0.3,0.1,0.5,0.1c-0.2-0.1-0.4-0.1-0.7-0.1c-0.4-0.2-0.7-0.4-0.9-0.7c-0.1-0.1-0.3-0.3-0.4-0.5
		c0-0.1-0.1-0.1-0.1-0.1c0.1,0.1,0.4,0.3,0.6,0.4c0.1,0.1,0.2,0.2,0.4,0.3c-0.1-0.1-0.2-0.1-0.4-0.1c0,0-0.1,0,0,0.1
		c0.3,0.1,0.5,0.3,0.7,0.4c-0.1-0.1-0.3-0.1-0.5-0.1c0,0-0.1,0,0,0.1c0.4,0.1,0.7,0.3,1.1,0.4C59.6,11.3,59.5,11.3,59.4,11.3z
		 M59.9,11.6c-0.1-0.1-0.3-0.1-0.4-0.1C59.7,11.5,59.8,11.5,59.9,11.6c0.2,0,0.4,0,0.5,0c0.1,0,0.1,0.1,0.1,0.1
		C60.3,11.6,60.1,11.6,59.9,11.6z M60.5,11.4c-0.1-0.5-0.3-1.1-0.5-1.6c0,0.1,0.1,0.1,0.1,0.1c0.1,0.3,0.3,0.6,0.4,0.9
		c0.1,0.2,0.1,0.5,0.2,0.7C60.5,11.5,60.5,11.5,60.5,11.4z M60.6,11.7c0.1,0,0.1,0.1,0.2,0.1C60.8,11.7,60.7,11.7,60.6,11.7z
		 M60.5,11.8c0.3,0.1,0.5,0.1,0.7,0.3C61,11.9,60.8,11.9,60.5,11.8z M61.8,12.2c0.1,0.1,0.1,0.1,0.1,0.3c0-0.1,0-0.1-0.1-0.1
		c0-0.1-0.1-0.1-0.1-0.3C61.7,12.2,61.7,12.2,61.8,12.2z M61.9,12.8c0,0-0.1-0.1-0.1-0.2c0.1,0.1,0.2,0.2,0.3,0.4
		C62,12.9,62,12.8,61.9,12.8z"/>
	<path class="st1" d="M59.1,11.6c0.1,0,0.1,0,0.2,0c0,0-0.1,0-0.1-0.1L59.1,11.6z"/>
	<path class="st1" d="M61.3,11.2c0,0.1,0.1,0.1,0.1,0.2C61.3,11.3,61.3,11.3,61.3,11.2c0-0.1-0.1-0.2-0.1-0.4
		C61.2,11,61.2,11.1,61.3,11.2z"/>
	<path class="st1" d="M58,9.2c0.2,0.2,0.4,0.4,0.5,0.7c0.1,0.1,0.2,0.4,0.3,0.5c0,0,0,0,0.1,0.1c-0.1-0.2-0.2-0.4-0.4-0.7
		C58.4,9.6,58.2,9.3,58,9.2z"/>
	<path class="st1" d="M57.6,9.1c0.1,0,0.1,0,0.1,0c0.1,0,0.1,0,0.2,0c-0.1-0.2-0.2-0.5-0.3-0.7c0,0-0.1,0-0.1-0.1
		c0.1,0.2,0.2,0.5,0.3,0.7c0.1,0,0,0.1,0,0.1c-0.1,0-0.3,0-0.4,0C57.6,9.1,57.6,9.1,57.6,9.1z"/>
	<path class="st1" d="M58.5,8.4C58.5,8.4,58.5,8.4,58.5,8.4c-0.1,0-0.1,0.1-0.1,0.2l0.1,0.1C58.5,8.6,58.5,8.5,58.5,8.4z"/>
	<path class="st1" d="M58.5,8.7C58.5,8.7,58.5,8.7,58.5,8.7c-0.2-0.2-0.5-0.4-0.7-0.5c-0.1,0-0.1,0-0.1,0.1c0,0,0,0,0,0.1
		C57.9,8.4,58.2,8.6,58.5,8.7z"/>
	<path class="st1" d="M67.2,14.9c-0.4-0.2-0.7-0.4-1-0.7C66.4,14.5,66.7,14.8,67.2,14.9z"/>
	<path class="st1" d="M65.7,13.9c0.3,0.3,0.6,0.5,0.9,0.7c0.1,0.1,0.4,0.3,0.6,0.1c-0.3,0-0.5-0.2-0.8-0.4
		C66.1,14.3,65.8,14.2,65.7,13.9z"/>
	<path class="st1" d="M66.8,14.4c-0.2-0.1-0.4-0.3-0.7-0.4C66.4,14.2,66.7,14.3,66.8,14.4c0.4,0.1,0.6,0.4,0.9,0.4v-0.1
		c-0.1-0.1-0.1-0.1-0.3-0.1c0.1,0,0.1,0,0.2,0c0,0,0,0,0-0.1c-0.2-0.1-0.4-0.1-0.6-0.1c-0.3,0-0.4-0.1-0.6-0.3
		C66.6,14.2,66.7,14.3,66.8,14.4z"/>
	<path class="st1" d="M68.8,14.3c-0.3-0.1-0.7-0.1-1-0.3c0,0-0.1,0,0,0.1c0.1,0.1,0.1,0.1,0.2,0.1c-0.3-0.1-0.7-0.2-0.7-0.3
		s-0.1-0.1-0.1,0s0.1,0.1,0.2,0.2c0.1,0,0.1,0.1,0.1,0.1c-0.1-0.1-0.2-0.1-0.3-0.1c-0.1-0.1-0.3-0.1-0.4-0.3c0,0-0.1,0,0,0.1
		c0,0,0,0,0.1,0.1c-0.1,0-0.1,0.1-0.1,0.1c0.1,0.1,0.3,0.1,0.4,0.2c0.1,0.1,0.3,0.1,0.4,0.1c0.3,0.1,0.5,0.1,0.8,0.1
		C68.8,14.5,68.8,14.4,68.8,14.3c-0.1,0.1-0.1,0.1-0.1,0.1L68.8,14.3c0.1,0.1,0.4,0.1,0.5,0.1v-0.1c-0.1-0.1-0.2-0.1-0.4-0.1
		C68.9,14.3,68.8,14.3,68.8,14.3z"/>
	<path class="st1" d="M67.8,12.9c-0.3-0.1-0.5,0.1-0.7,0.1c-0.2,0.1-0.4,0.3-0.7,0.4c0.3-0.1,0.5-0.2,0.8-0.3
		C67.3,13.1,67.6,13.1,67.8,12.9z"/>
	<path class="st1" d="M67.8,13.6c0.1,0,0.3-0.1,0.5-0.1c0.1,0,0.3,0,0.4,0C68.4,13.3,68.1,13.5,67.8,13.6z"/>
	<path class="st1" d="M68.7,14.2c0.2,0.1,0.4,0.1,0.6,0.1c0,0,0,0,0-0.1c-0.4-0.1-0.9-0.1-1.3-0.3C68.2,14.1,68.5,14.1,68.7,14.2z"
		/>
	<path class="st1" d="M62,9.3c-0.1-0.1-0.1-0.1-0.1-0.1c-0.1-0.4-0.3-0.7-0.5-1C61.5,8.6,61.7,9,62,9.3z"/>
	<path class="st1" d="M61.3,8.1L61.3,8.1C61.4,8.1,61.4,8.1,61.3,8.1z"/>
	<path class="st1" d="M60.9,7.5c0.1,0.1,0.2,0.4,0.4,0.6h0.1c-0.2-0.4-0.6-0.8-0.9-1.2C60.6,7.2,60.8,7.4,60.9,7.5z"/>
	<path class="st1" d="M65.8,10.7c-0.3,0.1-0.5,0.1-0.9,0.2C64.6,11,64.3,11,64,11c-0.1,0-0.1,0.1,0,0.1c0.3,0,0.7,0,1-0.1
		C65.3,11,65.6,11,65.8,10.7z"/>
	<path class="st1" d="M65.5,10.8c0.2,0,0.4,0,0.4-0.2c-0.1,0.3-0.5,0.1-0.7,0.1c-0.3,0-0.6,0-0.9,0c-0.1,0-0.1,0.1,0,0.1
		C64.6,10.8,65.1,10.8,65.5,10.8z"/>
	<path class="st1" d="M65.8,10.5c-0.2-0.1-0.5,0-0.7,0c-0.2,0.1-0.5,0.1-0.7,0.1c-0.1,0-0.1,0.1,0,0.1
		C64.9,10.7,65.4,10.7,65.8,10.5z"/>
	<path class="st1" d="M66,10.2c-0.3,0.1-0.5,0.1-0.7,0.1c-0.3,0.1-0.6,0.1-0.9,0c-0.1,0-0.1,0.1,0,0.1C64.9,10.5,65.6,10.5,66,10.2z
		"/>
	<path class="st1" d="M65.8,10.1c0.2,0,0.4-0.1,0.5-0.2c-0.2,0.1-0.5,0.1-0.7,0.2c-0.3,0-0.6,0-0.9,0.1c-0.1,0-0.1,0.1,0,0.1
		C65,10.1,65.4,10.1,65.8,10.1z"/>
	<path class="st1" d="M65.9,9.9c0.2-0.1,0.6-0.1,0.6-0.3c0,0-0.1-0.1-0.1,0c-0.1,0.3-0.6,0.3-0.8,0.3C65.3,10,64.9,10,64.7,10
		c-0.1,0-0.1,0.1,0,0.1C65.1,10,65.5,9.9,65.9,9.9z"/>
	<path class="st1" d="M66.6,8.7c-0.1,0-0.1,0.1-0.2,0.1C66.4,8.7,66.5,8.7,66.6,8.7c-0.2-0.1-0.4,0-0.6,0.1C65.8,9,65.6,9,65.4,9
		c-0.1,0-0.1,0.1,0,0.1c0.1,0,0.1,0,0.1,0c-0.1,0.1-0.3,0.1-0.4,0.1c0,0.1,0,0.1,0.1,0.1c0.1,0,0.1,0,0.1-0.1
		c0.4,0.1,0.8,0.1,1.1-0.2c0,0,0-0.1-0.1-0.1c-0.3,0.1-0.6,0.3-1,0.2c0.1-0.1,0.3-0.1,0.5-0.1C66.1,9,66.4,9,66.6,8.7z"/>
	<path class="st1" d="M66.4,8.2c-0.1,0.1-0.3,0.1-0.5,0.1c-0.1,0-0.1,0.1,0,0.1C66.1,8.4,66.3,8.4,66.4,8.2c0.2,0,0.4-0.1,0.4-0.3
		C66.7,8,66.7,8.1,66.4,8.2z"/>
	<path class="st1" d="M67,7.5c-0.1,0.1-0.1,0.3-0.3,0.4c-0.1,0.1-0.3,0.2-0.5,0.2c-0.1,0-0.1,0.1,0,0.1C66.6,8.1,67,7.9,67,7.5z"/>
	<path class="st1" d="M66.1,10.7c0.1-0.1,0.2-0.1,0.3-0.1v-0.1C66.2,10.5,66.1,10.6,66.1,10.7z"/>
	<path class="st1" d="M66.1,10.4c0.1,0.1,0.1,0,0.2,0s0.1-0.1,0.1-0.1v-0.1c-0.1,0.1-0.1,0.1-0.1,0.1C66.3,10.4,66.1,10.4,66.1,10.4
		z"/>
	<path class="st1" d="M66.2,10.1c0.1-0.1,0.3-0.1,0.4-0.2V9.8C66.4,9.9,66.3,10.1,66.2,10.1C66.1,10.1,66.1,10.1,66.2,10.1z"/>
	<path class="st1" d="M66.4,9.9c0.1-0.1,0.3-0.1,0.3-0.3C66.7,9.8,66.5,9.8,66.4,9.9C66.4,9.9,66.4,9.8,66.4,9.9z"/>
	<path class="st1" d="M66.7,9.3c-0.1,0.1-0.1,0.1-0.1,0.1c0,0.1,0.1,0.1,0.1,0.1S66.7,9.5,66.7,9.3c0.1-0.1,0.1-0.1,0.1-0.1
		C66.7,9.3,66.7,9.3,66.7,9.3z"/>
	<path class="st1" d="M66.8,8.9C66.7,9,66.7,9,66.5,9.1c-0.1,0,0,0.1,0.1,0.1C66.7,9.1,66.8,9,66.8,8.9z"/>
	<path class="st1" d="M66.3,9.5c-0.4,0.1-0.7,0.3-1.1,0.4C65.5,9.8,65.9,9.8,66.3,9.5z"/>
	<path class="st1" d="M63.5,10.1c-0.1,0.2,0,0.4,0,0.6c0.1,0.2,0.1,0.4,0.1,0.7h0.1c0-0.2-0.1-0.4-0.1-0.6
		C63.6,10.5,63.5,10.3,63.5,10.1z"/>
	<path class="st1" d="M63.7,9.9c-0.1,0.4,0,0.8,0.1,1.1c0,0.1,0.1,0,0.1,0c-0.1-0.2-0.1-0.4-0.1-0.7C63.7,10.2,63.7,10.1,63.7,9.9z"
		/>
	<path class="st1" d="M63.8,10.7C63.9,10.8,63.8,10.8,63.8,10.7c0.1-0.4,0.1-0.8,0-1.2C63.7,9.9,63.7,10.4,63.8,10.7z"/>
	<path class="st1" d="M63.9,9.6c0,0.1,0,0.3,0,0.5c0,0.1,0.1,0.1,0.1,0C64,10,64,9.8,63.9,9.6c0-0.1,0.1-0.3,0-0.4
		C63.9,9.3,63.9,9.5,63.9,9.6z"/>
	<path class="st1" d="M64,9.8C64,9.8,64.1,9.8,64,9.8c0.1-0.3,0.1-0.6,0-0.9C64,9.1,64.1,9.4,64,9.8z"/>
	<path class="st1" d="M64.3,9.6C64.3,9.7,64.3,9.7,64.3,9.6c0.1-0.3,0.1-0.7,0-1C64.3,9,64.3,9.3,64.3,9.6z"/>
	<path class="st1" d="M64.3,9c0,0.2,0,0.4,0,0.6c0,0,0.1,0.1,0.1,0c0-0.1,0.1-0.4,0.1-0.6c-0.1-0.1,0-0.3-0.1-0.5
		C64.3,8.6,64.3,8.7,64.3,9z"/>
	<path class="st1" d="M64.5,8.8c0,0.2,0,0.4,0,0.5c0,0.1,0.1,0.1,0.1,0c0.1-0.3,0.1-0.7-0.1-1.1C64.5,8.4,64.5,8.7,64.5,8.8z"/>
	<path class="st1" d="M64.7,8.7c0,0.1,0,0.3,0,0.4c0,0.1,0.1,0.1,0.1,0C64.7,9,64.7,8.9,64.7,8.7c0.1-0.1,0.1-0.3,0-0.4
		C64.6,8.4,64.7,8.6,64.7,8.7z"/>
	<path class="st1" d="M65.2,8.3c0.1,0,0.1-0.1,0.1-0.1C65.3,8.1,65.3,8.2,65.2,8.3z"/>
	<path class="st1" d="M66.4,7.4c0.1-0.2,0.1-0.4,0.2-0.6c0,0-0.1-0.1-0.1,0C66.5,6.9,66.4,7.2,66.4,7.4z"/>
	<path class="st1" d="M66.5,7.2C66.6,7.4,66.4,7.3,66.5,7.2c0.1-0.1,0.1-0.2,0.2-0.3c0.1-0.1,0.1-0.3,0.1-0.4c0,0-0.1-0.1-0.1,0
		c-0.1,0.1-0.1,0.2-0.1,0.3C66.7,6.9,66.6,7.1,66.5,7.2z"/>
	<path class="st1" d="M63.2,6L63.2,6c0,0,0-0.1,0.1-0.1C63.3,5.9,63.3,5.9,63.2,6z"/>
	<path class="st1" d="M63.3,11.3c-0.1-0.1-0.1-0.2-0.1-0.3c0.1,0.4,0.1,0.7,0.1,1c0,0,0,0,0-0.1c0-0.1-0.1-0.4-0.1-0.5
		C63.3,11.3,63.3,11.3,63.3,11.3z"/>
	<path class="st1" d="M63.3,5.8c0-0.1,0.1-0.1,0.1-0.2c0,0,0,0.1-0.1,0.1C63.3,5.7,63.3,5.8,63.3,5.8z"/>
	<path class="st1" d="M63.2,9.3c0,0.2,0,0.4,0,0.7c0,0.1,0,0.1,0,0.2l0.1-0.1c0-0.2,0-0.4-0.1-0.7C63.2,9.4,63.2,9.3,63.2,9.3z"/>
	<path class="st1" d="M63.2,6.5c0-0.1,0.1-0.2,0.1-0.4c0,0.1-0.1,0.1-0.1,0.2C63.2,6.4,63.2,6.5,63.2,6.5c-0.1,0.3-0.1,0.4-0.1,0.7
		H63c0,0.1,0,0.1,0,0.3h0.1V7.4C63.1,7.1,63.1,6.8,63.2,6.5z"/>
	<path class="st1" d="M63.2,6.3c0-0.1,0.1-0.3,0.1-0.4s0-0.1,0.1-0.2c0,0.1-0.1,0.1-0.1,0.1c0-0.1,0-0.1,0-0.3c0,0.1,0,0.1-0.1,0.1
		v0.1c-0.1,0.4-0.1,0.6-0.1,0.9c0,0,0.1,0.1,0.1,0V6.6C63.1,6.6,63.1,6.5,63.2,6.3C63.2,6.4,63.2,6.4,63.2,6.3z"/>
	<path class="st1" d="M63.5,12.3c0.2-0.5,0.9-0.4,1.3-0.4c0.4-0.1,0.7-0.2,1-0.5v-0.1c-0.1,0-0.1-0.1-0.1-0.1
		c0.3-0.2,0.9-0.2,0.9-0.6c0-0.1-0.1-0.2,0-0.3c0.1-0.1,0.1-0.2,0.3-0.3c0.1-0.1,0.2-0.4,0.3-0.5c0.1-0.2-0.1-0.4-0.1-0.7
		c0-0.3,0.1-0.5,0.1-0.7c0-0.2,0-0.5,0.1-0.7c0-0.1,0-0.1,0.1-0.3c0,0.1,0,0.1,0,0.1s0.1,0.1,0.1,0c0.1-0.1,0.1-0.3,0.1-0.5
		c0-0.1,0.1-0.1,0.1-0.1c0.1-0.3,0.1-0.5,0.1-0.8c0-0.1-0.1-0.1-0.1,0c-0.1,0.1-0.1,0.1-0.1,0.1c0,0.1-0.1,0.2-0.1,0.4
		c0-0.1,0-0.1,0-0.1h-0.1c0-0.1,0-0.1,0-0.1s-0.1,0.1-0.1,0.1L67,6.3c-0.1,0.1-0.1,0.3-0.2,0.4c-0.1,0.1-0.1,0.3-0.1,0.5
		c0,0.1,0.1,0.1,0.1,0c0.1-0.1,0.1-0.2,0.1-0.4c0,0,0.1,0.1,0.1,0c-0.1,0.3-0.3,0.6-0.6,0.9C66,8.1,65.5,8.5,65.1,9
		c-0.7,0.7-1.3,1.7-1.4,2.8c-0.1,0.1-0.1,0.2-0.1,0.3c0-0.1,0.1-0.3,0.1-0.4c0,0,0,0,0-0.1c0,0,0-0.1-0.1,0c0,0,0-0.1-0.1-0.1
		c0-0.1,0-0.1,0-0.1c-0.1-0.2-0.1-0.4-0.1-0.7c0-0.1,0-0.1,0-0.1c0-0.1,0-0.2-0.1-0.3c0-0.1,0.1-0.1,0.1-0.3
		c0.1-0.1,0.1-0.3,0.2-0.4c0.1-0.1,0-0.3,0.1-0.5c0.1-0.2,0.1-0.3,0.4-0.5C64,8.4,64,8.4,64.1,8.2c0-0.2,0.1-0.4,0.2-0.4
		c0.1,0.1,0.2,0.1,0.4,0.2c0,0.1,0.1,0.3,0.1,0.4c0,0.1,0,0.3,0,0.5c0,0.1,0.1,0.1,0.1,0c0.1-0.3,0.1-0.7-0.1-0.9c0.1,0,0.1,0,0.1,0
		c0,0.1,0,0.3,0.1,0.5H65c0-0.1,0-0.3-0.1-0.5c0.1,0,0.1,0,0.1,0c0,0.1,0,0.3,0,0.4c0,0,0,0,0.1,0c0.1-0.1,0-0.3,0-0.4
		c0.1,0,0.1-0.1,0.1-0.1C65.2,8,65.1,8,65,8c-0.1,0-0.1,0-0.2-0.1c-0.3-0.2-0.3-0.5-0.4-0.8c0-0.1,0.1-0.2,0.2-0.3
		c0.1,0,0.1,0.1,0.1,0.1c0,0.1,0,0.1,0,0.1c0,0.1-0.1,0.2-0.1,0.4c0,0.1,0.1,0.1,0.1,0c0.1-0.1,0.1-0.2,0.2-0.4H65
		c0,0.1,0,0.2,0.1,0.3c0,0.1,0,0.3,0,0.4c0,0.1,0.1,0.1,0.1,0c0-0.2,0.1-0.4,0-0.7L65.2,7c0,0.1,0.1,0.3,0.1,0.4h0.1
		c0-0.1,0-0.2,0-0.3c0.1,0.1,0.1,0.1,0.1,0.1c-0.1-0.1-0.1-0.2-0.2-0.3h0.1c0.1,0.1,0.1,0.1,0.1,0.1c0-0.1-0.1-0.1-0.2-0.2h-0.1
		c0-0.1,0-0.1-0.1-0.1c0,0,0,0,0-0.1h0.1c0.1,0.1,0.1,0.1,0.1,0.1c-0.1-0.1-0.1-0.1-0.1-0.1c-0.1,0-0.1-0.1-0.1-0.1s0,0,0-0.1
		c0,0,0,0-0.1-0.1c0.1,0.1,0.3,0.1,0.4,0c0,0,0,0,0-0.1c-0.1,0-0.1,0-0.2,0c-0.1,0-0.1-0.1-0.2-0.1c0-0.1,0-0.1-0.1-0.1
		c0,0,0,0,0-0.1l-0.1,0.1c0-0.1,0-0.1,0-0.1c0-0.1,0.1-0.2,0.1-0.4c-0.1,0.1-0.1,0.4-0.1,0.6c0,0,0,0-0.1,0
		c-0.1,0.1-0.1,0.1-0.1,0.1c-0.1-0.1-0.1-0.1-0.1-0.1c-0.1-0.1-0.1-0.1-0.3-0.2c-0.1,0-0.1,0.1-0.1,0.1c0.1,0.1,0.1,0.1,0.3,0.2
		c0.1,0.1,0.1,0.1,0.1,0.2c0,0.1,0,0.1,0,0.1c-0.1,0-0.1,0-0.1,0v0.1c0.1,0,0.1,0,0.1,0c-0.1,0.1-0.1,0.1-0.2,0.1c0-0.1,0-0.1,0-0.1
		h-0.1c0,0.1,0,0.1-0.1,0.1c0,0,0-0.1-0.1-0.1h-0.1c-0.1,0.1,0,0.3,0.1,0.4c0,0,0,0,0.1,0c0,0,0,0.1-0.1,0.1c0-0.1,0-0.1-0.1-0.1
		c0,0,0-0.1-0.1-0.1L64,7V6.9c0,0.1,0,0,0-0.1c-0.1,0.1-0.1,0.1-0.1,0.3c0,0.1,0,0.1,0,0.1c-0.3,0.2-0.5,0.5-0.7,0.7
		c0.1-0.5,0.1-1.1,0.2-1.6c0.1-0.1,0.1-0.1,0.1-0.2c0,0,0,0-0.1,0c0.1-0.1,0.1-0.3,0.1-0.4c0.2-0.3,0.4-0.6,0.6-0.9
		c0.1-0.1,0.1-0.1,0.1-0.2c0.1-0.1,0.2-0.1,0.2-0.1c0.1-0.1,0.1-0.1,0.1-0.1h0.1c-0.1,0.1-0.1,0.2-0.1,0.4c0-0.1,0-0.2,0.1-0.3
		c0.1-0.1,0.1-0.1,0.3-0.2c0.1,0.1,0.1,0.2,0.3,0.2c0.1,0,0.1,0,0.1-0.1c-0.1,0-0.2-0.1-0.3-0.1c0.1,0,0.1,0,0.1-0.1
		c0,0.1,0.1,0.1,0.1,0.1c0.1,0.1,0.1,0.1,0.1,0.1c0,0,0,0,0.1-0.1V4.2c-0.1,0.1-0.1,0.1-0.1,0l-0.1-0.1h0.1c0,0,0.1-0.1,0-0.1
		S65.2,4,65.2,4c-0.1-0.1-0.1-0.1-0.1-0.3h-0.1c0-0.1,0.1-0.1,0.1-0.2c0,0,0.1,0,0.1,0.1c0,0,0,0,0.1,0c0,0,0,0,0-0.1v0.1h0.1
		l-0.1,0.1h0.1c0,0,0,0,0,0.1c0,0,0,0-0.1,0c0,0,0,0,0,0.1c0,0.1,0,0.1,0.1,0.2V4h0.1c0-0.1,0-0.1,0-0.2c0-0.1,0-0.1,0-0.1
		c0,0,0,0,0.1,0c0,0.1,0,0.1,0,0.1c0,0.1,0,0.1,0,0.1c0,0,0,0,0.1,0c0-0.1,0-0.1,0-0.1c0-0.1,0-0.1,0-0.1V3.5c0.1,0,0.1,0,0.1,0
		s0,0,0.1,0c0.1,0,0.1,0,0.1,0s0,0,0-0.1c0,0,0,0-0.1,0V3.4c-0.1-0.1-0.1-0.1-0.1-0.1c0,0,0,0-0.1,0c0,0,0,0,0-0.1
		c0.1,0,0.1,0,0.1,0c-0.1,0-0.1,0-0.1,0c0-0.1-0.1-0.1-0.1-0.1v0.1c-0.1-0.1-0.1-0.1-0.1-0.1c0.1,0,0.1,0,0.1,0.1
		C65.5,3,65.5,3,65.6,2.9c0-0.1,0.1-0.4,0-0.4c-0.1-0.1-0.2-0.3-0.4-0.3c-0.1,0-0.1,0-0.1,0.1c0.1,0,0.1,0,0.3,0.1
		c0.1,0.1,0.1,0.1,0.1,0.2c0,0.1,0,0.3-0.1,0.4c-0.1,0-0.1-0.1-0.1-0.1c0-0.1,0-0.1,0.1-0.1c0,0,0-0.1-0.1,0
		c-0.1,0.1-0.1,0.1-0.1,0.1h-0.1c0-0.1,0-0.1,0-0.3H65c-0.1,0.1,0,0.2,0,0.3c0,0-0.1,0-0.1-0.1s0-0.1,0-0.1c0-0.1-0.1-0.1-0.1-0.1
		c-0.1,0-0.1,0-0.1-0.1c0,0.1,0,0.1,0,0.2c-0.1,0-0.1-0.1-0.2-0.1c0.1,0,0.1,0.1,0.1,0.1c0,0,0,0.1,0.1,0.1c-0.1,0-0.1,0-0.1-0.1
		c-0.1,0-0.1,0.1,0,0.1c0.2,0,0.3,0.1,0.4,0.1c0,0.1,0,0.1,0,0.1h-0.1c-0.1,0-0.1-0.1-0.2-0.1c0,0.1,0.1,0.1,0.1,0.1
		c0.1,0.1,0.1,0.1,0.1,0.1h0.1c0,0.1,0.1,0.1,0.1,0.1c-0.1,0-0.1,0-0.1,0.1c0-0.1,0-0.1,0-0.1s-0.1-0.1-0.1,0c0,0.1,0,0.1,0,0.1
		h-0.1c-0.1,0-0.2,0-0.3-0.1l0.1-0.1c0.1,0,0-0.1-0.1-0.1c0,0-0.1,0-0.1,0.1c0,0,0,0-0.1-0.1c0,0.1,0,0.1,0,0.1
		c0,0.3-0.1,0.4-0.2,0.5L64,3.9C63.9,4,63.8,4,63.7,4.2c-0.1,0.1-0.1,0.2-0.1,0.4c0,0.1-0.1,0.1-0.1,0.1c0.1-0.1,0.1-0.1,0.1-0.2
		C63.7,4.3,63.9,4.1,64,4c0.1-0.1,0.3-0.3,0.4-0.4c0.1,0.1,0.1,0.1,0.3,0.1v0.1c0,0.1,0,0.1,0,0.2s0,0.2,0.1,0.3c0,0-0.1,0-0.1,0.1
		c0-0.1-0.1-0.1-0.1-0.2c0-0.1,0-0.2,0.1-0.3c0-0.1-0.1-0.1-0.1,0c0,0.1-0.1,0-0.1,0.1h-0.1C64.4,4,64.3,4,64.3,4
		c0-0.1,0-0.1-0.1-0.1c0,0,0,0,0,0.1c0-0.1-0.1-0.1-0.1,0c-0.1,0.1,0,0.2,0.1,0.3c-0.1,0-0.1,0.1-0.3,0.3c-0.1,0.1-0.2,0.3-0.3,0.4
		c-0.1,0.1-0.2,0.3-0.3,0.5c0-0.1,0-0.1,0.1-0.1c-0.1,0.1-0.1,0.3-0.1,0.4c0.1-0.2,0.3-0.5,0.5-0.8c0.1-0.1,0.2-0.3,0.4-0.4
		c0.1-0.1,0.2-0.2,0.2-0.3h0.1v0.1c0,0,0.1,0,0.1,0.1c0,0,0,0-0.1,0.1V4.3c-0.1,0.1-0.2,0.3-0.4,0.4c0,0,0,0-0.1,0.1v0.1
		c-0.1,0.3-0.3,0.5-0.5,0.7c-0.1,0.1-0.2,0.2-0.2,0.4v0.1l0.1-0.1c0,0.1-0.1,0.1-0.1,0.1c-0.1,0.1-0.1,0.1-0.1,0.3
		c0,0.3-0.1,0.7-0.1,1c0,0.1,0,0.2,0,0.3c0,0.1,0,0.1,0,0.2c0,0.1,0,0.1,0,0.2c0,0.3,0.1,0.7,0.1,1c0-0.3,0-0.6,0-0.8
		c0-0.1,0.1-0.1,0.1-0.1c0,0.1,0,0.1,0,0.1s0-0.1,0.1-0.1c0,0,0,0,0.1,0V8.3c0.2-0.3,0.5-0.5,0.8-0.7l0.1,0.1v0.1
		c0,0.1,0.1,0.1,0.1,0.2c-0.1,0.1-0.1,0.1-0.1,0.1C64.1,8.2,64,8.3,64,8.4c0,0.1,0,0.2-0.1,0.4c-0.1,0.1-0.3,0.2-0.3,0.4
		c-0.1,0.1,0,0.3-0.1,0.5c0,0.1-0.1,0.3-0.2,0.4l-0.1,0.1c0,0.4,0.1,0.8,0.1,1.2c0.1,0.1,0.1,0.1,0.2,0.3c0,0.1,0,0.1,0,0.1
		c-0.1,0.1-0.1,0.1-0.1,0.3c0.1,0.4,0.1,0.7,0.1,1c0-0.1,0-0.3,0-0.4C63.5,12.5,63.5,12.4,63.5,12.3z M67.2,6.6
		c0,0.1-0.1,0.1-0.1,0.1C67.2,6.8,67.2,6.7,67.2,6.6z M63.7,12c0.4-0.7,1.3-0.3,1.8-0.7v-0.1c-0.1,0.1-0.3,0.1-0.5,0.1
		c0.3-0.1,0.5-0.1,0.7-0.3V11c-0.2,0.1-0.4,0.2-0.7,0.3c-0.3,0.1-0.6,0.1-0.9,0.1c0,0-0.1,0.1,0,0.1c0.2,0.1,0.5,0.1,0.7,0.1
		c-0.1,0-0.3,0.1-0.4,0.1C64,11.7,63.8,11.8,63.7,12l0.1-0.1c0.1-0.8,0.5-1.6,1-2.2c0,0.1,0.1,0.1,0.1,0.1c0.4-0.1,0.8-0.1,1.3-0.2
		c0.1,0,0.5-0.1,0.4-0.3h-0.1c0,0.1-0.3,0.1-0.4,0.1c-0.1,0-0.3,0.1-0.4,0.1c-0.3,0.1-0.5,0.1-0.8,0.1c0.2-0.2,0.4-0.4,0.7-0.7
		c0.1-0.1,0.1-0.1,0.2-0.2v0.1c0.4,0.1,0.9,0,1.2-0.3V8.4c-0.4,0.1-0.7,0.3-1.2,0.2c0.4-0.4,0.8-0.7,1.1-1.2c0,0.1,0,0.1,0,0.1
		c-0.1,0.1-0.2,0.2-0.4,0.3c-0.1,0,0,0.1,0.1,0.1C66.7,7.8,67,7.5,67,7.1c0.1,0,0.1,0,0.1-0.1C67,7.2,67,7.5,67,7.7
		c0,0.3,0,0.5-0.1,0.7c-0.1,0.1-0.1,0.2-0.1,0.3c0,0.1,0.1,0.2,0.1,0.3c0.1,0.3-0.1,0.6-0.2,0.8c-0.1,0.1-0.3,0.2-0.3,0.4
		c0,0.1,0.1,0.3,0,0.4c-0.1,0.1-0.2,0.2-0.4,0.3c-0.2,0.1-0.4,0.1-0.5,0.3v0.1c0.1,0,0.1,0.1,0.1,0.1c-0.1,0.1-0.4,0.3-0.6,0.4
		c-0.3,0.1-0.6,0.1-0.9,0.1c-0.2,0.1-0.5,0.1-0.7,0.3C63.5,12.2,63.6,12.1,63.7,12z M64.9,6.6C64.9,6.6,64.9,6.7,64.9,6.6z
		 M64.3,7.5c0,0.1,0.1,0.2,0.1,0.3v0.1C64.4,7.8,64.3,7.6,64.3,7.5C64.3,7.5,64.3,7.5,64.3,7.5z M65.1,4C65.1,3.9,65.1,3.9,65.1,4z
		 M65.2,3.4C65.3,3.5,65.3,3.4,65.2,3.4C65.2,3.5,65.2,3.5,65.2,3.4C65.2,3.4,65.2,3.4,65.2,3.4C65.2,3.4,65.2,3.4,65.2,3.4z
		 M65.1,3.4C65,3.4,65,3.3,65.1,3.4C65.1,3.4,65.1,3.4,65.1,3.4z M65.1,3.5c0,0.1-0.1,0.1-0.1,0.1c0-0.1-0.1-0.1-0.1-0.1
		C65,3.6,65.1,3.5,65.1,3.5z M64.9,3.6c0,0.1,0,0.1,0,0.1c0,0.1,0,0.1,0,0.1S64.9,3.7,64.9,3.6z M64.7,3.8c0-0.1,0-0.2,0-0.3
		c0,0.1,0,0.4,0.1,0.5v0.1c-0.1,0-0.1,0,0-0.1c-0.1,0.1-0.1,0.1-0.1,0.1C64.7,4,64.7,4,64.7,3.8z M63.2,8.2c0-0.1,0.1-0.1,0.1-0.1
		C63.2,8.1,63.2,8.1,63.2,8.2z M63.3,8C63.3,8,63.3,8,63.3,8c0.1-0.1,0.1-0.1,0.2-0.3C63.4,7.8,63.4,7.9,63.3,8z M63.6,7.8
		C63.6,7.8,63.7,7.8,63.6,7.8c0.1-0.1,0.3-0.2,0.4-0.4l0.1,0.1C63.9,7.5,63.7,7.7,63.6,7.8z M64.3,7.5C64.2,7.5,64.2,7.5,64.3,7.5z
		 M64.2,7.5C64.2,7.5,64.2,7.5,64.2,7.5z"/>
	<path class="st1" d="M64.6,14c0.3-0.4,0.6-0.7,0.9-1C65.2,13.3,64.9,13.6,64.6,14z"/>
	<path class="st1" d="M66.1,14.4c0.1,0.1,0.2,0.1,0.3,0.2c-0.1-0.1-0.1-0.1-0.1-0.1C66.1,14.4,66.1,14.4,66.1,14.4z"/>
	<path class="st1" d="M66.1,14.4c-0.1-0.1-0.4-0.2-0.5-0.2C65.7,14.2,65.8,14.3,66.1,14.4z"/>
	<path class="st1" d="M66.2,12.8c-0.1,0-0.1,0.1-0.1,0.1C66.1,12.8,66.2,12.8,66.2,12.8z"/>
	<path class="st1" d="M63.4,13.9c0-0.1,0-0.1,0-0.1c0,0.4-0.1,0.7-0.1,1C63.4,14.5,63.4,14.2,63.4,13.9z"/>
	<path class="st1" d="M70.3,14.3C70.4,14.2,70.4,14.2,70.3,14.3c-0.2,0-0.4-0.1-0.6-0.1c0,0,0,0,0.1,0v-0.1c-0.1,0-0.1,0-0.1,0
		c0.1-0.1,0.3-0.1,0.4-0.2c0.1,0,0-0.1-0.1-0.1c-0.7,0.1-1.3-0.6-1.9-0.9c-0.6-0.3-1.3-0.3-1.9-0.1c-1.1,0.3-2,1.1-2.7,1.9
		c0.1-0.2,0.1-0.4,0.1-0.7c0-0.1,0-0.1,0-0.1v-0.1c0-0.1,0-0.3,0-0.4c-0.1,0.6-0.1,1.1-0.1,1.7c-0.1,0.1-0.1,0.1-0.1,0.3l-0.1,0.1
		c0-0.1,0.1-0.1,0.1-0.3c0,0.1-0.1,0.2-0.1,0.4c0,0,0,0,0,0.1c-0.1,0.1-0.1,0.1-0.1,0.2c-0.1,0.2-0.3,0.4-0.4,0.6
		c-0.3,0.4-0.7,0.7-1.1,0.9c-0.1,0,0,0.1,0.1,0.1c0.4-0.1,0.9-0.5,1.1-0.9c-0.1,0.1-0.1,0.2-0.2,0.3c-0.1,0.1-0.3,0.3-0.5,0.5
		c-0.1,0.1,0,0.1,0.1,0.1l0.1-0.1c0.3-0.1,0.5-0.4,0.7-0.6c0.1-0.1,0.3-0.4,0.4-0.7c0-0.1,0.1-0.1,0.1-0.1c0.2-0.2,0.5-0.5,0.7-0.7
		c0.1,0,0.1,0,0.1-0.1c0.4-0.1,0.7-0.1,1.1-0.1c0.5,0.1,1,0.6,1.6,0.5c0.1,0,0.1-0.1,0.1-0.1c-0.1-0.1-0.1-0.1-0.1-0.1
		c0.1,0,0.3,0,0.4-0.1c0.4,0,0.7-0.1,1.1-0.1c0.1,0,0.1-0.1,0.1-0.1c0.1,0,0.1-0.1,0.2-0.1c0.1,0,0.1-0.1,0.2-0.1
		c0.1,0,0.2,0,0.3-0.1c0.1,0,0.1,0,0.1,0c0.1,0,0.3-0.1,0.5-0.1c0.1-0.1,0.3-0.3,0.5-0.3C70.4,14.4,70.4,14.3,70.3,14.3z M63,16
		C62.9,16,63,15.9,63,16C63.1,15.9,63,15.9,63,16z M68.3,14.9C68.2,14.8,68.2,14.8,68.3,14.9L68.3,14.9c0.1,0,0.1,0,0.1,0
		C68.4,14.9,68.4,14.9,68.3,14.9z M69.2,14.7c-0.1,0-0.1,0-0.2,0c-0.2,0-0.4-0.1-0.6-0.1v-0.1c-0.3-0.1-0.7-0.1-0.9-0.1
		c-0.1-0.1-0.2-0.1-0.3-0.1c-0.1-0.1-0.2-0.2-0.3-0.3h-0.1c0.1,0.1,0.1,0.1,0.1,0.2c-0.1-0.1-0.3-0.1-0.4-0.3
		c0.2,0.1,0.4,0.3,0.6,0.4c0.1,0.1,0.4,0.2,0.5,0.2c0.1,0,0.1,0.1,0.2,0.1v0.1c0.1,0.1,0.1,0.2,0.2,0.3c-0.1,0.1-0.3,0.1-0.5,0.1
		c-0.1,0-0.1,0-0.1,0c-0.3,0-0.5,0-0.7-0.1c-0.1-0.1-0.2-0.2-0.4-0.4c0.1,0.1,0.2,0.2,0.3,0.3h-0.1c-0.4-0.4-1-0.7-1.5-0.9
		c0.1-0.1,0.4-0.1,0.5-0.2c0.4-0.1,0.7-0.1,1.1-0.1c0,0,0,0,0-0.1c0,0,0,0,0.1,0c-0.3-0.1-0.6,0-0.9,0.1c0.1-0.1,0.4-0.3,0.6-0.5
		c0.2-0.1,0.4-0.2,0.7-0.3v-0.1c-0.5,0.1-1,0.5-1.3,0.8c-0.1,0-0.1,0-0.1,0.1c-0.1,0-0.3,0.1-0.4,0.1c0.4-0.4,0.9-0.6,1.3-0.8v-0.1
		c-0.5,0.1-1,0.4-1.4,0.8c-0.1,0.1-0.2,0.1-0.3,0.1c0.1-0.3,0.4-0.5,0.6-0.7c0.1-0.1,0.3-0.2,0.4-0.4c-0.5,0.3-0.9,0.7-1.2,1.2
		c-0.1,0.1-0.1,0.1-0.2,0.1l-0.1,0.1c0,0,0,0,0,0.1c0.1,0,0.1-0.1,0.1-0.1c0.1-0.1,0.3-0.1,0.5-0.2c0.2,0.1,0.5,0.2,0.8,0.4
		c0.3,0.1,0.5,0.3,0.7,0.5c0,0.1,0,0.1,0,0.1c-0.1,0-0.1,0.1-0.1,0.1s0.1,0,0.1,0.1c0,0.1,0.1,0.1,0.1,0.1c-0.1,0-0.2-0.1-0.3-0.1
		c-0.1-0.2-0.3-0.4-0.5-0.6c0.1,0.1,0.3,0.2,0.5,0.3c-0.3-0.3-0.8-0.6-1.3-0.7c0.1,0.1,0.2,0.1,0.4,0.1c-0.4-0.1-0.7-0.1-1-0.1v0.1
		c0.4-0.1,0.7,0,1.1,0.1c0.3,0.1,0.5,0.4,0.7,0.7c-0.1-0.1-0.3-0.1-0.5-0.2c-0.1-0.1-0.2-0.1-0.4-0.1c-0.2-0.1-0.4-0.1-0.7-0.1
		c-0.3,0-0.5,0.1-0.7,0.1c0.1,0.1-0.1,0.1-0.2,0.2c-0.1,0-0.1,0.1-0.2,0.1c0.1-0.1,0.2-0.2,0.3-0.3c0.2-0.1,0.5-0.1,0.7-0.1
		c0.4,0,0.7,0.1,1,0.1c0,0,0.1,0,0.1-0.1c-0.3-0.2-0.7-0.2-1.1-0.2c-0.1,0-0.3,0-0.4,0.1c-0.1,0.1-0.1,0.1-0.3,0.3
		c-0.1,0.1-0.3,0.3-0.4,0.5c0.1-0.3,0.1-0.5,0.1-0.7c0.1-0.2,0.3-0.4,0.5-0.5c-0.1,0.3-0.3,0.5-0.4,0.7c0,0,0,0.1,0.1,0
		c0.1-0.2,0.3-0.4,0.4-0.7c0.1-0.1,0.3-0.4,0.4-0.5c0.5-0.4,1.1-0.8,1.8-1c0.1-0.1,0.1-0.1,0.1-0.1c0.1,0,0.1,0,0.1,0
		c0.6-0.1,1.3,0.1,1.9,0.4c0.3,0.1,0.5,0.4,0.9,0.5h-0.1c-0.1-0.1-0.3,0-0.4,0c-0.1,0-0.3,0-0.4,0c0,0-0.1,0.1,0,0.1
		s0.2,0.1,0.4,0.1h-0.1c-0.1,0,0,0.1,0,0.1c0.2-0.1,0.4,0,0.7-0.1c0.1,0.1,0.2,0.1,0.3,0.1c-0.1,0.1-0.2,0.1-0.3,0.1s-0.2,0-0.3,0
		c-0.3-0.1-0.7-0.1-1-0.2c-0.1,0-0.1,0-0.1-0.1c0.1,0,0.2,0,0.3,0c0,0,0.1-0.1,0-0.1c-0.2-0.1-0.4-0.1-0.7-0.1c0,0,0,0-0.1,0
		c0,0,0,0-0.1,0c0.1-0.1,0.2-0.1,0.3-0.1c0.1-0.1,0.4-0.1,0.6-0.1v-0.1c-0.3,0-0.7,0.1-1,0.2c-0.1,0-0.1,0-0.2-0.1
		c0.1-0.1,0.3-0.1,0.4-0.1c0.2-0.1,0.4-0.1,0.6-0.2V13c-0.2,0-0.4,0.1-0.6,0.1c-0.1,0.1-0.3,0.1-0.4,0.1c-0.1,0-0.1-0.1-0.1-0.1
		s-0.1,0,0,0.1c0.1,0,0.1,0.1,0.1,0.1c-0.1,0-0.1,0.1-0.1,0.1h-0.1v0.1c0.1,0,0.1,0,0.1,0.1c0.1-0.1,0.1-0.1,0.1-0.1
		c0.1,0.1,0.1,0.1,0.2,0.1c-0.1-0.1-0.2-0.1-0.4-0.1c-0.1,0-0.1,0-0.2,0.1h0.1c0.1,0,0.1,0,0.1,0.1c0.1-0.1,0.1,0,0.1,0s0,0-0.1,0
		c0.3,0.1,0.5,0.1,0.7,0.1c0.1,0,0.1,0,0.1,0.1c-0.1,0-0.1,0.1,0,0.1c0.3,0.1,0.5,0.1,0.8,0.1c0.2,0,0.4,0.1,0.6,0.1
		c0.1,0.1,0.4,0.1,0.6,0.2C69.8,14.5,69.5,14.5,69.2,14.7z"/>
	<path class="st1" d="M63.3,11.6c0,0.3,0.1,0.7,0.1,1c0-0.1,0-0.1,0-0.2s-0.1-0.3-0.1-0.5C63.3,11.7,63.3,11.6,63.3,11.6z"/>
	<path class="st1" d="M64.1,14.5c0.2-0.4,0.5-0.7,0.8-1.1C64.6,13.7,64.3,14.2,64.1,14.5C64,14.6,64,14.6,64.1,14.5
		c0,0,0.1,0,0.1-0.1C64.2,14.5,64.2,14.5,64.1,14.5z"/>
	<path class="st1" d="M64.8,14.5C64.9,14.5,64.9,14.5,64.8,14.5c0.1,0,0.2,0,0.2,0c0.1,0,0.2,0.1,0.4,0.1
		C65.2,14.5,65,14.5,64.8,14.5z"/>
	<path class="st1" d="M64.5,4.3C64.4,4.3,64.5,4.3,64.5,4.3C64.5,4.3,64.5,4.3,64.5,4.3z"/>
	<path class="st1" d="M63.5,12.9C63.5,13,63.5,13,63.5,12.9c0,0.1,0,0.2,0,0.3C63.6,13.1,63.5,13.1,63.5,12.9z"/>
	<path class="st1" d="M65.5,14.7C65.5,14.7,65.5,14.8,65.5,14.7C65.5,14.8,65.5,14.7,65.5,14.7z"/>
	<path class="st1" d="M64.5,14.3c-0.1,0.1-0.1,0.1-0.2,0.1C64.3,14.5,64.4,14.4,64.5,14.3z"/>
	<path class="st1" d="M64.5,14.2c0.1-0.1,0.1-0.1,0.1-0.2C64.6,14.1,64.5,14.2,64.5,14.2z"/>
	<path class="st1" d="M65.2,6c-0.1,0.1-0.2,0.2-0.2,0.3c0.1,0,0.1,0,0.1-0.1C65.1,6.2,65.2,6.1,65.2,6z"/>
	<path class="st1" d="M64.6,4.8c0,0.1,0,0.1,0.1,0.1C64.6,4.9,64.6,4.8,64.6,4.8z"/>
	<path class="st1" d="M64.6,5C64.6,5.1,64.7,5.1,64.6,5c0.1,0.1,0.1,0.1,0.1,0c-0.1-0.1-0.1-0.1-0.1-0.1c-0.1-0.1-0.3,0.1-0.4,0.1
		C64.4,5,64.5,4.9,64.6,5z"/>
	<path class="st1" d="M65.8,4.3C65.7,4.2,65.7,4.3,65.8,4.3c-0.1,0-0.1,0-0.1,0.1v0.1l-0.1,0.1h0.1C65.6,4.3,65.7,4.3,65.8,4.3z"/>
	<path class="st1" d="M64.2,5.2L64.2,5.2C64.2,5.2,64.2,5.2,64.2,5.2c-0.1,0.3-0.1,0.5,0.1,0.6C64.2,5.7,64.1,5.4,64.2,5.2z"/>
	<path class="st1" d="M63.5,6.1c0.1-0.3,0.3-0.5,0.4-0.8C63.7,5.5,63.6,5.8,63.5,6.1z"/>
	<path class="st1" d="M66.2,7.3c0-0.1,0-0.1,0-0.1C66.2,7.2,66.2,7.2,66.2,7.3C66.1,7.3,66.1,7.2,66.2,7.3
		C66.2,7.4,66.1,7.4,66.2,7.3z"/>
	<path class="st1" d="M64.5,6.7c-0.2,0-0.6,0.1-0.7-0.1c0,0,0,0.1,0.1,0.1c0.1,0.1,0.3,0.1,0.4,0.1c0,0,0,0,0,0.1
		C64.3,6.8,64.5,6.8,64.5,6.7z"/>
	<path class="st1" d="M65.8,7.4C65.7,7.4,65.7,7.4,65.8,7.4c-0.1,0-0.1,0-0.1,0v0.1c0.1,0,0.1,0,0.1,0.1C65.8,7.4,65.8,7.4,65.8,7.4
		z"/>
	<path class="st1" d="M64.2,6.9L64.2,6.9c-0.1,0.1-0.1,0.1-0.1,0.2c0,0,0,0,0,0.1c0,0,0,0,0-0.1c0,0,0,0,0.1,0c0,0,0,0,0-0.1
		C64.2,7,64.2,7,64.2,6.9C64.3,7,64.3,6.9,64.2,6.9z"/>
	<path class="st1" d="M63.7,6.6c-0.1-0.1-0.1-0.2-0.1-0.4C63.5,6.4,63.6,6.6,63.7,6.6z"/>
	<path class="st1" d="M66.1,7.2c0-0.1,0.1-0.1,0.1-0.2l-0.1,0.1c0,0.1-0.1,0.1-0.1,0.3C66.1,7.3,66.1,7.3,66.1,7.2z"/>
	<path class="st1" d="M63.2,5.6C63.2,5.7,63.2,5.7,63.2,5.6c0,0,0.1-0.1,0.1-0.2C63.3,5.5,63.2,5.5,63.2,5.6z"/>
	<path class="st1" d="M63,8.4c0,0.1,0,0.1,0,0.2c0.1-0.2,0.1-0.4,0.1-0.6c0-0.1,0-0.2,0-0.4C63,7.9,63,8.1,63,8.4z"/>
	<path class="st1" d="M63.1,10.1c0,0.1,0,0.1,0.1,0.2c-0.1,0.1-0.1,0.3-0.1,0.4c0,0.1,0,0.1,0,0.2c0.1-0.1,0.1-0.3,0.1-0.5
		C63.2,10.3,63.2,10.3,63.1,10.1C63.2,10.1,63.1,10.1,63.1,10.1z"/>
	<path class="st1" d="M63.3,5.2c0,0.1,0,0.1-0.1,0.1C63.2,5.2,63.3,5.2,63.3,5.2C63.4,5.2,63.4,5.2,63.3,5.2z"/>
	<path class="st1" d="M63.4,5.1c0.1-0.1,0.1-0.3,0.1-0.4C63.4,4.9,63.4,4.9,63.4,5.1z"/>
	<path class="st1" d="M64.3,3.4C64.3,3.4,64.3,3.4,64.3,3.4c-0.1,0.1-0.2,0.1-0.4,0.3c-0.1,0-0.1,0.1-0.1,0.1
		C63.8,3.9,63.8,4,63.8,4c0-0.1,0.1-0.1,0.1-0.2C64,3.7,64.2,3.5,64.3,3.4z"/>
	<path class="st1" d="M66.7,6.4c-0.1,0.1-0.2,0.1-0.3,0.1C66.6,6.6,66.7,6.5,66.7,6.4z"/>
	<path class="st1" d="M66,6.3L66,6.3c-0.1,0-0.1,0-0.1,0C65.8,6.3,65.9,6.3,66,6.3z"/>
	<path class="st1" d="M63.4,11.3C63.4,11.3,63.4,11.3,63.4,11.3L63.4,11.3z"/>
	<path class="st1" d="M66.3,6.8c0,0.1,0,0.1,0,0.1c0.1,0,0.1,0,0.1-0.1C66.4,6.9,66.4,6.9,66.3,6.8c0.1,0,0.1-0.1,0.1-0.2h0.1
		c-0.1-0.1-0.1-0.1-0.1-0.1S66.1,6.3,66,6.3c0.1,0,0.1,0.1,0.2,0.1C66.3,6.6,66.3,6.6,66.3,6.8z"/>
	<path class="st1" d="M66.1,3.3c0,0.1-0.1,0.3-0.3,0.3c0-0.1,0-0.1-0.1-0.1c0,0.1,0,0.1,0,0.1c-0.1,0-0.1,0-0.1,0
		c-0.1,0-0.1,0.1,0,0.1s0.1,0.1,0.1,0.1c0,0.1,0,0.3-0.1,0.4c0.2,0.1,0.4,0.1,0.4,0.2c0.1,0.1-0.1,0.3-0.2,0.4
		c-0.1-0.1-0.1-0.1-0.3,0c-0.1,0-0.1,0.1,0,0.1c0.1,0.1,0.2,0.1,0.3,0c0.1,0.1,0.1,0.5,0.1,0.6S66,5.6,65.9,5.7
		c-0.1-0.1-0.3-0.3-0.4-0.4c-0.1,0.1-0.2,0-0.3,0c0.1-0.1,0.1-0.1,0.1-0.2c0,0,0-0.1-0.1-0.1c0-0.1,0-0.1-0.1-0.2
		c0-0.1-0.1-0.1-0.1,0C65,4.9,65,4.9,65,4.9c-0.1,0-0.1,0.1-0.1,0.1c0,0.1,0,0.1,0.1,0.1c0,0.1,0,0.1,0.1,0.1
		c-0.1,0-0.1,0.1-0.3,0.1c-0.1,0.1-0.2,0.3-0.2,0.5c-0.1-0.1-0.1-0.1-0.1-0.1c-0.2,0-0.6,0.1-0.7,0.4c0,0.1-0.1,0.1-0.1,0.1
		c0.1-0.2,0.3-0.4,0.5-0.4c0.1,0,0.4,0.1,0.5,0.2c0,0.1,0,0.1,0.1,0.1c0,0.1,0.1,0.1,0.1,0c0-0.1,0-0.1-0.1-0.2c0-0.1,0-0.3,0.1-0.5
		c0.1-0.1,0.4-0.2,0.6-0.1c0.1,0.1,0.4,0.3,0.4,0.4c0.1,0.1-0.1,0.3-0.4,0.3c-0.1,0-0.1,0-0.1,0c0.1,0,0-0.1,0-0.1
		c-0.1,0-0.1,0.1-0.3,0.1c0,0,0,0.1,0.1,0.1c0.1,0,0.2,0,0.3-0.1c0.1,0,0.3,0.1,0.4,0.1C65.9,6.2,66,6.2,66,6.1c0-0.1,0-0.1,0-0.1
		s0,0,0-0.1c0.1-0.1,0.1-0.1,0.1-0.1c0.1-0.1,0.1-0.1,0.1-0.1c0.1-0.1,0.1-0.3,0-0.5c0-0.1-0.1-0.1-0.1-0.2c0.1-0.1,0.2-0.1,0.3-0.3
		c0.1-0.2-0.2-0.5-0.5-0.5c0.1-0.1,0.1-0.3,0.1-0.4c0.2,0,0.4-0.2,0.4-0.4c0-0.2-0.1-0.3-0.3-0.4C66.1,3.1,66.1,3.1,66.1,3.3z
		 M65.1,5.2C65,5.1,65,5.1,65.1,5C65.1,5.1,65.1,5.2,65.1,5.2z"/>
	<path class="st1" d="M64.8,2.8c-0.2-0.1-0.5,0-0.5,0.2c0.1,0,0.1,0,0.1,0c0.1,0,0.1,0.1,0.1,0.1C64.5,3,64.6,2.8,64.8,2.8z"/>
	<path class="st1" d="M65.2,2.3c-0.1,0-0.1,0-0.1,0.1c0,0.1-0.1,0.1-0.1,0.2c0,0.1,0,0.1,0,0.1V2.6C65,2.5,65.1,2.3,65.2,2.3z"/>
	<path class="st1" d="M66,7.5c0-0.1,0.1-0.1,0.1-0.2L66,7.4C66,7.5,66,7.5,66,7.5C66,7.6,65.9,7.6,66,7.5z"/>
	<path class="st1" d="M66,3c-0.1-0.1-0.1-0.1-0.3-0.1V3C65.8,3,65.9,3,66,3z"/>
	<path class="st1" d="M65.4,8.1c0.1-0.1,0.1-0.2,0.1-0.4c0,0.1-0.1,0.1-0.1,0.1C65.4,8,65.4,8.1,65.4,8.1z"/>
	<path class="st1" d="M65.8,7.9c0-0.1,0-0.3,0.1-0.4h-0.1C65.7,7.6,65.7,7.7,65.8,7.9C65.8,8,65.7,8,65.8,7.9z"/>
	<path class="st1" d="M65.9,7.4C66,7.4,66,7.3,65.9,7.4C66,7.4,66,7.3,65.9,7.4L65.9,7.4C65.8,7.4,65.8,7.5,65.9,7.4
		C65.8,7.4,65.9,7.4,65.9,7.4z"/>
	<path class="st1" d="M65.5,7.5C65.5,7.5,65.5,7.5,65.5,7.5c0.1-0.1,0-0.2,0-0.3C65.5,7.4,65.5,7.5,65.5,7.5z"/>
	<path class="st1" d="M64.6,7.3c0.1-0.1,0.1-0.2,0.1-0.4c0,0.1,0,0.1,0,0.1C64.7,7.2,64.7,7.2,64.6,7.3z"/>
	<path class="st1" d="M65.5,7.7c0,0.1,0,0.2,0,0.3c0,0.1,0.1,0.1,0.1,0C65.5,7.9,65.5,7.8,65.5,7.7c0.1-0.1,0.1-0.1,0.1-0.3
		c0,0,0,0-0.1,0c0,0.1-0.1,0.1-0.1,0.1C65.5,7.6,65.5,7.7,65.5,7.7z"/>
	<path class="st1" d="M65.4,7.8c0,0.1,0,0.1-0.1,0.1C65.4,8,65.4,7.9,65.4,7.8z"/>
	<path class="st1" d="M63.3,10.5c0,0.1,0,0.2,0.1,0.3C63.4,10.7,63.3,10.6,63.3,10.5z"/>
	<path class="st1" d="M65.5,7.4c0-0.1-0.1-0.1-0.1-0.1C65.5,7.3,65.5,7.4,65.5,7.4z"/>
</g>
</svg>
