<svg width="155" height="123" viewBox="0 0 155 123" fill="none" xmlns="http://www.w3.org/2000/svg">
<path d="M8.02143 59.5938H19.0103L21.6069 67.2443C21.8387 67.8471 21.746 68.1716 21.4214 68.4035L18.1294 70.9073V71H29.6747V70.9073L27.6809 68.9599C27.1709 68.4498 26.8927 67.9862 26.6145 67.1979L16.8775 38.4042H9.78337V38.497L12.3335 41.279C12.8899 41.9281 13.029 42.0672 12.7045 42.9945L4.91487 66.0851C4.68303 66.827 4.54393 67.0125 3.70933 67.7543L0 70.9073V71H10.4325V70.9073L6.49133 67.7543C5.65673 67.0588 5.51763 67.0125 5.79583 66.2242L8.02143 59.5938ZM13.5391 43.2264L18.7321 58.7592H8.29963L13.5391 43.2264Z" fill="#E53D17"/>
<path d="M34.9648 67.8007C34.9648 68.3107 34.8721 68.4498 34.362 68.728L30.3745 70.9073V71H53.8824V60.6139H53.7897L49.4312 69.5626C49.153 70.0727 48.7821 70.1654 47.8547 70.1654H40.5288C39.926 70.1654 39.7869 69.9799 39.7869 69.099V41.6035C39.7869 41.0935 39.8333 41.0008 40.3897 40.6762L44.3773 38.497V38.4042H30.3745V38.497L34.362 40.6762C34.8721 40.9544 34.9648 41.0935 34.9648 41.6035V67.8007Z" fill="#E53D17"/>
<path d="M69.4471 58.3419C75.8921 58.3419 81.2706 54.6789 81.2706 48.2803C81.2706 41.3253 76.4949 38.4042 70.0963 38.4042H56.0935V38.497L60.0811 40.6762C60.5911 40.9544 60.6838 41.0935 60.6838 41.6035V67.8007C60.6838 68.3107 60.5911 68.4498 60.0811 68.728L56.0935 70.9073V71H71.7655V70.9073L66.016 68.5889C65.506 68.3571 65.506 68.0325 65.506 67.2443V58.3419H69.4471ZM65.506 40.2125C65.506 39.4707 65.6914 39.2388 66.3869 39.2388H68.7053C72.7855 39.2388 76.0312 41.6963 76.0312 48.2803C76.0312 55.3744 72.2291 57.5073 68.6589 57.5073H65.506V40.2125Z" fill="#E53D17"/>
<path d="M92.1306 67.8007V41.6035C92.1306 41.0935 92.1769 41.0008 92.7333 40.6762L96.7209 38.497V38.4042H82.7181V38.497L86.7057 40.6762C87.2157 40.9544 87.3084 41.0935 87.3084 41.6035V67.8007C87.3084 68.3107 87.2157 68.4498 86.7057 68.728L82.7181 70.9073V71H96.7209V70.9073L92.7333 68.728C92.1769 68.4498 92.1306 68.3107 92.1306 67.8007Z" fill="#E53D17"/>
<path d="M124.258 43.0873C124.258 42.3918 124.35 42.1599 124.999 41.6963L129.404 38.497V38.4042H118.23V38.497L122.635 41.6963C123.33 42.2063 123.377 42.4381 123.377 43.0873V65.6215L106.777 38.4042H98.6632V38.497L102.558 41.2326C102.975 41.6035 103.161 42.0208 103.161 42.8091V66.317C103.161 67.0125 103.068 67.2443 102.419 67.708L98.0141 70.9073V71H109.188V70.9073L104.784 67.708C104.134 67.2443 104.042 67.0588 104.042 66.317V43.18L121.058 71H124.258V43.0873Z" fill="#E53D17"/>
<path d="M154.194 71V61.1239H154.101L149.974 69.5626C149.65 70.0727 149.325 70.1654 148.398 70.1654H140.145C139.542 70.1654 139.403 69.9799 139.403 69.099V54.7717H145.06C145.709 54.7717 145.941 54.9571 146.404 55.6063L149.372 59.7793H149.464V48.9295H149.372L146.404 53.0561C145.941 53.7516 145.709 53.8907 145.106 53.9371H139.403V40.3053C139.403 39.4243 139.542 39.2388 140.145 39.2388H148.398C149.047 39.2388 149.372 39.3316 149.743 40.0734L153.637 48.4194H153.73V38.4042H129.99V38.497L133.978 40.6762C134.488 40.9544 134.581 41.0935 134.581 41.6035V67.8007C134.581 68.3107 134.488 68.4498 133.978 68.728L129.99 70.9073V71H154.194Z" fill="#E53D17"/>
<path d="M14.4755 92.6035C14.4755 92.0935 14.5218 92.0008 15.0782 91.6762L19.0658 89.497V89.4042H5.06302V89.497L9.05056 91.6762C9.56059 91.9544 9.65332 92.0935 9.65332 92.6035V118.801C9.65332 119.311 9.56059 119.45 9.05056 119.728L5.06302 121.907V122H19.0658V121.907L15.0782 119.728C14.5218 119.45 14.4755 119.311 14.4755 118.801V92.6035ZM27.7827 93.67C28.4782 92.9745 28.8491 92.7426 29.7301 92.279L34.8304 89.497V89.4042H22.6824V89.497L26.6699 92.1862C27.2727 92.5572 27.4118 92.8354 26.8554 93.3918L14.9391 105.633L27.0408 122H34.645V121.907L31.3993 119.311C30.8893 118.893 30.4256 118.476 29.9156 117.827L18.8339 102.897L27.7827 93.67Z" fill="#E53D17"/>
<path d="M59.9362 110.501V94.0873C59.9362 93.4381 59.9825 93.1599 60.678 92.6963L65.1292 89.497V89.4042H53.9085V89.497L58.3133 92.6963C59.0088 93.1599 59.0552 93.4381 59.0552 94.0873V110.547C59.0552 117.271 56.3659 121.165 51.3583 121.165C46.258 121.165 43.5687 117.781 43.5687 111.521V92.7426C43.5687 92.2326 43.6151 92.0935 44.1715 91.8153L48.0663 89.497V89.4042H34.4809V89.497L38.1438 91.8153C38.7002 92.1399 38.7466 92.2326 38.7466 92.7426V112.541C38.7466 118.059 41.3431 122.464 49.8282 122.464C57.2005 122.464 59.9362 117.456 59.9362 110.501ZM44.7743 83.0984C44.7743 84.3503 45.8407 85.5094 47.1853 85.5094C48.53 85.5094 49.5964 84.3503 49.5964 83.0984C49.5964 81.7537 48.53 80.6409 47.1853 80.6409C45.8407 80.6409 44.7743 81.7537 44.7743 83.0984ZM52.3784 83.0984C52.3784 84.3503 53.4448 85.5094 54.7431 85.5094C56.0877 85.5094 57.2005 84.3503 57.2005 83.0984C57.2005 81.7537 56.0877 80.6409 54.7431 80.6409C53.4448 80.6409 52.3784 81.7537 52.3784 83.0984Z" fill="#E53D17"/>
<path d="M80.9294 122.464C82.9232 122.464 85.8906 122.278 88.719 121.675V111.475H88.6263L83.8969 120.794C83.5723 121.351 83.2941 121.536 82.5059 121.629C81.9958 121.675 81.3931 121.722 80.883 121.722C73.928 121.722 70.8678 115.926 70.8678 105.725C70.8678 96.3592 73.4644 89.6824 80.5585 89.6824C81.1612 89.6824 81.8104 89.7288 82.4595 89.8215C83.2941 89.9606 83.5723 90.007 83.9432 90.7489L88.6263 99.744H88.719V89.9606C85.7515 89.2651 82.7841 88.9406 80.3266 88.9406C70.7751 88.9406 65.3038 95.8956 65.3038 105.818C65.3038 115.555 69.9869 122.464 80.9294 122.464Z" fill="#E53D17"/>
<path d="M120.236 92.6035C120.236 92.0935 120.282 92.0008 120.838 91.6762L124.826 89.497V89.4042H110.823V89.497L114.811 91.6762C115.367 91.9544 115.414 92.0935 115.414 92.6035V104.891H101.504V92.6035C101.504 92.0935 101.55 92.0008 102.106 91.6762L106.094 89.497V89.4042H92.0911V89.497L96.0786 91.6762C96.5887 91.9544 96.6814 92.0935 96.6814 92.6035V118.801C96.6814 119.311 96.5887 119.45 96.0786 119.728L92.0911 121.907V122H106.094V121.907L102.106 119.728C101.55 119.45 101.504 119.311 101.504 118.801V105.725H115.414V118.801C115.414 119.311 115.321 119.45 114.811 119.728L110.823 121.907V122H124.826V121.907L120.838 119.728C120.282 119.45 120.236 119.311 120.236 118.801V92.6035Z" fill="#E53D17"/>
<path d="M150.707 122V112.124H150.615L146.488 120.563C146.163 121.073 145.839 121.165 144.911 121.165H136.658C136.055 121.165 135.916 120.98 135.916 120.099V105.772H141.573C142.222 105.772 142.454 105.957 142.918 106.606L145.885 110.779H145.978V99.9295H145.885L142.918 104.056C142.454 104.752 142.222 104.891 141.619 104.937H135.916V91.3053C135.916 90.4243 136.055 90.2388 136.658 90.2388H144.911C145.561 90.2388 145.885 90.3316 146.256 91.0734L150.151 99.4194H150.244V89.4042H126.504V89.497L130.491 91.6762C131.001 91.9544 131.094 92.0935 131.094 92.6035V118.801C131.094 119.311 131.001 119.45 130.491 119.728L126.504 121.907V122H150.707Z" fill="#E53D17"/>
<path d="M79.3 8.69998C79.2 8.59998 79.2 8.59998 79 8.49998C79.1 8.59998 79.2 8.69998 79.3 8.69998Z" fill="#685649"/>
<path d="M78.9 2.19998C78.9 2.29998 78.9 2.29998 78.9 2.29998C78.9 2.39998 78.9 2.59998 78.8 2.69998H78.9C79 2.59998 79 2.29998 78.9 2.19998C79 2.09998 79 2.09998 79 2.19998C79 2.29998 79 2.29998 79 2.39998C79 2.49998 79 2.79998 78.9 2.89998C79 2.99998 79 2.99998 79 2.89998C79.1 2.69998 79.1 2.49998 79.1 2.19998C79.1 2.39998 79.1 2.59998 79.1 2.89998C79.1 2.99998 79.2 2.99998 79.2 2.89998C79.2 2.59998 79.3 2.19998 79.2 1.99998C79.2 1.99998 79.2 2.09998 79.3 2.09998H79.4C79.4 1.99998 79.4 1.99998 79.3 1.89998C79.3 1.89998 79.3 1.89998 79.3 1.99998C79.3 1.99998 79.3 1.89998 79.3 1.79998V1.89998C79.4 1.89998 79.4 1.89998 79.4 1.99998C79.5 1.99998 79.5 2.09998 79.6 2.09998C79.6 1.99998 79.5 1.99998 79.5 1.99998C79.5 1.99998 79.6 1.99998 79.6 1.89998V1.69998C79.5 1.69998 79.5 1.69998 79.3 1.69998C79.3 1.69998 79.2 1.69998 79.2 1.59998C79.2 1.49998 79.2 1.39998 79.1 1.29998H79V1.19998C79 1.09998 78.9 1.09998 78.9 1.19998C78.9 1.29998 78.8 1.29998 78.8 1.49998C78.8 1.59998 78.8 1.59998 78.8 1.59998C78.7 1.59998 78.7 1.49998 78.8 1.49998C78.8 1.39998 78.7 1.39998 78.8 1.29998V1.19998C78.8 1.19998 78.7 1.19998 78.7 1.29998V1.39998C78.7 1.49998 78.7 1.49998 78.7 1.49998C78.7 1.39998 78.6 1.39998 78.6 1.39998C78.6 1.49998 78.6 1.49998 78.6 1.49998C78.6 1.59998 78.6 1.59998 78.6 1.59998C78.7 1.89998 78.7 2.09998 78.9 2.19998C78.9 2.09998 78.9 2.09998 78.9 2.19998ZM79.1 1.49998C79.1 1.59998 79.1 1.59998 79.1 1.69998C79 1.59998 79 1.59998 79.1 1.49998ZM78.9 1.79998C79 1.79998 79 1.89998 79 1.99998C79 1.89998 79 1.89998 78.9 1.79998Z" fill="#685649"/>
<path d="M78.4 1.89998C78.5 1.89998 78.5 1.89998 78.5 1.89998C78.4 1.79998 78.4 1.79998 78.4 1.89998C78.4 1.79998 78.3 1.79998 78.3 1.79998C78.2 1.79998 78.1 1.69998 78 1.79998V1.89998C78.1 1.89998 78.2 1.89998 78.3 1.89998C78.3 1.79998 78.3 1.79998 78.4 1.89998Z" fill="#685649"/>
<path d="M77.9 0.599976C77.8 0.499976 77.8 0.499976 77.8 0.599976C77.7 0.599976 77.7 0.699976 77.8 0.699976C77.9 0.699976 77.9 0.599976 77.9 0.599976Z" fill="#685649"/>
<path d="M72.6 14.3C72.4 13.6 72 13 71.5 12.4C71.7 12.7 71.9 13 72 13.3C72 13.3 72 13.4 72.1 13.4C72.1 13.3 72 13.3 72 13.2C71.8 12.9 71.6 12.6 71.3 12.4C71.5 12.7 71.7 13 72 13.3C72.2 13.6 72.3 13.9 72.5 14.1C72.3 14.1 72.1 14 72 13.9C72 13.9 72 13.9 72 14C72.2 14.1 72.4 14.2 72.6 14.3C72.6 14.4 72.7 14.4 72.7 14.4C72.7 14.3 72.6 14.3 72.6 14.3ZM72.4 14C72.4 14.1 72.5 14.1 72.5 14.2C72.5 14.2 72.4 14.2 72.4 14.1C72.5 14.1 72.4 14.1 72.4 14Z" fill="#685649"/>
<path d="M73.1 14.6C73 14.2 72.9 13.8 72.7 13.4C72.6 13 72.3 12.6 72.2 12.2H72.1C72.2 12.6 72.5 13 72.6 13.4C72.8 13.8 72.9 14.2 73.1 14.6Z" fill="#685649"/>
<path d="M69.6 11.8C69.7 11.8 69.7 11.8 69.6 11.8Z" fill="#685649"/>
<path d="M70.1 12C70.1 12.1 70.1 12.1 70.2 12.2L70.1 12.1C70.1 12.1 70.1 12.1 70.1 12Z" fill="#685649"/>
<path d="M70.1 11.9C70 11.9 70 11.9 70.1 11.9C70 12 70 11.9 70.1 11.9C70.1 12 70 12 70.1 11.9C70.1 12 70.1 12 70.1 11.9Z" fill="#685649"/>
<path d="M76.8 1.69998C76.8 1.79998 76.8 1.99998 76.9 2.19998C76.9 1.99998 76.9 1.79998 76.8 1.69998Z" fill="#685649"/>
<path d="M78.5 1.39998C78.3 1.19998 78.5 0.899976 78.7 0.699976C78.5 0.799976 78.2 1.09998 78.3 1.39998C78.3 1.39998 78.4 1.39998 78.5 1.39998C78.5 1.49998 78.5 1.49998 78.5 1.39998Z" fill="#685649"/>
<path d="M79 0.599976C78.9 0.599976 78.9 0.599976 79 0.599976Z" fill="#685649"/>
<path d="M71.8 13.8C71.9 13.8 71.9 13.9 71.9 13.9H72C72 13.9 72 13.9 72 13.8C71.9 13.8 71.8 13.7 71.8 13.8C71.7 13.7 71.7 13.7 71.8 13.8Z" fill="#685649"/>
<path d="M71.8 13.7C71.7 13.6 71.7 13.6 71.7 13.5C71.6 13.5 71.7 13.6 71.8 13.7C71.7 13.7 71.7 13.7 71.8 13.7Z" fill="#685649"/>
<path d="M71.2 10.9C71.3 11 71.4 11 71.4 11.1C71.3 10.9 71.2 10.7 71.1 10.5C71.2 10.7 71.2 10.8 71.2 10.9Z" fill="#685649"/>
<path d="M73.6 11.9C73.7 12 73.6 12 73.6 11.9C73.7 12 73.7 12 73.6 11.9C73.7 11.9 73.7 12 73.6 11.9Z" fill="#685649"/>
<path d="M71.6 13.5C71.3 13 70.8 12.6 70.5 12.1C70.7 12.4 71 12.6 71.2 12.9C71.3 13 71.5 13.3 71.6 13.5Z" fill="#685649"/>
<path d="M77.4 0.599976C77.3 0.599976 77.3 0.599976 77.4 0.599976Z" fill="#685649"/>
<path d="M75.2 11.1C75.1 10.8 74.9 10.6 74.7 10.3C74.5 9.99998 74.3 9.79998 74 9.49998C74.2 9.69998 74.4 9.99998 74.5 10.2C74.8 10.5 75 10.8 75.2 11.1C75.3 11.3 75.4 11.6 75.6 11.9C75.6 12 75.7 12 75.7 12.1L75.6 12C75.5 11.7 75.4 11.4 75.2 11.1Z" fill="#685649"/>
<path d="M73.2 3.49998C73.1 3.59998 73 3.59998 73 3.69998C73 3.69998 73.1 3.59998 73.2 3.49998Z" fill="#685649"/>
<path d="M73.5 3.49998C73.5 3.39998 73.5 3.29998 73.5 3.19998V3.09998C73.5 2.99998 73.6 2.99998 73.6 2.99998V3.09998H73.7C73.7 2.99998 73.7 2.99998 73.7 2.99998C73.7 2.99998 73.7 2.89998 73.6 2.89998C73.6 2.79998 73.6 2.79998 73.5 2.79998H73.4C73.3 2.79998 73.2 2.79998 73.1 2.89998C73.1 2.99998 73.1 2.99998 73.1 3.19998C73 3.19998 73 3.19998 73 3.09998C73 3.09998 73 3.09998 73 2.99998L73.1 2.89998C73 3.09998 72.9 3.19998 72.8 3.39998C72.8 3.49998 72.8 3.49998 72.9 3.49998C73 3.49998 73 3.49998 73 3.39998V3.49998C73 3.59998 73.1 3.49998 73.1 3.49998V3.39998C73.2 3.29998 73.2 3.29998 73.2 3.29998C73.2 3.29998 73.2 3.49998 73.2 3.49998C73.2 3.49998 73.2 3.49998 73.3 3.49998H73.4C73.5 3.49998 73.6 3.69998 73.5 3.79998V3.89998C73.6 3.89998 73.7 3.89998 73.8 3.89998C73.8 3.69998 73.6 3.59998 73.5 3.49998ZM73.2 2.99998C73.3 2.89998 73.3 2.89998 73.3 2.79998C73.4 2.89998 73.3 2.89998 73.2 2.99998Z" fill="#685649"/>
<path d="M74.2 5.49998C74.2 5.59998 74.2 5.59998 74.2 5.49998Z" fill="#685649"/>
<path d="M74.2 5.69998C74.2 5.89998 74.3 5.99998 74.3 6.19998C74.3 5.99998 74.2 5.79998 74.2 5.69998Z" fill="#685649"/>
<path d="M72.8 4.79998C72.9 4.79998 72.9 4.79998 72.8 4.79998C72.9 4.69998 72.9 4.69998 73 4.69998C73 4.69998 73 4.69998 73 4.59998H73.1C73 4.79998 72.9 4.99998 73 5.19998C73 5.09998 73 4.99998 73 4.89998C73 4.79998 73.1 4.69998 73.1 4.59998C73.2 4.59998 73.5 4.69998 73.6 4.59998V4.49998C73.5 4.49998 73.4 4.49998 73.3 4.49998C73.3 4.49998 73.3 4.49998 73.2 4.49998L73.1 4.59998V4.49998H73C73.1 4.39998 73.1 4.39998 73.1 4.29998C73.2 4.29998 73.2 4.29998 73.2 4.29998C73.3 4.29998 73.4 4.29998 73.5 4.29998C73.5 4.29998 73.5 4.29998 73.5 4.19998C73.4 4.19998 73.3 4.19998 73.1 4.19998C73.2 4.29998 73.3 4.19998 73.2 4.29998C73.3 4.29998 73.3 4.29998 73.3 4.29998C73.3 4.39998 73.3 4.39998 73.2 4.29998C73.1 4.29998 73.1 4.29998 73.1 4.29998C73.1 4.29998 73.1 4.29998 73.1 4.19998C73.1 4.19998 73.1 4.19998 73 4.19998H73.1C73.1 4.19998 73.1 4.19998 73.2 4.19998C73.2 4.09998 73.3 4.09998 73.3 3.99998L73.4 3.89998C73.3 3.89998 73.2 3.89998 73.1 3.99998C73.1 3.99998 73.1 3.99998 73.1 4.09998C73.1 4.09998 73.1 4.09998 73.1 3.99998C73 4.09998 73 4.09998 73 4.19998C72.8 4.29998 72.7 4.39998 72.6 4.49998C72.6 4.49998 72.6 4.49998 72.5 4.59998C72.4 4.69998 72.3 4.69998 72.2 4.69998V4.79998C72.3 4.79998 72.3 4.69998 72.4 4.69998C72.4 4.79998 72.3 4.79998 72.3 4.79998C72.3 4.79998 72.3 4.79998 72.2 4.79998V4.99998C72.2 4.99998 72.2 4.99998 72.3 4.99998C72.3 4.99998 72.3 5.09998 72.4 5.09998L72.5 5.19998C72.6 5.19998 72.1 5.19998 72 4.79998C72 4.39998 72.4 4.19998 72.7 4.19998C72.8 4.19998 72.8 4.19998 72.8 4.09998C72.8 3.99998 72.8 3.89998 73 3.69998C72.8 3.79998 72.7 3.89998 72.7 3.99998C72.7 3.99998 72.7 3.99998 72.7 3.89998V3.99998C72.2 4.19998 71.7 4.49998 72 4.99998C72.1 5.19998 72.5 5.29998 72.7 5.09998C72.7 4.99998 72.8 4.99998 72.8 4.79998ZM73 4.59998C72.8 4.59998 72.8 4.59998 73 4.59998ZM72.8 4.59998C72.8 4.69998 72.8 4.69998 72.8 4.69998H72.7C72.6 4.59998 72.6 4.59998 72.8 4.59998Z" fill="#685649"/>
<path d="M74.4 2.89998C74.4 2.79998 74.4 2.79998 74.4 2.89998C74.4 2.79998 74.4 2.79998 74.3 2.79998C74.4 2.79998 74.4 2.89998 74.4 2.89998Z" fill="#685649"/>
<path d="M72.6 3.89998C72.7 3.89998 72.7 3.89998 72.6 3.89998Z" fill="#685649"/>
<path d="M75.2 2.29998L75.1 2.39998C75.1 2.49998 75 2.49998 75 2.49998C75.1 2.49998 75.1 2.49998 75.1 2.49998C75.2 2.49998 75.2 2.39998 75.2 2.29998Z" fill="#685649"/>
<path d="M74.2 3.29998C74.3 3.29998 74.3 3.29998 74.2 3.29998C74.3 3.29998 74.3 3.29998 74.3 3.29998C74.3 3.19998 74.3 3.19998 74.2 3.29998Z" fill="#685649"/>
<path d="M73.5 2.59998C73.5 2.69998 73.6 2.69998 73.6 2.69998C73.5 2.59998 73.5 2.59998 73.5 2.59998Z" fill="#685649"/>
<path d="M73.4 4.39998C73.3 4.39998 73.2 4.49998 73.1 4.49998H73.2C73.3 4.49998 73.3 4.39998 73.4 4.39998Z" fill="#685649"/>
<path d="M77.8 18.4C77.8 18.6 77.7 18.9 77.7 19.1C77.7 19.2 77.7 19.3 77.7 19.4C77.8 19.1 77.8 18.8 77.8 18.4Z" fill="#685649"/>
<path d="M73.8 3.89998C73.8 3.99998 73.8 3.99998 73.7 4.09998C73.9 3.99998 73.9 3.99998 74 3.99998C74 3.99998 74 3.99998 74 3.89998C74 3.89998 73.9 3.89998 73.8 3.89998Z" fill="#685649"/>
<path d="M77.6 15.1C77.6 15 77.6 15 77.5 14.9C77.5 14.8 77.5 14.7 77.4 14.5C77.3 13.6 77.2 12.5 77.1 11.6C77.1 11.4 77.1 11.1 77.1 10.9H77.2C77.3 10.4 77.3 9.89998 77.3 9.39998C77.4 9.39998 77.4 9.39998 77.4 9.29998C77.4 9.19998 77.3 9.19998 77.3 9.09998C77.3 8.99998 77.3 8.99998 77.3 8.89998C77.3 8.49998 77.4 8.09998 77.4 7.69998C77.4 7.49998 77.5 7.29998 77.5 7.09998C77.5 6.99998 77.5 6.89998 77.6 6.79998C77.7 6.59998 77.7 6.29998 77.8 5.99998C77.8 5.79998 77.9 5.49998 78 5.19998C78 4.99998 78.1 4.79998 78.2 4.59998C78.3 4.19998 78.6 3.89998 78.6 3.49998H78.5C78.4 3.69998 78.3 4.19998 78.1 4.49998C78.1 4.59998 78 4.69998 78 4.89998C78 4.79998 78.1 4.59998 78.1 4.49998C78.1 4.39998 78.2 4.39998 78.2 4.29998C78.3 3.99998 78.4 3.79998 78.4 3.59998C78.4 3.49998 78.4 3.49998 78.5 3.49998C78.6 3.49998 78.7 3.49998 78.7 3.49998C78.8 3.59998 78.9 3.69998 79.1 3.69998C79.7 3.69998 79.8 2.89998 79.7 2.39998C80.1 2.59998 80.7 2.69998 80.8 2.09998C80.9 1.39998 80.1 1.39998 79.6 1.39998C79.7 0.999976 79.4 0.699976 79 0.699976C79.3 0.699976 79.6 1.09998 79.5 1.39998C79.5 1.49998 79.5 1.49998 79.6 1.49998C80 1.49998 80.6 1.49998 80.7 1.89998C80.8 2.19998 80.6 2.29998 80.3 2.39998C80.1 2.39998 79.9 2.29998 79.7 2.29998H79.6C79.5 2.29998 79.5 2.39998 79.5 2.39998C79.6 2.59998 79.6 2.79998 79.6 3.09998C79.5 3.29998 79.4 3.69998 79.1 3.69998C79 3.69998 78.8 3.59998 78.7 3.49998C78.6 3.19998 78.6 3.09998 78.6 2.99998C78.6 2.89998 78.6 2.89998 78.6 2.89998V2.79998C78.6 2.69998 78.6 2.69998 78.6 2.69998C78.6 2.59998 78.7 2.39998 78.7 2.29998C78.7 2.19998 78.6 2.19998 78.6 2.29998C78.6 2.39998 78.5 2.39998 78.5 2.39998C78.5 2.59998 78.4 2.89998 78.3 3.09998C78.3 2.99998 78.3 2.99998 78.3 2.99998C78.3 2.79998 78.4 2.69998 78.5 2.49998C78.6 2.49998 78.6 2.39998 78.5 2.39998C78.1 2.49998 77.6 2.29998 77.6 1.79998C77.6 1.59998 77.6 1.49998 77.8 1.39998C77.6 1.49998 77.5 1.59998 77.4 1.79998C77.4 1.89998 77.4 2.09998 77.5 2.19998C77.5 2.19998 77.5 2.29998 77.4 2.29998C77.4 2.19998 77.4 2.19998 77.3 2.19998C77.3 2.09998 77.2 2.09998 77.2 2.19998V2.29998H77.1L77.1 2.39998C77.1 2.39998 77.1 2.39998 77 2.39998L77.1 2.49998C77.1 3.39998 77.2 4.39998 77.2 5.39998H77.3C77.4 4.49998 77.4 3.39998 77.3 2.49998C77.4 2.99998 77.4 3.39998 77.4 3.99998C77.4 4.59998 77.3 5.09998 77.3 5.69998C77.3 5.99998 77.2 6.19998 77.2 6.49998C77.4 6.19998 77.3 5.99998 77.3 5.99998C77.3 5.59998 77.2 5.19998 77.1 4.79998C76.9 4.29998 76.8 3.69998 76.4 3.29998C76.4 3.19998 76.4 3.09998 76.3 3.09998C76.3 3.19998 76.3 3.19998 76.3 3.19998C76.3 3.19998 76.3 3.09998 76.4 2.99998C76.5 3.09998 76.5 2.99998 76.5 2.89998C76.6 2.79998 76.8 2.79998 76.9 2.59998C77 2.29998 76.8 2.09998 76.7 1.89998C76.6 1.79998 76.7 1.79998 76.8 1.69998C76.8 1.69998 76.8 1.59998 76.7 1.59998C76.6 1.69998 76.5 1.79998 76.4 1.79998C76.3 1.79998 76.1 1.69998 76 1.69998C76.1 1.59998 76.3 1.39998 76.3 1.29998C76.4 1.19998 76.4 1.09998 76.6 0.999976C76.6 0.999976 76.6 0.999976 76.7 0.999976C76.8 1.09998 76.9 1.29998 77.1 1.29998C77.1 1.29998 77.1 1.39998 77.2 1.39998C77.3 1.39998 77.3 1.39998 77.3 1.29998C77.3 1.29998 77.4 1.29998 77.4 1.19998C77.5 1.09998 77.6 0.899976 77.5 0.799976C77.5 0.799976 77.4 0.799976 77.4 0.699976L77.4 0.599976C77.4 0.599976 77.3 0.599976 77.3 0.499976C77.4 0.499976 77.4 0.499976 77.4 0.599976L77.4 0.499976C77.5 0.599976 77.5 0.599976 77.6 0.699976H77.7C77.7 0.499976 77.6 0.299976 77.3 0.299976C77.4 0.199976 77.6 -2.36332e-05 77.8 0.199976C78.2 0.299976 78.2 0.799976 77.8 0.999976C78.2 0.999976 78.2 0.399976 77.9 0.199976C77.6 -0.100024 77.2 0.0999764 77 0.399976H76.9C76.8 0.0999764 76.4 -0.100024 76.1 0.0999764C76 0.199976 75.9 0.499976 76 0.599976C76 0.599976 76 0.599976 75.9 0.599976C75.7 0.599976 75 0.799976 75 1.29998C74.5 1.09998 73.9 1.39998 73.7 1.79998C73.6 1.59998 73.2 1.49998 72.9 1.59998C72.6 1.79998 72.5 2.09998 72.6 2.39998C72.6 2.49998 72.7 2.69998 72.7 2.79998C72.3 2.89998 71.9 3.09998 72 3.59998C72 3.79998 72.4 3.99998 72.6 3.89998C72.5 3.79998 72.4 3.89998 72.3 3.79998C72.1 3.69998 72 3.49998 72.2 3.29998C72.3 2.99998 72.7 2.99998 72.9 2.89998C73 2.89998 73 2.79998 72.9 2.79998C72.7 2.79998 72.7 2.49998 72.7 2.39998C72.7 2.19998 72.8 1.99998 73 1.89998C73.4 1.69998 73.9 1.99998 73.7 2.39998C73.7 2.49998 73.6 2.39998 73.7 2.39998C73.7 2.39998 73.7 2.29998 73.8 2.29998C73.9 2.49998 74.1 2.59998 74.4 2.69998C74.5 2.69998 74.5 2.69998 74.6 2.69998C74.5 2.89998 74.5 2.99998 74.5 3.09998C74.5 3.19998 74.6 3.19998 74.6 3.09998C74.6 2.99998 74.7 2.79998 74.7 2.69998C74.6 2.69998 74.6 2.69998 74.5 2.69998C74.6 2.59998 74.7 2.59998 74.8 2.49998L74.9 2.39998C74.8 2.39998 74.8 2.49998 74.7 2.59998C74.8 2.59998 74.8 2.59998 74.8 2.59998C74.8 2.79998 74.8 2.89998 74.8 2.99998C74.9 2.89998 75 2.79998 75 2.59998C75 2.69998 75 2.79998 75 2.89998C75 2.79998 75 2.79998 75.1 2.69998C75.1 2.59998 75.2 2.39998 75.2 2.29998C75.3 2.29998 75.3 2.29998 75.4 2.39998C75.5 2.39998 75.5 2.49998 75.6 2.49998C75.7 2.29998 75.5 2.29998 75.3 2.29998C75.4 2.19998 75.4 2.19998 75.5 2.19998C75.6 2.29998 75.6 2.29998 75.6 2.29998C75.8 2.29998 75.9 2.29998 76 2.39998C76 2.39998 76.1 2.39998 76 2.29998C75.9 2.29998 75.8 2.29998 75.8 2.19998C75.7 2.09998 75.6 2.09998 75.5 2.09998C75.6 1.99998 75.6 1.79998 75.5 1.69998V1.79998C75.4 1.79998 75.4 1.69998 75.4 1.69998H75.5L75.4 1.59998C75.5 1.49998 75.5 1.49998 75.5 1.39998C75.5 1.39998 75.5 1.29998 75.4 1.29998C75.4 1.39998 75.3 1.49998 75.2 1.49998C75.1 1.49998 75.1 1.49998 75 1.49998C74.9 1.49998 74.6 1.59998 74.6 1.79998C74.5 1.79998 74.4 1.79998 74.3 1.79998C74.3 1.79998 74.2 1.89998 74.3 1.89998C74.4 1.89998 74.5 1.99998 74.6 1.99998C74.6 2.09998 74.6 2.09998 74.7 2.09998C74.6 2.19998 74.5 2.29998 74.4 2.29998V2.39998C74.4 2.39998 74.4 2.29998 74.3 2.39998C74.3 2.49998 74.2 2.49998 74.2 2.49998C74.2 2.49998 74.2 2.49998 74.1 2.49998C74 2.49998 73.8 2.39998 73.7 2.09998C73.7 1.59998 74.6 1.09998 75 1.39998C75.1 1.39998 75.1 1.39998 75.1 1.29998C75 0.999976 75.5 0.699976 75.9 0.799976C76.1 0.799976 76.1 0.899976 76.2 0.999976C76.2 1.09998 76.3 1.19998 76.2 1.19998C76.2 1.19998 76.2 1.19998 76.2 1.29998C76.2 1.29998 76.2 1.29998 76.1 1.39998C76 1.49998 75.9 1.59998 75.8 1.69998C75.7 1.69998 75.8 1.79998 75.8 1.79998C76.2 1.69998 76.8 2.09998 76.5 2.59998C76.3 2.89998 76.1 2.89998 75.8 2.89998C75.7 2.89998 75.6 2.79998 75.5 2.79998C75.5 2.79998 75.5 2.79998 75.5 2.69998C75.4 2.59998 75.4 2.59998 75.3 2.49998C75.3 2.59998 75.4 2.69998 75.4 2.79998C75.4 2.99998 75.2 3.29998 75 3.39998C75 3.29998 74.9 3.29998 74.9 3.29998H74.8C74.8 3.39998 74.9 3.39998 74.9 3.39998C74.7 3.39998 74.5 3.29998 74.4 3.09998C74.5 2.99998 74.5 2.89998 74.5 2.89998C74.5 2.89998 74.5 2.79998 74.4 2.89998C74.4 2.99998 74.4 3.09998 74.4 3.19998C74.4 3.29998 74.4 3.29998 74.3 3.29998C74.4 3.39998 74.4 3.39998 74.4 3.39998C74.3 3.39998 74.3 3.29998 74.2 3.29998C74.2 3.29998 74.2 3.29998 74.2 3.39998C74.2 3.39998 74.2 3.29998 74.1 3.29998H74C73.9 3.39998 73.9 3.49998 74.1 3.59998C74.1 3.69998 74.1 3.79998 74.1 3.99998C74.1 3.99998 74.2 4.09998 74.3 4.29998C74.4 4.59998 74.2 4.79998 73.9 4.89998C74.2 4.99998 73.9 4.99998 73.6 4.99998C73.5 4.99998 73.5 4.99998 73.4 4.89998C73.3 4.89998 73.3 4.89998 73.3 4.99998C73.3 5.09998 73.4 5.39998 73.3 5.49998C73.3 5.69998 73.1 5.99998 72.9 5.89998C72.8 5.89998 72.7 5.69998 72.7 5.49998C72.7 5.39998 72.7 5.29998 72.7 5.09998C72.6 5.49998 72.6 5.99998 73 5.99998C73.4 5.99998 73.5 5.79998 73.5 5.49998C73.6 5.79998 73.9 5.99998 74 6.19998L74.1 6.29998C74.1 6.39998 74.2 6.39998 74.2 6.39998H74.3V6.29998C74.4 6.39998 74.6 6.39998 74.7 6.39998C74.9 6.59998 75.2 6.79998 75.4 7.09998C75.6 7.29998 75.9 7.59998 76.1 7.79998C76.3 8.09998 76.5 8.29998 76.8 8.59998C76.9 8.69998 77 8.99998 77.1 9.19998C77.1 9.49998 77.1 9.69998 77.1 9.99998C77.1 10.5 77.1 11 77.1 11.5C77.1 12.2 77.2 13 77.2 13.8C77.1 13.2 76.9 12.6 76.8 12.1C76.7 11.7 76.6 11.4 76.4 11.1C76.3 11 76.2 10.8 76.1 10.7C76.1 10.3 76 9.99998 76 9.89998C75.5 8.79998 74 9.19998 73.4 8.39998C73.3 8.29998 73.3 8.39998 73.3 8.49998C73.3 8.59998 73.4 8.59998 73.4 8.59998C73.6 8.89998 73.8 9.19998 74 9.49998C73.9 9.19998 73.7 8.99998 73.5 8.69998C74.2 9.09998 75.3 9.09998 75.6 9.89998C75.7 10.3 75.8 10.5 76 10.8C76.2 11.1 76.4 11.5 76.4 11.8C76.3 11.5 76.2 11.2 76 11C75.9 10.8 75.8 10.6 75.7 10.4H75.6C75.5 10.3 75.5 10.3 75.5 10.2C75.8 10.7 76.1 11.2 76.3 11.8C76.4 12 76.4 12.2 76.5 12.4V12.6C76.6 12.8 76.7 13 76.7 13.2C76.6 13 76.5 12.9 76.4 12.8C76.3 12.4 76.1 12 76 11.6C75.9 11.4 75.8 11.1 75.6 10.9C75.7 10.3 75 9.89998 74.7 9.39998C74.8 9.79998 75.1 10.1 75.4 10.4C75.4 10.4 75.3 10.4 75.4 10.5C75.5 10.6 75.5 10.7 75.5 10.8C75.4 10.7 75.4 10.6 75.2 10.4C75 9.99998 74.7 9.49998 74.4 9.09998C74.4 9.09998 74.3 9.09998 74.3 9.19998C74.5 9.39998 74.7 9.69998 74.8 9.89998C75 10.1 75 10.4 75.2 10.6V10.5C75.3 10.7 75.5 10.9 75.6 11.2C75.7 11.5 75.9 11.9 76 12.1C76.1 12.3 76.2 12.5 76.3 12.7L76.2 12.6C76 12.4 75.8 12.2 75.6 12C75.9 12.4 76.4 12.7 76.7 13.3C76.7 13.4 76.8 13.4 76.8 13.5C76.8 13.7 76.9 13.8 76.9 14C76.9 14 76.9 13.9 77 13.9C77.2 14.4 77.4 14.8 77.5 15.3C77.6 16.3 77.7 17.3 77.7 18.3C77.9 17.3 77.8 16.2 77.6 15.1ZM78.5 3.09998C78.5 3.19998 78.5 3.19998 78.5 3.09998C78.5 3.19998 78.5 3.19998 78.4 3.19998C78.4 3.19998 78.5 3.19998 78.5 3.09998ZM77.5 5.09998C77.6 4.59998 77.6 3.99998 77.6 3.49998C77.6 3.09998 77.6 2.69998 77.5 2.19998C77.6 2.39998 78 2.59998 78.3 2.49998C78.2 2.69998 78.1 2.99998 78.2 3.19998L78.3 3.29998C78.2 3.49998 78.2 3.79998 78.1 3.99998C77.9 4.49998 77.8 4.99998 77.7 5.49998C77.6 5.69998 77.6 5.89998 77.6 6.09998C77.7 5.39998 77.7 4.79998 77.7 4.19998C77.6 4.99998 77.5 5.69998 77.5 6.29998C77.5 6.29998 77.6 6.39998 77.6 6.29998C77.6 6.49998 77.5 6.79998 77.5 6.99998V7.09998C77.5 6.79998 77.5 6.49998 77.4 6.19998C77.5 5.89998 77.5 5.49998 77.5 5.09998ZM75.2 2.19998C75.1 2.29998 75.1 2.29998 75 2.29998C75.1 2.19998 75.1 2.19998 75.2 2.19998ZM75 2.39998C75 2.49998 75 2.49998 74.9 2.59998C74.9 2.49998 75 2.39998 75 2.39998ZM77 0.999976C77.1 0.999976 77.1 0.999976 77 0.999976ZM77 0.699976C77.1 0.699976 77.1 0.699976 77 0.699976C77.1 0.599976 77.2 0.599976 77.2 0.599976C77.3 0.599976 77.3 0.699976 77.3 0.699976C77.2 0.699976 77.2 0.699976 77.2 0.699976C77.1 0.699976 77 0.699976 77 0.699976C76.9 0.699976 76.9 0.699976 77 0.699976ZM76 0.599976C76 0.399976 76.1 0.199976 76.4 0.199976C76.6 0.199976 76.8 0.299976 76.8 0.499976C76.8 0.599976 76.7 0.599976 76.6 0.699976C76.6 0.799976 76.6 0.799976 76.7 0.799976C76.8 0.699976 76.8 0.699976 76.9 0.699976V0.799976L76.8 0.699976C76.7 0.699976 76.7 0.699976 76.7 0.699976H76.6C76.6 0.799976 76.7 0.799976 76.7 0.799976C76.6 0.899976 76.6 0.999976 76.5 0.999976C76.4 0.999976 76.4 0.999976 76.3 1.09998C76.3 1.09998 76.3 0.999976 76.2 0.999976C76.2 0.999976 76.3 0.999976 76.2 0.899976C76.1 0.799976 76 0.699976 76 0.599976ZM76 2.89998C76.1 2.99998 76.1 2.89998 76 2.89998ZM75.8 2.89998C75.8 2.89998 75.9 2.99998 76 2.99998C75.9 2.99998 75.9 3.09998 75.8 3.09998C75.8 3.09998 75.8 3.09998 75.8 2.89998ZM76 3.09998C76 3.19998 76 3.29998 76 3.39998H75.9C75.9 3.39998 75.9 3.29998 76 3.09998ZM75.7 3.29998C75.8 3.29998 75.8 3.39998 75.8 3.39998C75.8 3.39998 75.7 3.39998 75.7 3.29998C75.6 3.19998 75.6 3.29998 75.7 3.29998C75.7 3.19998 75.7 3.19998 75.7 3.29998ZM75.6 2.89998C75.6 2.99998 75.6 2.99998 75.6 3.09998C75.5 3.09998 75.5 3.09998 75.6 2.89998ZM75 3.39998C75 3.49998 75 3.49998 75 3.59998C75 3.59998 75 3.59998 75 3.69998C75 3.69998 75 3.69998 74.9 3.59998C74.9 3.49998 74.8 3.59998 74.8 3.59998C74.8 3.59998 74.8 3.59998 74.7 3.49998C74.9 3.49998 74.9 3.49998 75 3.39998ZM75 3.89998C75 3.89998 75 3.89998 74.9 3.89998H75ZM74.9 3.69998C74.9 3.79998 74.9 3.79998 74.9 3.69998C74.8 3.69998 74.8 3.69998 74.8 3.59998C74.8 3.59998 74.8 3.69998 74.9 3.69998ZM74.7 4.09998C74.7 3.99998 74.7 3.99998 74.7 4.09998ZM74.1 3.79998C74.1 3.69998 74.2 3.69998 74.2 3.69998C74.2 3.79998 74.3 3.79998 74.3 3.79998C74.2 3.79998 74.2 3.79998 74.1 3.79998ZM74.2 3.69998C74.3 3.69998 74.3 3.69998 74.3 3.69998C74.4 3.79998 74.5 3.89998 74.7 3.99998C74.5 3.89998 74.4 3.79998 74.2 3.69998ZM73.9 5.79998C73.9 5.69998 73.9 5.69998 73.9 5.59998C73.9 5.69998 74 5.79998 74 5.99998C73.9 5.89998 73.9 5.79998 73.9 5.79998ZM74.4 6.29998C74.3 6.19998 74.3 6.19998 74.4 6.29998C74.2 6.19998 74.2 6.09998 74.2 6.09998C74.1 5.89998 74.1 5.79998 74 5.49998H74.1C74.1 5.49998 74.1 5.49998 74 5.39998C74.1 5.39998 74 5.29998 74 5.19998H73.9C73.9 5.29998 73.9 5.29998 73.9 5.29998C73.8 5.29998 73.8 5.19998 73.8 5.19998C73.8 5.09998 73.7 5.09998 73.7 5.09998C73.8 5.09998 74 5.09998 74.1 5.09998C74.2 5.49998 74.2 5.89998 74.4 6.29998C74.4 5.89998 74.3 5.59998 74.3 5.19998H74.4C74.5 5.29998 74.6 5.39998 74.7 5.59998C74.8 5.79998 74.7 6.29998 74.4 6.29998ZM74.7 6.29998C74.8 6.29998 75.1 6.49998 75.1 6.49998C75.1 6.49998 75.1 6.49998 75.2 6.49998C75.2 6.59998 75.3 6.59998 75.3 6.59998C75.1 6.59998 74.9 6.39998 74.7 6.29998ZM74.8 6.29998C74.8 6.29998 74.8 6.19998 74.9 6.19998C75 6.19998 75 6.29998 75.1 6.29998L75.2 6.39998C75 6.29998 74.9 6.29998 74.8 6.29998ZM75.3 6.79998L75.4 6.89998C75.6 6.99998 75.7 7.09998 75.8 7.19998C75.6 6.99998 75.5 6.89998 75.3 6.79998ZM77.1 8.69998C76.8 8.19998 76.6 7.79998 76.2 7.39998C76 7.19998 75.8 6.99998 75.6 6.79998C75.5 6.59998 75.4 6.59998 75.2 6.39998C75.2 6.29998 74.9 6.09998 74.9 5.99998C75 5.69998 74.7 5.19998 74.4 5.09998H74.5C74.7 4.99998 75 4.69998 74.9 4.39998C74.9 4.29998 74.9 4.29998 74.8 4.19998C74.9 4.19998 75 4.19998 75 4.19998C75 4.19998 75.1 4.29998 75.2 4.39998C75.3 4.69998 75.5 4.99998 75.8 5.29998C76 5.69998 76.2 5.99998 76.3 6.39998C76.7 6.99998 76.9 7.69998 77.1 8.49998C77.1 8.59998 77.1 8.59998 77.1 8.69998ZM77.1 7.99998C77 7.49998 76.8 6.89998 76.5 6.29998C76.3 5.89998 76 5.49998 75.8 5.19998C75.8 4.99998 75.6 4.79998 75.5 4.69998C75.5 4.69998 75.5 4.69998 75.5 4.59998C75.5 4.49998 75.4 4.39998 75.4 4.39998C75.3 4.29998 75.2 4.19998 75.2 4.09998C75.2 4.09998 75.2 4.09998 75.1 4.09998L75 3.99998L75.1 3.89998C75.5 4.29998 75.8 4.79998 76 5.19998C76.4 5.89998 76.8 6.69998 77 7.49998C77.1 7.59998 77.1 7.89998 77.1 7.99998ZM77.1 7.29998C76.8 6.59998 76.5 5.79998 76.1 5.19998C75.8 4.69998 75.5 4.29998 75.2 3.89998C75.3 3.79998 75.3 3.79998 75.3 3.69998C75.2 3.69998 75.1 3.59998 75 3.49998C75.1 3.39998 75.2 3.39998 75.3 3.29998C75.4 3.19998 75.4 3.19998 75.4 3.19998C75.5 3.49998 75.8 3.79998 76.1 3.69998C76.1 3.69998 76.2 3.69998 76.2 3.59998C76.3 3.89998 76.4 4.09998 76.6 4.39998C76.6 4.49998 76.6 4.49998 76.7 4.49998C76.8 5.09998 76.9 5.79998 77 6.29998C77.1 6.59998 77.1 6.79998 77.1 7.09998C77.1 7.19998 77.1 7.29998 77.1 7.29998ZM77 5.79998C76.8 4.99998 76.6 4.19998 76.3 3.49998C76.6 3.89998 76.8 4.39998 77 4.89998C77.1 5.29998 77.1 5.59998 77.1 5.89998C77.1 5.79998 77.1 5.79998 77 5.79998ZM77.3 7.89998C77.3 7.99998 77.2 8.29998 77.2 8.59998C77.2 8.49998 77.2 8.49998 77.2 8.49998C77.2 8.19998 77.2 7.99998 77.3 7.89998C77.3 7.79998 77.2 7.79998 77.2 7.59998C77.2 7.39998 77.2 7.19998 77.2 7.09998C77.2 6.99998 77.2 6.79998 77.2 6.69998C77.3 6.99998 77.3 7.39998 77.3 7.89998ZM76.6 12.5C76.6 12.4 76.6 12.4 76.6 12.3C76.7 12.5 76.7 12.8 76.8 13C76.8 12.9 76.7 12.7 76.6 12.5Z" fill="#685649"/>
<path d="M74.3 6.09998C74.3 6.19998 74.3 6.19998 74.3 6.09998Z" fill="#685649"/>
<path d="M71.2 13.2C71.1 12.8 70.7 12.4 70.4 12.2C70.5 12.3 70.7 12.5 70.8 12.6C71 12.7 71 12.9 71.1 13C71 13 71 12.9 70.9 12.8C70.8 12.7 70.8 12.6 70.6 12.4C70.5 12.3 70.4 12.2 70.3 12C70.3 12 70.2 12 70.2 12.1C70.3 12.2 70.4 12.3 70.5 12.5C70.5 12.5 70.5 12.5 70.4 12.4C70.3 12.3 70.3 12.3 70.2 12.2C70.3 12.3 70.3 12.3 70.4 12.5C70.8 12.9 71.1 13.3 71.6 13.6L71.5 13.5C71.6 13.5 71.6 13.6 71.7 13.6C71.5 13.5 71.3 13.4 71.2 13.2Z" fill="#685649"/>
<path d="M72.9 4.79998C72.9 4.99998 72.8 5.19998 72.8 5.39998C72.8 5.19998 72.8 4.99998 72.9 4.79998Z" fill="#685649"/>
<path d="M74.6 5.99998C74.6 5.89998 74.6 5.69998 74.5 5.59998H74.4C74.4 5.69998 74.4 5.69998 74.4 5.69998C74.4 5.59998 74.3 5.39998 74.3 5.19998C74.3 5.49998 74.4 5.79998 74.6 5.99998Z" fill="#685649"/>
<path d="M77.1 20.4C77.1 20.5 77.1 20.7 77.1 20.8C77.1 20.8 77.2 20.9 77.2 20.8C77.3 20.4 77.3 19.9 77.3 19.6C77.2 19.2 77.2 18.7 77 18.4C76.9 18.3 76.9 18.2 76.9 18C76.9 18 76.9 18 76.9 17.9C76.9 17.8 76.9 17.8 76.9 17.7C76.9 17.7 76.9 17.8 77 17.8C77.3 18.3 77.4 18.9 77.6 19.5C77.6 18.9 77.4 18.3 77.1 17.8C76.9 17.4 76.7 17 76.4 16.6V16.5C76.6 16.8 76.8 17.1 77.1 17.4C77.3 17.8 77.6 18.2 77.7 18.6C77.8 19.2 77.8 19.7 77.6 20.3C77.6 20.4 77.7 20.4 77.7 20.3C77.8 20 77.9 19.7 77.9 19.4C77.9 19.3 77.9 19.2 77.9 19.1C77.8 18.6 77.7 18.2 77.4 17.8C77 17.4 76.6 17 76.3 16.6C76.2 16.5 76.1 16.3 76 16.2C75.9 16 75.8 15.8 75.6 15.6C75.5 14.2 74.9 12.7 73.7 12H73.6C73.8 12.1 73.9 12.3 74.1 12.4C74.2 12.5 74.2 12.6 74.2 12.7C74.3 12.8 74.3 12.9 74.3 13H74.4V12.9C74.6 13.2 74.8 13.5 74.9 13.8C75 14 75 14.3 75.1 14.5C75 14.2 74.8 13.8 74.6 13.5C74.6 13.4 74.5 13.4 74.5 13.3C74.5 13.2 74.4 13.2 74.4 13.1C74.2 12.8 74.1 12.5 73.8 12.3C73.6 12.3 73.5 12.2 73.5 12.1C73.5 12.2 73.5 12.3 73.5 12.4C73.3 12 73 11.7 72.7 11.5C72.6 11.4 72.6 11.5 72.6 11.6V11.7C72.1 11.3 71.6 10.9 71.1 10.5C71 10.4 71 10.6 71 10.6C71.4 10.9 71.7 11.1 72 11.4C72.4 11.9 72.8 12.4 73.1 12.9H73.2C73.4 13.3 73.6 13.7 73.7 14.1C73.8 14.5 73.8 14.8 74 15.2L73.9 15.1C73.9 14.7 73.7 14.4 73.6 14C73.5 13.6 73.4 13.3 73.2 13H73.1C73 12.9 73 12.8 72.9 12.7C72.9 12.6 72.8 12.6 72.8 12.7L72.7 12.6C72.3 12 71.9 11.6 71.4 11.1V11.2C71.8 11.6 72.1 11.9 72.4 12.3C72.5 12.7 72.7 13.1 72.8 13.5C72.9 13.9 73.1 14.3 73.2 14.6C73.2 14.2 73 13.8 72.8 13.4C72.7 13 72.5 12.7 72.4 12.3C72.5 12.4 72.6 12.5 72.7 12.7C72.8 12.8 72.9 13 73 13.1C73.1 13.3 73.1 13.6 73.2 13.8C73.3 14.1 73.3 14.5 73.5 14.7H73.6C73.6 14.8 73.7 14.7 73.7 14.7C73.7 14.5 73.6 14.3 73.6 14.1C73.7 14.4 73.7 14.7 73.9 15C73.9 15 73.9 15 73.8 15C73.5 14.8 73.2 14.6 72.9 14.4H73C73 14 72.8 13.6 72.6 13.2C72.4 12.8 72.2 12.4 71.9 12H71.8C72 12.4 72.2 12.7 72.3 13C71.9 12.3 71.2 11.7 70.6 11.3C71 11.8 71.5 12.2 71.9 12.7C72.3 13.2 72.6 13.8 72.8 14.4C72.8 14.4 72.8 14.4 72.8 14.5C72.8 14.5 72.8 14.5 72.7 14.5C72.7 14.5 72.7 14.5 72.8 14.5C72.8 14.5 72.8 14.5 72.8 14.6C72.7 14.6 72.6 14.5 72.6 14.5C71.7 14.2 70.8 13.7 70.2 13C70.2 12.9 70.1 12.9 70.1 12.8H70C69.8 12.6 69.6 12.3 69.6 12C69.6 12 69.6 12 69.6 12.1C69.7 12.5 70 13 70.3 13.3C70.4 13.5 70.4 13.7 70.5 13.9C70.6 14.2 70.9 14.4 71 14.6C71.3 15 71.7 15.2 72.1 15.4C72 15.4 72 15.5 72.1 15.5C72.2 15.5 72.3 15.6 72.4 15.6C72.5 15.6 72.5 15.6 72.5 15.5C72.6 15.5 72.6 15.5 72.7 15.5L72.6 15.4C72.6 15.4 72.5 15.4 72.5 15.3C72.5 15.3 72.6 15.3 72.6 15.4C72.7 15.4 72.9 15.5 73 15.5C73.2 15.6 73.5 15.6 73.8 15.6C73.9 15.5 74.1 15.6 74.2 15.6C74.1 15.6 74 15.6 73.9 15.6C74.1 15.7 74.3 15.7 74.6 15.7C74.7 15.8 74.7 15.8 74.8 15.8C74.6 15.7 74.4 15.7 74.2 15.7C73.7 15.6 73.2 15.6 72.7 15.7V15.8C73 15.8 73.4 15.8 73.7 15.8C74 15.8 74.4 15.9 74.6 16C74.5 16 74.5 16 74.4 16C74.1 15.9 73.9 15.9 73.6 15.9C73.5 15.9 73.5 15.9 73.5 15.8C73.4 15.8 73.2 15.8 73 15.7C72.9 15.7 72.3 15.6 72.1 15.4C72.1 15.4 72.1 15.4 72.1 15.5C71.8 16.2 73.6 16.2 73.8 16.2C73.9 16.2 74 16.2 74.2 16.3C74.3 16.4 74.5 16.4 74.6 16.4C74.8 16.2 75.2 16.3 75.5 16.5C75.6 16.6 75.7 16.8 75.9 16.9C76 17.1 76 17.2 76 17.3H76.1C76.1 17.2 76.1 17.2 76.1 17.2L76.2 17.3C76.4 17.7 76.6 18 76.8 18.5C76.9 18.9 77 19.3 77.1 19.7C77.1 19.9 77.1 20.1 77.1 20.4C76.9 21.3 76.3 22 75.5 22.5C75.4 22.5 75.5 22.6 75.6 22.6C76.3 22 76.8 21.3 77.1 20.4ZM75 14.4C75.1 14.6 75.2 14.8 75.2 15V15.1C75.2 15.2 75.2 15.4 75.3 15.5C75.3 15.4 75.2 15.4 75.2 15.4C75.2 15.3 75.2 15.1 75.1 15C75.1 14.8 75.1 14.6 75 14.4C75 14.2 74.9 14.1 74.9 14C74.9 14.1 75 14.1 75 14.2C75 14.3 75 14.3 75 14.4ZM74.3 13C74.3 13.1 74.4 13.1 74.4 13.2C74.5 13.3 74.5 13.4 74.6 13.5C74.7 13.9 74.8 14.2 75 14.5C75 14.6 75 14.7 75 14.8C74.8 14.1 74.5 13.3 74.1 12.6C74.2 12.8 74.2 12.9 74.3 13ZM75 15.5V15.4C75.1 15.5 75.1 15.5 75.1 15.7H75.2V15.8C75.2 15.7 75.1 15.6 75 15.5ZM75.3 15.7C75.3 15.8 75.3 15.8 75.3 15.7ZM73.9 12.3C74 12.4 74 12.4 74.1 12.5H74C73.9 12.4 73.9 12.4 73.9 12.3ZM73.4 12.2C73.6 12.5 73.8 12.8 73.9 13.1C73.9 13.2 74 13.2 74 13.3C74 13.2 73.9 13.2 73.9 13.2C73.6 12.7 73.2 12.1 72.8 11.6V11.5C73.1 11.7 73.2 11.9 73.4 12.2ZM73.6 15.2C73.5 15.2 73.5 15.2 73.4 15.2C73.4 15.1 73.3 15.1 73.2 15.1C73.4 15.1 73.5 15.1 73.6 15.2C73.6 15.1 73.6 15.1 73.6 15.2ZM73 14.8C72.7 14.7 72.3 14.5 72.1 14.4C71.8 14.2 71.6 14.1 71.3 13.9C72 14.3 72.7 14.7 73.5 15C73.3 14.9 73.1 14.9 73 14.8ZM72.6 15.1C72.5 15.2 72.4 15.2 72.3 15.1C72.4 15.1 72.4 15 72.4 15C72.6 15.1 72.8 15.1 73.1 15.1C72.8 15 72.5 15 72.2 14.9C71.7 14.6 71.2 14.3 71 14C70.8 13.8 70.6 13.6 70.5 13.3C70.5 13.2 70.4 13.2 70.4 13.2C70.6 13.4 70.9 13.6 71.2 13.8C71.4 13.9 71.5 14.1 71.7 14.2C71.5 14.1 71.4 14 71.2 14C71.2 14 71.1 14 71.2 14.1C71.6 14.2 71.9 14.5 72.2 14.6C72 14.5 71.8 14.5 71.5 14.4C71.5 14.4 71.4 14.4 71.5 14.5C72 14.7 72.4 14.9 73 15.1C72.9 15.1 72.8 15.1 72.6 15.1ZM73.3 15.4C73.2 15.3 72.9 15.3 72.8 15.3C73 15.3 73.2 15.3 73.4 15.3C73.6 15.4 73.8 15.4 74 15.4C74.1 15.4 74.1 15.5 74.2 15.5C73.9 15.4 73.6 15.4 73.3 15.4ZM74.1 15.2C74 14.5 73.7 13.7 73.4 13C73.4 13.1 73.5 13.2 73.5 13.2C73.7 13.6 73.9 14 74 14.4C74.1 14.7 74.1 15.1 74.3 15.3C74.2 15.3 74.2 15.3 74.1 15.2ZM74.3 15.6C74.4 15.6 74.5 15.7 74.6 15.7C74.5 15.6 74.4 15.6 74.3 15.6ZM74.2 15.7C74.6 15.8 74.9 15.9 75.1 16.1C74.8 15.9 74.5 15.8 74.2 15.7ZM75.9 16.3C76 16.4 76 16.5 76 16.7C76 16.6 76 16.5 75.9 16.5C75.9 16.4 75.8 16.3 75.8 16.1C75.8 16.2 75.8 16.3 75.9 16.3ZM76 17C76 17 75.9 16.8 75.8 16.7C76 16.8 76.1 17 76.2 17.2C76.2 17.2 76.1 17.1 76 17Z" fill="#685649"/>
<path d="M72.2 15.5C72.3 15.5 72.4 15.5 72.5 15.5C72.5 15.5 72.4 15.5 72.4 15.4L72.2 15.5Z" fill="#685649"/>
<path d="M75.2 14.9C75.2 15 75.3 15.1 75.3 15.2C75.2 15.1 75.2 15.1 75.2 14.9C75.2 14.7 75.1 14.6 75.1 14.4C75.1 14.6 75.1 14.8 75.2 14.9Z" fill="#685649"/>
<path d="M70.8 12.2C71.1 12.5 71.3 12.7 71.5 13.1C71.6 13.3 71.8 13.6 71.9 13.8C71.9 13.8 71.9 13.8 72 13.9C71.9 13.6 71.7 13.3 71.5 13C71.3 12.7 71.1 12.4 70.8 12.2Z" fill="#685649"/>
<path d="M70.3 12.1C70.4 12.1 70.4 12.1 70.5 12.1C70.6 12.1 70.7 12.1 70.8 12.1C70.7 11.8 70.5 11.4 70.4 11.1C70.4 11.1 70.3 11.1 70.3 11C70.4 11.3 70.6 11.7 70.7 11.9C70.8 11.9 70.7 12 70.7 12C70.5 12 70.3 12 70.1 12C70.2 12.1 70.2 12.1 70.3 12.1Z" fill="#685649"/>
<path d="M71.5 11.2C71.4 11.2 71.4 11.2 71.5 11.2C71.4 11.2 71.4 11.4 71.4 11.5L71.5 11.6C71.5 11.4 71.5 11.3 71.5 11.2Z" fill="#685649"/>
<path d="M71.4 11.6C71.4 11.5 71.4 11.5 71.4 11.6C71.1 11.3 70.7 11.1 70.4 10.9C70.3 10.9 70.3 10.9 70.3 11C70.3 11 70.3 11 70.3 11.1C70.7 11.2 71 11.4 71.4 11.6Z" fill="#685649"/>
<path d="M83.1 19.9C82.6 19.6 82.2 19.4 81.7 19C82.1 19.3 82.5 19.7 83.1 19.9Z" fill="#685649"/>
<path d="M81.1 18.6C81.5 19 81.9 19.3 82.3 19.6C82.4 19.7 82.8 20 83.1 19.8C82.7 19.8 82.4 19.5 82 19.3C81.7 19.1 81.3 18.9 81.1 18.6Z" fill="#685649"/>
<path d="M82.6 19.2C82.3 19.1 82 18.8 81.7 18.6C82 18.9 82.4 19.1 82.7 19.3C83.1 19.4 83.4 19.7 83.8 19.7V19.6C83.7 19.5 83.6 19.5 83.4 19.5C83.5 19.5 83.5 19.5 83.7 19.5C83.7 19.5 83.7 19.5 83.7 19.4C83.4 19.3 83.2 19.3 82.9 19.2C82.5 19.2 82.3 19 82.1 18.8C82.3 19 82.4 19.1 82.6 19.2Z" fill="#685649"/>
<path d="M85.3 19.1C84.9 19 84.4 19 84 18.7C84 18.7 83.9 18.7 84 18.8C84.1 18.9 84.1 18.9 84.3 18.9C83.9 18.8 83.4 18.6 83.4 18.5C83.4 18.4 83.3 18.4 83.3 18.5C83.3 18.6 83.4 18.7 83.6 18.8C83.7 18.8 83.7 18.9 83.8 18.9C83.7 18.8 83.5 18.8 83.4 18.7C83.2 18.6 83 18.5 82.9 18.3C82.9 18.3 82.8 18.3 82.9 18.4C82.9 18.4 82.9 18.4 83 18.5C82.9 18.5 82.9 18.6 82.9 18.6C83.1 18.7 83.3 18.8 83.5 18.9C83.7 19 83.9 19.1 84.1 19.1C84.5 19.2 84.8 19.3 85.2 19.3C85.3 19.3 85.3 19.2 85.2 19.2C85.2 19.2 85.2 19.2 85.1 19.2H85.2C85.5 19.2 85.8 19.3 86 19.2V19.1C85.9 19 85.7 19 85.5 19C85.4 19.1 85.3 19.1 85.3 19.1Z" fill="#685649"/>
<path d="M83.9 17.2C83.5 17.1 83.2 17.3 82.9 17.4C82.6 17.6 82.3 17.8 82 17.9C82.4 17.8 82.7 17.6 83.1 17.5C83.3 17.4 83.7 17.4 83.9 17.2Z" fill="#685649"/>
<path d="M84 18.1C84.2 18.1 84.4 18 84.7 18C84.9 18 85.1 18 85.3 18C84.8 17.8 84.3 18 84 18.1Z" fill="#685649"/>
<path d="M85.2 18.9C85.5 19 85.7 19 86 19C86 19 86 19 86 18.9C85.4 18.8 84.8 18.7 84.2 18.5C84.5 18.8 84.9 18.8 85.2 18.9Z" fill="#685649"/>
<path d="M76.2 12.4C76.1 12.3 76 12.2 76 12.2C75.9 11.7 75.6 11.2 75.3 10.8C75.5 11.4 75.8 11.9 76.2 12.4Z" fill="#685649"/>
<path d="M75.2 10.7L75.3 10.8C75.3 10.8 75.3 10.7 75.2 10.7Z" fill="#685649"/>
<path d="M74.7 9.99998C74.8 10.2 75 10.5 75.2 10.8H75.3C75 10.2 74.5 9.69998 74.1 9.19998C74.3 9.49998 74.5 9.79998 74.7 9.99998Z" fill="#685649"/>
<path d="M81.3 14.3C80.9 14.4 80.6 14.5 80.1 14.6C79.6 14.7 79.2 14.7 78.8 14.7C78.7 14.7 78.7 14.8 78.8 14.8C79.2 14.8 79.7 14.8 80.1 14.7C80.6 14.6 81 14.6 81.3 14.3Z" fill="#685649"/>
<path d="M80.8 14.4C81.1 14.4 81.3 14.4 81.3 14.1C81.2 14.5 80.6 14.3 80.3 14.3C79.9 14.3 79.5 14.3 79.1 14.3C79 14.3 79 14.4 79.1 14.4C79.7 14.4 80.3 14.4 80.8 14.4Z" fill="#685649"/>
<path d="M81.3 14C81 13.9 80.6 14 80.3 14C80 14.1 79.6 14.1 79.4 14.1C79.3 14.1 79.3 14.2 79.4 14.2C80 14.2 80.7 14.2 81.3 14Z" fill="#685649"/>
<path d="M81.5 13.6C81.1 13.7 80.8 13.7 80.6 13.8C80.2 13.9 79.8 13.9 79.4 13.8C79.3 13.8 79.3 13.9 79.4 13.9C80 14 81 14 81.5 13.6Z" fill="#685649"/>
<path d="M81.2 13.5C81.5 13.5 81.8 13.4 81.9 13.2C81.6 13.4 81.2 13.4 80.9 13.5C80.5 13.5 80.1 13.5 79.7 13.6C79.6 13.6 79.6 13.7 79.7 13.7C80.2 13.5 80.7 13.5 81.2 13.5Z" fill="#685649"/>
<path d="M81.4 13.2C81.7 13.1 82.2 13.1 82.2 12.8C82.2 12.8 82.1 12.7 82.1 12.8C82 13.2 81.3 13.2 81 13.2C80.6 13.3 80.1 13.3 79.8 13.3C79.7 13.3 79.7 13.4 79.8 13.4C80.3 13.3 80.9 13.2 81.4 13.2Z" fill="#685649"/>
<path d="M82.3 11.6C82.2 11.6 82.1 11.7 82 11.7C82.1 11.6 82.2 11.6 82.3 11.5C82 11.5 81.8 11.6 81.5 11.8C81.2 11.9 81 11.9 80.7 12C80.6 12 80.6 12.1 80.7 12.1C80.8 12.1 80.9 12.1 80.9 12.1C80.7 12.2 80.5 12.2 80.3 12.3C80.3 12.4 80.3 12.5 80.4 12.5C80.5 12.5 80.5 12.5 80.5 12.4C81 12.5 81.6 12.5 82 12.1C82 12.1 82 12 81.9 12C81.5 12.2 81.1 12.4 80.6 12.3C80.8 12.2 81 12.2 81.3 12.1C81.7 12 82 11.9 82.3 11.6Z" fill="#685649"/>
<path d="M82.1 10.9C81.9 11 81.7 11.1 81.4 11.1C81.3 11.1 81.3 11.2 81.4 11.2C81.7 11.1 81.9 11.1 82.1 11C82.4 10.9 82.6 10.8 82.7 10.5C82.5 10.6 82.4 10.8 82.1 10.9Z" fill="#685649"/>
<path d="M82.9 9.89998C82.8 9.99998 82.7 10.3 82.5 10.4C82.4 10.5 82.1 10.7 81.8 10.7C81.7 10.7 81.7 10.8 81.8 10.8C82.3 10.8 82.9 10.5 82.9 9.89998Z" fill="#685649"/>
<path d="M81.6 14.3C81.7 14.2 81.9 14.2 82 14.1V14C81.8 14 81.6 14.1 81.6 14.3Z" fill="#685649"/>
<path d="M81.6 13.8C81.7 13.9 81.8 13.8 81.9 13.8C82 13.8 82.1 13.7 82.1 13.7V13.6C82 13.7 82 13.7 81.9 13.7C81.9 13.8 81.7 13.8 81.6 13.8Z" fill="#685649"/>
<path d="M81.8 13.5C82 13.4 82.2 13.3 82.4 13.2V13.1C82.1 13.2 81.9 13.4 81.8 13.5C81.7 13.5 81.6 13.5 81.8 13.5Z" fill="#685649"/>
<path d="M82.1 13.2C82.3 13.1 82.5 13.1 82.5 12.8C82.4 13 82.2 13 82.1 13.2C82 13.2 82 13.1 82.1 13.2Z" fill="#685649"/>
<path d="M82.4 12.4C82.3 12.5 82.3 12.5 82.3 12.6C82.3 12.7 82.4 12.7 82.4 12.7C82.4 12.7 82.4 12.6 82.4 12.4C82.5 12.3 82.6 12.3 82.5 12.2C82.5 12.3 82.4 12.4 82.4 12.4Z" fill="#685649"/>
<path d="M82.6 11.8C82.5 11.9 82.4 12 82.2 12.1C82.1 12.1 82.2 12.2 82.3 12.2C82.4 12.1 82.6 11.9 82.6 11.8Z" fill="#685649"/>
<path d="M81.9 12.6C81.4 12.8 81 13 80.4 13.1C80.8 13.1 81.4 13 81.9 12.6Z" fill="#685649"/>
<path d="M78.2 13.4C78.1 13.7 78.2 13.9 78.2 14.2C78.3 14.5 78.3 14.8 78.3 15.1H78.4C78.4 14.8 78.3 14.6 78.3 14.3C78.3 14 78.2 13.7 78.2 13.4Z" fill="#685649"/>
<path d="M78.4 13.2C78.3 13.7 78.4 14.3 78.5 14.7C78.5 14.8 78.6 14.7 78.6 14.7C78.5 14.4 78.5 14.1 78.5 13.8C78.4 13.6 78.4 13.4 78.4 13.2Z" fill="#685649"/>
<path d="M78.6 14.3C78.7 14.4 78.6 14.4 78.6 14.3C78.7 13.7 78.7 13.2 78.6 12.7C78.4 13.2 78.5 13.8 78.6 14.3Z" fill="#685649"/>
<path d="M78.7 12.8C78.7 13 78.7 13.2 78.7 13.5C78.7 13.6 78.8 13.6 78.8 13.5C78.8 13.3 78.8 13.1 78.8 12.8C78.7 12.7 78.8 12.4 78.7 12.2C78.7 12.4 78.7 12.6 78.7 12.8Z" fill="#685649"/>
<path d="M78.9 13C78.9 13.1 79 13.1 79 13C79.1 12.6 79.1 12.2 78.9 11.8C78.9 12.1 79 12.5 78.9 13Z" fill="#685649"/>
<path d="M79.2 12.8C79.3 12.9 79.2 12.9 79.2 12.8C79.3 12.4 79.3 11.9 79.2 11.4C79.2 11.9 79.2 12.4 79.2 12.8Z" fill="#685649"/>
<path d="M79.3 11.9C79.3 12.2 79.3 12.4 79.3 12.7C79.3 12.7 79.4 12.8 79.4 12.7C79.4 12.5 79.5 12.2 79.5 11.9C79.4 11.7 79.5 11.5 79.4 11.2C79.3 11.4 79.3 11.6 79.3 11.9Z" fill="#685649"/>
<path d="M79.5 11.7C79.5 12 79.5 12.2 79.5 12.4C79.5 12.5 79.6 12.5 79.6 12.4C79.7 12 79.7 11.4 79.5 10.9C79.5 11.2 79.5 11.5 79.5 11.7Z" fill="#685649"/>
<path d="M79.8 11.6C79.8 11.8 79.8 12 79.8 12.2C79.8 12.3 79.9 12.3 79.9 12.2C79.8 11.9 79.8 11.8 79.8 11.6C79.9 11.4 79.9 11.2 79.8 11.1C79.7 11.2 79.8 11.4 79.8 11.6Z" fill="#685649"/>
<path d="M80.5 11C80.6 11 80.6 10.9 80.6 10.8C80.6 10.8 80.6 10.9 80.5 11Z" fill="#685649"/>
<path d="M82.1 9.79998C82.2 9.49998 82.3 9.19998 82.4 8.99998C82.4 8.99998 82.3 8.89998 82.3 8.99998C82.2 9.19998 82.1 9.49998 82.1 9.79998Z" fill="#685649"/>
<path d="M82.2 9.59998C82.3 9.79998 82.1 9.69998 82.2 9.59998C82.3 9.49998 82.4 9.29998 82.5 9.19998C82.6 9.09998 82.6 8.79998 82.6 8.59998C82.6 8.59998 82.5 8.49998 82.5 8.59998C82.4 8.69998 82.4 8.89998 82.4 8.99998C82.4 9.19998 82.3 9.39998 82.2 9.59998Z" fill="#685649"/>
<path d="M77.8 7.89998V7.99998C77.8 7.89998 77.8 7.79998 77.9 7.69998C77.9 7.79998 77.9 7.79998 77.8 7.89998Z" fill="#685649"/>
<path d="M77.9 15C77.8 14.9 77.8 14.7 77.8 14.6C77.9 15.1 77.9 15.5 78 16C78 16 78 16 78 15.9C78 15.7 77.9 15.4 77.9 15.2C77.9 15.1 77.9 15 77.9 15Z" fill="#685649"/>
<path d="M77.9 7.59998C77.9 7.49998 78 7.39998 78 7.29998C78 7.29998 78 7.39998 77.9 7.39998C77.9 7.49998 77.9 7.59998 77.9 7.59998Z" fill="#685649"/>
<path d="M77.7 12.3C77.7 12.6 77.7 12.9 77.7 13.2C77.7 13.3 77.7 13.4 77.7 13.5L77.8 13.4C77.8 13.1 77.8 12.8 77.7 12.5C77.7 12.5 77.7 12.4 77.7 12.3Z" fill="#685649"/>
<path d="M77.7 8.59998C77.7 8.39998 77.8 8.29998 77.8 8.09998C77.8 8.19998 77.7 8.29998 77.7 8.39998C77.7 8.49998 77.7 8.59998 77.6 8.69998C77.6 8.99998 77.5 9.19998 77.6 9.49998H77.5C77.5 9.59998 77.5 9.69998 77.5 9.89998H77.6V9.79998C77.6 9.39998 77.6 8.99998 77.7 8.59998Z" fill="#685649"/>
<path d="M77.7 8.39998C77.7 8.19998 77.8 7.99998 77.8 7.89998C77.8 7.79998 77.8 7.69998 77.9 7.59998C77.9 7.69998 77.8 7.79998 77.8 7.79998C77.8 7.69998 77.8 7.59998 77.8 7.39998C77.8 7.49998 77.8 7.49998 77.7 7.59998V7.69998C77.6 8.19998 77.6 8.49998 77.5 8.89998C77.5 8.89998 77.6 8.99998 77.6 8.89998V8.79998C77.6 8.69998 77.6 8.59998 77.7 8.39998C77.7 8.49998 77.7 8.49998 77.7 8.39998Z" fill="#685649"/>
<path d="M78.2 16.4C78.5 15.7 79.4 15.9 79.9 15.8C80.4 15.7 80.8 15.5 81.2 15.1V15C81.1 15 81.1 14.9 81.1 14.9C81.5 14.6 82.3 14.6 82.3 14.1C82.3 14 82.2 13.8 82.3 13.7C82.4 13.5 82.5 13.4 82.7 13.3C82.8 13.1 83 12.8 83.1 12.6C83.2 12.3 83 12 83 11.7C83 11.3 83.1 11 83.1 10.7C83.1 10.4 83.1 9.99998 83.2 9.79998C83.2 9.69998 83.2 9.59998 83.3 9.39998C83.3 9.49998 83.3 9.49998 83.3 9.49998C83.3 9.49998 83.4 9.59998 83.4 9.49998C83.5 9.29998 83.5 9.09998 83.5 8.79998C83.5 8.69998 83.6 8.69998 83.6 8.69998C83.7 8.29998 83.7 7.99998 83.7 7.59998C83.7 7.49998 83.6 7.49998 83.6 7.59998C83.5 7.69998 83.5 7.69998 83.4 7.79998C83.4 7.89998 83.3 8.09998 83.3 8.29998C83.3 8.19998 83.3 8.19998 83.3 8.09998H83.2C83.2 7.99998 83.2 7.99998 83.2 7.99998C83.2 7.99998 83.1 8.09998 83 8.19998L82.9 8.29998C82.8 8.39998 82.7 8.69998 82.6 8.79998C82.5 8.99998 82.5 9.19998 82.4 9.49998C82.4 9.59998 82.5 9.59998 82.5 9.49998C82.6 9.39998 82.6 9.19998 82.7 8.99998C82.7 8.99998 82.8 9.09998 82.8 8.99998C82.6 9.39998 82.4 9.79998 82 10.2C81.5 10.8 80.8 11.3 80.3 11.9C79.3 12.9 78.6 14.2 78.4 15.7C78.3 15.8 78.3 16 78.2 16.1C78.2 15.9 78.3 15.7 78.3 15.5C78.3 15.5 78.3 15.5 78.3 15.4C78.3 15.4 78.3 15.3 78.2 15.4C78.2 15.4 78.2 15.3 78.1 15.3C78.1 15.2 78.1 15.2 78.1 15.1C78 14.8 77.9 14.5 77.9 14.1C77.9 14 77.9 14 77.9 14C77.9 13.9 77.9 13.7 77.8 13.6C77.8 13.5 77.9 13.4 77.9 13.2C78 13 78.1 12.8 78.2 12.7C78.3 12.5 78.2 12.3 78.3 12C78.4 11.7 78.5 11.6 78.8 11.3C78.9 11.2 78.9 11.2 79 10.9C79 10.6 79.1 10.4 79.3 10.3C79.4 10.4 79.6 10.5 79.8 10.6C79.8 10.8 79.9 11 79.9 11.2C79.9 11.4 79.9 11.6 79.9 11.9C79.9 12 80 12 80 11.9C80.1 11.5 80.1 11 79.9 10.7C80 10.7 80 10.7 80 10.7C80 10.9 80 11.1 80.1 11.4H80.2C80.2 11.2 80.2 11 80.1 10.7C80.2 10.7 80.2 10.7 80.2 10.7C80.2 10.8 80.2 11.1 80.2 11.2C80.2 11.2 80.2 11.2 80.3 11.2C80.4 11.1 80.3 10.8 80.3 10.7C80.4 10.7 80.5 10.6 80.5 10.5C80.4 10.6 80.3 10.6 80.2 10.6C80.1 10.6 80 10.6 79.9 10.5C79.5 10.2 79.5 9.79998 79.4 9.39998C79.4 9.29998 79.5 9.09998 79.7 8.99998C79.8 8.99998 79.8 9.09998 79.8 9.09998C79.8 9.19998 79.8 9.19998 79.8 9.29998C79.8 9.39998 79.7 9.59998 79.7 9.79998C79.7 9.89998 79.8 9.89998 79.8 9.79998C80 9.69998 80 9.49998 80.1 9.19998H80.2C80.2 9.29998 80.2 9.49998 80.3 9.59998C80.3 9.69998 80.3 9.99998 80.3 10.1C80.3 10.2 80.4 10.2 80.4 10.1C80.4 9.79998 80.5 9.49998 80.4 9.19998L80.5 9.29998C80.5 9.49998 80.6 9.69998 80.6 9.89998H80.7C80.7 9.79998 80.7 9.59998 80.7 9.49998C80.8 9.59998 80.8 9.69998 80.9 9.69998C80.8 9.59998 80.7 9.39998 80.6 9.29998H80.7C80.8 9.39998 80.8 9.39998 80.9 9.49998C80.9 9.39998 80.8 9.29998 80.6 9.19998H80.5C80.5 9.09998 80.5 9.09998 80.4 9.09998C80.4 9.09998 80.4 9.09998 80.4 8.99998H80.5C80.6 9.09998 80.6 9.09998 80.7 9.09998C80.6 8.99998 80.6 8.99998 80.5 8.99998C80.4 8.99998 80.4 8.89998 80.4 8.89998C80.4 8.89998 80.4 8.89998 80.4 8.79998C80.4 8.79998 80.4 8.79998 80.3 8.69998C80.4 8.79998 80.7 8.79998 80.8 8.69998C80.8 8.69998 80.8 8.69998 80.8 8.59998C80.7 8.59998 80.6 8.59998 80.5 8.59998C80.4 8.59998 80.3 8.49998 80.2 8.49998C80.2 8.39998 80.2 8.39998 80.1 8.39998C80.1 8.39998 80.1 8.39998 80.1 8.29998L80 8.39998C80 8.29998 80 8.29998 80 8.19998C80 8.09998 80.1 7.89998 80.1 7.69998C80 7.89998 80 8.19998 80 8.49998C80 8.49998 80 8.49998 79.9 8.49998C79.8 8.59998 79.8 8.59998 79.8 8.59998C79.7 8.49998 79.7 8.49998 79.6 8.39998C79.5 8.29998 79.4 8.19998 79.2 8.09998C79.1 8.09998 79.1 8.19998 79.1 8.19998C79.2 8.29998 79.3 8.29998 79.5 8.49998C79.6 8.59998 79.6 8.69998 79.7 8.79998C79.7 8.89998 79.7 8.89998 79.7 8.89998C79.6 8.89998 79.6 8.89998 79.6 8.89998V8.99998C79.7 8.99998 79.7 8.99998 79.8 8.99998C79.7 9.09998 79.6 9.09998 79.5 9.19998C79.5 9.09998 79.5 9.09998 79.5 8.99998H79.4C79.4 9.09998 79.4 9.09998 79.3 9.09998C79.3 9.09998 79.3 8.99998 79.2 8.99998H79.1C79 9.09998 79.1 9.39998 79.2 9.49998C79.2 9.49998 79.2 9.49998 79.3 9.49998C79.3 9.49998 79.3 9.59998 79.2 9.59998C79.2 9.49998 79.2 9.49998 79.1 9.49998C79.1 9.49998 79.1 9.39998 79 9.39998L78.9 9.29998V9.19998C78.9 9.29998 78.9 9.19998 78.9 9.09998C78.7 9.19998 78.7 9.29998 78.7 9.49998C78.7 9.59998 78.7 9.59998 78.7 9.59998C78.3 9.89998 78 10.3 77.7 10.6C77.8 9.89998 77.9 9.09998 78 8.39998C78.1 8.29998 78.1 8.19998 78.1 8.09998C78.1 8.09998 78.1 8.09998 78 8.09998C78.1 7.99998 78.1 7.69998 78.2 7.59998C78.5 7.19998 78.8 6.79998 79 6.39998C79.1 6.29998 79.1 6.29998 79.2 6.09998C79.4 5.99998 79.5 5.99998 79.5 5.89998C79.6 5.79998 79.6 5.79998 79.6 5.79998H79.7C79.6 5.99998 79.6 6.09998 79.6 6.29998C79.6 6.19998 79.6 5.99998 79.7 5.89998C79.8 5.79998 79.9 5.69998 80.1 5.59998C80.2 5.69998 80.3 5.89998 80.5 5.89998C80.6 5.89998 80.7 5.89998 80.7 5.79998C80.6 5.79998 80.4 5.69998 80.3 5.59998C80.4 5.59998 80.4 5.59998 80.4 5.49998C80.4 5.59998 80.5 5.59998 80.5 5.59998C80.6 5.69998 80.6 5.69998 80.7 5.69998C80.7 5.69998 80.7 5.69998 80.8 5.59998V5.49998C80.7 5.59998 80.7 5.59998 80.6 5.49998L80.5 5.39998H80.6C80.6 5.39998 80.7 5.29998 80.6 5.29998C80.5 5.29998 80.5 5.19998 80.5 5.19998C80.4 5.09998 80.4 4.99998 80.4 4.79998H80.3C80.3 4.69998 80.4 4.69998 80.4 4.49998C80.4 4.49998 80.5 4.49998 80.5 4.59998C80.5 4.59998 80.5 4.59998 80.6 4.59998C80.6 4.59998 80.6 4.59998 80.6 4.49998V4.59998H80.7L80.6 4.69998H80.7C80.7 4.69998 80.7 4.69998 80.7 4.79998C80.7 4.79998 80.7 4.79998 80.6 4.79998C80.6 4.79998 80.6 4.79998 80.6 4.89998C80.6 4.99998 80.6 5.09998 80.7 5.19998V5.29998H80.8C80.8 5.19998 80.8 5.09998 80.8 4.99998C80.8 4.89998 80.8 4.89998 80.8 4.79998C80.8 4.79998 80.8 4.79998 80.9 4.79998C80.9 4.89998 80.9 4.89998 80.9 4.99998C80.9 5.09998 80.9 5.09998 80.9 5.19998C80.9 5.19998 80.9 5.19998 81 5.19998C81 5.09998 81 5.09998 81 4.99998C81 4.89998 81 4.89998 81 4.79998V4.59998C81.1 4.59998 81.1 4.59998 81.1 4.59998C81.1 4.59998 81.1 4.59998 81.2 4.59998C81.3 4.59998 81.3 4.59998 81.3 4.59998C81.3 4.59998 81.3 4.59998 81.3 4.49998C81.3 4.49998 81.3 4.49998 81.2 4.49998V4.39998C81.1 4.29998 81.1 4.29998 81 4.29998C81 4.29998 81 4.29998 80.9 4.29998C80.9 4.29998 80.9 4.29998 80.9 4.19998C81 4.19998 81 4.19998 81 4.19998C80.9 4.19998 80.9 4.19998 80.9 4.19998C80.9 4.09998 80.8 4.09998 80.8 3.99998V4.09998C80.7 3.99998 80.7 3.99998 80.6 3.89998C80.7 3.89998 80.7 3.89998 80.7 3.99998C80.8 3.89998 80.9 3.89998 81 3.79998C81 3.59998 81.1 3.29998 81 3.19998C80.9 2.99998 80.7 2.79998 80.5 2.79998C80.4 2.79998 80.4 2.79998 80.3 2.89998C80.5 2.89998 80.5 2.89998 80.7 2.99998C80.8 3.09998 80.8 3.19998 80.8 3.29998C80.8 3.49998 80.8 3.69998 80.7 3.89998C80.6 3.89998 80.6 3.79998 80.5 3.79998C80.5 3.69998 80.5 3.69998 80.6 3.69998C80.6 3.69998 80.6 3.59998 80.5 3.69998C80.4 3.79998 80.4 3.79998 80.4 3.89998H80.3C80.3 3.79998 80.3 3.69998 80.3 3.49998H80.2C80.1 3.59998 80.2 3.79998 80.2 3.89998C80.2 3.89998 80.1 3.89998 80.1 3.79998C80.1 3.69998 80.1 3.69998 80.1 3.69998C80.1 3.59998 80 3.59998 80 3.59998C79.9 3.59998 79.9 3.59998 79.9 3.49998C79.9 3.59998 79.9 3.69998 79.9 3.79998C79.8 3.79998 79.7 3.69998 79.6 3.69998C79.7 3.69998 79.7 3.79998 79.8 3.79998C79.8 3.79998 79.8 3.89998 79.9 3.89998C79.8 3.89998 79.8 3.89998 79.7 3.79998C79.6 3.79998 79.6 3.89998 79.7 3.89998C80 3.89998 80.1 3.99998 80.2 3.99998C80.2 4.09998 80.2 4.09998 80.2 4.09998H80.1C80 4.09998 79.9 3.99998 79.8 3.99998C79.8 4.09998 79.9 4.09998 79.9 4.09998C80 4.19998 80 4.19998 80 4.19998H80.1C80.1 4.29998 80.2 4.29998 80.2 4.29998C80.1 4.29998 80.1 4.29998 80 4.39998C80 4.29998 80 4.29998 80 4.29998C80 4.29998 79.9 4.19998 79.9 4.29998C79.9 4.39998 79.9 4.39998 79.9 4.39998H79.8C79.7 4.39998 79.5 4.39998 79.4 4.29998L79.5 4.19998C79.6 4.19998 79.5 4.09998 79.4 4.09998C79.4 4.09998 79.3 4.09998 79.3 4.19998C79.3 4.19998 79.3 4.19998 79.2 4.09998C79.2 4.19998 79.2 4.19998 79.2 4.29998C79.2 4.69998 79 4.79998 78.9 4.99998L78.8 5.09998C78.7 5.19998 78.6 5.29998 78.5 5.49998C78.4 5.69998 78.4 5.79998 78.3 5.99998C78.3 6.09998 78.2 6.09998 78.2 6.19998C78.3 6.09998 78.3 5.99998 78.4 5.89998C78.5 5.69998 78.7 5.39998 78.8 5.19998C78.9 4.99998 79.2 4.79998 79.3 4.69998C79.4 4.79998 79.5 4.79998 79.7 4.79998V4.89998C79.7 4.99998 79.7 5.09998 79.7 5.19998C79.7 5.29998 79.7 5.49998 79.8 5.59998C79.8 5.59998 79.7 5.59998 79.7 5.69998C79.7 5.59998 79.6 5.49998 79.6 5.39998C79.6 5.29998 79.6 5.09998 79.7 4.99998C79.7 4.89998 79.6 4.89998 79.6 4.99998C79.6 5.09998 79.5 4.99998 79.5 5.09998H79.4C79.4 5.19998 79.3 5.19998 79.3 5.29998C79.3 5.19998 79.3 5.19998 79.2 5.09998C79.2 5.09998 79.2 5.09998 79.2 5.19998C79.2 5.09998 79.1 5.09998 79.1 5.19998C79 5.29998 79.1 5.49998 79.2 5.59998C79.1 5.59998 79 5.79998 78.8 5.99998C78.7 6.19998 78.5 6.39998 78.4 6.59998C78.3 6.79998 78.1 6.99998 78 7.29998C78 7.19998 78 7.19998 78.1 7.09998C78 7.29998 78 7.49998 77.9 7.69998C78.1 7.39998 78.3 6.99998 78.6 6.59998C78.7 6.39998 78.9 6.19998 79.1 5.99998C79.2 5.89998 79.4 5.69998 79.4 5.59998H79.5V5.69998C79.5 5.69998 79.6 5.69998 79.6 5.79998C79.6 5.79998 79.6 5.79998 79.5 5.89998V5.69998C79.4 5.89998 79.2 6.09998 79 6.29998C79 6.29998 79 6.29998 78.9 6.39998V6.49998C78.7 6.89998 78.5 7.19998 78.2 7.49998C78.1 7.59998 77.9 7.79998 77.9 7.99998V8.09998L78 7.99998C78 8.09998 77.9 8.09998 77.9 8.19998C77.8 8.29998 77.8 8.39998 77.7 8.59998C77.7 8.99998 77.6 9.49998 77.6 9.89998C77.6 9.99998 77.6 10.2 77.6 10.3C77.6 10.4 77.6 10.5 77.6 10.6C77.6 10.7 77.6 10.8 77.6 10.9C77.6 11.3 77.7 11.8 77.7 12.3C77.7 11.9 77.7 11.5 77.7 11.2C77.7 11.1 77.8 11.1 77.8 11.1C77.8 11.2 77.8 11.2 77.8 11.2C77.8 11.2 77.8 11.1 77.9 11.1C77.9 11.1 77.9 11.1 78 11.1V11C78.3 10.6 78.7 10.3 79.1 10.1L79.2 10.2V10.3C79.2 10.4 79.3 10.5 79.3 10.6C79.2 10.7 79.2 10.7 79.1 10.8C79 10.9 78.9 11 78.9 11.1C78.9 11.3 78.9 11.4 78.7 11.6C78.6 11.7 78.3 11.9 78.3 12.1C78.2 12.3 78.3 12.5 78.2 12.8C78.2 13 78.1 13.2 77.9 13.3L77.8 13.4C77.8 13.9 77.9 14.5 77.9 15C78 15.1 78 15.2 78.2 15.4C78.2 15.5 78.2 15.5 78.2 15.5C78.1 15.6 78 15.7 78 15.9C78.1 16.4 78.1 16.8 78.2 17.3C78.2 17.1 78.2 16.9 78.2 16.7C78.2 16.6 78.2 16.5 78.2 16.4ZM83.2 8.79998C83.2 8.89998 83.1 8.89998 83.1 8.99998C83.2 8.99998 83.2 8.89998 83.2 8.79998ZM78.4 16C78.9 15.1 80.1 15.6 80.8 15.1V15C80.6 15.1 80.4 15.1 80.1 15.2C80.5 15.1 80.8 15 81 14.8V14.7C80.7 14.8 80.4 15 80.1 15.1C79.7 15.2 79.3 15.2 78.9 15.2C78.9 15.2 78.8 15.3 78.9 15.3C79.2 15.4 79.6 15.4 79.8 15.4C79.6 15.4 79.4 15.5 79.2 15.5C78.9 15.6 78.6 15.7 78.5 15.9V15.8C78.7 14.7 79.2 13.7 79.9 12.8C79.9 12.9 80 13 80 13C80.6 12.9 81.1 12.9 81.7 12.7C81.8 12.7 82.4 12.6 82.3 12.3H82.2C82.2 12.5 81.8 12.5 81.6 12.5C81.4 12.5 81.2 12.6 81 12.6C80.6 12.7 80.3 12.7 79.9 12.7C80.2 12.4 80.4 12.1 80.8 11.8C80.9 11.7 81 11.6 81.1 11.5V11.6C81.7 11.7 82.3 11.6 82.7 11.2V11.1C82.2 11.3 81.7 11.5 81.1 11.4C81.6 10.9 82.2 10.4 82.6 9.79998C82.6 9.89998 82.6 9.89998 82.6 9.89998C82.5 9.99998 82.3 10.2 82.1 10.3C82 10.3 82.1 10.4 82.2 10.4C82.5 10.3 82.9 9.89998 82.9 9.39998C83 9.39998 83 9.39998 83 9.29998C82.9 9.59998 82.9 9.89998 82.9 10.2C82.9 10.6 82.9 10.9 82.8 11.2C82.7 11.3 82.7 11.5 82.7 11.6C82.7 11.7 82.8 11.9 82.8 12C82.9 12.4 82.7 12.8 82.5 13.1C82.4 13.2 82.1 13.4 82.1 13.7C82.1 13.8 82.2 14.1 82.1 14.2C82 14.4 81.8 14.5 81.6 14.6C81.3 14.7 81.1 14.7 80.9 15V15.1C81 15.1 81 15.2 81 15.2C80.8 15.4 80.5 15.6 80.2 15.7C79.8 15.8 79.4 15.8 79 15.8C78.7 15.9 78.3 15.9 78.1 16.2C78.2 16.2 78.3 16.1 78.4 16ZM80.1 8.79998C80 8.79998 80.1 8.89998 80.1 8.79998ZM79.3 9.89998C79.3 9.99998 79.4 10.2 79.4 10.3V10.4C79.4 10.3 79.3 10.1 79.3 9.89998C79.3 9.99998 79.3 9.99998 79.3 9.89998ZM80.3 5.19998C80.3 5.09998 80.3 5.09998 80.3 5.19998ZM80.5 4.49998C80.6 4.59998 80.6 4.49998 80.5 4.49998C80.4 4.59998 80.5 4.59998 80.5 4.49998C80.4 4.49998 80.4 4.49998 80.5 4.49998C80.5 4.39998 80.4 4.39998 80.5 4.49998ZM80.3 4.39998C80.2 4.39998 80.2 4.29998 80.2 4.29998C80.3 4.39998 80.3 4.39998 80.3 4.39998ZM80.3 4.59998C80.3 4.69998 80.2 4.69998 80.2 4.79998C80.2 4.69998 80.1 4.69998 80.1 4.59998C80.2 4.69998 80.3 4.59998 80.3 4.59998ZM80 4.69998C80 4.79998 80 4.79998 80 4.89998C80 4.99998 80 4.99998 80 4.99998C80 4.99998 80 4.79998 80 4.69998ZM79.8 4.99998C79.8 4.89998 79.8 4.69998 79.8 4.59998C79.8 4.79998 79.8 5.09998 79.9 5.29998V5.39998C79.8 5.39998 79.8 5.39998 79.9 5.29998C79.8 5.39998 79.8 5.39998 79.8 5.39998C79.8 5.19998 79.8 5.19998 79.8 4.99998ZM77.7 10.9C77.7 10.8 77.8 10.7 77.8 10.7C77.8 10.8 77.7 10.8 77.7 10.9ZM77.9 10.6C77.9 10.6 77.9 10.6 77.9 10.5C78 10.4 78.1 10.4 78.2 10.2C78.1 10.3 78 10.5 77.9 10.6ZM78.3 10.4C78.3 10.3 78.4 10.3 78.4 10.3C78.5 10.2 78.7 10.1 78.8 9.89998L79 9.99998C78.7 9.99998 78.4 10.2 78.3 10.4ZM79.2 9.89998C79.1 9.89998 79.1 9.89998 79.2 9.89998ZM79.1 9.89998C79.1 9.99998 79.1 9.99998 79.1 9.89998Z" fill="#685649"/>
<path d="M79.7 18.7C80.1 18.2 80.5 17.8 80.9 17.4C80.4 17.7 80 18.2 79.7 18.7Z" fill="#685649"/>
<path d="M81.6 19.2C81.7 19.3 81.9 19.4 82 19.5C81.9 19.4 81.9 19.4 81.8 19.3C81.7 19.2 81.6 19.2 81.6 19.2Z" fill="#685649"/>
<path d="M81.6 19.2C81.4 19.1 81.1 18.9 80.9 18.9C81.1 19 81.3 19.1 81.6 19.2Z" fill="#685649"/>
<path d="M81.8 17C81.7 17 81.7 17.1 81.6 17.1C81.7 17 81.8 17 81.8 17Z" fill="#685649"/>
<path d="M78.1 18.6C78.1 18.5 78.1 18.5 78.1 18.4C78.1 18.9 78 19.3 78 19.7C78 19.4 78.1 19 78.1 18.6Z" fill="#685649"/>
<path d="M87.3 19.1C87.4 19 87.4 19 87.3 19C87 19.1 86.7 19 86.5 18.9C86.5 18.9 86.5 18.9 86.6 18.9V18.8C86.5 18.8 86.5 18.8 86.4 18.8C86.6 18.7 86.8 18.7 87 18.5C87.1 18.5 87 18.4 86.9 18.4C86 18.5 85.2 17.6 84.4 17.2C83.6 16.8 82.7 16.8 81.8 17C80.3 17.4 79.1 18.5 78.2 19.6C78.3 19.3 78.3 19 78.3 18.7C78.3 18.6 78.3 18.6 78.3 18.5V18.4C78.3 18.2 78.3 18 78.3 17.8C78.2 18.6 78.2 19.3 78.1 20.1C78 20.2 78 20.3 78 20.5L77.9 20.6C77.9 20.5 78 20.4 78 20.2C78 20.4 77.9 20.5 77.9 20.7C77.9 20.7 77.9 20.7 77.9 20.8C77.8 20.9 77.8 21 77.8 21.1C77.7 21.4 77.4 21.7 77.2 21.9C76.8 22.4 76.3 22.8 75.7 23.1C75.6 23.1 75.7 23.2 75.8 23.2C76.4 23 77 22.5 77.3 22C77.2 22.1 77.1 22.3 77 22.4C76.8 22.6 76.6 22.8 76.3 23.1C76.2 23.2 76.3 23.2 76.4 23.2L76.5 23.1C76.9 23 77.2 22.6 77.4 22.3C77.6 22.1 77.8 21.7 78 21.4C78 21.3 78.1 21.3 78.1 21.3C78.4 21 78.8 20.6 79.1 20.4C79.2 20.4 79.2 20.4 79.3 20.3C79.8 20.2 80.3 20.1 80.8 20.2C81.5 20.4 82.2 21 83 20.9C83.1 20.9 83.1 20.8 83.1 20.7C83 20.6 82.9 20.6 82.9 20.5C83 20.5 83.3 20.5 83.4 20.4C83.9 20.4 84.4 20.3 84.9 20.2C85 20.2 85 20.1 85 20.1C85.1 20.1 85.1 20 85.3 20C85.4 20 85.4 19.9 85.6 19.9C85.7 19.9 85.9 19.9 86 19.8C86.1 19.8 86.1 19.8 86.1 19.8C86.3 19.8 86.5 19.7 86.8 19.7C87 19.6 87.2 19.3 87.5 19.3C87.4 19.2 87.4 19.1 87.3 19.1ZM77.5 21.3C77.4 21.3 77.5 21.2 77.6 21.2C77.6 21.2 77.5 21.2 77.5 21.3ZM84.6 19.9C84.5 19.8 84.5 19.8 84.5 19.8H84.6C84.7 19.9 84.7 19.9 84.8 19.9C84.7 19.9 84.7 19.9 84.6 19.9ZM85.8 19.6C85.7 19.6 85.7 19.6 85.5 19.6C85.2 19.6 84.9 19.5 84.7 19.5V19.4C84.3 19.3 83.8 19.3 83.5 19.2C83.4 19.1 83.2 19.1 83.1 19C83 18.9 82.8 18.7 82.7 18.6H82.6C82.7 18.7 82.7 18.8 82.8 18.9C82.6 18.8 82.4 18.7 82.2 18.5C82.5 18.7 82.7 18.9 83 19.1C83.2 19.2 83.5 19.4 83.7 19.4C83.8 19.4 83.9 19.5 84 19.5V19.6C84.1 19.7 84.2 19.9 84.3 20C84.1 20.1 83.9 20.1 83.6 20.1C83.5 20.1 83.5 20.1 83.5 20.1C83.1 20.1 82.8 20.1 82.5 20C82.4 19.8 82.2 19.7 82 19.5C82.1 19.6 82.3 19.8 82.4 19.9H82.3C81.7 19.3 81 19 80.3 18.7C80.5 18.6 80.8 18.5 81 18.4C81.5 18.3 82 18.3 82.5 18.2C82.5 18.2 82.5 18.2 82.5 18.1C82.5 18.1 82.5 18.1 82.6 18.1C82.2 18 81.8 18.1 81.4 18.2C81.6 18 81.9 17.8 82.2 17.5C82.5 17.4 82.8 17.2 83.1 17.1V17C82.4 17.1 81.8 17.7 81.3 18.1C81.2 18.1 81.2 18.1 81.2 18.2C81 18.2 80.8 18.3 80.6 18.4C81.2 17.9 81.8 17.6 82.4 17.3V17.2C81.7 17.3 81 17.8 80.5 18.3C80.4 18.4 80.2 18.4 80.1 18.5C80.3 18.1 80.6 17.8 80.9 17.6C81.1 17.4 81.3 17.3 81.5 17.1C80.8 17.5 80.3 18.1 79.9 18.7C79.8 18.8 79.7 18.8 79.6 18.8L79.4 19C79.4 19 79.4 19 79.4 19.1C79.5 19.1 79.5 19 79.6 19C79.8 18.9 80 18.8 80.3 18.7C80.6 18.8 81 19 81.4 19.2C81.8 19.4 82.1 19.6 82.3 19.9C82.3 20 82.3 20 82.3 20C82.2 20 82.2 20.1 82.2 20.1C82.2 20.1 82.3 20.1 82.3 20.2C82.3 20.3 82.4 20.3 82.4 20.4C82.3 20.4 82.1 20.3 82 20.3C81.9 20 81.6 19.7 81.3 19.5C81.5 19.6 81.7 19.8 82 19.9C81.6 19.5 80.9 19.1 80.3 19C80.5 19.1 80.6 19.2 80.8 19.2C80.3 19 79.9 19 79.4 19V19.1C79.9 19 80.4 19.1 80.9 19.3C81.3 19.5 81.6 19.9 81.9 20.3C81.7 20.2 81.5 20.1 81.2 20C81.1 19.9 80.9 19.9 80.7 19.8C80.4 19.7 80.1 19.6 79.8 19.6C79.4 19.6 79.1 19.7 78.9 19.8C79 20 78.7 20 78.6 20.1C78.5 20.1 78.5 20.2 78.3 20.2C78.4 20.1 78.6 19.9 78.7 19.8C79 19.7 79.4 19.7 79.6 19.7C80.1 19.7 80.5 19.8 80.9 19.9C80.9 19.9 81 19.9 81 19.8C80.6 19.5 80 19.5 79.5 19.5C79.3 19.5 79.1 19.5 78.9 19.6C78.8 19.7 78.7 19.8 78.5 20C78.3 20.2 78.1 20.4 77.9 20.7C78 20.3 78.1 20 78.1 19.8C78.3 19.5 78.5 19.3 78.8 19.1C78.6 19.5 78.4 19.8 78.2 20.1C78.2 20.1 78.2 20.2 78.3 20.1C78.5 19.8 78.7 19.5 78.9 19.2C79 19 79.3 18.7 79.4 18.5C80.1 17.9 80.9 17.4 81.8 17.1C81.9 17 82 17 82 16.9C82.1 16.9 82.1 16.9 82.1 16.9C82.9 16.8 83.8 17 84.7 17.5C85.1 17.7 85.4 18.1 85.9 18.2H85.8C85.7 18.1 85.4 18.2 85.3 18.2C85.1 18.2 84.9 18.2 84.7 18.2C84.7 18.2 84.6 18.3 84.7 18.3C84.8 18.3 85 18.4 85.2 18.4H85.1C85 18.4 85.1 18.5 85.1 18.5C85.4 18.4 85.7 18.5 86 18.4C86.1 18.5 86.3 18.5 86.4 18.5C86.3 18.6 86.1 18.6 86 18.6C85.9 18.6 85.7 18.6 85.6 18.6C85.2 18.5 84.7 18.5 84.2 18.3C84.1 18.3 84.1 18.3 84.1 18.2C84.2 18.2 84.4 18.2 84.5 18.2C84.5 18.2 84.6 18.1 84.5 18.1C84.2 18 83.9 18 83.6 18C83.6 18 83.6 18 83.5 18C83.5 18 83.5 18 83.4 18C83.5 17.9 83.7 17.9 83.8 17.9C84 17.8 84.3 17.8 84.6 17.8V17.7C84.2 17.7 83.7 17.8 83.3 18C83.2 18 83.1 18 83 17.9C83.1 17.8 83.4 17.8 83.5 17.7C83.8 17.6 84.1 17.6 84.3 17.4V17.3C84 17.3 83.7 17.4 83.5 17.5C83.3 17.6 83.1 17.6 82.9 17.7C82.8 17.7 82.8 17.6 82.8 17.6C82.8 17.6 82.7 17.6 82.8 17.7C82.9 17.7 82.9 17.8 82.9 17.8C82.8 17.8 82.8 17.9 82.7 17.9H82.6V18C82.7 18 82.7 18 82.8 18.1C82.9 18 83 18 83 18C83.1 18.1 83.2 18.1 83.3 18.1C83.1 18 83 18 82.8 18C82.7 18 82.6 18 82.5 18.1H82.6C82.7 18.1 82.7 18.1 82.8 18.2C82.9 18.1 82.9 18.2 82.9 18.2C82.9 18.2 82.9 18.2 82.8 18.2C83.2 18.3 83.5 18.3 83.8 18.3C83.9 18.3 83.9 18.3 83.9 18.4C83.8 18.4 83.8 18.5 83.9 18.5C84.3 18.6 84.6 18.6 85 18.7C85.3 18.7 85.6 18.8 85.8 18.8C86 18.9 86.3 19 86.6 19.1C86.6 19.3 86.2 19.4 85.8 19.6Z" fill="#685649"/>
<path d="M77.9 15.4C77.9 15.8 78 16.3 78 16.8C78 16.7 78 16.7 78 16.5C78 16.3 77.9 16.1 77.9 15.8C77.9 15.6 77.9 15.5 77.9 15.4Z" fill="#685649"/>
<path d="M79 19.4C79.3 18.9 79.7 18.5 80.1 17.9C79.6 18.3 79.2 18.9 79 19.4C78.9 19.5 78.9 19.5 78.9 19.5C79 19.4 79.1 19.4 79.2 19.3C79.1 19.4 79.1 19.4 79 19.4Z" fill="#685649"/>
<path d="M79.9 19.4C80 19.4 80 19.4 80 19.4C80.1 19.4 80.2 19.4 80.2 19.4C80.4 19.4 80.5 19.5 80.7 19.6C80.5 19.4 80.2 19.3 79.9 19.4Z" fill="#685649"/>
<path d="M79.5 5.69998C79.4 5.59998 79.5 5.59998 79.5 5.69998C79.5 5.59998 79.5 5.59998 79.5 5.69998Z" fill="#685649"/>
<path d="M78.2 17.2C78.2 17.3 78.2 17.3 78.2 17.2C78.2 17.4 78.2 17.5 78.2 17.6C78.3 17.5 78.2 17.4 78.2 17.2Z" fill="#685649"/>
<path d="M80.8 19.6C80.8 19.6 80.8 19.7 80.9 19.7C80.9 19.7 80.9 19.6 80.8 19.6Z" fill="#685649"/>
<path d="M79.5 19.1C79.4 19.2 79.3 19.2 79.2 19.3C79.2 19.3 79.4 19.2 79.5 19.1Z" fill="#685649"/>
<path d="M79.5 19C79.6 18.9 79.7 18.8 79.7 18.7C79.6 18.8 79.5 18.9 79.5 19Z" fill="#685649"/>
<path d="M80.4 7.89998C80.2 7.99998 80.1 8.19998 80.1 8.29998C80.2 8.29998 80.2 8.29998 80.2 8.19998C80.3 8.19998 80.4 7.99998 80.4 7.89998Z" fill="#685649"/>
<path d="M79.7 6.29998C79.7 6.39998 79.7 6.39998 79.8 6.49998C79.7 6.39998 79.7 6.29998 79.7 6.29998Z" fill="#685649"/>
<path d="M79.7 6.59998C79.7 6.69998 79.8 6.69998 79.8 6.69998C79.9 6.79998 79.9 6.69998 79.9 6.59998C79.8 6.49998 79.8 6.49998 79.8 6.39998C79.6 6.29998 79.4 6.49998 79.3 6.59998C79.4 6.59998 79.5 6.49998 79.7 6.59998Z" fill="#685649"/>
<path d="M81.2 5.59998C81.1 5.49998 81.1 5.59998 81.2 5.59998C81.1 5.59998 81 5.59998 81 5.69998V5.79998L80.9 5.89998H81C81 5.69998 81.1 5.59998 81.2 5.59998Z" fill="#685649"/>
<path d="M79.1 6.79998L79.2 6.69998C79.1 6.79998 79.1 6.79998 79.1 6.79998C78.9 7.19998 79 7.49998 79.3 7.59998C79.1 7.49998 79 7.09998 79.1 6.79998Z" fill="#685649"/>
<path d="M78.2 8.09998C78.3 7.69998 78.6 7.39998 78.8 6.99998C78.5 7.29998 78.3 7.69998 78.2 8.09998Z" fill="#685649"/>
<path d="M81.8 9.69998C81.8 9.59998 81.8 9.59998 81.8 9.49998C81.8 9.49998 81.8 9.59998 81.8 9.69998C81.7 9.69998 81.7 9.59998 81.8 9.69998C81.8 9.79998 81.7 9.79998 81.8 9.69998Z" fill="#685649"/>
<path d="M79.5 8.89998C79.2 8.89998 78.7 8.99998 78.5 8.79998C78.5 8.79998 78.5 8.89998 78.6 8.89998C78.7 8.99998 79 9.09998 79.2 8.99998C79.2 8.99998 79.2 8.99998 79.2 9.09998C79.3 8.99998 79.5 8.99998 79.5 8.89998Z" fill="#685649"/>
<path d="M81.2 9.79998C81.1 9.79998 81.1 9.79998 81.2 9.79998C81.1 9.79998 81.1 9.79998 81 9.79998V9.89998C81.1 9.89998 81.1 9.89998 81.2 9.99998C81.2 9.79998 81.2 9.79998 81.2 9.79998Z" fill="#685649"/>
<path d="M79.1 9.09998H79C79 9.19998 79 9.29998 79 9.39998C79 9.39998 79 9.39998 79 9.49998C79 9.49998 79 9.49998 79 9.39998C79 9.39998 79 9.39998 79.1 9.39998C79.1 9.39998 79.1 9.39998 79.1 9.29998C79.1 9.29998 79.1 9.29998 79.1 9.19998C79.2 9.29998 79.2 9.19998 79.1 9.09998Z" fill="#685649"/>
<path d="M78.4 8.79998C78.3 8.59998 78.3 8.49998 78.3 8.29998C78.2 8.49998 78.3 8.69998 78.4 8.79998Z" fill="#685649"/>
<path d="M81.7 9.59998C81.7 9.49998 81.8 9.39998 81.8 9.29998L81.7 9.39998C81.7 9.49998 81.6 9.59998 81.6 9.79998C81.6 9.69998 81.7 9.69998 81.7 9.59998Z" fill="#685649"/>
<path d="M77.8 7.39998C77.8 7.49998 77.8 7.49998 77.8 7.49998C77.8 7.39998 77.9 7.19998 77.9 7.09998C77.9 7.19998 77.8 7.29998 77.8 7.39998Z" fill="#685649"/>
<path d="M77.5 11.1C77.5 11.2 77.5 11.3 77.5 11.4C77.6 11.1 77.6 10.9 77.6 10.6C77.6 10.4 77.6 10.3 77.6 10.1C77.5 10.5 77.5 10.8 77.5 11.1Z" fill="#685649"/>
<path d="M77.6 13.4C77.6 13.5 77.6 13.6 77.7 13.7C77.6 13.8 77.6 14.1 77.6 14.2C77.6 14.3 77.6 14.4 77.6 14.5C77.8 14.3 77.7 14.1 77.7 13.8C77.7 13.7 77.7 13.7 77.7 13.5C77.7 13.5 77.6 13.5 77.6 13.4Z" fill="#685649"/>
<path d="M77.9 6.79998C77.9 6.89998 77.9 6.89998 77.8 6.99998C77.8 6.89998 77.9 6.79998 77.9 6.69998C78 6.79998 78 6.79998 77.9 6.79998Z" fill="#685649"/>
<path d="M78 6.69998C78.1 6.49998 78.2 6.29998 78.2 6.09998C78.1 6.39998 78 6.49998 78 6.69998Z" fill="#685649"/>
<path d="M79.3 4.49998C79.2 4.39998 79.2 4.49998 79.3 4.49998C79.1 4.59998 79 4.69998 78.8 4.89998C78.7 4.89998 78.7 4.99998 78.7 4.99998C78.6 5.09998 78.6 5.19998 78.6 5.29998C78.6 5.19998 78.7 5.09998 78.8 4.99998C78.9 4.79998 79.1 4.59998 79.3 4.49998Z" fill="#685649"/>
<path d="M82.5 8.49998C82.4 8.59998 82.2 8.59998 82.1 8.69998C82.3 8.69998 82.4 8.59998 82.5 8.49998Z" fill="#685649"/>
<path d="M81.5 8.39998H81.4C81.4 8.39998 81.4 8.39998 81.3 8.39998C81.3 8.39998 81.4 8.39998 81.5 8.39998Z" fill="#685649"/>
<path d="M78.1 15C78.1 15.1 78.1 15.1 78.1 15.1V15Z" fill="#685649"/>
<path d="M81.9 8.99998C81.9 9.09998 81.9 9.09998 81.9 9.19998C82 9.19998 82.1 9.19998 82.1 8.99998C82.1 9.09998 82 9.09998 82 9.09998C82 8.99998 82.1 8.79998 82 8.69998H82.1C82 8.59998 82 8.49998 81.9 8.49998C81.8 8.49998 81.6 8.39998 81.5 8.39998C81.6 8.39998 81.7 8.49998 81.8 8.49998C81.9 8.69998 81.9 8.79998 81.9 8.99998Z" fill="#685649"/>
<path d="M81.7 4.29998C81.7 4.49998 81.5 4.69998 81.3 4.69998C81.3 4.59998 81.3 4.59998 81.2 4.59998C81.2 4.69998 81.2 4.69998 81.2 4.69998C81.1 4.69998 81.1 4.69998 81.1 4.69998C81 4.69998 81 4.79998 81.1 4.79998C81.2 4.79998 81.2 4.89998 81.3 4.89998C81.3 5.09998 81.3 5.29998 81.2 5.49998C81.5 5.59998 81.7 5.59998 81.8 5.79998C81.9 5.99998 81.7 6.19998 81.5 6.29998C81.4 6.19998 81.3 6.19998 81.1 6.29998C81 6.29998 81 6.39998 81.1 6.39998C81.2 6.49998 81.4 6.49998 81.5 6.39998C81.6 6.59998 81.6 7.09998 81.6 7.19998C81.6 7.29998 81.5 7.39998 81.4 7.49998C81.3 7.29998 81 7.09998 80.9 6.99998C80.8 7.09998 80.6 6.99998 80.5 6.99998C80.6 6.89998 80.6 6.89998 80.6 6.69998C80.6 6.69998 80.6 6.59998 80.5 6.59998C80.5 6.49998 80.5 6.49998 80.4 6.29998C80.4 6.19998 80.3 6.19998 80.3 6.29998C80.2 6.39998 80.2 6.39998 80.2 6.39998C80.1 6.39998 80 6.49998 80 6.59998C80 6.69998 80 6.69998 80.1 6.79998C80.1 6.89998 80.1 6.89998 80.2 6.89998C80.1 6.89998 80 6.99998 79.8 6.99998C79.6 7.09998 79.5 7.39998 79.5 7.69998C79.4 7.59998 79.4 7.59998 79.3 7.59998C79 7.59998 78.5 7.79998 78.4 8.09998C78.4 8.19998 78.3 8.19998 78.3 8.29998C78.4 7.99998 78.7 7.79998 79 7.79998C79.2 7.79998 79.5 7.89998 79.7 8.09998C79.7 8.19998 79.7 8.19998 79.8 8.29998C79.8 8.39998 79.9 8.39998 79.9 8.29998C79.9 8.19998 79.9 8.09998 79.8 7.99998C79.8 7.79998 79.8 7.59998 79.9 7.29998C80.1 7.09998 80.4 6.99998 80.7 7.19998C80.9 7.29998 81.2 7.59998 81.3 7.79998C81.4 7.99998 81.1 8.19998 80.8 8.19998C80.7 8.19998 80.7 8.19998 80.7 8.19998C80.8 8.19998 80.7 8.09998 80.7 8.09998C80.6 8.09998 80.5 8.19998 80.3 8.19998C80.3 8.19998 80.3 8.29998 80.4 8.29998C80.5 8.29998 80.7 8.29998 80.8 8.19998C81 8.19998 81.2 8.29998 81.3 8.29998C81.4 8.19998 81.5 8.19998 81.5 8.09998C81.5 7.99998 81.5 7.99998 81.5 7.99998C81.5 7.99998 81.5 7.99998 81.5 7.89998C81.6 7.79998 81.6 7.79998 81.6 7.79998C81.7 7.69998 81.7 7.69998 81.7 7.59998C81.8 7.39998 81.8 7.19998 81.7 6.89998C81.7 6.79998 81.6 6.69998 81.6 6.59998C81.7 6.49998 81.9 6.39998 82 6.19998C82.1 5.89998 81.7 5.49998 81.3 5.49998C81.4 5.39998 81.4 5.09998 81.4 4.99998C81.7 4.99998 82 4.69998 81.9 4.39998C81.9 4.09998 81.7 3.99998 81.5 3.89998C81.7 3.99998 81.7 4.09998 81.7 4.29998ZM80.3 6.79998C80.2 6.69998 80.2 6.69998 80.3 6.59998C80.3 6.69998 80.3 6.79998 80.3 6.79998Z" fill="#685649"/>
<path d="M79.9 3.69998C79.6 3.49998 79.2 3.69998 79.2 3.99998C79.3 3.99998 79.3 3.99998 79.3 3.99998C79.4 3.99998 79.4 4.09998 79.4 4.09998C79.5 3.89998 79.7 3.69998 79.9 3.69998Z" fill="#685649"/>
<path d="M80.4 2.89998C80.2 2.89998 80.2 2.89998 80.2 2.99998C80.2 3.09998 80.1 3.19998 80.1 3.29998C80.1 3.39998 80.1 3.49998 80.1 3.49998V3.39998C80.2 3.19998 80.3 2.99998 80.4 2.89998Z" fill="#685649"/>
<path d="M81.5 9.99998C81.5 9.89998 81.6 9.79998 81.6 9.69998L81.5 9.79998C81.5 9.89998 81.5 9.99998 81.5 9.99998C81.5 10.1 81.4 10.1 81.5 9.99998Z" fill="#685649"/>
<path d="M81.5 3.89998C81.4 3.79998 81.3 3.79998 81.1 3.79998V3.89998C81.3 3.89998 81.4 3.89998 81.5 3.89998Z" fill="#685649"/>
<path d="M80.7 10.8C80.8 10.6 80.8 10.5 80.8 10.3C80.8 10.4 80.7 10.5 80.7 10.5C80.7 10.6 80.7 10.7 80.7 10.8Z" fill="#685649"/>
<path d="M81.2 10.5C81.2 10.3 81.2 10.1 81.3 9.89998H81.2C81.1 10.1 81.1 10.2 81.2 10.5C81.2 10.6 81.1 10.6 81.2 10.5Z" fill="#685649"/>
<path d="M81.4 9.79998C81.5 9.79998 81.5 9.69998 81.4 9.79998C81.5 9.79998 81.5 9.69998 81.5 9.69998C81.5 9.69998 81.4 9.79998 81.4 9.79998C81.3 9.79998 81.3 9.89998 81.3 9.89998C81.3 9.79998 81.4 9.79998 81.4 9.79998Z" fill="#685649"/>
<path d="M80.8 9.99998C80.9 9.89998 80.9 9.89998 80.9 9.89998C80.9 9.79998 80.8 9.69998 80.8 9.59998C80.8 9.79998 80.8 9.89998 80.8 9.99998Z" fill="#685649"/>
<path d="M79.7 9.69998C79.8 9.59998 79.9 9.39998 79.8 9.09998C79.8 9.19998 79.8 9.19998 79.8 9.29998C79.8 9.49998 79.8 9.59998 79.7 9.69998Z" fill="#685649"/>
<path d="M80.8 10.2C80.8 10.3 80.8 10.5 80.8 10.6C80.8 10.7 80.9 10.7 80.9 10.6C80.9 10.5 80.9 10.3 80.8 10.2C80.9 10.1 81 9.99998 81 9.79998C81 9.79998 81 9.79998 80.9 9.79998C80.9 9.89998 80.8 9.89998 80.8 9.99998C80.8 10.1 80.8 10.2 80.8 10.2Z" fill="#685649"/>
<path d="M80.7 10.4C80.7 10.5 80.7 10.5 80.6 10.6C80.7 10.6 80.7 10.5 80.7 10.4Z" fill="#685649"/>
<path d="M77.9 14C77.9 14.1 77.9 14.3 78 14.4C78 14.2 77.9 14.1 77.9 14Z" fill="#685649"/>
<path d="M80.9 9.79998C80.9 9.69998 80.8 9.69998 80.7 9.69998C80.8 9.69998 80.9 9.79998 80.9 9.79998Z" fill="#685649"/>
</svg>
