<svg xmlns="http://www.w3.org/2000/svg" viewBox="0 0 125.4 91.4">
  <path d="M13.4 56.3 10.2 54c-.7-.5-.8-.6-.6-1.2l1.8-5h8.9l2.1 5.8c.2.5.1.7-.2.9l-2.7 1.9v.1H29v-.1l-1.6-1.5a4.28 4.28 0 0 1-.9-1.3L18.6 32h-5.8l2.1 2.1c.5.5.6.6.3 1.3L8.9 52.7c-.2.6-.3.7-1 1.3l-3 2.4v.1Zm2.5-20.8 4.2 11.7h-8.5Zm32.8 13.1-3.6 6.7c-.2.4-.5.5-1.3.5h-6c-.5 0-.6-.1-.6-.8V34.3c0-.4 0-.5.5-.7L41 32v-.1H29.6v.1l3.2 1.6c.4.2.5.3.5.7V54c0 .4-.1.5-.5.7l-3.2 1.6v.1h19.1Zm14.5 7.7-4.7-1.7c-.4-.2-.4-.4-.4-1v-6.7h3.2c5.2 0 9.6-2.8 9.6-7.6 0-5.2-3.9-7.4-9.1-7.4H50.5v.1l3.2 1.6c.4.2.5.3.5.7V54c0 .4-.1.5-.5.7l-3.2 1.6v.1Zm-5-23.1c0-.6.2-.7.7-.7h1.9c3.3 0 6 1.8 6 6.8 0 5.3-3.1 6.9-6 6.9h-2.6Zm25.3 23.1-3.2-1.6c-.5-.2-.5-.3-.5-.7V34.3c0-.4 0-.5.5-.7l3.2-1.6v-.1H72.2v.1l3.2 1.6c.4.2.5.3.5.7V54c0 .4-.1.5-.5.7l-3.2 1.6v.1Zm26.6-24.4H101v.1l3.6 2.4c.6.4.6.6.6 1v16.9L91.7 31.9h-6.6v.1l3.2 2.1a1.5 1.5 0 0 1 .5 1.2V53a1 1 0 0 1-.6 1l-3.6 2.4v.1h9.1v-.1L90.1 54a1 1 0 0 1-.6-1V35.5l13.8 20.9h2.6v-21a1 1 0 0 1 .6-1ZM130.2 49l-3.4 6.3c-.3.4-.5.5-1.3.5h-6.7c-.5 0-.6-.1-.6-.8V44.2h4.6c.5 0 .7.1 1.1.6l2.4 3.1h.1v-8.2h-.1l-2.4 3.1a1.51 1.51 0 0 1-1.1.7h-4.6V33.3c0-.7.1-.8.6-.8h6.7a1.08 1.08 0 0 1 1.1.6l3.2 6.3h.1v-7.5h-19.3v.1l3.2 1.6c.4.2.5.3.5.7V54c0 .4-.1.5-.5.7l-3.2 1.6v.1h19.7l-.1-7.4ZM16.7 92.3V72.6c0-.4 0-.5.5-.7l3.2-1.6v-.1H9v.1l3.2 1.6c.4.2.5.3.5.7v19.7c0 .4-.1.5-.5.7L9 94.7v.1h11.4v-.1L17.1 93c-.4-.2-.4-.3-.4-.7Zm30.8-26.8a2 2 0 0 0 1.9 1.8 2 2 0 0 0 2-1.8 1.91 1.91 0 0 0-2-1.8 1.76 1.76 0 0 0-1.9 1.8Z" style="fill:#e53d17" transform="translate(-4.9 -3.8)"/>
  <path d="m48.7 70.3 3.6 2.4a.89.89 0 0 1 .6 1v12.4c0 5.1-2.2 8-6.3 8s-6.3-2.5-6.3-7.3V72.7c0-.4 0-.5.5-.7l3.2-1.7v-.1H23.3v.1l3.2 2c.5.3.6.5.2.9L17 82.4l9.8 12.3H33v-.1l-2.6-2a6 6 0 0 1-1.2-1.1l-9-11.2 7.3-6.9a5.37 5.37 0 0 1 1.6-1l4-2 2.8 1.7c.5.2.5.3.5.7v14.9c0 4.1 2.1 7.5 9 7.5 6 0 8.2-3.8 8.2-9V73.7c0-.5 0-.7.6-1l3.6-2.4v-.1Zm-7.4-4.8a2 2 0 0 0 4 0 1.91 1.91 0 0 0-2-1.8 1.84 1.84 0 0 0-2 1.8ZM58 82.6c0 7.3 3.8 12.5 12.7 12.5a30.79 30.79 0 0 0 6.3-.6v-7.7l-3.8 7a1.15 1.15 0 0 1-1.1.6c-.4 0-.9.1-1.3.1-5.7 0-8.1-4.4-8.1-12 0-7 2.1-12.1 7.9-12.1a7.57 7.57 0 0 1 1.5.1c.7.1.9.1 1.2.7L77 78v-7.4a34.74 34.74 0 0 0-6.8-.8c-7.8.1-12.2 5.3-12.2 12.8Zm37-12.3 3.2 1.6c.5.2.5.3.5.7v9.2H87.4v-9.2c0-.4 0-.5.5-.7l3.2-1.6v-.1H79.8v.1l3.2 1.6c.4.2.5.3.5.7v19.7c0 .4-.1.5-.5.7l-3.2 1.6v.1h11.4v-.1L87.9 93c-.5-.2-.5-.3-.5-.7v-9.8h11.3v9.8c0 .4-.1.5-.5.7L95 94.7v.1h11.4v-.1l-3.2-1.6c-.5-.2-.5-.3-.5-.7V72.6c0-.4 0-.5.5-.7l3.2-1.6v-.1Zm29 23.4c-.3.4-.5.5-1.3.5H116c-.5 0-.6-.1-.6-.8V82.5h4.6c.5 0 .7.1 1.1.6l2.4 3.1h.1V78h-.1l-2.4 3.1a1.51 1.51 0 0 1-1.1.7h-4.6V71.7c0-.7.1-.8.6-.8h6.7a1.08 1.08 0 0 1 1.1.6l3.2 6.3h.1v-7.5h-19.3v.1L111 72c.4.2.5.3.5.7v19.7c0 .4-.1.5-.5.7l-3.2 1.6v.1h19.7v-7.4h-.1Z" style="fill:#e53d17" transform="translate(-4.9 -3.8)"/>
  <path d="M68.6 10.3a.31.31 0 0 0 .2.1c-.1 0-.2 0-.2-.1Zm0 0-.2-.2a.22.22 0 0 0 .2.2Zm-.4-4.9v.1a.37.37 0 0 1-.1.3h.1a.3.3 0 0 0 0-.4c.1-.1.1-.1.1 0v.2a.6.6 0 0 1-.1.4c0 .1.1.1.1 0a.9.9 0 0 0 .1-.5V6c0 .1.1.1.1 0s.1-.5 0-.7a.1.1 0 0 0 .1.1h.1c0-.1 0-.1-.1-.2v.1c.1 0 .1 0 .1.1s.1.1.2.1a.1.1 0 0 0-.1-.1.1.1 0 0 0 .1-.1V5h-.2a.1.1 0 0 1-.1-.1c0-.1 0-.2-.1-.2h-.2v-.1c0-.1-.1-.1-.1 0s-.1.1-.1.2v.1c-.1 0-.1-.1 0-.1s-.1-.1 0-.2a.1.1 0 0 0-.1.1v.2a.1.1 0 0 0-.1-.1v.1l.1.1a.52.52 0 0 0 .2.4Zm.2-.5V5c-.1 0-.1 0 0-.1Zm-.2.2c.1 0 .1.1.1.2 0-.1 0-.1-.1-.2Zm-.4.1h.1c0-.1 0-.1-.1 0a.1.1 0 0 0-.1-.1c-.1 0-.2-.1-.2 0v.1h.2c0-.1 0-.1.1 0Zm-.4-1c-.1-.1-.1-.1-.1 0s-.1.1 0 .1a.1.1 0 0 0 .1-.1Zm-4.3 10.3a4.19 4.19 0 0 0-.9-1.4 1.79 1.79 0 0 1 .5.7v.1l-.1-.1-.6-.6a1.79 1.79 0 0 1 .5.7c.2.2.2.4.4.6-.1-.1-.2-.1-.3-.2v.1a.75.75 0 0 1 .5.1Zm-.1-.2c0 .1.1.1.1.2H63Zm.5.4a3.55 3.55 0 0 0-.4-.9c-.1-.3-.3-.6-.4-.9h-.1c.1.3.3.6.4.9a9 9 0 0 1 .5.9Zm1.2-6.4a.37.37 0 0 0-.1-.3h-.1v.1a.6.6 0 0 1-.1-.4c.1.2.1.4.3.6Z" style="fill:#685649" transform="translate(-4.9 -3.8)"/>
  <path d="M67.2 15.1c0-.1 0-.1-.1-.2a.37.37 0 0 0-.1-.3 16.35 16.35 0 0 1-.2-2.2v-.5h.1a4.48 4.48 0 0 0 .1-1.1c.1 0 .1 0 .1-.1s-.1-.1-.1-.2v-.2c0-.3.1-.6.1-.9s.1-.3.1-.4 0-.2.1-.2a1.48 1.48 0 0 0 .1-.7c0-.2.1-.4.1-.6s.1-.3.2-.5a.85.85 0 0 0 .3-.6h-.1a6.89 6.89 0 0 0-.3.8c0 .1-.1.2-.1.3 0-.1.1-.2.1-.3s.1-.1.1-.2.1-.3.2-.5 0-.1.1-.1h.2c.1.1.2.2.3.2.5 0 .6-.6.5-1 .4.2.8.2.9-.2s-.5-.5-.9-.5c.1-.3-.2-.5-.5-.5.3 0 .5.3.4.5s0 .1.1.1c.3 0 .8 0 .9.3s-.1.3-.4.4a4.33 4.33 0 0 1-.5-.1h-.1a.1.1 0 0 0-.1.1.9.9 0 0 1 .1.5c-.1.2-.2.4-.4.4s-.2-.1-.3-.2-.2-.3-.2-.4v-.3c0-.1.1-.2.1-.3s-.1-.1-.1 0v.1a1.69 1.69 0 0 0-.2.5v-.1c0-.2.1-.2.2-.4.1 0 .1-.1 0-.1-.4.1-.8-.1-.8-.4 0-.1.1-.2.2-.3-.2.1-.3.3-.4.4a.37.37 0 0 0 .1.3.1.1 0 0 1-.1.1c0-.1 0-.1-.1-.1s-.1-.1-.1 0v.1h-.1v.1a.1.1 0 0 1 .1.1c0 .7.1 1.4.1 2.2h.1V5.5a4.1 4.1 0 0 1 .1 1.1c0 .4-.1.8-.1 1.3v.6a.35.35 0 0 0-.1-.2 2.92 2.92 0 0 0-.2-.9 2.22 2.22 0 0 0-.5-1.1c0-.1 0-.2-.1-.2v.1c0 .1-.1.1-.1.2v-.2a.31.31 0 0 1 .1-.2c.1.1.1 0 .1-.1s.2-.1.4-.2.1-.4-.1-.5 0-.1.1-.2a.1.1 0 0 0-.1-.1c-.1.1-.2.1-.3.2S66 5 65.8 5c.1-.1.3-.2.3-.3s.1-.1.2-.2l.1-.1a.52.52 0 0 0 .4.2.1.1 0 0 0 .1.1c.1 0 .1 0 .1-.1a.1.1 0 0 0 .1-.1c.1-.1.2-.2.1-.3a.1.1 0 0 1-.1-.1V4l-.1-.1h.1v-.1c-.1.4-.1.4 0 .5h.1a.32.32 0 0 0-.3-.3.44.44 0 0 1 .5-.1c.3.1.3.4 0 .6-.1 0 0 .1 0 .1.4-.1.4-.5.1-.7a.54.54 0 0 0-.8.2h-.1a.48.48 0 0 0-.7-.2c-.1.1-.2.3-.1.4h-.1c-.2 0-.8.2-.8.5a.78.78 0 0 0-1 .4c0-.2-.3-.3-.5-.2a.49.49 0 0 0-.3.6c0 .1.1.2.1.3-.3.1-.7.2-.6.5a.37.37 0 0 0 .5.2c-.1 0-.1 0-.2-.1s-.2-.2-.1-.4.4-.1.6-.1.1-.1 0-.1-.2-.2-.2-.3a.52.52 0 0 1 .2-.4c.3-.2.8 0 .6.3-.1.1 0 .1 0 .1a.1.1 0 0 1 .1-.1.55.55 0 0 0 .5.3h.2a.37.37 0 0 0-.1.3c0 .1.1.1.1 0s.1-.2.1-.3h-.2c.1-.1.2-.1.2-.2l.1-.1c-.1.1-.1.1-.1.2h.1a.37.37 0 0 0-.1.3.37.37 0 0 0 .1-.3h.1c0 .1-.1.1-.1.2s.1.1.1 0 0-.1.1-.2.1-.2.1-.3.1 0 .2.1.1.1.2.1c.1-.2-.1-.2-.2-.2.1-.1.1-.1.2-.1l.1.1c.1.1.1.1.2.1s.1 0 0-.1-.1-.1-.2-.1-.1-.1-.2-.1a.19.19 0 0 0 0-.3V5a.1.1 0 0 1-.1-.1h.1l-.1-.1c.1-.1.1-.1.1-.2a.1.1 0 0 0-.1-.1l-.2.2h-.2a.76.76 0 0 0-.4.2c-.1-.1-.1-.1-.2-.1s-.1.1 0 .1a.35.35 0 0 1 .2.1c0 .1 0 .1.1.1l-.2.2v.1s0-.1-.1 0a.1.1 0 0 1-.1.1h-.1c-.2-.1-.4-.1-.4-.3a.76.76 0 0 1 1.1-.5c.1 0 .1 0 .1-.1-.1-.3.4-.5.7-.4s.2.2.2.3v.2l-.1.1a.22.22 0 0 1-.2.2c-.1 0 0 .1 0 .1.4-.1.8.2.6.6a.71.71 0 0 1-.6.3.35.35 0 0 1-.2-.1v-.1h-.1c-.1-.1-.1-.1-.1-.2a.35.35 0 0 0 .1.2.66.66 0 0 1-.4.5v-.1h-.1a.1.1 0 0 0 .1.1c-.2.1-.3-.1-.4-.2.1-.1.1-.1.1-.2s0-.1-.1 0v.2a.1.1 0 0 1-.1.1l.1.1c-.1 0-.1 0-.2-.1h-.1a.1.1 0 0 0-.1-.1h-.1c-.1.1-.1.2.1.2v.3c.1.1.2.1.2.3s-.1.4-.4.4c.2.1 0 .1-.2.1s-.1 0-.2-.1-.1 0-.1.1.1.3 0 .4-.2.4-.4.3-.2-.2-.2-.3v-.3c-.1.3-.1.7.2.7a.37.37 0 0 0 .4-.4 2.18 2.18 0 0 0 .4.5l.1.1a.1.1 0 0 0 .1.1h.1c.1.1.2.1.4.1.2.2.4.3.6.5a2.65 2.65 0 0 0 .6.5 2.65 2.65 0 0 1 .5.6c.1.1.2.3.3.4v1.7c0 .5.1 1.1.1 1.7a6.47 6.47 0 0 0-.4-1.3c-.1-.3-.2-.5-.3-.8-.1-.1-.2-.2-.2-.3s-.1-.3-.2-.4c-.4-.8-1.6-.5-2.1-1.1-.1-.1-.1 0-.1.1a.1.1 0 0 0 .1.1 4.35 4.35 0 0 1 .6.7 2.18 2.18 0 0 0-.4-.5c.6.3 1.5.3 1.7.9a2.51 2.51 0 0 0 .4.7 2 2 0 0 1 .4.8 2.09 2.09 0 0 0-.4-.6 1.38 1.38 0 0 0-.3-.4h-.1c-.1-.1-.1-.1-.1-.2.2.4.5.8.7 1.2.1.2.1.3.2.4v.2c.1.1.1.3.2.4 0-.1-.1-.2-.2-.3a5.94 5.94 0 0 0-.4-.8 2.19 2.19 0 0 0-.3-.5c.1-.4-.5-.8-.7-1.1.1.3.4.5.5.8 0 0-.1 0 0 .1a.31.31 0 0 1 .1.2c-.1-.1-.1-.2-.2-.3-.2-.3-.5-.7-.7-1a.1.1 0 0 0-.1.1c.2.2.3.4.4.5a1 1 0 0 0 .4.5V12a1.76 1.76 0 0 0 .4.5 2.51 2.51 0 0 0 .4.7c.1.2.2.3.3.5l-.1-.1c-.2-.1-.3-.3-.5-.4.2.3.7.6.9 1 0 .1 0 .1.1.2s.1.3.1.4v-.1a6.89 6.89 0 0 1 .4 1 8.68 8.68 0 0 1 .1 2.3 13 13 0 0 0-.1-2.9Zm.7-9c0 .1 0 .1-.1.1.1 0 .1 0 .1-.1Zm-.8 1.5a4.87 4.87 0 0 0 .1-1.2 3.75 3.75 0 0 0-.1-1 .57.57 0 0 0 .7.2c-.1.2-.2.4-.1.5l.1.1c-.1.2-.1.4-.2.5-.1.4-.2.7-.3 1.1a.9.9 0 0 0-.1.5 7.08 7.08 0 0 0 .1-1.4 8.6 8.6 0 0 0-.1 1.6s.1.1.1 0a4.33 4.33 0 0 1-.1.5v.1a2 2 0 0 0-.1-.7Zm-1.6-2.4Zm-.3.2-.1.1c0-.1 0-.1.1-.1Zm-.1.2c-.1 0-.1 0-.1.1 0-.1 0-.1.1-.1Zm1.6-1.3a.31.31 0 0 1 .2-.1.1.1 0 0 1 .1.1Zm-.8-.1a.27.27 0 0 1 .3-.3.52.52 0 0 1 .4.2c-.1.1-.1.1-.2.1s0 .1.1.1.1-.1.2-.1v.1l-.1.1h-.2a.1.1 0 0 0 .1.1.1.1 0 0 0-.1.1.1.1 0 0 1-.2 0s.1 0 0-.1-.3-.2-.3-.3Zm-2 3.6.1.1a.1.1 0 0 0-.1-.1Zm2-1.8Zm-.2 0h.1a.1.1 0 0 0-.1.1Zm.1.1v.2h-.1c.1 0 .1-.1.1-.2Zm-.2.1a.1.1 0 0 1 .1.1.1.1 0 0 1-.1-.1Zm0-.2v.2c-.1-.1-.1-.1 0-.2Zm-.6.3a.1.1 0 0 0 .1.1v.1l-.1-.1c0-.1-.1 0-.1 0l-.1-.1c.2.1.2.1.2 0Zm.1.4Zm-.1-.1c-.1 0-.1 0-.1-.1Zm-.2.2Zm-.5-.2a.1.1 0 0 1 .1-.1.1.1 0 0 0 .1.1Zm.1-.1h.1c.1.1.2.2.3.2a.76.76 0 0 1-.4-.2Zm-.3 1.6v-.2c0 .1.1.2.1.3Zm.4.4a.31.31 0 0 0-.2-.1.76.76 0 0 1-.1-.4h.1l-.1-.1c0-.1-.1-.1-.1-.2H64v.1a.1.1 0 0 1-.1-.1.1.1 0 0 0-.1-.1h.3a1.8 1.8 0 0 1 .4.9c.1 0 .1-.1 0 0 0-.3-.1-.5-.1-.8h.1c.1.1.2.2.2.3.2.1.1.5-.2.5Zm.3 0a1.47 1.47 0 0 1 .4.2h.1a.1.1 0 0 0 .1.1 3.33 3.33 0 0 1-.6-.3Zm.1 0a.1.1 0 0 1 .1-.1l.2.2.1.1c-.2-.2-.3-.2-.4-.2Zm.4.4.1.1c.1.1.2.2.2.3 0-.3-.2-.4-.3-.4Zm1.4 1.4a3.11 3.11 0 0 0-.7-.9l-.5-.5-.3-.3c0-.1-.2-.2-.2-.3a.84.84 0 0 0-.4-.7h.1a.85.85 0 0 0 .3-.5c0-.1 0-.1-.1-.2h.1l.2.2c.1.2.3.4.5.7a3.51 3.51 0 0 1 .5.8 3.82 3.82 0 0 1 .6 1.6c-.1 0-.1 0-.1.1Zm0-.5a4.28 4.28 0 0 0-.5-1.3 4.05 4.05 0 0 1-.5-.9.76.76 0 0 1-.2-.4v-.1c-.1-.1-.1-.1-.1-.2s-.1-.2-.2-.2h-.1l-.1-.1.1-.1c.3.3.5.7.8 1a3.81 3.81 0 0 1 .8 1.7v.6Zm0-.6a11.94 11.94 0 0 0-.8-1.6 3.45 3.45 0 0 0-.8-.9c.1-.1.1-.1.1-.2s-.2-.1-.2-.2.2-.1.2-.2l.1-.1a.66.66 0 0 0 .5.4.1.1 0 0 0 .1-.1l.3.6c0 .1 0 .1.1.1a5.77 5.77 0 0 1 .3 1.4 1.27 1.27 0 0 1 .1.6Zm0-1.1a4.92 4.92 0 0 0-.6-1.7 4.67 4.67 0 0 1 .5 1 2.2 2.2 0 0 1 .1.8Zm.2 1.6a4.33 4.33 0 0 0-.1.5v-.1a.76.76 0 0 0 .1-.4c0-.1-.1-.1-.1-.2v-.7a2.22 2.22 0 0 1 .1.9Zm-.5 3.5v-.1a4.33 4.33 0 0 0 .1.5c0-.1-.1-.3-.1-.4Zm.3.9a.1.1 0 0 0 .1.1.1.1 0 0 1-.1-.1Z" style="fill:#685649" transform="translate(-4.9 -3.8)"/>
  <path d="M67.4 17.6a4.33 4.33 0 0 1-.1.5v.2a2 2 0 0 1 .1-.7Zm-3-9.7ZM61 12.8a.35.35 0 0 1-.2-.1c.1 0 .1.1.2.1Zm.9.9a1.78 1.78 0 0 0-.7-.8 1.38 1.38 0 0 0 .4.3c.1.1.2.2.2.3l-.2-.2c-.1-.1-.1-.2-.2-.3s-.2-.2-.2-.3v.1c.1.1.2.2.2.3l-.1-.1-.2-.2.2.2a6.47 6.47 0 0 0 .9.8l-.1-.1.1.1c0 .1-.1 0-.3-.1ZM64.4 8a.37.37 0 0 0 .1.3 1 1 0 0 1-.1-.3Zm-2.1 5.9a4.3 4.3 0 0 0-.9-1l.6.6a1.38 1.38 0 0 1 .3.4Zm-.1-1.7c-.1 0-.1.1-.1.2a.1.1 0 0 1 .1.1Zm-.1.3a5.58 5.58 0 0 1-.8-.5c-.1 0-.1 0-.1.1.3.1.6.3.9.4Z" style="fill:#685649" transform="translate(-4.9 -3.8)"/>
  <path d="M61.7 13a4.35 4.35 0 0 1 .6.7l.3.6h.1a2.51 2.51 0 0 0-.4-.7 1.7 1.7 0 0 0-.6-.6Z" style="fill:#685649" transform="translate(-4.9 -3.8)"/>
  <path d="M62.4 14c0-.1-.1-.1-.1-.2a.35.35 0 0 0 .1.2Zm2.7.5v-.1c-.1.1 0 .1 0 .1a.76.76 0 0 1 .1.4c0 .1 0 .1.1.2v-.2c-.1 0-.2-.2-.2-.4Zm-2.7-.4a.1.1 0 0 1 .1.1l.1.1c-.1-.2-.2-.2-.2-.2Zm-1.2-1.3h.4c-.1-.3-.2-.5-.3-.8h-.1a2.51 2.51 0 0 0 .4.7c.1 0 0 .1 0 .1h-.4Zm-.1 0a.1.1 0 0 0 .1.1l-.1-.1Zm1.7 2.6h.2a.1.1 0 0 1-.1-.1l-.1.1Zm-2.1-2.8Zm.4.1c-.1 0-.1.1 0 0Zm5.7-7.2Zm-3.1 1.6c-.1.1-.1.1-.2.1h.1a.1.1 0 0 0 .1-.1Zm4-2.3a.3.3 0 0 0-.4 0c.2-.1.3-.1.4 0Zm-7 7.8Zm2.6-5.2a.9.9 0 0 0-.1.5 1.09 1.09 0 0 0 .1-.5Zm.8-.7c0 .1 0 .1-.1.2a.31.31 0 0 1 .2-.1v-.1Zm-.7.7a.6.6 0 0 0-.1.4.6.6 0 0 1 .1-.4Zm.6 5.3ZM66.6 5a.37.37 0 0 0 .1.3c-.1 0-.1-.2-.1-.3Z" style="fill:#685649" transform="translate(-4.9 -3.8)"/>
  <path d="M66.7 19.1v.3s.1.1.1 0a3.08 3.08 0 0 0 .1-.9c-.1-.3-.1-.7-.2-.9a.37.37 0 0 1-.1-.3V17a.1.1 0 0 0 .1.1c.2.4.3.8.5 1.3a3.26 3.26 0 0 0-.4-1.3l-.6-.9v-.1a1.79 1.79 0 0 1 .5.7 4.05 4.05 0 0 1 .5.9 2 2 0 0 1-.1 1.3c0 .1.1.1.1 0a1.45 1.45 0 0 0 .2-.7v-.2a1.78 1.78 0 0 0-.4-1c-.2-.3-.5-.6-.7-.9a.68.68 0 0 1-.4-.3 1.38 1.38 0 0 0-.3-.4 3.28 3.28 0 0 0-1.5-2.7H64a1.38 1.38 0 0 1 .4.3.31.31 0 0 1 .1.2.31.31 0 0 1 .1.2h.1v-.1c.1.2.3.4.4.6s.1.4.2.5a3 3 0 0 0-.4-.8 1990328647664.19 1990328647664.19 0 0 1-.2-.2 2.65 2.65 0 0 0-.5-.6c-.2.1-.2 0-.2-.1v.2a2.34 2.34 0 0 0-.7-.7c-.1-.1-.1 0-.1.1v.1l-1.2-.9c-.1-.1-.1.1-.1.1.3.2.5.4.8.6a8.7 8.7 0 0 1 .9 1.1 3.55 3.55 0 0 1 .4.9c.1.3.1.5.2.8a.1.1 0 0 1-.1-.1c0-.3-.2-.5-.2-.8a3 3 0 0 0-.4-.8h-.1c0 .1.1.1.1.2 0-.1-.1-.1-.1-.2a.37.37 0 0 1-.1-.3c0-.1-.1-.1-.1 0l-.1-.1a11.41 11.41 0 0 0-1.1-1.1v.1a6 6 0 0 1 .8.8h.2a3.55 3.55 0 0 0 .4.9 2 2 0 0 0 .4.8 3.18 3.18 0 0 0-.3-.9 3 3 0 0 0-.4-.8c.1.1.2.2.2.3s.1.2.2.3.1.4.2.5.1.5.2.7h.1c0 .1.1 0 .1 0 0-.2-.1-.3-.1-.4.1.2.1.5.2.7-.3-.1-.5-.3-.8-.4a3.18 3.18 0 0 0-.3-.9l-.6-.9h-.1a3 3 0 0 1 .5.7 5.71 5.71 0 0 0-1.4-1.3c.4.4.8.7 1.1 1a5.39 5.39 0 0 1 .7 1.3c-.1 0-.1-.1-.2-.1a4 4 0 0 1-1.9-1.1c0-.1-.1-.1-.1-.2H61a.86.86 0 0 1-.3-.6 2.62 2.62 0 0 0 .5.9c.1.2.1.3.2.4a2.18 2.18 0 0 0 .4.5c.2.3.6.4.9.6-.1 0-.1.1 0 .1a.35.35 0 0 1 .2.1c.1 0 .1 0 .1-.1h.2l-.1-.1a.1.1 0 0 1-.1-.1.1.1 0 0 1 .1.1c.1 0 .2.1.4.1a1.48 1.48 0 0 0 .7.1c.1-.1.2 0 .4 0h-.4a1.09 1.09 0 0 0 .5.1c.1.1.1.1.2.1a1.09 1.09 0 0 0-.5-.1 2.44 2.44 0 0 0-1.2 0v.1h.8a2.35 2.35 0 0 1 .8.2h-.2a1.48 1.48 0 0 0-.7-.1c-.1 0-.1 0-.1-.1a.76.76 0 0 1-.4-.1 1.85 1.85 0 0 1-.7-.2c-.2 1.1 1.2 1.1 1.4 1.1a.37.37 0 0 1 .3.1c.1.1.2.1.4.1a.49.49 0 0 1 .7.1l.3.3a.31.31 0 0 1 .1.2h.1v-.1l.1.1a2.62 2.62 0 0 1 .5.9 2.92 2.92 0 0 1 .2.9v.5a2.93 2.93 0 0 1-1.3 1.6c-.1 0 0 .1.1.1a3.16 3.16 0 0 0 1.1-1.7ZM65.2 15c0 .2 0 .3.1.4a.1.1 0 0 0-.1-.1V15c-.1-.2-.1-.3-.2-.4s-.1-.2-.1-.3c0 .1.1.1.1.2v.1a.4.4 0 0 1 .2.4Zm-.7-1.5a.1.1 0 0 0 .1.1c0 .1.1.1.1.2.1.3.2.5.3.8 0 .1.1.2.1.3a6 6 0 0 0-.8-1.6Zm-.1.5Zm.7 1.4v-.1c.1.1.1.1.1.2h.1v.1a.22.22 0 0 1-.2-.2Zm-.9-2.4c0 .1.1.1.1.2h-.1Zm-.4-.1a2.51 2.51 0 0 1 .4.7c0 .1.1.1.1.2a.1.1 0 0 0-.1-.1 4.7 4.7 0 0 0-.9-1.2v-.1Zm.2 2.3h-.2c0-.1-.1-.1-.2-.1a.76.76 0 0 1 .4.1Zm-.6-.3a6.89 6.89 0 0 0-.8-.3c-.2-.1-.4-.3-.6-.4.5.3 1.2.6 1.8.9-.1-.1-.3-.1-.4-.2Zm-.3.2c-.1.1-.2.1-.2 0a.1.1 0 0 0 .1-.1 1.09 1.09 0 0 0 .5.1 6.37 6.37 0 0 1-.7-.2 2.55 2.55 0 0 1-1-.7 1.76 1.76 0 0 1-.4-.5.1.1 0 0 0-.1-.1c.2.2.4.3.6.5s.3.2.4.3c-.1-.1-.2-.1-.4-.1 0 0-.1 0 0 .1.3.1.5.3.8.4-.2-.1-.4-.1-.5-.2s-.1 0 0 .1a5.64 5.64 0 0 0 1.2.4Zm.6.2a.6.6 0 0 0-.4-.1h.5a.9.9 0 0 0 .5.1c.1 0 .1.1.2.1a2.81 2.81 0 0 0-.8-.1Zm.6-.1a3.82 3.82 0 0 0-.6-1.6c0 .1.1.1.1.2a2.47 2.47 0 0 1 .4.9c.1.2.1.5.2.7 0-.2 0-.2-.1-.2Zm.2.3a.35.35 0 0 1 .2.1c0-.1-.2-.1-.2-.1Zm.3-.3Zm-.4.4a6.89 6.89 0 0 1 .8.3 1.33 1.33 0 0 0-.8-.3Zm.9.2Zm.5.2a.37.37 0 0 1 .1.3l-.1-.1c0-.1-.1-.2-.1-.3 0 .1 0 .1.1.1Zm.1.6c-.1-.1-.1-.2-.2-.2a1.38 1.38 0 0 1 .3.4c0-.1 0-.2-.1-.2Zm2-11.8a.44.44 0 0 1 .1-.5c-.2.1-.4.3-.3.5Zm.3-.6a.1.1 0 0 0-.1.1.1.1 0 0 1 .1-.1Z" style="fill:#685649" transform="translate(-4.9 -3.8)"/>
  <path d="M62 12c.1.1.1.1.2.1-.1-.2-.1-.3-.3-.4 0 .1.1.2.1.3Zm2.6-6.1Zm.7-.4-.1.1a.1.1 0 0 1-.1.1h.1c0-.1.1-.1.1-.2Zm-1.5.9v-.3a.1.1 0 0 1 .1-.1v.1h.1V6a.1.1 0 0 0-.1-.1c0-.1 0-.1-.1-.1h-.1a.22.22 0 0 0-.2.2v.2c-.1 0-.1 0-.1-.1V6a.1.1 0 0 0 .1-.1c-.1.1-.2.2-.2.3s0 .1.1.1.1 0 .1-.1v.1c0 .1.1 0 .1 0l.1-.1a.35.35 0 0 0-.1.2h.2c.1 0 .2.2.1.2v.1h.2a.27.27 0 0 0-.3-.3Zm-.2-.4c.1-.1.1-.1.1-.2 0 .1 0 .2-.1.2Zm-.5.7Zm.4 0Zm1.8 5.4a2.09 2.09 0 0 0-.4-.6 4.35 4.35 0 0 1-.6-.7 2.18 2.18 0 0 0 .4.5 5.55 5.55 0 0 0 .6.8l.3.6.1.1-.1-.1a1.63 1.63 0 0 1-.3-.6Z" style="fill:#685649" transform="translate(-4.9 -3.8)"/>
  <path d="M63.3 7.4c.1 0 .1-.1 0 0l.1-.1v-.1a.3.3 0 0 0 0 .4v-.2a.31.31 0 0 1 .1-.2c.1 0 .3.1.4 0h-.3l-.1.1v-.1h-.1c.1-.1.1-.1.1-.2h.3v-.1c-.1 0-.2-.1-.4-.1.1 0 .2 0 .1.1h.1c0 .1 0 .1-.1 0h-.1v-.1h.1c0-.1.1-.1.1-.2a.1.1 0 0 0 .1-.1c-.1 0-.2 0-.2.1a.1.1 0 0 1-.1.1.35.35 0 0 0-.1.2c-.1.1-.2.1-.3.2l-.1.1a.37.37 0 0 1-.3.1v.1c.1 0 .1-.1.2-.1a.1.1 0 0 1-.1.1h-.1v.1h.1a.1.1 0 0 0 .1.1h.2c.1.1-.3.1-.4-.2s.3-.4.5-.4.1 0 .1-.1.1-.2.1-.3c-.1.1-.2.1-.2.2v.1c-.4.1-.8.3-.5.7.1.2.4.2.6.1 0-.2 0-.2.1-.3Zm.1-.2Zm-.2 0v.1h-.1c0-.1 0-.1.1-.1Zm.6-1.5a.1.1 0 0 0 .1.1Zm.6.5Zm-.8.2a.35.35 0 0 0-.2.1c.1 0 .1 0 .2-.1ZM70 17.8a8.74 8.74 0 0 1 1 .8.75.75 0 0 0 .7.2 1.49 1.49 0 0 1-.9-.4c-.3-.3-.6-.4-.8-.6Z" style="fill:#685649" transform="translate(-4.9 -3.8)"/>
  <path d="M71.6 18.7a4.13 4.13 0 0 1-1.1-.7 2.59 2.59 0 0 0 1.1.7Zm-.4-.5c-.2-.1-.5-.3-.7-.4a2.18 2.18 0 0 0 .8.5 3.18 3.18 0 0 0 .9.3v-.1a.37.37 0 0 0-.3-.1h.2v-.1a6.37 6.37 0 0 0-.7-.2 1.49 1.49 0 0 1-.7-.3 2.74 2.74 0 0 1 .5.4Zm2.2-.1a4.51 4.51 0 0 1-1.1-.3s-.1 0 0 .1.1.1.2.1c-.4-.1-.7-.2-.7-.3s-.1-.1-.1 0a.22.22 0 0 0 .2.2.1.1 0 0 1 .1.1c-.1 0-.2-.1-.3-.1a1.38 1.38 0 0 1-.4-.3s-.1 0 0 .1l.1.1a.1.1 0 0 0-.1.1c.2.1.3.2.5.2s.3.2.5.2a2.92 2.92 0 0 0 .9.2c.1 0 .1-.1 0-.1h.1c.2 0 .5.1.7 0v-.1c-.1-.1-.2-.1-.4-.1s-.1-.1-.2-.1Zm-1.1-1.4a1.08 1.08 0 0 0-.8.2 2 2 0 0 1-.8.4l.9-.3c.2-.2.5-.2.7-.3Zm.1.7a4.33 4.33 0 0 0 .5-.1h.5v-.1a3 3 0 0 0-1 .2Z" style="fill:#685649" transform="translate(-4.9 -3.8)"/>
  <path d="m74 18.1-1.5-.3a3.09 3.09 0 0 0 .8.2c.3 0 .5.1.7.1Zm-8.7-6.2a.31.31 0 0 0-.1-.2l.1.2Zm.7 1.2a.1.1 0 0 0-.1-.1 6 6 0 0 0-.6-1.1 7.46 7.46 0 0 0 .7 1.2Z" style="fill:#685649" transform="translate(-4.9 -3.8)"/>
  <path d="M64.3 10.7a2.65 2.65 0 0 1 .5.6 2.09 2.09 0 0 0 .4.6h.1a2.94 2.94 0 0 0-1-1.2Zm5.9 3.8a2.92 2.92 0 0 1-.9.2 4.1 4.1 0 0 1-1.1.1c-.1 0-.1.1 0 .1a4.1 4.1 0 0 0 1.1-.1 1.1 1.1 0 0 0 .9-.3Z" style="fill:#685649" transform="translate(-4.9 -3.8)"/>
  <path d="M69.8 14.6c.2 0 .4 0 .4-.2-.1.3-.6.2-.8.2h-1c-.1 0-.1.1 0 .1a6.6 6.6 0 0 1 1.4-.1Z" style="fill:#685649" transform="translate(-4.9 -3.8)"/>
  <path d="M70.2 14.3c-.2-.1-.5.1-.8.1a2 2 0 0 1-.8.1c-.1 0-.1.1 0 .1a9 9 0 0 1 1.6-.3Zm.1-.3c-.3.1-.5.1-.8.2a1.38 1.38 0 0 1-.9 0c-.1 0-.1.1 0 .1a3.06 3.06 0 0 0 1.7-.3Zm-.2-.1a1.07 1.07 0 0 0 .6-.2 1.08 1.08 0 0 1-.8.2 2.48 2.48 0 0 0-.9.1c-.1 0-.1.1 0 .1a2 2 0 0 1 1.1-.2Zm.2-.2c.2-.1.7-.1.7-.3 0 0-.1-.1-.1 0-.1.3-.7.3-.9.3a3.75 3.75 0 0 1-1 .1c-.1 0-.1.1 0 .1a5.85 5.85 0 0 1 1.3-.2Zm.7-1.2c-.1 0-.1 0-.2.1.1 0 .2-.1.3-.2a2.54 2.54 0 0 0-.7.2 6.37 6.37 0 0 1-.7.2c-.1 0-.1.1 0 .1h.2a.9.9 0 0 1-.5.1c0 .1 0 .2.1.2s.1 0 .1-.1a1.28 1.28 0 0 0 1.2-.2.1.1 0 0 0-.1-.1 1.47 1.47 0 0 1-1.1.2c.2-.1.4-.1.6-.2a1.14 1.14 0 0 0 .8-.3Zm-.1-.5a1.42 1.42 0 0 1-.6.2c-.1 0-.1.1 0 .1s.4-.1.6-.2a1 1 0 0 0 .5-.4c-.2.1-.3.2-.5.3Zm.6-.8c-.1.1-.2.3-.3.4a1.06 1.06 0 0 1-.5.2c-.1 0-.1.1 0 .1.3 0 .8-.3.8-.7Zm-1 3.3c.1-.1.2-.1.4-.2v-.1c-.3.1-.4.2-.4.3-.2-.1-.1 0 0 0Zm0-.4c-.1 0-.1.1 0 0a.14.14 0 0 0 .2 0 .35.35 0 0 0 .2-.1v-.1c-.1.1-.1.1-.2.1a.31.31 0 0 1-.2.1Zm.1-.2c.2-.1.3-.2.5-.2v-.1c-.3.1-.5.2-.5.3Z" style="fill:#685649" transform="translate(-4.9 -3.8)"/>
  <path d="M70.8 13.7c.2-.1.4-.1.3-.3 0 .1-.2.2-.3.3Zm.2-.4c.1 0 .1-.1.2-.1a.31.31 0 0 0 .1-.2c-.1.1-.1.1-.1.2s-.1 0-.2.1Zm.2-.7c-.1.1-.2.2-.3.2s0 .1.1.1.2-.2.2-.3Zm-.6.6a5.64 5.64 0 0 1-1.2.4 1.37 1.37 0 0 0 1.2-.4Zm-3 .6c-.1.2 0 .4 0 .6a1.48 1.48 0 0 1 .1.7h.1c0-.2-.1-.4-.1-.6a1.7 1.7 0 0 0-.1-.7Zm.2-.1a2 2 0 0 0 .1 1.1c0 .1.1 0 .1 0a1.48 1.48 0 0 1-.1-.7.6.6 0 0 0-.1-.4Zm.2.8a2.44 2.44 0 0 0 0-1.2 2.43 2.43 0 0 0 0 1.2Z" style="fill:#685649" transform="translate(-4.9 -3.8)"/>
  <path d="M68.2 13.5v-.1c-.1-.1 0-.3-.1-.4a.76.76 0 0 0-.1.4v.5c0 .1.1.1.1 0a.6.6 0 0 0 .1-.4c0 .1.1.1.1 0a1 1 0 0 0-.1-.9 2.7 2.7 0 0 1 0 .9Zm.3-.1a1.7 1.7 0 0 0 0-1Zm.1-.7v.6s.1.1.1 0 .1-.4.1-.6 0-.3-.1-.5a.75.75 0 0 0-.1.5Z" style="fill:#685649" transform="translate(-4.9 -3.8)"/>
  <path d="M68.7 12.6v.5c0 .1.1.1.1 0a1.42 1.42 0 0 0-.1-1.1Zm.2-.1v.4c0 .1.1.1.1 0s0-.3-.1-.4c.1-.2.1-.3 0-.4Zm.7-.5c.1 0 .1-.1.1-.2a.31.31 0 0 0-.1.2Zm1.3-.9a1.42 1.42 0 0 0 .2-.6s-.1-.1-.1 0a1.27 1.27 0 0 0-.1.6Z" style="fill:#685649" transform="translate(-4.9 -3.8)"/>
  <path d="M70.9 11c.1-.1.2-.2.2-.3a.6.6 0 0 0 .1-.4s-.1-.1-.1 0a.37.37 0 0 0-.1.3c.1.1 0 .2-.1.4Zm-.5 7.2-.6-.3Zm-1.5-9.6a.31.31 0 0 0-.1-.2.31.31 0 0 1 .1.2Zm1.2-.7c-.1 0-.1 0-.2.1a.1.1 0 0 0-.1.1h.1c.1 0 .1-.1.2-.2Zm-.4 3.7a.1.1 0 0 1-.1.1c.1 0 .1 0 .1-.1Zm.7 6.6c.1.1.2.1.3.2-.1 0-.1-.1-.2-.1s0-.1-.1-.1Zm-2.8-8.4c.1-.2.4-.5.6-.8a2.1 2.1 0 0 0-.6.8Zm3.6.4c-.1 0-.2.1-.3.1.1 0 .2-.1.3-.1Zm-.6 6.3-.1.1Zm.8.8Zm-3.5-6.9c-.1-.1-.1-.2-.1-.4-.1.2 0 .3.1.4Zm1-1.7a.1.1 0 0 0 .1.1c-.1 0-.1-.1-.1-.2-.2 0-.3 0-.4.2a.6.6 0 0 1 .4-.1Zm-.5.2.1-.1a.1.1 0 0 0-.1.1.38.38 0 0 0 .1.6.61.61 0 0 1-.1-.6Zm.5 2.1c.1 0 .1-.2.1-.4v.2a.35.35 0 0 1-.1.2Zm.9.3Zm-2.3 3.2c0 .2.1.3.1.5a4.33 4.33 0 0 1-.1-.5Zm2.3-3.1Zm-.1.5a.6.6 0 0 0 .1-.4c0 .1-.1.1-.1.2Zm.4-.3a.6.6 0 0 1 .1-.4h-.1c0 .1-.1.3 0 .4-.1.1 0 .1 0 0Zm.2-.5a.1.1 0 0 0 .1-.1.1.1 0 0 0-.1.1.1.1 0 0 0-.1.1.1.1 0 0 1 .1-.1Zm-2.9 3.2a.37.37 0 0 0 .1.3c0-.2-.1-.2-.1-.3Zm2.4-3 .1-.1c0-.1-.1-.1-.1-.2Zm-1.4-.7h-.1v.2c.1-.1.2-.1.1-.2Z" style="fill:#685649" transform="translate(-4.9 -3.8)"/>
  <path d="M69.9 11.1a.1.1 0 0 0-.1-.1c0 .1 0 .1.1.1Zm-.1.4v.3c0 .1.1.1.1 0s0-.3-.1-.3a.37.37 0 0 0 .1-.3h-.1a.31.31 0 0 1-.1.2c.1-.1.1 0 .1.1Zm.5-.2c0-.1.1-.1.1-.2l-.1.1v.1Zm-1.6-.9c-.2 0-.6.1-.8-.1a.1.1 0 0 0 .1.1c.1.1.4.2.5.1v.1c.1-.1.2-.1.2-.2Zm.8-.7c-.2.1-.2.2-.2.3s.1 0 .1-.1a.35.35 0 0 0 .1-.2ZM67.6 15Zm2.5-3.9h-.2v.1c.1 0 .1 0 .2-.1Zm5 7c.1-.1.1-.1 0-.1a.88.88 0 0 1-.7-.1h.1v-.1h-.2c.2-.1.3-.1.5-.2s0-.1-.1-.1c-.8.1-1.4-.6-2-.9a3.8 3.8 0 0 0-2.1-.2 5.46 5.46 0 0 0-2.9 2 1.48 1.48 0 0 0 .1-.7V17c-.1.6-.1 1.1-.2 1.7a.37.37 0 0 0-.1.3.1.1 0 0 1-.1.1c0-.1.1-.2.1-.3 0 .1-.1.2-.1.4v.1c-.1.1-.1.1-.1.2a2.65 2.65 0 0 1-.5.6 4.7 4.7 0 0 1-1.2.9c-.1 0 0 .1.1.1a2.73 2.73 0 0 0 1.2-.9c-.1.1-.2.2-.2.3-.2.2-.4.3-.6.5s0 .1.1.1l.1-.1c.3-.1.5-.4.8-.6a1.79 1.79 0 0 0 .5-.7.1.1 0 0 1 .1-.1 5.72 5.72 0 0 1 .8-.7c.1 0 .1 0 .2-.1a2.46 2.46 0 0 1 1.2-.1c.6.2 1.1.6 1.8.5.1 0 .1-.1.1-.2s-.2-.1-.2-.2a.6.6 0 0 0 .4-.1 5 5 0 0 0 1.2-.2.1.1 0 0 0 .1-.1c.1 0 .1-.1.2-.1s.1-.1.2-.1a.76.76 0 0 0 .4-.1h.1a4.33 4.33 0 0 0 .5-.1c.2-.1.4-.3.6-.3-.2.5-.2.4-.2.4Zm-8 1.7c-.1 0 0-.1.1-.1a.1.1 0 0 0-.1.1Zm5.8-1.1-.1-.1h.1c.1.1.1.1.2.1Zm.9-.2h-.2c-.2 0-.5-.1-.7-.1v-.1c-.4-.1-.7-.1-1-.2-.1-.1-.2-.1-.4-.2l-.3-.3h-.1c.1.1.1.2.2.2a2.19 2.19 0 0 1-.5-.3 1.61 1.61 0 0 0 .7.4 1.42 1.42 0 0 0 .6.2.35.35 0 0 1 .2.1v.1c.1.1.2.2.2.3a1.09 1.09 0 0 1-.5.1h-.1a2.2 2.2 0 0 1-.8-.1l-.4-.4a1.38 1.38 0 0 0 .4.3H71a6.47 6.47 0 0 0-1.6-.9c.2-.1.4-.1.6-.2.4-.1.8-.1 1.2-.2v-.1h.1a1.34 1.34 0 0 0-.9.1 4.23 4.23 0 0 1 .7-.5 6.89 6.89 0 0 1 .8-.3v-.1a4.35 4.35 0 0 0-1.5.8c-.1 0-.1 0-.1.1-.2 0-.3.1-.5.1a3.61 3.61 0 0 1 1.5-.8v-.1a2.9 2.9 0 0 0-1.5.9c-.1 0-.2.1-.3.1a2.34 2.34 0 0 1 .7-.7c.2-.1.3-.3.5-.4a5 5 0 0 0-1.3 1.2.31.31 0 0 1-.2.1.1.1 0 0 0-.1.1.1.1 0 0 1-.1.1c.1 0 .1-.1.2-.1a1.69 1.69 0 0 1 .5-.2c.3.1.6.3.9.4s.5.3.8.5v.1c-.4.4-.4.4-.4.5a.1.1 0 0 1 .1.1c0 .1.1.1.1.2s-.2-.1-.3-.1a1 1 0 0 0-.5-.6 2.19 2.19 0 0 1 .5.3 3.69 3.69 0 0 0-1.4-.7c.1.1.3.1.4.2a2.08 2.08 0 0 0-1.1-.1v.1a1.72 1.72 0 0 1 1.2.2 1.56 1.56 0 0 1 .8.8 1.69 1.69 0 0 0-.5-.2l-.2-.2.2.2c-.1-.1-.3-.1-.4-.2a1.85 1.85 0 0 0-.7-.2 1.45 1.45 0 0 0-.7.2.6.6 0 0 1-.4.1c-.1 0-.1.1-.2.1a1.38 1.38 0 0 1 .4-.3 1.7 1.7 0 0 1 .7-.1 4.25 4.25 0 0 1 1.1.2h.1a1.72 1.72 0 0 0-1.2-.2.75.75 0 0 0-.5.1l.2-.2a.1.1 0 0 0-.1.1 8.7 8.7 0 0 1 .9-1.1 3.13 3.13 0 0 0-.9 1.1v.1a1.38 1.38 0 0 1-.4.3l-.5.5a1.27 1.27 0 0 0 .1-.6l.5-.5a3.51 3.51 0 0 0-.5.8s0 .1.1 0a1.79 1.79 0 0 0 .5-.7 2.18 2.18 0 0 1 .4-.5 6.44 6.44 0 0 1 2-1.1c.1 0 .1-.1.2-.1h.1a4 4 0 0 1 2.1.4 4.05 4.05 0 0 0 .9.5H74c-.1-.1-.3 0-.4 0h-.5s-.1.1 0 .1.2.1.4.1h-.1c-.1 0 0 .1 0 .1.2-.1.5 0 .8-.1.1.1.2.1.4.1-.1.1-.2.1-.4.1l-.2-.5h-.4c-.4-.1-.8-.1-1.1-.2-.1 0-.1 0-.1-.1h.4s.1-.1 0-.1a2 2 0 0 0-.8-.1h-.2c.1-.1.2-.1.4-.1a1.48 1.48 0 0 1 .7-.1V17a4.25 4.25 0 0 0-1.1.2.31.31 0 0 0-.2-.1c.1-.1.3-.1.4-.2s.5-.1.7-.2v-.1a1.85 1.85 0 0 0-.7.2c-.2.1-.4.1-.5.2a.1.1 0 0 1-.1-.1s-.1 0 0 .1a.1.1 0 0 1 .1.1c-.1 0-.1.1-.2.1h-.1v.1h.2a.31.31 0 0 0 .2.1c-.2 0-.3-.1-.4-.1s-.2 0-.2.1h.1c.1 0 .1 0 .2.1.1-.1.1 0 .1 0h-.1a2.2 2.2 0 0 0 .8.1c.1 0 .1 0 .1.1s-.1.1 0 .1c.3.1.6.1.9.2s.5.1.7.1a1.45 1.45 0 0 0 .7.2s-.3.1-.7.2Z" style="fill:#685649" transform="translate(-4.9 -3.8)"/>
  <path d="M70.5 11v-.2l-.1.1c0 .1-.1.2-.1.3.2-.1.2-.2.2-.2Zm.1 0c-.1.1 0 .1 0 0Zm0-.3v.2c0-.1.1-.1 0-.2Zm-3.2-1.2c0-.1.1-.1.1-.2v.1c-.1 0-.1 0-.1.1Zm2.1-3.6c-.1 0-.1 0-.2.1a.35.35 0 0 1-.1.2v.1c.1-.1.2-.3.3-.4Zm1 1.1c0 .2-.2.3-.4.3 0-.1 0-.1-.1-.1v.1h-.1c-.1 0-.1.1 0 .1s.1.1.2.1a1.09 1.09 0 0 1-.1.5.55.55 0 0 1 .5.3c.1.2-.1.3-.2.4a.19.19 0 0 0-.3 0c-.1 0-.1.1 0 .1a.19.19 0 0 0 .3 0 1.49 1.49 0 0 1 .1.6.22.22 0 0 1-.2.2c-.1-.2-.3-.3-.4-.4s-.2-.2-.3-.2c.1-.1.1-.1.1-.2a.1.1 0 0 0-.1-.1c0-.1 0-.1-.1-.2s-.1-.1-.1 0l-.1.1a.22.22 0 0 0-.2.2c0 .1 0 .1.1.2s0 .1.1.1c-.1 0-.2.1-.3.1s-.2.3-.2.5c-.1-.1-.1-.1-.2-.1h.1v-.1h-.1a.76.76 0 0 0-.8.3.1.1 0 0 1-.1.1.66.66 0 0 1 .5-.4.76.76 0 0 1 .5.2c0 .1 0 .1.1.2s.1.1.1 0 0-.2-.1-.2a.9.9 0 0 1 .1-.5.59.59 0 0 1 .7-.1 2.18 2.18 0 0 1 .5.4c.1.2-.2.3-.4.3h-.1c.1 0 0-.1 0-.1s-.2.1-.3.1a.1.1 0 0 0 .1.1.76.76 0 0 0 .4-.1h.4c.1-.1.2-.1.2-.2v-.2l.1-.1c.1-.1.1-.1.1-.2a.45.45 0 0 0 0-.5.35.35 0 0 0-.1-.2l.3-.3c.1-.2-.2-.5-.5-.5a.6.6 0 0 0 .1-.4c.2-.1.5-.2.4-.5a.32.32 0 0 0-.3-.3 2.14 2.14 0 0 1 .1.6Zm-1.2 1.9c-.1-.1-.1-.1 0-.2Zm-1.9 6.4c0 .3.1.7.1 1v-.2c0-.2-.1-.3-.1-.5Zm1.7-8.7c-.2-.1-.6 0-.6.2h.2c0-.1.2-.2.4-.2Z" style="fill:#685649" transform="translate(-4.9 -3.8)"/>
  <path d="M67.7 16.1c.2-.5.9-.4 1.4-.4a2.22 2.22 0 0 0 1.1-.5v-.1a.1.1 0 0 1-.1-.1c.4-.2.9-.2 1-.6 0-.1-.1-.2 0-.3l.3-.3a2.19 2.19 0 0 1 .3-.5c.1-.2-.1-.4-.1-.7s.1-.5.1-.8a1.7 1.7 0 0 1 .1-.7.37.37 0 0 1 .1-.3v.1c0 .1.1.1.1 0a.9.9 0 0 0 .1-.5.1.1 0 0 1 .1-.1v-.1a2.2 2.2 0 0 0 .1-.8c0-.1-.1-.1-.1 0l-.2.2c0 .1-.1.2-.1.4v-.2h-.1v-.1l-.2.2v.1a.76.76 0 0 0-.2.4c-.1.2-.1.3-.2.5s.1.1.1 0 .1-.2.2-.4c0 0 .1.1.1 0a5.5 5.5 0 0 1-.7.9c-.4.4-.9.8-1.4 1.3a4.57 4.57 0 0 0-1.5 2.8c-.1.1-.1.2-.2.3 0-.2.1-.3.1-.4v-.1s0-.1-.1 0a.1.1 0 0 0-.1-.1V15a1.85 1.85 0 0 1-.2-.7v-.1a.37.37 0 0 0-.1-.3c0-.1.1-.2.1-.3s.2-.3.2-.4 0-.3.1-.5a1.76 1.76 0 0 1 .4-.5.77.77 0 0 0 .2-.3c0-.2.1-.4.2-.4a.52.52 0 0 0 .4.2c0 .2.1.3.1.4v.5c0 .1.1.1.1 0a.94.94 0 0 0-.1-.9h.1a.9.9 0 0 0 .1.5h.1a.9.9 0 0 0-.1-.5h.1v.4h.1c.1-.1 0-.3 0-.4s.1-.1.2-.2c-.1.1-.1.1-.2.1s-.2 0-.2-.1a.91.91 0 0 1-.4-.8c0-.1.1-.2.2-.3a.1.1 0 0 1 .1.1v.2c0 .1-.1.2-.1.4s.1.1.1 0 .1-.3.2-.5h.1a.37.37 0 0 0 .1.3v.4c0 .1.1.1.1 0a1.63 1.63 0 0 0 0-.7l.1.1c0 .2.1.3.1.4h.1v-.3c.1.1.1.1.1.2-.1-.1-.2-.2-.2-.3h.1l.2.2a.22.22 0 0 0-.2-.2h-.1c0-.1 0-.1-.1-.1v-.1l.1.1c.1.1.1.1.2.1-.1-.1-.1-.1-.2-.1a.1.1 0 0 1-.1-.1l-.1-.1a.3.3 0 0 0 .4 0v-.1h-.2a.35.35 0 0 1-.2-.1c0-.1 0-.1-.1-.1V10l-.1.1v-.2c0-.1.1-.2.1-.4a1.27 1.27 0 0 0-.1.6h-.1l-.1.1-.2-.2c-.1-.1-.2-.2-.3-.2a.1.1 0 0 0-.1.1c.1.1.2.1.3.2s.1.2.2.2v.1h-.1v.1h.2c-.1.1-.2.1-.2.2v-.2H69c0 .1 0 .1-.1.1a.1.1 0 0 0-.1-.1h-.1c-.1.1 0 .3.1.4h.1a.1.1 0 0 1-.1.1c0-.1 0-.1-.1-.1a.1.1 0 0 0-.1-.1l-.1-.1v-.1c-.1-.1-.1-.1-.1-.2a.37.37 0 0 0-.1.3v.1a3 3 0 0 0-.8.8c.1-.5.1-1.1.2-1.7a.31.31 0 0 0 .1-.2h-.1c.1-.1.1-.3.2-.4.2-.3.5-.6.7-.9l.2-.2.2-.2.1-.1h.1a.6.6 0 0 0-.1.4.37.37 0 0 1 .1-.3c-.2 0-.1 0 0-.1a.52.52 0 0 0 .4.2c.1 0 .1 0 .2-.1-.1 0-.2 0-.3-.2.1 0 .1 0 .1-.1a.1.1 0 0 0 .1.1c0 .2.1.2.2.2h.1v-.1c-.1.1-.1.1-.2 0l-.1-.1h.1s.1-.1 0-.1a.1.1 0 0 1-.1-.1.37.37 0 0 1-.1-.3h-.1c0-.1.1-.1.1-.2a.1.1 0 0 1 .1.1h.2l-.1.1h.1v.1h-.1v.1c0 .1 0 .1.1.2v.1h.1v-.4h.1v.4h.1v-.4l.1-.1h.3v-.1h-.1a2.81 2.81 0 0 0-.5-.1h-.1V7h.1v-.1h-.1a.1.1 0 0 0-.1-.1v.1l-.2-.2c.1 0 .1 0 .1.1a.31.31 0 0 1 .2-.1v-.5c.1-.2-.1-.4-.3-.4s-.1 0-.2.1c.2 0 .2 0 .3.1a.31.31 0 0 1 .1.2c0 .2 0 .3-.1.4s-.1-.1-.2-.1 0-.1.1-.1 0-.1-.1 0-.1.1-.1.2h-.1v-.3h-.1c-.1.1 0 .2 0 .3a.1.1 0 0 1-.1-.1v.1a.1.1 0 0 0-.1-.1c-.1 0-.1 0-.1-.1v.2h-.2c.1 0 .1 0 .1.1a.1.1 0 0 0 .1.1c-.1 0-.1 0-.2-.1s-.1.1 0 .1.1.1.2.1V7h-.1a.35.35 0 0 1-.2-.1c.4-.1.4-.1.4 0l.1.1h.1a.1.1 0 0 0 .1.1c-.1 0-.1 0-.2.1v-.1s-.1-.1-.1 0v.1a.37.37 0 0 1-.3-.1V7c.1 0 0-.1-.1-.1a.1.1 0 0 0-.1.1v.1a1.38 1.38 0 0 1-.4.3l-.1.1c0 .2 0 .3-.1.4s-.1.1-.1.2c.1-.1.2-.3.4-.5l.4-.4a.37.37 0 0 0 .3.1v.3a.37.37 0 0 0 .1.3.1.1 0 0 0-.1.1.35.35 0 0 0-.1-.2.37.37 0 0 1 .1-.3c0-.1-.1-.1-.1 0s-.1.1-.1.2h-.1c0 .1-.1.1-.1.2 0-.1 0-.1-.1-.2v.1c0-.1-.1-.1-.1 0s0 .2.1.3a.78.78 0 0 0-.4.4c-.1.1-.2.3-.3.4s-.3.4-.4.6a.1.1 0 0 1 .1-.1c0 .2-.1.3-.1.5a9.67 9.67 0 0 1 .7-1.2.78.78 0 0 1 .4-.4l.3-.3v-.1h.1V8h.1l-.1.1V8c-.1.2-.3.3-.4.5l-.1.1v.1a3.51 3.51 0 0 0-.5.8 1.38 1.38 0 0 0-.3.4v.1a.1.1 0 0 1 .1-.1c0 .1-.1.1-.1.2s-.1.2-.1.3a3.4 3.4 0 0 0-.1 1v.7a4.48 4.48 0 0 0 .1 1.1v-.8a.1.1 0 0 1 .1-.1v.1a.1.1 0 0 1 .1-.1h.1v-.1a2.18 2.18 0 0 1 .9-.7l.1.1v.1a.35.35 0 0 0 .1.2l-.2.2c-.1.1-.1.1-.1.2s0 .2-.2.4-.3.2-.4.4 0 .3-.1.5a.52.52 0 0 1-.2.4.1.1 0 0 1-.1.1c0 .4.1.8.1 1.2 0 .1.1.2.2.3v.1c0 .1-.1.2-.1.3a3 3 0 0 0 .2 1v-.4c-.2-.4-.2-.4-.2-.5Zm4.1-5.7c0 .1-.1.1-.1.2a.35.35 0 0 1 .1-.2Zm-4 5.4c.4-.7 1.4-.3 2-.7V15c-.2.1-.4.1-.6.2a6.89 6.89 0 0 0 .8-.3v-.1a6.89 6.89 0 0 1-.8.3 3.08 3.08 0 0 1-.9.1s-.1.1 0 .1a2 2 0 0 0 .8.1c-.2 0-.3.1-.5.1a3.33 3.33 0 0 0-.6.3v-.1a7 7 0 0 1 1.1-2.3.1.1 0 0 0 .1.1c.5-.1.9-.1 1.4-.2.1 0 .6-.1.5-.3H71c0 .2-.4.2-.5.2s-.3.1-.5.1a2.77 2.77 0 0 1-.9.1 4.62 4.62 0 0 1 .7-.7c.1-.1.2-.2.3-.2v.1a1.44 1.44 0 0 0 1.3-.3v-.1a1.91 1.91 0 0 1-1.3.2 13.58 13.58 0 0 0 1.2-1.2v.1a1.38 1.38 0 0 1-.4.3c-.1 0 0 .1.1.1s.6-.4.6-.7l.1-.1a1.7 1.7 0 0 0-.1.7 2.2 2.2 0 0 1-.1.8.37.37 0 0 0-.1.3c0 .1.1.2.1.3a1.08 1.08 0 0 1-.2.8c-.1.1-.3.2-.3.4s.1.3 0 .4-.2.2-.4.3-.4.1-.6.3v.1a.1.1 0 0 1 .1.1 1.61 1.61 0 0 1-.7.4 3.08 3.08 0 0 1-.9.1c-.2.1-.5.1-.7.3-.1-.2-.1-.4 0-.4Zm.8-4.6c0 .1.1.2.1.3v.1c-.1-.1-.1-.2-.1-.4Zm.7-3.5Zm.2-.5Zm-.2-.4Zm.1.3a.1.1 0 0 1-.1-.1.1.1 0 0 0 .1.1Zm-.1.1c0 .1-.1.1-.1.2 0-.1-.1-.1-.1-.2.2.1.2 0 .2 0Zm-.1.1Zm-.2.2v-.3a.75.75 0 0 0 .1.5c-.1 0-.1 0 0-.1l-.1.2ZM67.3 12a.35.35 0 0 1 .1-.2c-.1.1-.1.1-.1.2Zm.1-.2v-.1c.1-.1.2-.1.2-.2a1.24 1.24 0 0 0-.2.3Zm.3-.2a.1.1 0 0 1 .1-.1 1.38 1.38 0 0 1 .4-.3l.1.1a.86.86 0 0 0-.6.3Zm.8-.4Zm-.1 0Zm1.9-1.1Z" style="fill:#685649" transform="translate(-4.9 -3.8)"/>
  <path d="M70.7 10.5v.2c.1 0 .1 0 .1-.2a.1.1 0 0 1-.1.1c0-.1.1-.2 0-.3h.1a.1.1 0 0 0-.1-.1c-.1 0-.2-.1-.4-.1a.35.35 0 0 1 .2.1c.2.1.2.2.2.3Zm-3 6.2Zm2.7-10a.19.19 0 0 0-.3 0v.1a.37.37 0 0 1 .3-.1Zm-3.2 3.4c0-.1.1-.3.1-.4s0-.1.1-.2c0 .1-.1.1-.1.2-.1.3-.1.5-.2.8 0 0 .1.1.1 0Z" style="fill:#685649" transform="translate(-4.9 -3.8)"/>
  <path d="M67.3 10.2c0-.1.1-.2.1-.4-.1.1-.1.2-.1.4-.1 0-.1.1-.1.2s-.1.4 0 .6h-.1v.3h.1v-.1a3.08 3.08 0 0 1 .1-1Z" style="fill:#685649" transform="translate(-4.9 -3.8)"/>
  <path d="M67.2 11.2v.2c-.1-.1-.1-.1 0-.2Zm0 1.8v.9a.1.1 0 0 1 .1-.1 2 2 0 0 0-.1-.7c.1 0 .1 0 0-.1Zm.1-3.3c.1 0 .1.1 0 0 .1 0 .1 0 .1-.1Zm2.6 7.1a4.74 4.74 0 0 0-1 1Zm-1.4-9.7c-.1.1-.3.2-.4.3a.1.1 0 0 0-.1.1v.3c0-.1.1-.1.2-.2a2.19 2.19 0 0 1 .3-.5ZM67.4 15c0-.1-.1-.2-.1-.3.1.4.1.7.2 1v-.1a4.33 4.33 0 0 0-.1-.5Zm3.8-4.8Zm-1.3 8.4ZM67.7 8.3a.1.1 0 0 1-.1.1c0-.1.1-.2.1-.3.1.1.1.1 0 .2Zm4.2 1.3-.1.1ZM68.7 18c.1-.1.1-.2.2-.2Zm0 .1c-.1 0-.2.1-.3.2.1-.1.2-.1.3-.2Zm-1.1-.3v-.2c0 .4-.1.7-.1 1 0-.3.1-.6.1-.8Zm4-7.9c-.1.1-.2.2-.3.2a1.44 1.44 0 0 0 .3-.2Z" style="fill:#685649" transform="translate(-4.9 -3.8)"/>
  <path d="M67.2 13.8c0 .1 0 .2.1.2a.6.6 0 0 0-.1.4v.2c.2-.2.1-.3.1-.5v-.2a.1.1 0 0 1-.1-.1Zm-.1-1.7v.2c0-.2.1-.4.1-.6v-.4a2.49 2.49 0 0 0-.1.8Zm1.9 6.3h.3a.6.6 0 0 1 .4.1.59.59 0 0 0-.7-.1Zm-1.5-9.6c.1-.1.1-.3.2-.4a.76.76 0 0 0-.2.4Zm-.2.5v.1c0-.1.1-.2.1-.3a.31.31 0 0 1-.1.2Zm.1-.4v.2c0-.1.1-.2 0-.2Zm2.4 9.6.1.1a.1.1 0 0 0-.1-.1Z" style="fill:#685649" transform="translate(-4.9 -3.8)"/>
</svg>