<svg xmlns="http://www.w3.org/2000/svg" fill="none" viewBox="0 0 43 42">
  <path stroke="#fff" stroke-linecap="round" stroke-miterlimit="10" stroke-width="2" d="m21.009 10.682-1.474-1.474m5.404 5.405-.983-.983m4.914 4.914-.983-.983m5.405 5.404-1.474-1.474m-.492-10.312a4.17 4.17 0 0 1-.216-5.663.346.346 0 0 0-.02-.47l-3.94-3.944a.347.347 0 0 0-.491 0l-6.28 6.28a2.101 2.101 0 0 0-.51.825 2.112 2.112 0 0 1-1.335 1.34c-.31.103-.594.278-.826.51L1.602 26.158a.347.347 0 0 0 0 .491l3.94 3.94a.346.346 0 0 0 .47.02 4.169 4.169 0 0 1 5.878 5.878.346.346 0 0 0 .02.47l3.94 3.94a.347.347 0 0 0 .491 0l16.107-16.106c.231-.232.407-.515.51-.826a2.112 2.112 0 0 1 1.335-1.34 2.1 2.1 0 0 0 .825-.509l6.28-6.28a.347.347 0 0 0 0-.492l-3.94-3.94a.346.346 0 0 0-.47-.02 4.17 4.17 0 0 1-5.662-.206Z"/>
</svg>