<svg xmlns="http://www.w3.org/2000/svg" fill="none" viewBox="0 0 187 71">
    <defs/>
    <path fill="#FFD100" d="M139.062 8.858c.302.445.403 1.188 1.007 1.435.905.545 1.106 1.733.905 2.871 0 0-.553 3.317-4.025 6.98l-.503.545c-.418.395-.98.61-1.56.594-.654.05-2.315-.94-3.07-.693-1.258.247-2.214-.1-2.516-1.634a10.853 10.853 0 00-.855-2.673c-.151-.346-1.208-1.04-1.258-1.93 0 0-.805-3.812 1.963-4.505 1.66-.446 4.075-.594 4.78-.743.704-.148 1.057-.94 1.912-1.237a3.324 3.324 0 013.22.99z"/>
    <path fill="#EB2938" d="M68.319 4.373c.15 1.336.251 2.772.503 4.207.19.54.443 1.054.755 1.535.15.396.2.94.452 1.188a2.76 2.76 0 001.56.891c.604.149 1.208-.544 1.56-.247a3.698 3.698 0 003.724.743c.92-.346 1.811-.76 2.667-1.238.448-.236.735-.688.755-1.188a1.172 1.172 0 00-.503-1.04 26.624 26.624 0 00-2.617-1.237 2.042 2.042 0 00-1.912.099c-.504.395-.956 1.336-1.812 2.128-.855.792-1.258.149-1.409-.544a3.12 3.12 0 01.202-1.634c.252-.495 2.164-2.871 2.969-3.861.805-.99-.805-3.564-2.214-3.218-1.41.347-4.63.792-4.68 3.416zM68.615 14.897c-.956.94-.654 4.406.05 5.099.43.254.962.273 1.41.05a3.494 3.494 0 001.76-1.733c.454-1.485.504-2.624-.25-3.465-1.007-.941-2.014-.842-2.97.049zM65.697 12.788c-.252-1.138-1.862-1.93-3.12-1.881-.654.05-1.962.099-2.214 1.237-.251 1.139 1.057 3.119 2.667 2.872 1.61-.248 2.97-1.09 2.667-2.228z"/>
    <path fill="#0099DB" d="M44.06 16.184c.503-.742.906-1.831.402-2.821a3.688 3.688 0 00-.956-1.337 13.334 13.334 0 00-2.214-1.584c-.302-.198-.654-.396-1.056-.643a18.111 18.111 0 00-1.812-.792c-3.673-1.139-8 .544-8.202.693-.236.14-.44.325-.604.544-.402.792.151 1.436.453 1.831.302.397 2.214 1.931 4.73 3.614a11.736 11.736 0 003.573 1.436c.992.304 2.03.438 3.07.396a3.638 3.638 0 002.616-1.337z"/>
    <path fill="#69BF29" d="M88.089 66.38c1.359 1.435 4.227 1.287 5.334 1.237.53.01 1.054-.128 1.51-.396.293-.162.646-.181.955-.05.655.248 1.208.545 1.862.743 1.359.446 2.919 2.129 3.976 2.624.956.445 1.811 0 1.912-1.04a3.826 3.826 0 00-.503-2.475 16.138 16.138 0 00-2.415-3.168 9.844 9.844 0 00-4.076-2.177 7.938 7.938 0 00-1.56-.15 10.49 10.49 0 00-5.485.942c-.353.198-1.711.643-1.862 1.98-.05.692-.202 1.236.352 1.93z"/>
    <path fill="#000" d="M22.775 37.717l-.704-.148a2.18 2.18 0 00-.806 0c-.301.05-.604.148-.905.198a4.081 4.081 0 01-1.56.05.188.188 0 01-.152-.247c.151-.892.302-1.733.453-2.624v-.198c.031-.584.115-1.164.252-1.733a3.79 3.79 0 00.1-.792.831.831 0 01.05-.346c.221-.646.39-1.309.504-1.98.05-.1.05-.248.1-.347l.906-2.376c.18-.503.332-1.015.453-1.535.05-.198.15-.396.201-.594a.387.387 0 01.151-.099c.05-.05.1 0 .15.05.071.088.122.189.152.297.165.533.283 1.08.352 1.633.151 1.09.252 2.179.403 3.267v.248c.1 1.386.15 2.822.251 4.207.05.496.05.99.05 1.486 0 .346.101.643.101.792.152.791-.05.89-.502.791zm6.843 13.96a9.78 9.78 0 01-.402-2.425 5.302 5.302 0 00-.05-.891 1.642 1.642 0 010-.495c.135-.551.169-1.12.1-1.683-.05-.262-.05-.53 0-.792.05-.842-.05-1.683-.05-2.574a1.434 1.434 0 00-.1-.446 10.021 10.021 0 01-.252-1.188 5.077 5.077 0 00-.353-1.733 10.43 10.43 0 00-.402-1.336c-.1-.446-.151-.94-.252-1.386-.187-.8-.321-1.61-.402-2.426a6.12 6.12 0 01-.151-.94c-.1-.297-.1-.644-.202-.941a1.347 1.347 0 01-.05-.446c0-.531-.05-1.061-.15-1.584a6.184 6.184 0 00-.303-1.386c-.1-.346-.251-.643-.352-.99a9.162 9.162 0 00-.352-1.089c-.1-.346-.201-.693-.302-.99a1.73 1.73 0 01-.201-.841l-.302-.742a1.272 1.272 0 01-.151-.397 2.052 2.052 0 00-.201-.742 2.165 2.165 0 01-.05-1.139.843.843 0 00.05-.495 2.45 2.45 0 00-.252-.643.263.263 0 00-.1-.149.712.712 0 00-.755-.148.94.94 0 01-.353.099c-.64.19-1.215.549-1.66 1.04a.374.374 0 00-.101.247 2.023 2.023 0 01-.252.94c.101.248-.15.446-.2.644-.045.237-.112.47-.202.693-.503 1.337-1.007 2.624-1.51 3.96a25.413 25.413 0 00-1.107 3.812c-.402 1.782-.755 3.564-1.107 5.346-.05.149-.1.347-.15.495a.559.559 0 01-.353.396 4.558 4.558 0 01-.754.248 2.14 2.14 0 00-1.007.742.45.45 0 00-.1.495c.038.1.019.214-.05.297a.363.363 0 00.05.594c.402.252.844.436 1.308.545a.223.223 0 01.202.245v.003c-.101.791-.252 1.584-.353 2.376a23.038 23.038 0 00-.05 2.623c0 .347.05.644.05.99 0 .743-.05 1.535-.1 2.278a1.51 1.51 0 01-.05.495c-.092.22-.11.462-.05.693.082.22.116.457.1.692a.557.557 0 00.15.396l.503.495c.11.1.254.153.403.149a.961.961 0 00.906-.495c.05-.149.15-.248.201-.396a.753.753 0 00-.05-1.04.265.265 0 01-.1-.148.815.815 0 01-.252-.644v-.792a1.977 1.977 0 010-.544c.042-.411.059-.825.05-1.238-.02-.317.015-.634.1-.94.059-.261.093-.526.101-.793.015-.877.082-1.753.201-2.623 0-.148.05-.297.05-.445.023-.465.074-.928.151-1.386a.498.498 0 01.152-.199c.124-.07.26-.12.402-.148.503-.05 1.006-.099 1.51-.198a.71.71 0 01.452 0c.336-.008.673.008 1.006.05.487.057.979.04 1.46-.05h.201a.381.381 0 01.402.297c0 .148.05.297.05.446l.152 2.375c.1.99.15 1.98.302 2.97.15.99.15 1.98.251 2.97.054.29 0 .588-.15.842a1.09 1.09 0 00-.151.693c.026.285.076.566.15.842a.79.79 0 00.252.545.606.606 0 01.201.395c.04.537.232 1.051.554 1.485.281.378.533.775.755 1.188.04.089.111.16.201.199.447.33 1.03.423 1.56.247.1-.05.252-.05.353-.098a.697.697 0 00.201-.15c.17-.315.433-.573.755-.741a.604.604 0 00.201-.396c-.02-.387.125-.765.403-1.04.1-.108.154-.25.15-.396a2.02 2.02 0 00-.15-1.436c-.253-.15-.253-.15-.253-.198zm6.894.89a.596.596 0 00.352-.642.705.705 0 01.257-.525.76.76 0 01.201-.198c.324-.22.627-.47.906-.743a1.7 1.7 0 01.855-.544 3.955 3.955 0 011.51-.347c.085-.012.168-.028.251-.05l.906-.148a3.473 3.473 0 001.359-.494c.1-.05.201-.149.302-.199.284-.339.506-.724.654-1.138a.656.656 0 00.05-.248.68.68 0 00-.302-.643c-.452-.347-1.006-.297-1.56-.445h-.251c-.9.15-1.79.348-2.667.593a3.583 3.583 0 00-1.057.545 3.886 3.886 0 01-1.258.693c-.202.1-.352 0-.352-.248 0-.247-.05-.395-.05-.593a1.35 1.35 0 00-.05-.446 4.887 4.887 0 01-.202-1.188c0-.396-.151-.792-.151-1.238v-.545a1.324 1.324 0 000-.445 4.34 4.34 0 01-.15-1.386v-.247c-.202-.545-.152-1.189-.303-1.733a2.012 2.012 0 01-.1-.941v-.198a4.98 4.98 0 01.05-1.733.805.805 0 000-.346c0-.347.05-.644.05-.99 0-.247.05-.445.05-.693-.002-.58.05-1.16.151-1.733.051-.83.152-1.657.302-2.475.051-.699.152-1.394.302-2.079.05-.396.201-.792.252-1.188.05-.495.201-.99.252-1.485.015-.53.134-1.05.352-1.535a.416.416 0 000-.346.671.671 0 00-.655-.545.751.751 0 00-.503.446 6.617 6.617 0 00-.352.89 9.64 9.64 0 00-.503 1.585 26.502 26.502 0 01-.654 2.871 10.45 10.45 0 00-.352 2.129c.008.15-.009.3-.05.445-.252 1.485-.453 2.97-.655 4.505l-.15 1.634c-.05.593-.101 1.138-.101 1.732-.042 1.14-.008 2.28.1 3.416.101.94.101 1.831.151 2.772-.016.727.017 1.455.1 2.178-.007.15.01.3.051.445 0 .149.05.347.05.495 0 .149-.05.297-.05.396v.198a.442.442 0 00.05.248l.151.594c.05.144.05.301 0 .445a.22.22 0 00.1.297c.3.196.557.448.755.743.051.099.151.198.202.297.088.083.19.15.302.198a.384.384 0 01.252.05c.251.247.553.148.855-.1l-.005-.02zm46.65-25.621a1.56 1.56 0 00-.15-.446.683.683 0 00-.151-.198 2.79 2.79 0 00-.402-.247.882.882 0 00-.856-.05c-.19.089-.374.188-.553.297a4.894 4.894 0 00-.906.842c-.1.148-.252.247-.352.396a.76.76 0 00-.252.693c.167.931.234 1.877.201 2.822-.05.41-.05.826 0 1.237.05.594 0 1.188 0 1.782v.792c0 .891.05 1.782 0 2.624v.347c-.05 1.187-.302 4.9-.503 5.494-.251.693-.805-.445-1.107-.792-.302-.346.05-.99 0-1.98a7.331 7.331 0 00-.503-2.03 10.505 10.505 0 010-1.287c.025-.429.025-.858 0-1.287 0-.346-.1-1.534-.503-2.03-.402-.494 0-1.237 0-1.781.01-.49-.075-.978-.251-1.436-.252-.94-.05-3.91-.05-5.148v-.347a.528.528 0 00-.403-.445.265.265 0 00-.151.099c-.1.297-.201.594-.302.94-.18.57-.332 1.148-.453 1.733-.15.94-.352 1.831-.503 2.772-.05.446-.15.891-.201 1.337-.1 1.089-.202 2.227-.352 3.316 0 .248-.05.545-.05.792v3.713s.05 1.535.05 2.278c0 .89.05 1.831.1 2.722s.252 1.881.302 2.822c.026.3.076.598.15.89.152.595.253 1.238.454 1.783.251.643.553 1.287.855 1.93.22.457.49.888.805 1.288.174.215.325.448.453.693a.604.604 0 00.251.247c.196.098.381.214.554.347.224.157.483.26.755.297.333.05.672.05 1.006 0 .159-.002.3-.1.352-.248.13-.164.232-.348.302-.545.075-.409.126-.822.151-1.237-.003-.32.048-.638.151-.94a3.79 3.79 0 00.201-1.486 2.15 2.15 0 01.1-.792c.109-.301.143-.623.101-.94.101-.495.05-.99.101-1.485.001-.27.052-.54.15-.792.15-.413.202-.852.151-1.287a8.56 8.56 0 01.202-2.525c.291-1.174.51-2.364.654-3.564 0-.099.05-.248.05-.346.05-.248.05-.545.101-.793.05-.247.05-.593.1-.89.184-.863.268-1.743.252-2.624.009-.267.043-.532.1-.792.101-.595.202-1.139.252-1.733.05-.594.05-1.139.05-1.683a28.887 28.887 0 00-.502-3.119zm7.549 6.831l-.05-.05a.157.157 0 010-.148c.102-.405.153-.82.15-1.237 0-.352.052-.702.151-1.04a6.384 6.384 0 01.604-1.634c.097-.183.149-.387.15-.594-.02-.203.015-.408.101-.594a5.4 5.4 0 00.353-1.287.226.226 0 01.2-.148c.061.014.115.05.152.099.05.05.1.148.15.198.123.238.224.487.302.742.072.343.123.69.151 1.04a5.137 5.137 0 01-.855 2.723c-.403.544-.755 1.138-1.157 1.683-.071.094-.156.178-.252.247h-.15zm6.088 20.346a1.918 1.918 0 01-.453-.446 1.344 1.344 0 00-.352-.396 4.208 4.208 0 01-.855-1.237c-.302-.594-.453-1.287-.705-1.882a2.299 2.299 0 01-.2-.841 1.434 1.434 0 00-.101-.446c-.302-.99-.604-1.98-.856-2.97-.099-.338-.15-.688-.15-1.04a2.462 2.462 0 00-.101-.594c-.1-.346-.15-.692-.252-1.04a8.99 8.99 0 00-.402-1.237 13.69 13.69 0 01-.654-2.03 8.118 8.118 0 00-.805-2.425.44.44 0 01.05-.495c.352-.445.654-.891 1.057-1.336.352-.347.654-.694.956-1.04.291-.306.529-.657.704-1.04.1-.247.252-.495.352-.742.097-.222.165-.455.202-.694.05-.247.15-.445.201-.693a1.41 1.41 0 00.1-.445c.043-.328.06-.66.051-.99 0-.396-.1-.841-.1-1.238a6.994 6.994 0 00-.604-2.227 2.968 2.968 0 00-.705-1.04 1.053 1.053 0 00-.302-.198c-.4-.149-.832-.2-1.258-.148a.871.871 0 01-.352.05.94.94 0 00-.755.445c-.402.495-.503 1.138-.805 1.683-.05.445-.15.94-.201 1.386-.05.248-.05.544-.1.792-.202.99-.303 2.03-.605 3.02v.099c-.1.494-.15.99-.251 1.485-.101.495-.202 1.04-.252 1.584-.15 1.089-.352 2.227-.503 3.317-.1.791-.202 1.583-.352 2.376-.151 1.039-.403 2.078-.604 3.118-.151.792-.252 1.584-.403 2.376-.1.594-.15 1.189-.201 1.733a9.68 9.68 0 01-.15 1.732c-.05.258.005.523.15.743.238.37.36.8.352 1.237.01.153.043.303.1.446.202.445.353.94.554 1.386.137.328.306.643.503.94.21.16.428.31.654.446l.05.05c.181.107.398.143.605.099.186-.007.372.01.553.049a.58.58 0 00.604-.595 4.18 4.18 0 00-.05-.791c-.1-.396-.151-.792-.252-1.188a8.487 8.487 0 01-.252-1.931 8.377 8.377 0 01-.05-2.228c.01-.714.077-1.426.201-2.128v-.248c.006-.234.04-.467.101-.693.042-.262.059-.527.05-.792 0-.346.05-.693.05-1.04l.051-.049a.1.1 0 01.1.05c.05.148.151.346.202.494.302 1.387.604 2.773.956 4.109.28 1.138.667 2.249 1.157 3.317a9.456 9.456 0 001.812 2.623c.251.297.604.495.855.793.05.049.15.098.201.148.202.099.403.247.604.346a.45.45 0 00.353.05c.11-.056.229-.09.352-.1a.584.584 0 00.503-.444c.251-.693.302-.545-.151-1.189.05-.048-.101-.147-.202-.196zm16.907-23.217c.101-.544.202-1.138.353-1.683.124-.423.225-.853.301-1.287a9.29 9.29 0 01.504-1.782.63.63 0 01.905-.495l1.158.297a1.53 1.53 0 001.208-.297.268.268 0 00.1-.148.399.399 0 00.05-.347 1.24 1.24 0 00-.1-.247 1.365 1.365 0 00-.856-.495l-1.056-.149c-.201-.05-.403-.05-.654-.099a2.596 2.596 0 00-1.057-.297s-.252-.247-.352-.148a.73.73 0 00-.202.446c0 .148-1.157 3.514-1.157 3.712 0 .198-.503 2.277-.554 2.475a22.16 22.16 0 00-.754 2.723v.099c-.177.312-.379.61-.604.891a.395.395 0 00-.05.346c.05.1.1.149.15.248a.6.6 0 01.101.495 3.624 3.624 0 00-.05.743c-.101.792-.252 1.584-.252 1.831a23.082 23.082 0 00-.151 4.604v.099c.202 1.732-.201 4.455.202 5.693a.05.05 0 01-.051.05.518.518 0 00-.1.643c.1.297.201.544.302.841.126.209.179.453.15.693.02.242.089.478.202.694.1.198.252.396.352.593.153.3.4.543.705.693.188.105.358.238.503.396.096.084.225.121.352.1.503-.2 1.056-.347 1.258-.892a.672.672 0 01.151-.198 1.35 1.35 0 01.704-.347 2.527 2.527 0 001.56-.841c.151-.1.252-.248.403-.347.191-.139.361-.306.503-.495a.981.981 0 00.252-.742.498.498 0 00-.353-.446.535.535 0 01-.251-.098l-1.359-.446c-.503-.198-1.007-.05-1.51-.198a.452.452 0 00-.352.05 8.126 8.126 0 01-1.057.247c-.05 0-.15 0-.15-.05a2.492 2.492 0 01-.302-.99c0-.396-.101-.791-.101-1.138 0-.495-.05-.99-.1-1.534v-.446a8.093 8.093 0 00-.05-1.09c-.101-.642 0-1.286-.051-1.98.042-.41.059-.824.051-1.237-.051-.445.1-.891.05-1.337a5.968 5.968 0 01.201-1.88c.042-.15.2-.24.352-.198.137.04.272.09.403.148.156.11.372.09.503-.05a1.89 1.89 0 011.157-.495.508.508 0 00.352-.099.667.667 0 01.604-.148.187.187 0 00.151-.05c.151-.148.302-.247.453-.396a.612.612 0 00.151-.593 3.392 3.392 0 00-.504-.941.847.847 0 00-.503-.347c-.603-.099-1.258-.247-1.861-.346a.938.938 0 01-.352-.1.33.33 0 01-.202-.247 3.504 3.504 0 01.151-1.237c0-.1.05-.248.05-.397zm10.517 2.08a.557.557 0 01-.251.049.18.18 0 01-.051-.149v-.247c.083-.307.117-.624.101-.941V31.5c.166-.68.234-1.38.201-2.08.013-.29.082-.575.201-.84a.344.344 0 01.303-.198c.251 0 .503.05.704.05a.44.44 0 00.453-.248.41.41 0 01.452-.198.506.506 0 01.453.197c.218.285.325.636.302.99 0 .149-.05.297-.05.446-.101.594-.302 1.188-.453 1.782-.059.112-.11.227-.151.347a.449.449 0 01-.302.296 4.197 4.197 0 00-.654.347.603.603 0 01-.503.05.459.459 0 00-.402.198c-.13.103-.248.218-.353.346zm12.429 20.493a1.36 1.36 0 00-.705-.693c-.15-.05-.251-.149-.402-.198a1.81 1.81 0 01-.705-.495 6.38 6.38 0 00-.855-.792 7.823 7.823 0 01-1.56-1.584.998.998 0 00-.302-.346 1.163 1.163 0 01-.251-.248 19.701 19.701 0 01-1.359-2.178 9.844 9.844 0 00-.503-1.04 7.188 7.188 0 01-.654-1.732c-.051-.149-.051-.297-.101-.446a6.976 6.976 0 01-.402-1.088 10.253 10.253 0 00-.503-1.04 9.938 9.938 0 00-.705-1.238c-.17-.27-.321-.55-.453-.841a4.91 4.91 0 00-.402-.693 4.286 4.286 0 00-.352-.495 9.528 9.528 0 00-.755-1.188c-.05-.1-.151-.199-.201-.298-.151-.395-.403-.742-.554-1.089a.236.236 0 01.05-.247c.279-.13.548-.279.805-.446.133-.111.287-.195.453-.248a.708.708 0 00.403-.445c.187-.492.405-.97.654-1.436a.444.444 0 00.05-.247c.05-.446.201-.891.201-1.287.023-.524.125-1.04.302-1.535.144-.448.213-.916.202-1.386a2.105 2.105 0 00-.403-1.336.435.435 0 01-.05-.248 1.031 1.031 0 00-.201-.297 5.31 5.31 0 00-1.913-.743 7.844 7.844 0 01-1.057-.148 1.152 1.152 0 00-.804.1 1.335 1.335 0 00-.403.346c-.201.198-.201.247-.1.445a.607.607 0 01.05.644c-.377.83-.68 1.692-.906 2.574-.101.346-.151.742-.252 1.138l-.151 1.337c-.05.643-.15 1.287-.201 1.93-.201 1.288-.453 2.525-.604 3.862a9.922 9.922 0 00-.151 2.128c0 .297-.05.594-.05.891a1.333 1.333 0 000 .446c.059.443.092.89.101 1.337.05.445.15.94.201 1.385.05.446.151.99.251 1.486.152.742.303 1.435.403 2.177.101.644.201 1.287.252 1.931.05.891.1 1.782.151 2.624a.732.732 0 00.1.445c.22.425.388.873.503 1.336a.31.31 0 00.151.199c.196.068.371.188.503.346a.637.637 0 00.302.198.7.7 0 00.755.05.909.909 0 00.352-.248.424.424 0 00.151-.297 3.66 3.66 0 00-.201-1.287 6.207 6.207 0 01-.353-1.386 18.27 18.27 0 00-.352-1.386 4.629 4.629 0 01-.252-1.633c.017-.3-.018-.602-.1-.892l-.151-.89c-.101-.942-.202-1.932-.302-2.872-.05-.446-.05-.94-.101-1.386a13.747 13.747 0 010-1.436c-.05-.495.151-.99-.05-1.485v-.098a2.177 2.177 0 000-1.139 7.25 7.25 0 01.101-1.04.9.9 0 01.1-.346.172.172 0 01.151-.099.504.504 0 01.151.05c.285.487.521 1.001.704 1.534.215.551.4 1.113.554 1.683.302 1.04.654 2.08 1.006 3.119.295.903.666 1.78 1.107 2.623a38.29 38.29 0 002.214 3.565 23.206 23.206 0 002.466 2.92 73.739 73.739 0 011.962 1.98c.213.21.449.392.705.545.212.125.459.177.704.149a7.97 7.97 0 001.057-.198.344.344 0 00.252-.149c.368-.406.466-.983.252-1.485zm-79.76-1.09a2.938 2.938 0 001.76-.84c.197-.17.338-.394.403-.644a.902.902 0 01.1-.347.345.345 0 00-.201-.445 8.99 8.99 0 00-1.912-.742 5.912 5.912 0 00-1.862-.347c-.705 0-1.46.05-2.164.099a1.993 1.993 0 00-.906.198c-.475.195-.962.36-1.459.495-.553.198-1.056.395-1.61.594a.258.258 0 01-.352-.198 2.574 2.574 0 01-.151-.594c0-.297.05-.594.05-.891v-.693a1.38 1.38 0 01-.1-1.089.808.808 0 000-.347 5.097 5.097 0 01.05-1.237c.1-.594.252-1.238.302-1.832.17-.6.288-1.212.352-1.831a.369.369 0 01.05-.248c.17-.379.289-.778.353-1.188.1-.396.251-.792.352-1.188a.445.445 0 01.503-.248c.15.05.352.099.503.148.486.17.994.27 1.51.298a2.934 2.934 0 001.56-.396.397.397 0 00.15-.446 1.271 1.271 0 01-.15-.396 1.157 1.157 0 00-.353-.693 2.072 2.072 0 00-1.157-.643 4.064 4.064 0 00-1.057-.248 1.93 1.93 0 01-.503-.148.288.288 0 01-.1-.248c.15-.94.302-1.881.503-2.772.075-.436.228-.855.453-1.237.072-.123.123-.257.15-.397.363-1.08.633-2.19.805-3.316.101-.396.151-.743.252-1.139a2.44 2.44 0 01.252-.643c.248-.414.466-.844.654-1.287a.965.965 0 01.453-.545.902.902 0 00.402-.643c.025-.23.025-.463 0-.693a1.042 1.042 0 00-.553-.891.386.386 0 00-.252-.1 3.52 3.52 0 00-1.61.05 6.877 6.877 0 00-2.215.99c-.502.347-.956.693-1.459 1.04-.553.37-1.075.784-1.56 1.237-.2.198-.452.396-.654.595l-.905.742c-.342.258-.53.666-.504 1.089 0 .148-.05.346-.05.545a.827.827 0 00.15.495c.161.217.392.374.655.445a.815.815 0 00.554-.247c.34-.204.62-.495.805-.842a3.68 3.68 0 00.352-.594 1.89 1.89 0 01.553-.693c.655-.446 1.158-1.04 1.913-1.386a.7.7 0 00.201-.149c.202-.148.453-.296.654-.445.101-.05.303 0 .303.099.008.265-.009.53-.051.792-.15.445-.252.891-.402 1.337-.322.924-.59 1.867-.805 2.821-.05.149-.05.347-.101.495-.08.46-.216.908-.402 1.336-.252.644-.453 1.337-.654 2.03-.202.693-.453 1.287-.604 1.93 0 .05-.05.1-.05.149a.332.332 0 01-.253.198c-.417.042-.838.058-1.258.05h-.956a1.502 1.502 0 00-.453.098c-.402.149-.452.248-.352.644.053.225.138.441.252.644a.704.704 0 00.604.445c.232.05.472.05.704 0 .3-.05.606-.05.906 0 .115.03.197.13.201.248-.05.247-.15.495-.2.791a6.875 6.875 0 00-.252 1.733c-.01.17-.044.336-.101.495l-.302 1.188c-.1.445-.1.891-.201 1.287-.117.788-.184 1.581-.202 2.377-.05.94-.05 1.88-.1 2.82-.001.418-.051.833-.151 1.239-.096.407-.163.82-.202 1.237-.069.477.02.962.252 1.386a2.568 2.568 0 001.962 1.436.71.71 0 00.453 0 6.81 6.81 0 012.214-.495c.39-.04.766-.158 1.107-.347a2.05 2.05 0 01.453-.247 6.77 6.77 0 01.906-.346l1.157-.15c.414-.045.82-.145 1.208-.296h.1c.346.024.688-.082.957-.298h.352zm51.627.694l-.151-.148a4.106 4.106 0 01-.503-.446 4.306 4.306 0 01-.302-.494.05.05 0 00-.05-.05c-.202-.396-.554-.99-.705-1.238-.05-.099-.05-.148-.1-.248a22.128 22.128 0 01-.503-3.266c0-.446-.051-.892-.051-1.337.009-.234.043-.466.101-.693.108-.34.191-.688.251-1.04.044-.317.111-.632.202-.94.084-.261.066-.544-.05-.792a.396.396 0 01.201-.445c.101-.05.151-.05.252-.1.654-.445.302-1.336.251-1.534a1.12 1.12 0 00-.905-.842c-.655 0-1.812-.248-2.667.94a.234.234 0 00-.051.248c.153.43.097.904-.151 1.288a.398.398 0 00.151.445c.051.05.151.099.202.148.123.086.259.153.402.198.13.068.208.203.202.347 0 .248-.503 1.386-.503 1.633a8.744 8.744 0 00-.151 1.14c0 .197-.101.99-.403.544a4.15 4.15 0 01-.654-1.337 24.675 24.675 0 01-.906-4.653c-.1-.594-.05-1.238-.151-1.831a13.094 13.094 0 01-.05-1.386 14.856 14.856 0 011.157-5.545c.106-.205.19-.421.252-.643.1-.297.252-.594.352-.891.079-.256.18-.504.302-.743a1.22 1.22 0 01.453-.544c.337-.242.641-.525.906-.842a11.85 11.85 0 001.409-2.871c.107-.284.142-.59.1-.891-.503-.693-1.509-.05-1.66.099-.604.544-1.359.89-1.913 1.435-.378.383-.7.817-.956 1.287-.201.325-.419.64-.654.94-.236.336-.454.683-.654 1.04-.302.545-.554 1.14-.805 1.684-.164.388-.349.768-.554 1.138-.39.694-.71 1.423-.956 2.178a16.95 16.95 0 00-.805 3.514c-.05.446-.15.941-.201 1.387a7.947 7.947 0 00-.05 1.535v.692c-.029.321.023.645.15.94.086.222.12.458.1.694-.016.35.019.7.102 1.04.043.177.06.361.05.544 0 .271.052.54.15.792.058.143.092.293.101.446.092.855.366 1.681.805 2.425.369.635.689 1.298.956 1.98.351.615.738 1.21 1.157 1.782a9.12 9.12 0 001.611 1.782c.402.396.906.594 1.308.94a5.251 5.251 0 002.164.397h1.157a1.199 1.199 0 001.258-.792c0-.1.101-.347.101-.445v-.05c0-.05.05-.148.05-.198v-.1c-.101-.148-.101-.197-.151-.247zM64.037 32.44a.268.268 0 01.2-.248.179.179 0 01.101-.05 1.67 1.67 0 011.762.595 6.53 6.53 0 01.855 2.128c.181.83.25 1.678.201 2.525v.594c-.018.464.015.929.1 1.386.11.454.143.922.101 1.386v.99c0 .544-.1 1.089-.15 1.683-.101.792-.353 2.178-.403 2.475-.05.297-.654.99-.855-.248a24.715 24.715 0 00-.856-3.168 4.867 4.867 0 01-.2-1.188c-.051-.544-.101-1.04-.152-1.584-.05-.297-.15-1.188-.15-1.287a6.919 6.919 0 00-.302-2.277 2.356 2.356 0 01-.05-.594c.024-.462.024-.925 0-1.387a5.344 5.344 0 00-.102-.89 1.616 1.616 0 01-.1-.841zm.352-7.08a.935.935 0 01.15-.395.557.557 0 01.739-.256l.016.008c.158.027.31.078.453.149a.327.327 0 01.201.247c.084.378.067.77-.05 1.139a8.32 8.32 0 01-1.308 2.574.265.265 0 01-.151.099h-.146a.05.05 0 01-.05-.05.439.439 0 01-.05-.247v-1.04c.023-.746.09-1.49.2-2.228h-.004zm-4.121 21.96c.112.934.439 1.832.956 2.623a.675.675 0 00.654.397c.252-.05.352.198.554.297.135.109.21.274.201.445-.07.445-.242.868-.503 1.238a.22.22 0 000 .247c.302.545 1.157.693 1.359.743.269.033.542.016.805-.05.251-.098.503-.148.754-.247.253-.118.526-.185.805-.199a.906.906 0 00.503-.197c.604-.446 1.711-.742 2.114-1.386.302-.545.704-1.139.956-1.683.19-.651.342-1.313.453-1.98 0-.199.05-.347.05-.545a3.022 3.022 0 01.201-1.139c.132-.384.217-.783.252-1.188.058-.33.04-.667-.05-.99a5.321 5.321 0 01-.1-.89c-.001-.353-.052-.703-.152-1.04a1.81 1.81 0 01-.1-.892c.1-.89.201-1.831.302-2.722a1.328 1.328 0 000-.446 7.607 7.607 0 00-.202-1.04 1.76 1.76 0 00-.352-.89 1.546 1.546 0 01-.251-.495 1.818 1.818 0 00-.252-.545 1.858 1.858 0 01-.252-.742 4.578 4.578 0 00-1.006-1.733 3.958 3.958 0 00-1.761-.891 6.677 6.677 0 01-1.41-.445c-.05 0-.05-.1-.05-.149.163-.16.35-.293.554-.396.275-.144.476-.396.554-.693.073-.192.124-.391.15-.594.047-.296.15-.582.302-.842.252-.396.453-.841.705-1.237a2.33 2.33 0 00.453-1.238c0-.247.15-.891-.05-1.139a2.571 2.571 0 00-1.208-.792 5.448 5.448 0 00-1.913-.346c-.251.05-.503.05-.704.099-.352.05-.352.099-.302.445a.81.81 0 010 .347 4.33 4.33 0 01-.252.742 9.438 9.438 0 00-.553 1.683c-.101.396-.202.743-.302 1.09a35.336 35.336 0 00-1.057 5.098c-.1.694-.201 1.337-.302 1.98-.1.644-.201 1.238-.302 1.832-.1.594-.1 1.238-.201 1.831a5.36 5.36 0 00-.1.892c0 .495-.051.94-.051 1.386-.075.74-.075 1.486 0 2.227.05.643.05 1.288 0 1.931-.048.745-.014 1.491.1 2.228zm-48.407-.198a3.668 3.668 0 01-.202-.792 12.074 12.074 0 00-.352-1.436 24.025 24.025 0 00-.553-1.781 10.38 10.38 0 00-.503-1.783 2.205 2.205 0 00-.05-.247 9.461 9.461 0 00-.756-1.98c-.251-.446-.553-.94-.804-1.386a13.343 13.343 0 01-1.208-2.871 27.725 27.725 0 01-.554-1.93c-.252-.99-.503-1.932-.755-2.922-.1-.494-.15-1.04-.251-1.584-.05-.297-.05-.594-.101-.89a17.27 17.27 0 01-.1-2.278 27.8 27.8 0 00.201-2.03c0-.148.1-.346.1-.494a7.62 7.62 0 00.252-1.139.367.367 0 01.05-.247c.314-.856.7-1.684 1.158-2.475.1-.15.2-.248.251-.347a.41.41 0 01.403-.198.382.382 0 00.251-.05.168.168 0 00.101-.148.447.447 0 00-.15-.396c-.101-.05-.252-.05-.353-.099a.658.658 0 00-.604.05l-.302.148-.906.445-.754.891a1.076 1.076 0 00-.151.248 10.201 10.201 0 01-1.51 1.782 5.28 5.28 0 00-.453.544c-.201.344-.439.666-.71.96a1.039 1.039 0 00-.2.298c-.312.632-.665 1.244-1.057 1.831-.126.174-.197.38-.202.595-.02.241-.088.477-.201.693a2.634 2.634 0 00-.252.544 1.415 1.415 0 00-.1.446c0 .248.1.445.1.693 0 .248-.15.445-.15.693v.544a1.463 1.463 0 000 1.04v.198c-.017.3.017.602.1.891.141.567.21 1.15.202 1.733-.003.785.099 1.567.301 2.326.111.436.246.866.403 1.288.12.368.188.751.201 1.138-.036.438.033.88.202 1.287.041.11.058.229.05.347-.043.35.046.701.252.99.04.113.073.229.1.346.076.405.23.791.453 1.139.2.252.353.537.453.84.09.155.209.29.352.397.14.064.236.196.252.347.056.318.26.594.553.742.204.126.376.295.503.495.139.191.29.373.453.545.163.136.315.285.453.445l.302.297a.88.88 0 00.906.248h.1a.284.284 0 01.302.099c.105.142.223.275.353.395.27.195.466.474.553.793.252.643.453 1.287.654 1.93.032.231.118.452.252.644.265.325.423.722.453 1.138.05.297.15.595.201.842.001.303.052.604.15.89.051.23.051.465 0 .694-.088.41-.223.808-.402 1.188-.322.7-.746 1.35-1.258 1.93a2.184 2.184 0 01-.704.644c-.37.2-.682.49-.906.842-.5.6-1.191 1.02-1.963 1.188a5.69 5.69 0 01-.905.148.799.799 0 00-.604.446 2.57 2.57 0 00-.202.841c.015.06.05.112.1.149a.766.766 0 00.555.297c.218.001.437-.016.654-.05.352.1.805-.148 1.258-.346.04.005.08-.015.1-.05a1.15 1.15 0 00.503-.346c.173-.177.358-.343.554-.495.344-.289.663-.603.956-.94.403-.446.805-.892 1.157-1.338a9.366 9.366 0 001.107-1.633c.252-.396.453-.841.705-1.238a9.9 9.9 0 001.107-3.168 14.39 14.39 0 00-.151-4.405c.252 0 .252-.05.201-.05M184.702 36.134c-.302 1.88-.604 3.712-1.057 5.544-.051.099-.051.248-.101.346a23.128 23.128 0 01-1.258 3.268c-.251.494-.453 1.039-.704 1.584a1.05 1.05 0 01-.151.346 8.22 8.22 0 01-1.308 1.585c-.051.049-.151.049-.151-.05a1.869 1.869 0 01-.151-.495 8.054 8.054 0 00-.201-1.584c-.051-.198 0-.396-.051-.644a6.581 6.581 0 00-.1-.99.668.668 0 010-.445c.083-.256.117-.524.1-.792 0-.495-.05-.99-.05-1.535.066-.376.083-.758.05-1.138 0-.198-.05-.396-.05-.644a3.412 3.412 0 01.05-1.237c.051-.149.051-.298.101-.446a4.93 4.93 0 00.453-1.881c.1-.792.05-1.535.15-2.327v-.247a3.467 3.467 0 01.101-1.238c.044-.178.061-.361.05-.544-.008-.15.009-.301.051-.446.098-.287.15-.588.15-.89a8.59 8.59 0 01.302-1.931.835.835 0 00.051-.347c-.02-.203.014-.408.1-.594.165-.144.351-.26.554-.346a.266.266 0 01.151-.1h.256c.263.166.516.347.755.545.1.103.185.22.251.347.094.16.178.325.252.495.204.336.389.683.554 1.04.132.435.216.883.251 1.336.051.346.101.643.151.99.044.752.162 1.498.352 2.227.039.213.056.428.051.644a.796.796 0 01.05.594h-.004zm2.118-2.674c-.05-.445-.151-.89-.201-1.336a5.872 5.872 0 00-.856-2.426c-.352-.544-.754-1.089-1.107-1.634a.603.603 0 00-.251-.247 14.678 14.678 0 00-1.459-.94c-.453-.199-.906-.396-1.309-.595a2.11 2.11 0 00-.805-.148h-.201c-.554 0-.554-.05-.604.495.008.15-.009.3-.05.445-.101.495-.252.99-.353 1.485l-.604 2.97a551.218 551.218 0 00-.604 3.465 24.155 24.155 0 00-.452 3.267c0 .198-.051.347-.051.545a17.035 17.035 0 00-.301 3.218 2 2 0 01-.051.545c-.1.742-.151 1.485-.251 2.227-.051.495-.051.99-.101 1.535v1.237c0 .546 0 1.189.05 1.882.032.596.168 1.182.403 1.733.1.197.151.395.251.593.127.209.18.453.151.694a.366.366 0 00.051.247.225.225 0 00.249.198h.002c.403-.049.805-.049 1.208-.099a1.638 1.638 0 001.308-.742c.151-.248.353-.495.504-.743a5.404 5.404 0 011.056-1.336c.295-.296.549-.63.755-.99.302-.545.503-1.09.755-1.634.097-.224.215-.44.352-.643.38-.517.685-1.084.906-1.683a21.206 21.206 0 001.207-3.96c.051-.446.202-.892.252-1.337.101-.644.151-1.238.202-1.881.092-1.07.109-2.146.05-3.218a10.281 10.281 0 00-.101-1.189zm-12.63 17.326a4.057 4.057 0 00-.302-1.04 1.164 1.164 0 01-.101-.445 7.379 7.379 0 01.05-1.485 6.77 6.77 0 00-.201-2.03 4.359 4.359 0 01-.1-1.138 6.228 6.228 0 00-.101-1.93c-.05-.644-.101-1.238-.101-1.882a8.34 8.34 0 00-.15-1.93v-.248c0-.644-.051-1.287 0-1.98v-.693a1.453 1.453 0 00-.101-.446 2.295 2.295 0 01-.201-.792v-.494a2.362 2.362 0 000-.595v-2.722c.037-.27.105-.536.201-.792.092-.255.109-.529.05-.792a1.784 1.784 0 01-.05-.891 10.253 10.253 0 00-.1-1.238.523.523 0 00-.202-.297.188.188 0 00-.151-.05c-.237.12-.457.27-.654.446a.448.448 0 00-.201.396c-.05.346-.05.643-.101.99-.033.33-.017.664.051.99.135.701.168 1.418.1 2.128l-.151 1.931a13.52 13.52 0 00-.1 1.436c0 .544.05 1.138.05 1.683a.834.834 0 00.05.346c.085.474.119.955.101 1.436 0 .841-.05 1.732-.101 2.574-.008.479.009.958.051 1.436v.445c0 .346-.051.643-.051.99 0 .346-.05.644-.05.99 0 .05-.05.099-.05.149a.224.224 0 01-.252.049c-.05-.05-.1-.05-.151-.1-.302-.544-.553-1.039-.855-1.583a3.34 3.34 0 01-.403-1.535 4.188 4.188 0 010-.792 4.189 4.189 0 00-.15-1.386 13.857 13.857 0 00-.604-1.881 3.492 3.492 0 00-.151-.396 12.39 12.39 0 00-1.007-2.574c-.704-1.337-1.358-2.723-2.012-4.11-.202-.445-.352-.94-.554-1.435a.835.835 0 01.05-.841.182.182 0 00.051-.148c.045-.236.009-.48-.101-.693a.473.473 0 00-.352-.248 2.68 2.68 0 01-.956-.643c-.101-.1-.252-.1-.353.099a4.747 4.747 0 00-.704 1.633 3.64 3.64 0 01-.201.693 5.373 5.373 0 00-.252.841c-.202.842-.453 1.683-.654 2.525-.302 1.238-.654 2.475-.956 3.713-.202.742-.302 1.435-.453 2.177a16.133 16.133 0 00-.503 3.812v.198c-.101.545-.101 1.04-.202 1.584a26.561 26.561 0 00-.15 3.465c0 .644.201 1.238.201 1.832.009.185.043.368.1.545 0 .049.051.098.051.148.036.175.104.343.201.495.279.365.6.697.956.99.224.1.481.1.705 0 .1-.1.251-.198.352-.297a.683.683 0 00.252-.445 5.527 5.527 0 00.1-2.03c-.05-.199-.05-.347-.1-.545a5.935 5.935 0 01-.101-1.337v-1.564a35.226 35.226 0 01.202-4.604c.083-.44.117-.889.1-1.336.009-.267.042-.532.101-.792.199-.832.35-1.675.452-2.525.051-.346.151-.643.202-.94a4.5 4.5 0 01.201-1.139c.091-.291.159-.589.202-.89.019-.242.088-.478.201-.694.05-.099.151-.198.202-.148.05.05.1.05.15.099.087.121.155.254.202.396a28.735 28.735 0 011.358 4.158c.202.792.353 1.584.503 2.376.151.792.353 1.683.604 2.525.247.943.601 1.857 1.057 2.722.352.693.805 1.337 1.208 2.03.503.841.956 1.633 1.459 2.475a.65.65 0 01.1.445.54.54 0 00.353.495.24.24 0 01.15.297.692.692 0 00.051.445c.05.1.151.199.201.297.075.312.252.59.503.793.202.197.503.445.755.643l.453.297c.152.099.35.099.503 0a.532.532 0 01.251-.099.874.874 0 00.453-.495.41.41 0 000-.346 3.041 3.041 0 01-.402-1.139l-.001-.018zm-20.027-17.95c-.025.33-.025.661 0 .99 0 .347-.05.941-.05 1.287a.32.32 0 01-.252.248h-.956c-.05 0-.202-.05-.151-.149.05-.099.05-.148.05-.198.202-.594.453-1.485.655-2.079a9.722 9.722 0 00.402-1.733c0-.099.05-.148.05-.247l.051-.05a.05.05 0 01.05.05c.042.135.092.267.15.396v.693c.052.262.052.531.001.793zm2.315 2.575a.05.05 0 01-.051-.05 1.023 1.023 0 01-.452-.94v-.248c-.051-1.04-.051-2.08-.101-3.119a6.212 6.212 0 01.101-1.683c.041-.144.058-.295.05-.445a8.33 8.33 0 00-.151-2.228 2.436 2.436 0 01.101-1.337c.05-.148.1-.346.151-.495a.371.371 0 00-.051-.247c-.1-.1-.252-.198-.352-.297a.469.469 0 00-.503-.05 5.834 5.834 0 01-1.157.495.362.362 0 00-.302.446.565.565 0 01-.151.396c-.181.208-.286.47-.302.743a.838.838 0 01-.151.296.556.556 0 00-.151.396 1.45 1.45 0 01-.1.495c-.353 1.14-.705 2.327-1.107 3.515-.403 1.188-.755 1.98-1.107 3.168l-.302.743a.608.608 0 01-.252.247c-.302.05-.604.149-.906.198a.458.458 0 00-.307.577l.006.018c.05.049.05.098.1.148.202.198.352.396.554.594a.38.38 0 01.1.396c-.05.099-.05.248-.1.346-.403 1.387-.302.941-.654 2.377-.101.445-.151.693-.252 1.138-.165.483-.283.98-.352 1.485 0 .149-.05.297-.05.446-.051.296-.101.89-.151 1.386a.49.49 0 00.1.346l.202.198c.267.137.505.322.704.545.198.212.53.233.755.049a2.91 2.91 0 01.604-.495.337.337 0 00.201-.297c.09-.19.157-.389.201-.594.062-.222.146-.438.252-.643a6.16 6.16 0 00.151-1.386 8.527 8.527 0 01.654-2.426c.166-.55.284-1.113.352-1.683a.425.425 0 01.504-.396c.374 0 .746.05 1.107.148.2.062.341.24.352.446.092.904.109 1.815.05 2.722a1.62 1.62 0 000 .693c.025.148.025.298 0 .446-.033.446-.017.894.051 1.337.05.544.05 1.088.1 1.583-.008.265.009.531.05.792.102.772.153 1.549.151 2.327.008.48-.008.958-.05 1.435a2.132 2.132 0 00.453 1.436c.144.208.416.29.654.198a.409.409 0 00.251-.247c.076-.46.126-.922.152-1.386a10.1 10.1 0 00-.051-2.129 5.881 5.881 0 01.051-1.881 7.04 7.04 0 00.05-1.782c0-.792-.101-3.762-.151-4.307a3.588 3.588 0 01.05-1.04 1.44 1.44 0 01.202-.494c.201-.297.452-.594.654-.842a.877.877 0 00.15-.593 1.336 1.336 0 00-.604-.99zm-5.385 14.405a7.403 7.403 0 00-2.465-1.09 16.758 16.758 0 00-2.265-.544 4.016 4.016 0 00-2.013.198c-.553.199-1.006-.05-.804-.643.158-.445.192-.924.1-1.386a.97.97 0 010-.545c.092-.305.109-.627.05-.94-.1-.888-.15-1.78-.15-2.674.05-.494-.051-2.128 0-2.475.05-.544.05-1.04.05-1.584 0-.445.05-2.079 0-2.475a1.986 1.986 0 010-.545 3.72 3.72 0 00.1-.742c.015-.763.083-1.523.202-2.277.1-.545.1-1.485.151-2.08 0-.296.05-.593.05-.89 0-.297.1-1.387.151-1.485.201-.644.201-1.337.452-1.98.124-.729.327-1.442.604-2.13.058-.159.092-.325.101-.494a7.18 7.18 0 01.201-1.782c.144-.55.212-1.116.202-1.683a.862.862 0 00-.805-.841h-.554a2.907 2.907 0 00-.654.05c-.106.239-.191.487-.252.742-.148.69-.35 1.37-.604 2.03-.251.692-.805 2.375-.855 2.524-.151.495-.252 1.04-.402 1.535-.252.84-.504 1.633-.705 2.475a68.492 68.492 0 00-.704 3.118 20.54 20.54 0 00-.604 3.515c0 .099-.051.247-.051.346a17.29 17.29 0 00-.251 2.773c.025.794-.026 1.59-.151 2.375a14.546 14.546 0 00-.201 3.614c0 .198.05.347.05.545.201.94.352 1.93.604 2.871.15.644.402 1.238.553 1.882.234.9.589 1.766 1.057 2.574.203.364.498.67.855.89a.807.807 0 00.604.199h.554a.884.884 0 00.906-.495c.179-.315.463-.56.805-.693a6.13 6.13 0 012.667-.05c.336.009.672-.008 1.006-.049.503-.05 1.006.148 1.862-.148.445-.234.759-.652.855-1.139a.372.372 0 00-.05-.248c-.05.05-.151-.05-.252-.149z"/>
</svg>