<svg width="407" height="273" viewBox="0 0 407 273" fill="none" xmlns="http://www.w3.org/2000/svg">
<path d="M53.8414 109.599C53.8414 109 54.2897 108.851 53.9908 108.252C53.393 106.455 53.393 104.808 52.7952 102.562C52.6457 101.215 51.749 99.8671 51.5995 98.2201C51.5995 98.0704 51.4501 97.6212 51.4501 97.4715C50.7028 96.1239 50.105 94.477 49.6567 93.1294L49.2083 92.5305C48.1621 90.7338 48.0127 88.7874 47.4149 87.1404L46.9665 85.9426L45.6214 83.2475C44.7247 81.1514 43.5291 79.8038 42.184 78.1569L40.3905 75.6115C39.6433 74.264 38.896 73.2159 37.8498 71.8684L35.4586 68.8739L33.5157 66.7777C32.619 65.4302 31.1244 64.0826 30.5266 62.2859C30.5266 62.1362 30.5266 62.1362 30.3771 61.8367C28.5837 60.4892 27.8364 58.3931 26.4914 56.5963L25.2957 54.7996C25.1463 54.2007 24.8474 54.051 24.8474 54.051C24.1001 52.7035 23.5023 51.6554 22.755 50.757C21.7088 49.4095 21.2605 47.7625 21.2605 46.415C21.2605 45.8161 21.111 45.6664 20.5132 45.3669C19.9154 44.9177 19.467 44.4686 19.3176 43.8696C18.7198 41.7735 18.5703 39.9768 18.7198 38.6292C19.3176 37.2817 18.8692 36.0839 19.7659 35.1856V34.7364L20.2143 32.191C20.3638 31.4424 20.6627 30.8435 20.8121 30.6938C21.8583 28.5976 22.755 26.9506 24.1001 25.3037C24.2496 24.7048 24.6979 24.4053 25.4452 23.8064C26.043 23.3572 26.6408 22.908 26.9397 22.3091C27.0892 21.7102 27.5375 21.1113 27.9859 20.9616C29.331 20.0633 30.6761 19.1649 31.7222 18.2665C33.0673 16.919 35.0102 16.919 36.3553 15.5715C36.3553 15.5715 36.5047 15.4218 37.1026 15.1223C37.9993 14.5234 39.1949 14.5234 40.2411 13.9245C41.1378 13.3256 42.184 13.1759 42.9312 12.577C43.3796 12.577 43.6785 12.4272 43.9774 11.9781C43.9774 11.8283 43.828 11.3792 43.3796 11.0797C42.6323 10.4808 42.184 10.0316 42.0345 9.58245C41.8851 8.98355 41.4367 8.53437 40.6894 8.38464C39.9422 7.78574 39.1949 7.18684 38.5971 6.43821C38.1487 5.83931 37.8498 5.39013 37.252 5.2404L30.8255 2.84479C30.0782 2.69506 29.331 2.84479 28.7332 3.44369C29.331 4.0426 30.0782 3.44369 30.6761 4.19232C29.9288 5.09068 28.7332 4.6415 27.687 5.09068C27.5375 5.2404 27.0892 5.2404 26.4914 5.09068C25.7441 4.49177 25.1463 4.94095 24.399 4.94095H22.4561C22.0078 4.94095 21.8583 4.79122 21.8583 4.49177C21.8583 4.34205 22.0078 3.89287 22.3067 3.74314C22.4561 3.74314 22.755 3.74314 22.9045 3.59342C23.9506 3.14424 25.2957 2.99452 26.6408 2.99452C26.7903 2.99452 27.2386 2.99452 27.3881 2.84479L27.2386 2.69506C25.1463 2.24589 22.755 2.54534 20.6627 3.29397L18.8692 3.74314C17.5241 4.0426 16.478 4.0426 14.9834 4.6415C13.9373 5.2404 12.7416 5.98903 11.3966 7.03711C8.40748 9.13327 6.61404 11.5289 5.41841 14.3737L4.22278 17.3682C2.8777 19.4644 2.27989 21.86 1.68207 24.2556C1.53262 24.8545 1.08426 25.7528 0.934807 27.1004L0.486446 29.7954C0.336993 31.143 0.0380858 32.191 0.0380858 33.0894C-0.111368 35.6347 0.187539 38.1801 0.785353 40.7254C1.38317 42.9713 2.27989 45.3669 3.02716 47.9122C3.62497 50.4576 5.11951 52.8532 6.16568 55.2488C6.16568 55.3985 6.16568 55.3985 6.31513 55.698C6.91295 56.5963 7.0624 57.7941 7.80967 58.6925L8.25803 59.2914C9.3042 62.2859 10.9482 64.0826 12.7416 66.4782L16.6274 71.5689C17.3747 72.9165 17.9725 73.6651 18.7198 74.7132C19.7659 76.5099 20.8121 77.8574 21.7088 79.9536L22.4561 81.7503C23.9506 85.4934 25.4452 88.7874 25.8935 92.5305C26.3419 95.0759 26.4914 97.3218 26.3419 99.5676C26.3419 101.065 25.7441 102.712 24.8474 104.059C24.2496 104.958 23.5023 105.856 22.755 106.754C22.0078 108.102 20.8121 109.15 19.9154 110.498C18.8692 111.845 17.3747 113.043 15.5813 113.792C13.4889 114.54 11.6955 115.289 9.60311 116.636C7.51076 117.984 6.16568 119.631 4.8206 121.727C4.07333 122.625 3.47552 123.524 3.32606 124.123C2.72825 125.021 2.8777 125.919 3.92388 126.219C5.41841 126.818 7.21185 126.967 8.55694 127.566C9.0053 127.716 9.3042 127.716 9.75257 127.566C10.3504 127.566 10.9482 127.716 11.2471 128.165C11.8449 129.064 13.0405 129.513 14.3856 129.363C14.9834 129.213 15.5813 129.363 16.3285 129.513C16.478 129.663 16.9263 129.663 17.5241 129.663C18.122 129.663 18.2714 129.513 18.8692 129.513C19.6165 129.363 20.2143 129.363 20.8121 129.663C21.5594 129.812 22.1572 130.112 22.755 130.112L27.5375 129.663H27.9859C29.331 129.513 30.6761 128.914 32.32 129.064C33.6651 129.213 35.0102 128.614 36.3553 127.566C36.9531 127.417 37.4015 127.117 37.5509 127.117C38.1487 126.967 38.7465 126.518 39.0455 125.919C40.3905 124.572 41.7356 124.123 43.3796 123.973C44.8741 123.823 46.3687 123.524 47.7138 122.775C48.3116 122.176 48.7599 122.176 49.2083 121.577C50.5534 120.529 51.749 119.631 52.3468 118.583C52.4963 118.134 52.9446 117.834 53.393 117.684C53.5424 117.535 53.9908 117.086 54.1403 116.487C54.2897 115.139 54.5886 114.091 54.5886 113.642C54.7381 112.893 55.037 111.845 54.4392 111.097C53.6919 110.498 53.6919 110.198 53.8414 109.599ZM7.80967 54.051C7.21185 54.2007 6.76349 54.2007 6.46459 53.9013C6.31513 53.9013 6.01623 53.7516 6.01623 53.4521C5.41841 52.1046 5.41841 51.3559 5.26896 50.0084L4.52169 47.9122C3.92388 47.3133 3.77442 46.7144 3.17661 45.9658L2.72825 44.768C2.8777 44.1691 2.72825 43.4205 3.32606 43.2707C3.77442 43.2707 4.07333 43.7199 4.52169 44.4686C5.11951 45.3669 5.11951 46.2653 5.71732 47.1636L7.51076 51.2062C7.66022 51.8051 8.10858 51.9548 8.25803 52.5537C8.40748 53.1526 8.25803 53.7515 7.80967 54.051ZM13.0405 64.0826C12.4427 64.0826 12.1438 63.9329 12.1438 63.334C11.9944 62.8848 12.1438 62.7351 12.2933 62.5854C12.7416 62.4356 13.0405 62.5854 13.19 62.7351C13.19 62.8848 13.3394 63.1843 13.6384 63.7832C13.4889 63.7832 13.3394 64.0826 13.0405 64.0826Z" fill="#F15C4C"/>
<path d="M81.9386 91.0333C81.9386 91.0333 82.0881 91.183 82.6859 91.4824V90.5841C82.8353 89.9852 82.6859 89.3863 82.8353 88.6377C82.8353 88.0388 82.6859 87.4398 82.387 86.6912C82.387 86.242 82.2375 86.242 81.6397 86.5415L80.8924 87.2901L81.6397 87.889L81.0419 88.6377L81.7892 90.1349L81.0419 90.7338C81.3408 90.8835 81.4902 91.0333 81.9386 91.0333Z" fill="#F15C4C"/>
<path d="M120.946 117.984C120.797 117.385 120.348 117.385 120.498 116.786C120.498 116.636 120.348 116.337 120.348 116.187C119.75 115.588 119.75 114.84 119.153 114.241C119.302 114.091 119.601 114.091 119.75 114.091C119.601 113.492 119.302 112.893 118.704 112.145C119.302 112.294 119.302 112.145 119.451 112.294L120.049 112.893L121.843 115.289C122.291 115.738 122.441 115.888 122.59 115.738L124.533 115.289L124.085 113.941L122.142 110.048C121.544 109.3 121.394 108.551 120.797 107.952C119.9 107.054 119.003 106.006 118.106 104.658C117.359 103.76 116.911 102.562 116.163 101.514C115.117 100.616 114.37 99.5676 113.623 98.2201C112.278 96.7228 111.53 95.2256 110.185 93.8781C108.392 91.7819 106.748 90.1349 104.506 88.4879C103.908 87.889 103.46 87.5896 103.31 87.1404L101.816 85.194L99.1258 82.3492L97.0334 80.4027C96.2862 79.8038 95.6883 79.0552 95.0905 78.4563H94.9411L93.1476 77.2585C92.6993 76.959 92.5498 76.5099 92.6993 76.3601C92.8487 76.2104 92.8487 75.911 92.8487 75.7612C92.6993 75.0126 92.8487 74.5634 93.4465 73.9645C94.0443 73.2159 94.6422 72.617 94.3433 71.2695C94.1938 70.6706 94.1938 70.5208 94.7916 70.5208L95.6883 69.323L96.1367 67.9755C96.7345 67.3766 96.884 66.7777 96.884 65.8793C96.884 65.2804 97.0334 64.6815 97.4818 64.5318L97.9301 64.0826C97.7807 63.6335 97.3323 63.4837 97.1829 63.6335C97.0334 63.7832 96.5851 63.7832 96.4356 63.4837C97.0334 62.8848 97.7807 63.0345 97.9301 62.1362H98.0796C98.0796 62.1362 98.0796 62.1362 98.229 61.9865C98.8269 61.8367 98.9763 61.5373 98.9763 61.3876C98.8269 61.2378 98.528 60.9384 98.0796 60.7887C97.6312 60.7887 97.3323 60.7887 97.0334 60.6389C97.6312 60.6389 97.1829 60.04 97.7807 60.04C98.3785 59.8903 98.229 60.1898 98.6774 60.4892L99.1258 58.992H98.3785C98.229 58.5428 98.229 58.3931 98.3785 58.2433C98.528 58.0936 98.9763 58.0936 99.1258 58.2433C99.2752 58.2433 99.2752 58.3931 99.2752 58.8422C99.4247 58.6925 99.7236 58.3931 99.7236 58.2433C99.1258 57.6444 99.5741 57.0455 99.2752 56.4466C99.2752 56.4466 99.1258 56.4466 98.8269 56.2969C99.4247 55.698 100.022 55.5483 100.172 54.9494L101.666 52.8532C102.264 51.9548 102.862 51.3559 103.012 50.0084C103.012 49.8587 103.161 49.5592 103.46 48.9603C103.46 48.2117 103.908 47.7625 103.609 47.1636L104.207 46.5647C104.805 45.9658 104.954 45.2172 105.552 44.6183C106.3 44.0194 106.748 42.8216 106.748 41.474L106.15 41.0249C106.598 40.5757 106.748 40.426 106.598 40.426C106.748 40.2762 107.047 39.9768 107.047 39.3779C107.196 38.779 107.645 37.8806 107.794 36.3834C107.944 36.2336 107.944 35.9342 107.944 35.7845C108.093 35.6347 108.392 35.0358 108.392 34.4369C108.392 33.838 108.84 33.6883 108.99 33.0894C109.139 32.4905 109.438 32.3408 109.438 32.191C109.438 31.7419 109.438 31.5921 109.588 31.4424C110.185 30.8435 109.737 30.8435 110.036 30.2446C110.036 29.6457 110.634 29.496 110.634 28.8971C110.634 28.7473 110.634 28.4479 110.783 28.4479C111.231 27.9987 111.231 27.6993 110.933 27.2501C111.082 27.1004 111.53 26.6512 111.68 26.0523C112.278 25.9026 112.278 25.4534 112.128 24.8545H112.278C112.427 24.2556 112.875 24.1058 112.875 23.5069C113.324 22.6086 113.324 21.7102 113.025 21.1113C113.025 20.5124 112.875 20.5124 112.875 19.9135C112.875 19.4643 113.025 18.8654 113.324 18.1168V17.9671C112.726 17.2185 112.577 16.1704 111.979 15.4218C111.829 14.8229 111.381 14.6731 110.783 14.6731C110.634 14.8229 110.335 14.6731 110.185 14.5234C110.036 14.5234 109.737 14.3737 109.588 14.3737C108.99 14.3737 108.392 13.9245 108.093 13.4753C107.495 12.8764 106.897 12.8764 106.3 13.4753L105.552 14.0742C104.954 14.2239 104.656 14.6731 104.058 15.4218C103.908 16.0207 103.609 16.3201 103.46 16.3201C103.46 16.919 102.862 16.7693 102.713 17.3682C102.713 17.3682 102.713 17.5179 102.862 17.8174L102.115 18.4163C101.517 19.0152 101.368 19.3146 101.517 19.9135C101.517 19.9135 101.517 20.0633 101.517 20.6622C101.368 20.6622 101.069 20.6622 100.919 20.8119V21.4108C100.321 21.2611 99.873 21.2611 99.7236 21.4108C99.5741 21.5605 99.7236 21.86 99.873 22.1594C98.528 22.1594 98.528 23.0578 97.7807 23.6567C97.7807 23.8064 97.6312 24.1058 97.3323 24.555L95.8378 26.3517L94.0443 28.7473C93.2971 29.496 92.8487 30.6938 92.1014 31.4424C91.5036 31.8916 91.3542 32.191 91.6531 32.7899C90.9058 32.7899 90.9058 32.9397 90.308 33.5386C90.308 34.1375 90.308 34.4369 90.4575 34.7364C89.8596 34.7364 89.7102 34.8861 89.7102 35.3353V35.7845C88.9629 36.3834 88.8135 37.2817 88.2157 37.8806H87.6178C87.6178 38.4795 87.4684 38.9287 87.1695 39.0784C87.02 39.0784 87.02 39.2282 87.02 39.5276C87.02 40.2762 86.5717 40.8751 86.1233 41.0249C85.6749 41.0249 85.5255 41.1746 85.5255 41.7735C85.5255 42.3724 85.376 42.6718 84.7782 42.9713C84.6288 42.9713 84.6288 42.9713 84.6288 43.121C84.6288 43.7199 84.031 44.3188 84.031 44.9177C84.031 45.5166 83.8815 46.1155 83.2837 46.2653C82.2375 46.415 82.2375 47.4631 81.7892 48.062C81.9386 48.6609 81.7892 48.9603 81.0419 48.9603C81.0419 48.9603 81.0419 48.9603 80.8924 49.1101C80.8924 49.5592 80.743 49.709 80.2946 49.709C79.6968 49.709 80.2946 50.3079 79.6968 50.3079C79.6968 48.9603 79.6968 48.8106 78.9495 47.7625C78.8001 47.7625 78.5012 48.6609 77.9034 48.2117C77.7539 48.062 77.7539 47.6128 77.9034 47.1636C77.9034 47.0139 77.7539 46.7144 77.7539 46.5647L78.2023 45.9658C77.6045 45.3669 77.6045 45.0675 76.8572 44.4686C76.8572 45.0675 76.4088 45.3669 76.7077 45.9658C76.7077 46.7144 77.3055 47.4631 76.7077 48.3614C76.7077 48.9603 76.7077 49.2598 76.7077 49.2598C76.5583 49.8587 77.1561 49.8587 76.8572 50.4576C76.8572 50.4576 76.8572 50.9068 76.8572 51.3559V52.8532C76.8572 53.7515 76.8572 54.7996 77.0066 55.3985L76.8572 55.5483V56.8958L76.1099 57.4947C75.5121 57.4947 75.6616 58.2433 75.0638 57.6444C75.0638 57.4947 75.5121 57.1952 75.2132 57.0455C75.0638 56.4466 75.3627 55.9974 75.6616 55.5483V54.7996C75.5121 53.9013 75.5121 52.8532 75.6616 52.2543C75.5121 52.1046 75.2132 51.8051 74.6154 51.6554C75.3627 51.5057 75.9605 52.1046 76.5583 51.5057L75.3627 51.0565L75.9605 50.3079C75.3627 49.709 75.3627 49.1101 75.811 48.5112C75.9605 47.9123 75.811 47.6128 75.3627 47.3133C75.2132 47.3133 74.9143 47.3133 74.7648 47.1636C74.7648 47.1636 74.7648 47.1636 74.9143 47.0139L75.0638 46.8642C75.0638 46.7144 75.2132 46.415 75.5121 46.2653V45.5166C75.6616 44.9177 75.9605 44.6183 75.6616 44.3188C75.5121 43.8697 75.5121 43.5702 76.1099 43.4205L76.5583 44.0194C76.7077 44.6183 77.3056 44.6183 77.3056 44.0194C77.455 43.2707 77.455 43.121 78.3517 42.5221V42.3724C78.5012 41.9232 78.5012 41.6238 78.3517 41.0249L78.9495 40.426C78.8001 40.2762 78.8001 39.9768 78.5012 39.3779C77.9034 39.9768 77.455 39.9768 77.7539 40.7254C77.7539 41.1746 77.6045 41.3243 77.0066 41.3243C77.0066 41.1746 76.8572 40.8751 76.8572 40.7254C77.0067 39.8271 77.0067 39.2281 76.8572 38.6292C77.0067 38.4795 77.3056 38.1801 77.3056 38.0303C77.3056 37.8806 77.3055 37.5812 77.1561 37.4314C78.0528 36.8325 78.9495 37.4314 79.8463 37.4314C79.8463 36.6828 79.8463 36.0839 79.9957 35.6347L79.2485 35.0358C79.099 35.6347 78.6506 35.6347 78.6506 35.7845C78.8001 36.5331 78.2023 36.3834 77.6045 36.9823C77.6045 36.5331 77.6045 36.3834 77.455 36.2336C77.455 36.0839 77.3056 36.0839 77.3056 35.485C77.455 35.485 77.7539 35.3353 77.9034 35.3353C77.7539 35.1856 77.7539 34.8861 77.7539 34.7364C77.9034 34.7364 77.9034 34.7364 78.2023 34.5867C78.2023 34.4369 78.0528 34.1375 78.0528 33.9878C78.0528 33.838 77.9034 33.5386 77.9034 33.3888C78.3517 33.2391 78.6506 32.6402 78.9495 32.0413C78.9495 31.4424 79.099 30.8435 79.099 30.2446C79.2485 29.6457 79.6968 29.3463 80.4441 29.3463C79.9957 28.8971 79.9957 28.5976 80.2946 28.2982C80.2946 28.2982 80.2946 28.1484 80.2946 27.849C79.6968 27.6993 80.2946 27.3998 80.2946 26.8009C80.2946 26.8009 80.1452 26.6512 79.5474 26.3517C80.1452 25.7528 80.1452 25.7528 80.743 25.6031L79.6968 24.8545C79.6968 24.2556 80.2946 24.1058 80.8924 23.9561C81.0419 23.8064 81.3408 23.8064 81.4902 23.9561C81.9386 24.1058 82.2375 24.1058 82.5364 23.9561C82.6859 23.9561 82.6859 23.8064 82.6859 23.5069C82.6859 23.2075 82.5364 23.3572 82.2375 23.3572C82.2375 23.3572 81.7892 23.3572 81.1913 23.3572C81.3408 23.2075 81.6397 22.908 81.6397 22.7583C81.6397 22.6086 81.4902 22.3091 81.4902 22.1594C82.0881 22.1594 82.5364 22.1594 82.6859 22.0097C82.6859 21.86 82.5364 21.5605 82.2375 21.5605L82.8353 20.3627L82.2375 19.7638C82.8353 19.7638 82.6859 19.6141 83.2837 19.6141L82.5364 18.7157C82.9848 18.7157 83.2837 18.7157 83.5826 18.566C82.9848 17.9671 82.8353 17.8174 82.2375 17.5179V17.3682C82.6859 17.3682 82.9848 17.3682 83.4332 17.5179L82.9848 17.0687C82.9848 16.919 82.9848 16.919 82.8353 16.6196C83.4332 16.4698 83.5826 16.0207 83.5826 15.1223C83.1342 15.1223 82.8353 14.9726 82.5364 14.6731C82.5364 14.2239 82.6859 13.7748 82.9848 12.8764C82.2375 12.7267 81.6397 12.1278 82.2375 11.5289L81.4902 10.93L82.0881 10.1814C81.3408 9.58245 82.0881 9.58245 82.0881 8.98355L81.6397 8.38464L80.4441 7.03711C79.099 5.68958 77.455 4.94095 76.1099 3.29397C75.9605 3.29397 75.9605 3.14424 75.6616 3.14424C75.0638 2.99452 74.9143 2.54534 74.3165 1.94643C74.167 1.94643 74.167 1.79671 73.8681 1.79671C73.7187 1.49726 73.2703 1.34753 72.822 0.748629C72.3736 0.149726 71.7758 0 71.0285 0C70.4307 0 70.4307 0.449177 69.8329 0.898355C70.2812 1.04808 70.4307 1.34753 70.5801 1.64698C69.9823 1.79671 71.0285 2.39561 70.4307 2.54534C69.8329 3.14424 70.4307 3.14424 70.4307 3.74314C69.8329 4.49177 70.2812 4.34205 69.6834 5.83931C69.534 6.58793 69.2351 7.33656 69.2351 7.93547C69.0856 8.6841 68.7867 9.283 68.7867 9.8819C68.6373 11.2294 68.6373 12.577 68.0394 13.9245V14.6731C68.1889 15.5715 67.89 16.4698 67.89 17.3682C67.7405 18.1168 67.4416 18.8654 67.4416 19.4643C67.4416 20.0633 67.2922 20.213 67.2922 20.8119C67.1427 21.86 66.8438 22.6086 66.8438 23.2075C66.6944 23.9561 66.3954 24.555 66.3954 25.1539C66.246 26.0523 65.9471 26.9506 66.246 27.2501C66.246 27.9987 65.7976 28.5976 65.7976 29.1965C65.9471 29.3463 65.7976 29.7954 65.6482 30.3943C65.6482 31.143 65.1998 31.7419 65.4987 32.3408C65.4987 32.9397 65.3493 33.5386 65.0504 34.2872C65.0504 34.4369 65.0504 34.4369 65.1998 34.7364V37.2817C65.0504 37.4314 65.0504 37.4314 65.1998 37.7309C65.7976 37.8806 65.9471 37.2817 66.246 37.8806C65.6482 38.0303 65.1998 37.7309 65.0504 38.3298V38.9287C65.0504 39.5276 64.9009 40.1265 65.0504 40.7254C65.0504 41.474 65.1998 42.0729 65.0504 42.8216C65.0504 43.4205 65.1998 43.5702 65.0504 44.1691C65.0504 44.768 65.0504 45.2172 64.9009 45.3669C65.4987 45.9658 64.9009 45.9658 64.9009 46.5647C64.9009 46.5647 64.9009 46.7144 64.9009 47.3133V47.7625C64.7515 48.5112 65.0504 49.2598 64.4526 50.1581V50.6073C64.602 51.9548 63.8547 53.3024 64.0042 54.6499V54.7996L63.5558 56.2969V57.6444C63.5558 58.5428 63.4064 59.4411 63.4064 60.3395C63.4064 60.9384 63.2569 60.7887 63.2569 61.2378C63.2569 61.9865 63.4064 62.7351 63.4064 63.334V64.0826C63.4064 64.5318 63.4064 64.6815 63.4064 64.6815C63.4064 65.4302 63.2569 66.0291 63.4064 66.628V67.0771C63.2569 67.8258 62.958 68.4247 63.2569 68.8739C63.2569 69.4728 62.6591 69.9219 63.2569 70.3711C63.1075 70.97 63.2569 71.5689 63.2569 72.1678C63.2569 73.6651 63.4064 75.3121 62.8086 76.6596C62.8086 76.8093 62.958 77.2585 62.958 77.4082C62.958 77.8574 63.1075 78.0071 63.4064 78.0071C63.2569 78.606 62.958 78.7558 62.958 78.9055C63.1075 79.6541 63.7053 80.4027 63.1075 81.3011C63.7053 82.6486 63.1075 83.6967 63.7053 84.5951C63.8547 85.194 63.8547 85.7929 63.8547 86.6912C63.8547 87.889 63.8547 88.7874 64.0042 89.3863V89.8355C63.4064 90.5841 64.1536 91.6322 63.5558 92.5305C63.7053 92.6803 63.5558 92.9797 63.4064 93.4289C63.5558 93.5786 63.8547 93.8781 63.8547 94.3272V97.6212C63.8547 98.3698 63.8547 98.9687 63.7053 99.1185C63.7053 99.2682 63.7053 99.2682 63.5558 99.5676C63.4064 100.017 63.4064 100.316 63.5558 100.466C63.7053 100.915 63.7053 101.215 63.5558 101.364C63.4064 101.514 63.4064 101.814 63.4064 102.113C63.4064 102.712 63.4064 103.011 63.5558 103.311C63.5558 103.91 63.7053 104.509 63.7053 105.107C63.7053 105.856 63.7053 106.455 63.5558 106.904C63.5558 107.054 63.5558 107.054 63.7053 107.353V110.947C63.8547 111.695 63.2569 112.294 63.8547 113.043V113.492C63.8547 114.84 64.0042 116.037 64.4526 117.385C64.602 117.984 64.9009 118.283 64.602 118.583C64.3031 118.882 64.602 119.032 64.7515 119.182C64.7515 119.331 64.9009 119.631 65.1998 119.631C64.4526 120.38 64.4526 120.23 64.602 121.577C64.7515 121.727 65.0504 122.176 65.0504 122.476C65.6482 123.075 65.7976 123.374 65.7976 123.673C65.9471 124.422 66.5449 124.871 66.3954 125.62C66.3954 126.219 66.5449 126.518 66.9933 126.967C68.1889 128.315 69.3845 129.064 70.4307 129.513C71.0285 129.663 71.4769 129.663 71.7758 129.513L74.167 128.315L74.3165 128.165C74.4659 128.016 74.7648 127.716 74.7648 127.716C74.9143 127.866 75.3627 127.716 75.6616 127.267H76.2594C77.6045 127.866 78.3517 127.417 79.3979 126.818V125.62L80.1452 124.871C80.1452 124.422 80.2946 123.973 80.5935 123.075C80.743 122.925 80.743 122.925 80.743 122.625C80.5935 122.176 80.743 121.877 81.3408 121.577L80.5935 120.679C80.743 120.529 81.0419 120.23 81.0419 120.08C81.1913 118.733 80.8924 117.535 81.4902 116.636C81.4902 116.037 81.4902 115.888 81.4902 115.888C81.4902 115.289 82.0881 114.69 81.4902 114.091C81.4902 114.091 81.4902 113.941 81.4902 113.642C81.6397 112.893 81.4902 112.145 81.6397 111.246C81.4902 110.647 81.4902 110.048 81.4902 109.45C81.4902 108.851 81.4902 108.701 81.4902 108.701C81.4902 108.252 81.6397 107.952 81.9386 107.803L82.6859 107.204C82.6859 106.605 81.6397 106.305 82.2375 105.706C82.9848 105.856 83.7321 105.856 84.6288 105.706C84.4793 105.257 84.031 105.107 83.8815 105.107C83.7321 105.257 83.2837 105.257 82.9848 105.257C82.387 105.407 82.2375 105.407 82.2375 104.808C82.2375 104.209 82.0881 103.61 81.4902 102.862C81.4902 102.712 81.6397 102.712 81.6397 102.113V99.5676C81.6397 99.4179 81.4902 99.4179 81.4902 99.1185C81.4902 98.819 81.3408 98.6693 81.3408 98.5196C82.0881 98.5196 82.0881 98.0704 82.6859 97.6212L83.2837 96.4234C83.2837 96.4234 83.2837 96.2737 83.1342 95.9742L83.8815 94.9261C83.4331 94.3272 83.2837 93.7283 83.2837 92.83C83.2837 91.0333 82.5364 90.7338 81.1913 91.3327C81.0419 91.3327 81.0419 91.3327 80.743 91.4824C80.1452 90.8835 79.9957 90.5841 79.8463 89.9852C79.8463 89.3863 79.9957 88.7874 79.9957 88.1885V88.3382C79.9957 87.7393 79.5474 87.1404 79.5474 86.5415C79.5474 85.7929 79.3979 85.194 78.9495 84.7448C78.9495 83.9962 79.099 83.3973 79.099 82.6486C79.099 82.6486 79.099 82.6486 78.9495 82.4989C78.3517 81.9 78.8001 81.9 78.8001 81.3011H79.2485C80.743 82.3492 82.387 83.3973 83.7321 85.0442L85.0771 86.841L86.8706 88.3382L89.2618 90.8835L91.0553 93.2792C91.8026 94.0278 92.4004 94.6267 92.9982 95.9742L93.1476 96.1239C93.8949 96.7228 94.1938 97.6212 94.6422 98.5196L96.1367 100.466C97.1829 101.814 98.0796 103.011 98.8269 104.359C98.9763 104.958 99.2752 105.107 99.4247 105.257C100.022 106.006 99.873 106.754 100.471 107.653C100.62 108.401 101.069 109 101.218 109.15C101.816 110.048 102.563 111.097 103.759 111.845L106.15 113.642C106.3 114.091 106.897 114.241 107.495 114.39C107.645 114.54 108.093 114.84 108.242 114.84L109.289 115.588C109.886 116.187 110.484 116.187 111.082 116.786C111.68 117.385 112.278 117.235 112.427 116.337L112.577 116.187C113.324 116.187 113.772 116.187 113.922 116.337L115.416 118.134C115.865 118.134 116.014 118.134 116.163 117.984C116.313 117.834 116.911 117.535 117.658 117.535C117.658 116.936 117.807 117.385 118.106 116.786C118.256 116.936 118.256 116.936 118.256 117.235L119.451 119.032C119.9 119.481 120.199 119.481 120.647 119.182C120.946 118.882 121.095 118.583 120.946 117.984Z" fill="#F15C4C"/>
<path d="M150.239 51.9548C149.641 51.0565 149.492 50.0084 148.894 49.1101C148.296 48.2117 147.549 47.3133 146.353 46.7144C146.204 46.5647 145.905 46.5647 145.905 46.5647C144.709 45.9658 143.812 45.8161 142.766 45.5166C141.421 44.9177 140.375 44.768 139.777 44.6183C138.731 44.6183 137.834 43.7199 136.788 45.0675H136.639C136.489 45.0675 136.19 45.2172 136.041 45.5166L135.294 46.1155C135.294 46.5647 135.443 46.8642 135.891 47.3133C136.041 47.9122 136.489 48.3614 136.489 48.8106L136.041 53.3024C136.041 53.9013 135.891 54.6499 135.891 55.3985L135.294 59.8903L134.696 63.334C134.546 64.6815 134.247 65.7296 134.247 66.4782C133.65 69.0236 133.65 71.5689 133.5 74.1143C133.351 76.2104 133.351 77.8574 133.351 79.9536C133.201 82.0497 133.201 83.8464 133.201 85.9426V88.9371C133.052 91.9316 133.052 94.6267 133.052 97.4715V101.215C133.052 102.562 133.201 103.76 133.201 105.107C133.351 107.952 133.201 110.797 134.247 113.342V114.54C134.247 114.989 134.247 115.289 134.397 115.439C134.546 117.535 134.845 119.481 135.443 121.727C135.443 122.326 135.592 123.075 135.891 124.123C136.34 124.871 136.489 125.62 136.489 126.518C136.489 127.417 136.938 128.016 137.535 128.614L140.524 129.812C141.122 129.812 141.122 129.663 141.72 129.663C141.869 129.663 142.617 129.513 143.663 129.213C144.261 129.064 145.157 129.064 146.652 129.064C147.25 129.064 147.399 128.465 147.997 128.465C148.595 128.614 148.595 127.866 149.193 127.716C149.342 128.165 149.791 128.165 150.388 127.566C150.388 127.566 150.538 127.417 151.136 127.117C151.285 127.117 151.733 127.117 151.883 126.967C152.481 126.967 153.228 126.518 153.826 125.62C153.676 125.021 153.377 124.871 153.676 124.722C153.826 123.973 154.274 123.524 154.722 123.374C155.32 122.775 155.619 122.176 155.619 121.577C155.769 120.23 156.366 119.631 156.366 118.283C156.366 118.134 156.516 117.834 156.964 117.535C157.114 116.936 157.562 117.086 157.562 116.636C158.16 114.84 158.16 113.342 158.758 111.546V111.396C158.608 110.647 158.608 109.899 158.758 108.851V106.156C158.907 105.557 158.907 105.107 158.758 104.658V104.059C158.758 102.712 158.907 101.963 159.206 100.915C159.206 100.765 159.057 100.765 159.057 100.167C159.057 99.7174 159.057 99.5676 159.057 99.5676C159.654 98.819 159.206 98.0704 159.206 97.0223C159.057 96.8726 159.057 96.4234 159.057 95.8245C159.206 94.9261 159.505 94.0278 158.907 93.1294V92.6803C159.505 91.7819 158.907 90.8835 158.758 90.1349C158.758 89.536 158.608 89.3863 158.608 89.2366C158.758 88.6377 158.608 87.889 158.16 87.1404C158.01 86.5415 157.712 86.242 157.712 85.7929C157.712 83.9962 157.562 82.4989 156.964 80.7022L156.516 78.3066C156.516 77.7077 156.366 77.7077 156.366 77.1088C155.918 76.2104 155.769 75.1623 155.918 74.4137C155.918 74.264 156.068 73.9645 155.918 73.5154C155.918 72.1678 155.769 70.8203 155.32 69.6225C155.32 68.4247 155.171 67.5263 154.722 66.7777C154.125 66.0291 154.274 65.2804 154.125 64.3821C153.975 63.0345 153.975 61.9865 153.377 60.6389C153.377 60.4892 153.228 60.04 152.929 59.8903C152.481 59.8903 152.331 59.4411 152.331 58.992C152.481 58.5428 152.481 58.2433 152.331 58.0936C151.733 57.4947 151.883 57.0455 151.733 56.5963C151.733 55.9974 151.584 55.3985 151.584 54.7996C149.492 53.6018 149.342 53.3024 150.239 51.9548Z" fill="#F15C4C"/>
<path d="M133.5 20.213C133.5 20.8119 133.65 21.5605 133.948 22.908C134.546 22.908 134.696 23.0578 134.696 23.6567C134.098 23.6567 134.247 23.8064 133.799 23.8064C134.397 23.9561 134.247 24.2556 134.696 24.4053C134.098 25.7528 134.098 25.6031 135.443 26.3517C135.592 26.3517 135.891 26.5015 135.891 26.9506C135.891 27.1004 135.742 27.3998 135.443 27.3998C135.294 27.9987 134.995 27.849 134.397 28.2982C133.948 28.7473 134.247 28.8971 134.845 28.8971C135.592 28.8971 135.742 29.3463 135.592 29.7954C135.443 29.9452 135.443 30.5441 135.592 31.143C135.742 31.7419 136.34 31.8916 135.742 32.4905C135.742 32.6402 135.891 32.9397 135.891 33.0894C136.041 33.2391 136.489 33.6883 136.639 34.2872C136.788 34.4369 137.087 34.7364 137.236 35.1856L137.834 35.7845C138.432 36.3834 139.03 36.9823 139.777 37.2817L140.524 37.8806C140.674 38.0303 141.122 38.3298 141.571 38.3298C142.916 38.1801 143.962 37.7309 144.859 38.3298C145.008 38.4795 145.307 38.4795 145.456 38.4795C146.054 38.4795 146.503 38.3298 146.652 37.7309C146.801 37.132 147.25 36.5331 147.848 36.2336C148.445 36.3834 148.595 36.6828 148.744 36.6828C148.744 35.9342 148.744 35.3353 148.894 35.1856C149.492 34.4369 149.791 33.9878 149.791 33.2391C150.239 32.6402 150.538 31.8916 150.837 30.5441C150.986 29.6457 150.986 28.5976 150.388 27.849C150.239 27.6993 149.94 27.3998 149.791 26.8009L149.193 24.8545C148.445 23.3572 147.848 21.7102 146.801 20.3627C146.204 19.7638 145.905 19.0152 146.054 17.9671C146.054 17.5179 146.054 17.3682 145.905 17.2185L145.008 16.7693C144.41 16.6196 144.261 16.3201 144.261 16.3201C143.513 15.4218 142.318 14.9726 141.272 14.3737C140.674 14.9726 140.823 15.1223 140.225 15.7212C140.225 15.1223 140.076 15.1223 140.076 14.5234C139.329 14.3737 138.731 14.0742 138.283 14.0742C137.685 14.0742 137.685 14.5234 137.087 14.6731C137.087 14.8229 136.938 14.8229 136.639 14.8229C136.041 15.4218 135.294 15.4218 135.144 16.1704C135.144 16.3201 134.995 16.6196 134.546 16.6196C133.948 16.7693 133.351 16.7693 133.052 16.4698C132.603 16.3201 132.304 16.3201 132.155 16.4698C132.006 16.6196 132.155 17.0687 132.304 17.3682C132.902 18.2665 133.5 18.8654 133.5 20.213Z" fill="#F15C4C"/>
<path d="M207.928 90.5841C210.319 89.8355 212.71 89.6857 215.102 89.0868C216.447 88.4879 217.493 88.9371 218.24 88.3382C220.333 87.1404 222.574 86.9907 224.667 87.7393C226.61 88.1885 228.104 87.889 229.449 86.9907C230.495 86.3918 231.243 86.242 231.84 86.3918C234.83 87.1404 236.922 86.3918 239.762 85.7929C242.302 85.6431 244.395 84.4453 245.74 81.9L246.935 79.8038C245.59 76.0607 244.992 72.617 243.647 69.323C243.05 67.5263 242.452 66.4782 241.704 65.5799C238.416 61.8367 233.783 60.3395 229.001 59.2914C228.254 59.1417 227.506 59.2914 226.909 59.2914C224.816 59.4411 223.172 59.7406 221.08 59.7406C215.849 59.7406 211.216 59.2914 205.985 59.2914C202.996 59.1417 200.156 58.8422 197.167 58.8422C191.189 58.8422 185.062 58.992 178.934 58.8422C176.393 58.8422 173.853 58.2433 170.714 58.0936C170.565 58.8422 170.565 60.1898 169.967 61.0881C166.828 64.981 168.173 69.0236 169.518 72.7667C170.863 77.2585 174.002 80.5525 176.842 84.2956C177.888 85.6431 179.382 85.194 180.727 86.0923C181.325 86.242 181.176 86.5415 181.325 86.6912C182.371 87.2901 183.119 87.889 184.464 87.889C189.097 88.0388 193.58 89.3863 198.064 90.8835C201.501 91.6322 204.64 91.6322 207.928 90.5841Z" fill="#F15C4C"/>
<path d="M62.5097 179.072C62.5097 178.623 62.5097 178.323 62.3602 178.174C62.0613 178.323 62.0613 178.623 62.5097 179.072Z" fill="#F15C4C"/>
<path d="M54.8875 213.209C54.7381 213.808 55.037 214.108 55.6348 214.557C55.7842 213.958 55.4853 213.359 54.8875 213.209Z" fill="#F15C4C"/>
<path d="M96.1367 260.373H96.2862L96.1367 260.223V260.373Z" fill="#F15C4C"/>
<path d="M116.612 229.53L117.06 227.583L116.462 226.835C116.612 226.236 116.911 226.086 116.911 226.086C116.761 225.936 116.761 225.637 116.761 225.487V223.391L116.163 222.642V218.15C116.014 217.402 115.715 216.803 115.715 216.204V211.563L115.267 209.017C115.267 208.418 115.117 208.418 115.117 207.819C114.968 207.22 115.117 206.921 115.117 206.023C115.117 206.023 114.968 205.873 114.669 205.274L115.117 204.226L114.669 202.729C114.818 202.579 115.117 202.28 115.117 202.13C114.519 200.333 115.267 198.686 113.772 197.189C114.818 195.093 115.117 190.9 114.519 188.654C114.669 188.056 114.968 188.205 115.117 187.756L114.669 186.558H114.818C114.818 185.81 114.818 185.211 114.968 184.762C114.818 184.163 115.566 183.863 114.968 183.264L114.37 183.714C114.37 183.564 114.37 183.564 114.221 183.564C114.221 181.468 113.025 179.222 113.623 177.126C113.025 175.329 113.174 173.382 112.726 171.735C112.577 171.137 112.726 170.388 112.128 169.639C111.53 168.891 111.68 168.142 111.53 167.244L110.933 161.854C110.783 161.255 110.484 160.506 110.036 159.458C110.036 159.308 109.886 158.859 109.588 158.709C109.737 158.11 110.036 157.961 110.036 157.661L109.289 154.667H109.438C108.84 153.768 108.541 153.169 107.944 151.822C108.093 151.073 107.794 150.325 107.196 149.726C105.851 148.378 104.656 147.33 103.46 146.731H101.965C101.368 146.132 101.218 145.983 101.069 145.384C100.321 145.384 99.7236 145.234 99.1258 145.234C98.3785 144.635 97.7807 144.036 97.1829 143.288C95.6883 143.886 95.6883 143.737 94.6422 143.437C94.0443 142.09 92.8487 141.641 91.952 141.042C90.9058 140.592 90.1586 140.592 89.5607 141.191C88.664 141.79 87.7673 141.94 87.02 142.539C86.4222 143.138 85.9739 143.437 85.6749 143.737C83.5826 144.485 81.7892 145.833 79.9957 147.48C79.2485 148.229 78.0528 148.827 77.3056 149.576L72.523 154.218C71.9252 154.966 71.4769 155.415 71.0285 155.565C71.0285 155.715 70.8791 155.715 70.8791 156.014C70.2812 156.613 69.6834 157.362 69.3845 158.11L68.9362 159.458L67.7405 160.356C67.1427 161.255 67.5911 162.452 67.5911 163.501C66.9933 164.099 66.3954 163.501 66.3954 164.099C66.3954 164.099 66.5449 164.249 66.9933 164.399V164.549H67.1427L66.9933 164.399L67.89 165.148C67.4416 165.896 67.1427 166.345 66.5449 166.495C66.3954 166.345 66.3954 166.046 66.3954 165.746L65.3493 166.645C65.9471 166.795 65.7976 167.094 66.3954 167.244C66.246 167.843 66.246 167.992 65.9471 168.142C65.4987 168.142 65.1998 168.142 65.0504 167.992C65.6482 168.591 65.4987 168.741 65.9471 168.891L63.5558 175.778C62.958 176.377 62.3602 175.928 62.3602 176.676C62.5097 177.275 63.7053 177.425 63.1075 178.773C62.958 178.773 62.6591 178.922 62.5097 178.922L61.7624 180.42C61.1646 181.318 60.7162 182.516 60.7162 183.564C60.7162 184.911 60.8657 185.66 60.2679 187.007L60.8657 187.606C60.8657 188.205 61.0151 188.505 60.8657 189.104C60.7162 189.553 60.7162 189.852 60.8657 190.301C60.8657 190.751 60.7162 191.05 60.2679 191.499C60.7162 191.948 60.8657 192.248 60.7162 192.547C60.1184 192.547 59.9689 192.697 59.3711 192.697C60.4173 193.446 60.4173 194.494 60.4173 195.392L59.9689 198.686C59.9689 198.836 59.8195 199.135 59.5206 199.285V200.333C59.67 201.681 59.0722 202.878 59.67 204.226L58.7733 205.424L59.2217 206.622C58.6239 206.622 58.1755 206.771 58.0261 207.22C58.6239 207.819 58.6239 207.969 58.7733 208.568L58.0261 209.167C58.0261 209.916 58.1755 210.514 58.1755 211.263C57.5777 211.263 57.5777 211.113 56.9799 211.113C57.5777 212.611 57.8766 214.108 57.4282 215.455C57.4282 215.455 57.2788 215.605 56.9799 215.905C56.9799 216.054 57.1293 216.503 57.1293 216.653C57.1293 217.252 56.9799 217.402 56.9799 218.001C56.8304 218.001 56.5315 217.851 56.3821 217.851C55.7842 218.6 56.3821 219.049 56.3821 219.797C56.3821 220.546 56.3821 221.145 56.5315 221.594L55.9337 222.942C56.5315 224.289 55.9337 224.888 55.3359 225.637C55.4853 226.236 55.7842 226.385 55.9337 226.535C55.7842 226.685 55.7842 227.134 55.7842 227.433C56.3821 228.931 56.8304 230.578 55.9337 232.225V232.973C56.5315 233.722 56.5315 233.572 56.5315 234.92C55.6348 236.267 55.7842 235.818 55.1864 238.064C55.3359 238.962 55.6348 239.861 55.6348 240.46C55.6348 241.208 55.7842 241.957 56.2326 242.855C56.2326 243.454 56.3821 243.304 56.3821 243.754C56.2326 243.903 55.9337 243.903 55.7842 243.903L56.5315 245.7C55.9337 246.299 56.0832 246.598 55.6348 247.197C55.6348 247.946 56.0832 248.695 56.5315 249.743C56.3821 251.09 56.0832 252.138 56.0832 252.887L56.681 253.336C56.681 253.486 56.5315 253.486 56.5315 253.785C56.5315 254.384 56.5315 254.684 56.3821 254.983L56.9799 256.181L56.3821 256.929C56.2326 256.78 55.9337 256.78 55.6348 256.78C55.7842 258.127 56.9799 257.678 57.1293 258.277C57.7271 259.624 57.5777 260.223 57.7271 261.271C58.325 262.619 58.1755 263.817 57.1293 264.565V265.464L56.0832 265.913L56.681 266.662C57.4282 266.063 58.0261 266.212 58.7733 265.763C58.9228 265.913 59.3711 266.362 59.5206 266.961C59.3711 267.56 58.9228 267.71 58.7733 268.309L59.5206 269.057L60.7162 268.009C61.4635 269.357 62.6591 268.758 63.7053 269.357C63.8547 269.506 63.7053 269.806 64.3031 270.255C67.2922 270.255 69.6834 270.854 71.9252 272.201C73.2703 272.052 72.9714 270.704 73.7187 269.806C74.3165 269.656 74.4659 269.357 74.7648 269.207L75.2132 267.111L76.2594 266.362C75.6616 264.865 75.5121 263.218 75.2132 261.571L74.7648 256.929C75.3627 253.935 74.3165 251.689 74.9143 249.293C74.3165 248.695 74.3165 248.695 74.167 248.096C74.167 246.598 73.7187 243.005 73.1209 242.406C73.1209 240.609 73.7187 239.112 73.8681 237.465C73.8681 235.968 74.0176 234.321 74.3165 232.674C73.5692 232.075 73.5692 231.326 74.167 230.727C74.7648 227.583 74.6154 224.888 75.0638 221.894C74.9143 221.295 74.6154 221.145 74.6154 221.145L75.2132 220.396C75.2132 219.797 75.0638 219.199 75.6616 218.6C75.811 218.6 76.2594 218.749 76.4088 218.749V218.899L78.2023 220.995L79.6968 219.648L83.7321 220.846C84.7782 220.247 86.1233 220.247 86.8706 219.348C87.4684 219.498 88.2157 219.348 88.8135 218.899C89.4113 218.3 90.0091 218.15 90.7564 218.3L92.1014 216.354C92.5498 216.803 92.6993 216.953 92.6993 216.953C92.8487 217.851 93.1476 218.899 93.1476 219.648C93.2971 220.995 93.2971 222.642 93.2971 224.139C93.4465 225.487 93.7454 226.685 92.8487 227.583C93.4465 228.482 93.4465 229.53 93.4465 230.428C93.4465 231.925 93.596 233.422 93.4465 234.92C93.4465 236.267 93.2971 237.315 93.4465 238.663C93.4465 238.663 93.4465 238.813 93.4465 239.411C93.4465 240.01 93.4465 240.31 93.596 240.609C93.596 241.957 93.7454 243.155 94.0443 244.502V247.347C94.6422 249.144 94.9411 250.641 94.7916 252.737V252.887C95.3894 253.635 95.24 254.684 95.24 255.282C95.9872 256.63 96.7345 257.379 97.3323 258.726V259.924C97.9301 260.523 98.8269 260.972 98.0796 262.32L99.2752 263.517C99.873 263.667 99.873 264.116 100.471 264.266C101.069 264.416 101.218 264.416 101.368 263.817C101.517 263.667 100.77 263.218 101.517 262.619L102.115 263.967C102.713 264.116 103.012 264.715 103.609 263.967C103.46 263.368 103.012 262.918 103.609 262.469C104.207 262.619 104.357 262.918 104.506 263.068C104.656 264.116 105.253 265.164 105.851 266.512C106.001 265.763 106.3 265.164 106.449 265.015C106.598 265.015 107.047 264.865 107.645 264.865C107.495 264.266 107.495 263.368 107.495 262.17C107.495 262.02 107.645 261.721 107.645 261.571L107.196 260.373C107.944 259.774 108.541 260.373 109.139 260.523C109.737 260.373 109.886 259.924 110.484 259.774V258.427L111.68 257.978V257.828L114.071 256.031V254.833L115.566 254.085C115.566 253.486 115.416 252.887 115.416 252.288C115.566 250.192 116.014 248.545 116.163 246.898C116.313 246.299 116.313 245.7 116.313 244.802C117.06 243.005 117.06 241.358 116.313 239.561C116.163 238.962 116.462 238.663 117.06 238.363C116.911 237.765 116.612 237.615 116.462 237.465L117.06 236.866C116.911 235.968 116.612 235.069 116.612 234.471C117.658 232.973 117.658 231.027 116.612 229.53ZM60.7162 242.705C60.7162 242.556 60.7162 242.556 60.8657 242.556C60.8657 242.705 60.8657 242.705 60.7162 242.705ZM69.3845 161.105C68.6373 160.506 68.9362 160.356 68.9362 159.757L69.6834 159.009C70.2812 160.057 69.9823 160.805 69.3845 161.105ZM92.2509 177.126C92.1015 178.473 92.4004 179.671 91.8026 181.018C91.6531 182.366 91.8026 182.965 91.8026 184.312C91.8026 186.109 91.8025 187.606 91.6531 189.104C91.6531 189.703 91.8025 189.553 91.6531 190.002V192.398C91.6531 193.895 91.6531 195.692 91.8026 197.488C91.6531 197.638 91.3542 197.937 91.2047 198.387C90.6069 198.387 90.4575 198.536 89.8596 198.536L89.1124 199.135C88.9629 198.986 88.5146 198.986 87.9168 198.986C86.5717 198.986 85.2266 199.435 83.5826 199.135C83.4332 199.135 83.4331 199.285 83.1342 199.285C82.387 199.135 81.7892 199.135 81.1913 199.435L79.099 199.884C78.5012 199.884 78.6506 199.734 78.0528 199.734C78.0528 199.135 78.0528 198.986 77.9034 198.836C77.7539 197.788 77.7539 197.039 77.9034 196.29C77.9034 195.392 78.0528 194.344 78.0528 193.296C78.0528 192.697 78.2023 192.697 78.2023 192.098C78.8001 190.601 78.9495 188.954 79.2485 187.457C79.2485 186.109 79.8463 184.911 79.9957 183.564L80.5935 182.067C80.743 180.719 80.743 179.072 81.3408 177.724L81.9386 175.778L82.5364 174.431C82.6859 173.832 83.2837 173.682 83.5826 172.634C83.5826 172.484 83.7321 172.185 84.031 172.035C84.4793 171.436 84.6288 171.137 84.6288 170.538V170.088L86.4222 166.794C87.1695 165.297 88.3651 163.95 89.7102 162.452L90.6069 160.955C90.7564 160.805 91.0553 160.955 91.2047 161.554L91.8026 164.249L92.2509 169.939C92.2509 172.484 92.4004 174.73 92.2509 177.126ZM106.897 262.769C106.748 262.619 106.748 262.619 106.449 262.619V262.469C106.598 262.469 106.897 262.469 106.897 262.619V262.769ZM111.979 256.78H111.53V256.63H111.979V256.78Z" fill="#F15C4C"/>
<path d="M63.2569 171.137C63.2569 171.137 63.4064 171.286 63.7053 171.735C63.8547 171.137 63.5558 170.837 63.2569 171.137Z" fill="#F15C4C"/>
<path d="M194.627 155.865C194.178 155.415 194.029 155.266 194.029 155.116C194.029 154.517 193.879 153.918 193.431 153.768L192.086 153.319C191.936 153.169 191.638 153.169 191.488 153.169C190.89 152.571 190.292 152.571 189.695 152.72C189.097 152.72 188.499 152.571 187.901 152.571C187.303 151.972 186.556 151.822 186.556 151.073C187.154 150.474 187.901 150.474 187.752 149.576C186.407 149.726 185.659 148.678 184.314 148.079C184.165 148.079 183.866 147.929 183.716 147.929C182.371 147.33 181.026 147.18 179.681 146.881C178.187 146.282 176.393 146.132 174.6 146.282C173.255 146.432 172.507 146.282 171.162 146.282H168.024C165.931 146.282 164.586 146.282 162.345 146.432H162.195C160.701 146.282 159.057 145.983 157.562 145.983C156.516 145.833 155.619 145.533 155.021 145.533C154.424 145.683 153.527 145.533 152.331 145.384L148.445 144.785C147.1 144.635 145.755 144.186 144.41 144.186C140.674 143.587 137.834 142.988 134.098 142.988H128.568C127.671 142.988 127.074 142.988 126.625 142.838C125.878 142.689 124.832 142.689 123.636 142.988C123.038 143.138 122.291 143.437 121.245 143.437C121.095 143.437 121.095 143.437 120.797 143.587C120.797 144.336 120.797 144.336 121.394 144.935C121.992 145.683 122.59 146.132 123.188 147.031L123.786 147.63C123.935 147.63 124.234 147.779 124.383 147.779C125.131 149.127 126.177 149.576 127.522 150.474C127.671 150.474 127.671 150.624 128.269 150.624C128.718 150.624 129.016 150.774 129.315 151.223C130.362 152.571 131.408 152.72 132.753 153.319C134.098 153.918 135.294 153.768 136.639 154.218L138.731 154.966C139.478 155.565 140.076 155.565 140.823 156.164C141.571 156.314 142.168 156.613 142.766 156.613C144.261 157.062 144.709 157.961 143.962 159.308C143.812 159.458 143.364 160.057 143.215 160.805L142.766 162.153C142.168 163.051 141.72 163.95 141.72 165.297L141.122 167.693L140.524 170.687C140.524 172.035 140.375 173.083 140.076 174.431C139.777 175.778 139.628 177.126 139.179 178.773C139.03 180.12 138.581 181.168 138.432 181.767L137.834 185.061C137.685 186.409 137.386 187.157 137.386 188.205C137.386 190.751 136.788 192.847 136.19 195.242C136.041 196.141 135.592 197.039 135.742 198.387C135.742 198.536 135.742 198.986 135.592 199.135V200.333C135.443 202.13 135.592 203.777 135.443 205.573V208.867C135.443 210.215 135.443 211.413 135.294 212.76C135.294 213.359 135.443 213.359 135.443 213.958C135.443 215.306 135.443 216.503 135.592 217.851V219.648C135.592 220.995 135.592 221.744 135.742 223.091C135.891 225.188 135.891 227.134 135.592 228.931V229.679C136.041 231.775 136.041 234.321 135.742 237.315C135.742 239.412 135.742 241.657 135.592 243.903C135.443 245.7 136.041 247.347 135.742 249.144V249.593C135.742 249.743 135.891 250.042 135.891 250.641C135.891 251.988 136.041 252.587 136.041 253.935C136.041 254.684 136.19 255.732 136.19 256.48C136.041 257.379 136.34 258.277 136.34 259.026V259.475C136.34 260.074 136.489 260.822 136.489 261.421C136.639 263.218 137.236 264.865 137.236 266.662C137.236 266.811 137.087 267.41 136.788 268.159C136.489 268.908 136.639 269.506 136.788 269.956C136.938 270.405 137.236 270.554 137.834 270.554C138.432 270.704 138.581 271.153 139.179 270.554H139.777C140.375 270.704 140.524 271.004 140.524 271.004C141.869 271.153 142.467 271.752 143.812 271.153C143.962 271.004 143.962 271.004 144.261 271.004C145.755 271.004 147.399 271.153 149.043 271.153C150.388 271.153 152.032 270.704 153.527 271.004C153.527 270.854 153.676 270.405 153.975 269.656C153.975 269.057 154.573 269.506 155.171 268.908C155.021 268.309 155.021 268.159 154.424 267.56C154.274 267.41 154.274 266.811 154.424 266.212L155.769 263.517C156.815 261.721 156.964 260.074 156.964 257.828C156.815 256.48 156.964 255.133 157.114 253.785C157.263 252.737 157.562 251.988 157.562 251.39C157.712 250.641 157.562 250.042 157.712 249.443C157.861 247.646 158.16 246.149 157.861 244.352C157.413 243.903 157.413 243.754 157.861 243.754C158.459 243.155 158.459 242.406 158.608 241.657C158.758 241.058 158.758 240.31 158.608 239.711C158.459 239.112 158.608 238.513 158.758 237.765C159.356 236.417 159.206 235.219 159.356 233.872L159.804 231.775L160.551 228.631C160.701 227.284 161.298 226.685 160.701 225.337V224.589L161.298 221.295V220.846C161.149 220.396 161.149 219.797 161.298 219.348C161.298 218.749 161.149 218.3 160.85 218.15C160.551 218.001 160.402 217.552 160.402 217.402C160.551 216.803 160.551 216.054 159.953 215.455C160.551 214.707 160.701 213.958 160.402 212.91C160.252 212.91 160.252 212.91 160.252 212.76C160.85 211.413 159.804 210.215 159.654 208.867L158.907 204.525C158.758 203.328 158.907 202.13 159.356 200.782C159.505 199.884 159.804 198.836 159.804 198.237C159.953 197.488 159.804 196.889 160.402 196.141C160.551 195.991 160.551 195.692 160.551 195.242C160.402 194.344 160.402 193.146 160.701 192.098V190.9C160.701 190.002 160.85 189.403 161.149 188.954L161.597 187.457L162.195 184.911C162.793 183.863 162.942 183.115 162.942 182.516C162.942 181.917 163.54 181.318 162.942 180.719V180.27C163.54 179.222 163.391 178.323 163.54 177.575C162.942 176.976 162.793 176.976 162.793 176.377L162.345 174.431C162.195 173.832 161.896 173.682 161.298 173.532C160.701 173.382 160.551 173.083 160.701 172.634C160.85 172.035 160.85 171.436 160.551 171.137C159.953 170.538 159.505 170.388 159.356 169.789L158.907 168.441C158.758 167.244 159.057 166.944 160.402 167.094L161.597 168.142C162.046 168.741 162.345 168.741 162.942 168.142L163.391 167.543C164.138 168.142 163.54 168.292 163.839 168.891C164.736 169.04 165.334 169.49 165.633 169.789C165.782 169.939 166.081 169.939 166.23 169.939C166.978 170.538 168.173 170.388 168.921 171.137C168.921 171.286 168.921 171.286 169.07 171.286C169.817 171.137 170.565 171.436 171.611 171.735C171.76 171.735 172.209 171.885 172.806 172.185C173.404 172.634 174.002 172.784 174.301 172.634C174.749 172.484 175.048 172.484 175.497 172.784C176.244 173.382 176.991 173.382 177.888 172.634L178.486 172.185C178.635 173.083 179.233 173.382 179.831 172.784C180.279 172.634 180.727 172.634 181.325 172.784C182.67 173.382 183.716 172.784 185.062 172.634C185.211 172.634 185.51 172.634 185.659 172.484C185.809 172.334 186.257 172.334 186.556 172.484C187.004 172.634 187.303 172.634 187.752 172.334C188.499 171.735 188.947 171.137 188.947 170.538C188.947 169.939 189.097 169.639 189.545 169.639C190.292 169.49 190.89 168.891 191.637 168.292C192.534 167.693 192.983 166.944 192.833 165.896C191.936 165.297 192.086 164.399 192.086 163.351C192.086 162.602 191.936 162.003 191.637 161.854C190.89 161.105 191.04 160.506 192.086 159.907C192.684 159.907 192.983 159.757 193.58 159.757C194.178 159.608 194.477 159.158 194.776 158.41C194.029 157.062 194.029 157.212 194.627 155.865Z" fill="#F15C4C"/>
<path d="M270.549 256.48C268.606 256.031 266.663 255.881 264.72 255.881C263.375 255.881 262.03 256.331 260.685 256.48L254.408 257.229C253.063 257.379 251.419 257.379 249.924 257.379C249.327 257.379 248.43 257.229 247.384 256.929C246.039 256.78 245.291 256.78 243.946 256.181L240.808 254.684C238.416 253.935 236.324 252.737 234.83 250.641L232.438 247.497C230.944 245.7 230.047 244.053 229.898 242.107C229.3 240.609 229.3 238.962 227.955 238.064C227.805 237.914 227.805 237.914 227.805 237.615V235.519C227.955 233.422 227.805 231.626 227.058 229.829C226.909 229.38 226.46 228.931 226.311 228.032C226.161 227.433 226.311 226.535 225.265 226.535C225.115 226.535 225.115 226.535 225.115 226.385V225.936C225.265 224.139 224.966 222.642 224.368 221.145C223.77 219.648 223.919 218.15 223.77 216.653C223.77 216.054 223.322 215.905 223.621 215.755C224.667 214.407 224.069 212.76 223.77 211.263C223.77 210.814 223.621 210.664 223.322 210.664C221.977 210.514 222.275 209.766 222.275 208.867C222.425 207.969 222.873 206.771 222.873 205.723V198.686C222.873 197.189 223.77 183.714 223.77 182.067L223.322 178.922C223.322 178.024 223.322 177.425 223.172 175.928L221.678 176.527C222.275 175.928 222.275 175.628 222.425 175.029C222.574 172.933 222.873 171.286 222.873 169.19C222.873 166.645 222.425 153.768 222.425 151.223C222.425 150.325 221.977 149.277 221.229 148.678C220.183 148.079 219.286 147.48 218.689 146.731C217.642 145.533 216.297 144.635 214.952 144.036C212.412 143.138 210.17 141.94 207.629 140.592C207.181 140.592 207.031 140.592 206.882 140.443C206.882 142.239 207.031 143.737 206.433 145.384C205.836 148.528 205.686 151.822 204.939 155.116C204.042 157.512 204.192 171.137 204.192 173.832C204.192 176.826 204.192 179.671 204.042 182.815C204.042 184.163 203.893 184.762 203.893 186.109C203.893 186.858 202.548 200.183 202.548 200.782C202.548 201.381 202.697 202.13 202.548 202.729C202.548 203.328 202.099 204.076 202.099 204.675C202.249 207.52 201.95 210.065 203.295 212.611C203.893 213.359 203.743 214.557 203.893 215.605C203.893 216.204 203.743 216.803 203.743 217.402L203.594 217.252V217.701C204.192 218.3 204.192 218.899 204.042 219.498C203.444 220.097 203.893 221.295 203.893 222.193C203.893 222.792 204.341 222.942 204.491 223.541C205.387 224.439 205.387 225.637 205.686 226.984C205.686 227.583 205.238 227.433 205.088 227.883H204.64V225.038C204.49 225.188 204.192 225.487 204.192 225.487C204.042 226.984 203.743 228.631 203.743 230.129V230.278C204.491 230.877 204.192 231.775 204.341 232.674C204.939 234.171 204.939 235.968 205.537 237.765C205.537 237.765 205.686 237.914 205.985 238.214L206.583 239.711C207.181 240.46 207.031 241.058 207.181 241.657C207.778 241.807 208.526 241.657 208.675 242.256C209.422 243.005 209.273 244.352 209.124 245.401C209.124 245.999 209.273 246.598 209.572 246.748C210.17 248.096 210.917 249.293 211.664 250.641C211.814 251.09 212.113 251.539 212.71 252.438C212.86 252.587 212.86 253.186 213.159 253.336C214.504 254.833 215.251 256.63 216.596 257.978C217.493 259.325 218.39 260.373 219.735 261.271C222.126 263.368 224.816 264.715 227.656 266.212C230.197 267.56 232.737 269.057 235.577 270.105L243.946 272.052C246.487 272.651 249.028 272.501 251.568 272.651H252.615C255.155 273.399 257.248 272.8 259.639 272.201C260.984 272.052 262.03 271.603 262.927 271.453C263.525 271.303 264.272 271.303 264.87 270.704C266.065 270.105 266.962 269.357 268.008 268.758C268.606 268.608 268.606 268.159 269.204 267.56C269.054 267.56 269.054 267.56 269.054 267.41C270.101 267.41 270.549 266.811 270.848 265.913C270.997 264.565 271.296 263.218 272.791 262.619C272.043 261.87 272.043 261.122 272.791 260.523V259.924C272.94 259.774 272.94 259.175 272.94 258.576C271.894 257.528 271.296 256.78 270.549 256.48ZM205.686 172.634C206.284 172.035 207.48 172.035 205.836 170.687H207.031C207.031 171.586 207.031 172.035 207.031 172.035C206.882 172.634 206.433 172.484 205.836 172.933C205.836 172.784 205.836 172.784 205.686 172.634ZM207.181 183.414C207.181 183.564 207.031 183.863 206.732 184.013L206.134 183.564C206.134 182.965 205.985 182.815 205.985 182.216L206.433 179.521C207.031 179.521 207.181 179.97 207.181 180.869C207.33 181.767 207.33 182.516 207.181 183.414ZM209.721 151.223C209.572 151.073 209.572 151.073 209.273 151.073C208.825 150.474 208.825 149.876 209.422 149.576H209.572C209.721 149.576 209.721 149.726 210.02 149.726C209.871 150.325 209.721 150.624 209.721 151.223ZM218.091 215.455C217.941 215.455 217.941 215.455 217.642 215.605C216.895 214.258 217.045 212.611 216.148 211.712C216.895 211.562 218.091 212.311 218.24 212.91C218.24 213.659 218.091 214.707 218.091 215.455ZM225.265 228.332C224.816 228.332 224.517 228.332 224.368 228.482V227.583C224.517 227.733 224.966 227.733 225.265 227.733V228.332Z" fill="#F15C4C"/>
<path d="M281.609 213.209C281.459 213.808 281.758 214.108 282.356 214.557C282.505 213.958 282.206 213.359 281.609 213.209Z" fill="#F15C4C"/>
<path d="M343.333 229.53L343.781 227.583L343.183 226.835C343.333 226.236 343.632 226.086 343.632 226.086C343.482 225.936 343.482 225.637 343.482 225.487V223.391L342.884 222.642V218.15C342.735 217.402 342.436 216.803 342.436 216.204V211.563L341.988 209.017C341.988 208.418 341.838 208.418 341.838 207.819C341.689 207.22 341.838 206.921 341.838 206.023C341.838 206.023 341.689 205.873 341.39 205.274L341.838 204.226L341.39 202.729C341.539 202.579 341.838 202.28 341.838 202.13C341.24 200.333 341.988 198.686 340.493 197.189C341.539 195.093 341.838 190.9 341.24 188.654C341.39 188.056 341.689 188.205 341.838 187.756L341.39 186.558H341.539C341.539 185.81 341.539 185.211 341.689 184.762C341.539 184.163 342.287 183.863 341.689 183.264L341.091 183.714C341.091 183.564 341.091 183.564 340.942 183.564C340.942 181.468 339.746 179.222 340.344 177.126C339.746 175.329 339.895 173.382 339.298 171.735C339.148 171.137 339.298 170.388 338.7 169.639C338.102 168.891 338.251 168.142 338.102 167.244L337.504 161.854C337.355 161.255 337.056 160.506 336.607 159.458C336.607 159.308 336.458 158.859 336.159 158.709C336.309 158.11 336.607 157.961 336.607 157.661L335.86 154.667H336.01C335.412 153.768 335.113 153.169 334.515 151.822C334.665 151.073 334.366 150.325 333.768 149.726C332.423 148.378 331.227 147.33 330.031 146.731H328.537C327.939 146.132 327.79 145.983 327.491 145.384C326.743 145.384 326.146 145.234 325.548 145.234C324.801 144.635 324.203 144.036 323.605 143.288C322.11 143.886 322.11 143.737 321.064 143.437C320.466 142.09 319.271 141.641 318.374 141.042C317.328 140.592 316.581 140.592 315.983 141.191C314.937 141.79 314.189 141.94 313.442 142.539C312.844 143.138 312.396 143.437 312.097 143.737C310.005 144.485 308.211 145.833 306.418 147.48C305.671 148.229 304.475 148.827 303.728 149.576L298.796 154.218C298.198 154.966 297.899 155.415 297.301 155.565C297.301 155.715 297.152 155.715 297.152 156.014C296.554 156.613 295.956 157.362 295.657 158.11L295.209 159.458L294.013 160.356C293.415 161.255 293.864 162.452 293.864 163.501C293.266 164.099 292.668 163.501 292.668 164.099C292.668 164.099 292.818 164.249 293.266 164.399V164.549H293.415L293.266 164.399L294.312 165.148C293.864 165.896 293.565 166.345 292.967 166.495C292.818 166.345 292.818 166.046 292.818 165.746L291.921 166.645C292.519 166.795 292.369 167.094 292.818 167.244C292.668 167.843 292.668 167.992 292.369 168.142C291.921 168.142 291.622 168.142 291.472 167.992C292.07 168.591 291.921 168.741 292.369 168.891L289.978 175.778C289.38 176.377 288.782 175.928 288.782 176.676C288.932 177.275 290.127 177.425 289.53 178.773C289.38 178.773 289.081 178.922 288.932 178.922L288.184 180.42C287.587 181.318 287.138 182.516 287.138 183.564C287.138 184.911 287.288 185.66 286.69 187.007L287.288 187.606C287.288 188.205 287.437 188.505 287.288 189.104C287.138 189.553 287.138 189.852 287.288 190.301C287.288 190.751 287.138 191.05 286.69 191.499C287.138 191.948 287.288 192.248 287.138 192.547C286.54 192.547 286.391 192.697 285.793 192.697C286.839 193.446 286.839 194.494 286.839 195.392L286.391 198.686C286.391 198.836 286.242 199.135 285.943 199.285V200.333C286.092 201.681 285.494 202.878 286.092 204.226L285.195 205.424L285.644 206.622C285.046 206.622 284.598 206.771 284.448 207.22C285.046 207.819 285.046 207.969 285.195 208.568L284.448 209.167C284.448 209.916 284.598 210.514 284.598 211.263C284 211.263 284 211.113 283.402 211.113C284 212.611 284.299 214.108 283.85 215.455C283.85 215.455 283.701 215.605 283.402 215.905C283.402 216.054 283.551 216.503 283.551 216.653C283.551 217.252 283.402 217.402 283.402 218.001C283.253 218.001 282.954 217.851 282.804 217.851C282.206 218.6 282.804 219.049 282.804 219.797C282.804 220.546 282.804 221.145 282.954 221.594L282.356 222.942C282.954 224.289 282.356 224.888 281.758 225.637C281.907 226.236 282.206 226.385 282.356 226.535C282.206 226.685 282.206 227.134 282.206 227.433C282.804 228.931 283.103 230.578 282.356 232.225V232.973C282.954 233.722 282.954 233.572 282.954 234.92C282.057 236.267 282.206 235.818 281.609 238.064C281.758 238.962 282.057 239.861 282.057 240.46C282.057 241.208 282.206 241.957 282.655 242.855C282.655 243.454 282.804 243.304 282.804 243.754C282.655 243.903 282.356 243.903 282.206 243.903L282.954 245.7C282.356 246.299 282.505 246.598 282.057 247.197C282.057 247.946 282.505 248.695 282.954 249.743C282.804 251.09 282.505 252.138 282.505 252.887L283.103 253.336C283.103 253.486 282.954 253.486 282.954 253.785C282.954 254.384 282.954 254.684 282.804 254.983L283.402 256.181L282.804 256.929C282.655 256.78 282.356 256.78 282.057 256.78C282.206 258.127 283.402 257.678 283.551 258.277C284.149 259.624 284 260.223 284.149 261.271C284.747 262.619 284.598 263.817 283.551 264.565V265.464L282.505 265.913L283.103 266.662C283.85 266.063 284.448 266.212 285.195 265.763C285.345 265.913 285.793 266.362 285.943 266.961C285.793 267.56 285.345 267.71 285.195 268.309L285.943 269.057L287.138 268.009C287.886 269.357 289.081 268.758 290.127 269.357C290.277 269.506 290.127 269.806 290.725 270.255C293.714 270.255 296.106 270.854 298.347 272.201C299.692 272.052 299.393 270.704 300.141 269.806C300.739 269.656 300.888 269.357 301.187 269.207L301.635 267.111L302.681 266.362C302.084 264.865 301.934 263.218 301.635 261.571L301.187 256.929C301.785 253.935 300.739 251.689 301.336 249.293C300.739 248.695 300.739 248.695 300.589 248.096C300.589 246.598 300.141 243.005 299.543 242.406C299.543 240.609 300.141 239.112 300.29 237.465C300.29 235.968 300.44 234.321 300.739 232.674C299.991 232.075 299.991 231.326 300.589 230.727C301.187 227.583 301.037 224.888 301.486 221.894C301.336 221.295 301.037 221.145 301.037 221.145L301.635 220.396C301.635 219.797 301.486 219.199 302.084 218.6C302.233 218.6 302.681 218.749 302.831 218.749V218.899L304.624 220.995L306.119 219.648L310.154 220.846C311.051 220.247 312.545 220.247 313.293 219.348C313.89 219.498 314.638 219.348 315.236 218.899C315.833 218.3 316.431 218.15 317.178 218.3L318.524 216.354C318.972 216.803 319.121 216.953 319.121 216.953C319.271 217.851 319.57 218.899 319.57 219.648C319.719 220.995 319.719 222.642 319.719 224.139C319.869 225.487 320.168 226.685 319.271 227.583C319.869 228.482 319.869 229.53 319.869 230.428C319.869 231.925 320.018 233.422 319.869 234.92C319.869 236.267 319.719 237.315 319.869 238.663C319.869 238.663 319.869 238.813 319.869 239.411C319.869 240.01 319.869 240.31 320.018 240.609C320.018 241.957 320.168 243.155 320.466 244.502V247.347C321.064 249.144 321.513 250.641 321.214 252.737V252.887C321.811 253.635 321.662 254.684 321.662 255.282C322.409 256.63 323.157 257.379 323.754 258.726V259.924C324.352 260.523 325.249 260.972 324.502 262.32L325.697 263.517C326.295 263.667 326.295 264.116 326.893 264.266C327.491 264.416 327.64 264.416 327.79 263.817C327.939 263.667 327.192 263.218 327.939 262.619L328.537 263.967C329.135 264.116 329.434 264.715 330.031 263.967C329.882 263.368 329.434 262.918 330.031 262.469C330.629 262.619 330.779 262.918 330.928 263.068C331.078 264.116 331.675 265.164 332.273 266.512C332.423 265.763 332.722 265.164 332.871 265.015C333.021 265.015 333.469 264.865 334.067 264.865C333.917 264.266 333.917 263.368 333.917 262.17C333.917 262.02 334.067 261.721 334.067 261.571L333.618 260.373C334.366 259.774 334.963 260.373 335.561 260.523C336.159 260.373 336.309 259.924 336.906 259.774V258.427L338.102 257.978V257.828L340.493 256.031V254.833L341.988 254.085C341.988 253.486 341.838 252.887 341.838 252.288C341.988 250.192 342.436 248.545 342.586 246.898C342.735 246.299 342.735 245.7 342.735 244.802C343.482 243.005 343.482 241.358 342.735 239.561C342.586 238.962 342.884 238.663 343.482 238.363C343.333 237.765 343.034 237.615 342.884 237.465L343.482 236.866C343.333 235.968 343.034 235.069 343.034 234.471C344.379 232.973 344.379 231.027 343.333 229.53ZM287.437 242.705C287.437 242.556 287.437 242.556 287.587 242.556C287.587 242.705 287.587 242.705 287.437 242.705ZM296.106 161.105C295.358 160.506 295.657 160.356 295.657 159.757L296.404 159.009C297.002 160.057 296.703 160.805 296.106 161.105ZM318.972 177.126C318.822 178.473 319.121 179.671 318.524 181.018C318.374 182.366 318.524 182.965 318.524 184.312C318.524 186.109 318.524 187.606 318.374 189.104C318.374 189.703 318.524 189.553 318.374 190.002V192.398C318.374 193.895 318.374 195.692 318.524 197.488C318.374 197.638 318.075 197.937 317.926 198.387C317.328 198.387 317.178 198.536 316.581 198.536L315.833 199.135C315.684 198.986 315.236 198.986 314.638 198.986C313.293 198.986 311.948 199.435 310.304 199.135C310.154 199.135 310.154 199.285 309.855 199.285C309.108 199.135 308.51 199.135 307.912 199.435L305.82 199.884C305.222 199.884 305.372 199.734 304.774 199.734C304.774 199.135 304.774 198.986 304.624 198.836C304.475 197.788 304.475 197.039 304.624 196.29C304.624 195.392 304.774 194.344 304.774 193.296C304.774 192.697 304.923 192.697 304.923 192.098C305.521 190.601 305.671 188.954 305.969 187.457C305.969 186.109 306.567 184.911 306.717 183.564L307.315 182.067C307.464 180.719 307.464 179.072 308.062 177.724L308.66 175.778L309.257 174.431C309.407 173.832 310.005 173.682 310.304 172.634C310.304 172.484 310.453 172.185 310.752 172.035C311.2 171.436 311.35 171.137 311.35 170.538V170.088L313.143 166.794C313.89 165.297 315.086 163.95 316.431 162.452L317.328 160.955C317.477 160.805 317.776 160.955 317.926 161.554L318.524 164.249L318.972 169.939C318.972 172.484 319.121 174.73 318.972 177.126ZM333.618 262.769C333.469 262.619 333.469 262.619 333.17 262.619V262.469C333.319 262.469 333.618 262.469 333.618 262.619V262.769ZM338.7 256.78H338.251V256.63H338.7V256.78Z" fill="#F15C4C"/>
<path d="M289.978 171.137C289.978 171.137 290.127 171.286 290.426 171.735C290.576 171.137 290.277 170.837 289.978 171.137Z" fill="#F15C4C"/>
<path d="M322.858 260.373H323.007L322.858 260.223V260.373Z" fill="#F15C4C"/>
<path d="M289.231 179.072C289.231 178.623 289.231 178.323 289.081 178.174C288.782 178.323 288.782 178.623 289.231 179.072Z" fill="#F15C4C"/>
<path d="M406.552 253.186C406.402 252.737 406.402 252.438 406.552 251.839C406.552 251.24 407 251.09 406.701 250.491C406.103 248.695 406.103 247.048 405.505 244.802C405.356 243.454 404.459 242.107 404.31 240.46C404.31 240.31 404.16 239.861 404.16 239.711C403.413 238.363 402.815 236.716 402.367 235.369L401.919 234.77C400.872 232.973 400.723 231.027 400.125 229.38L399.677 228.182L398.332 225.487C397.435 223.391 396.239 222.043 394.894 220.396L393.101 217.851C392.354 216.503 391.606 215.455 390.56 214.108L387.87 210.964L385.927 208.867C385.03 207.52 383.536 206.172 383.087 204.376C383.087 204.226 383.087 204.226 382.938 203.926C381.145 202.579 380.397 200.483 379.052 198.686L377.857 196.889C377.707 196.29 377.408 196.141 377.408 196.141C376.661 194.793 376.063 193.745 375.316 192.847C374.419 191.499 373.821 189.852 373.821 188.505C373.821 187.906 373.672 187.756 373.074 187.606C372.476 187.157 372.028 186.708 371.878 186.109C371.281 184.013 371.131 182.216 371.281 180.869C371.878 179.521 371.43 178.323 372.177 177.425V176.976L372.626 174.431C372.775 173.682 373.074 173.083 373.224 172.933C374.27 170.837 375.166 169.19 376.512 167.543C376.661 166.944 377.109 166.645 377.857 166.046C378.454 165.597 379.052 165.148 379.351 164.549C379.501 163.95 379.949 163.351 380.397 163.201C381.742 162.153 383.087 161.404 384.134 160.506C385.479 159.158 387.422 159.158 388.767 157.811C388.767 157.811 388.916 157.661 389.514 157.362C390.411 156.763 391.606 156.763 392.652 156.164C393.549 155.565 394.595 155.415 395.343 154.816C395.791 154.816 396.09 154.667 396.389 154.218C396.389 154.068 396.239 153.619 395.791 153.319C395.044 152.72 394.595 152.421 394.446 151.822C394.296 151.223 393.848 150.924 393.101 150.624C392.354 150.025 391.606 149.426 391.009 148.678C390.56 148.079 390.261 147.779 389.663 147.48L383.237 145.084C382.49 144.935 381.742 145.084 381.145 145.683C381.742 146.282 382.49 145.683 383.087 146.432C382.34 147.33 381.145 146.881 380.248 147.33C380.098 147.48 379.65 147.48 379.052 147.33C378.305 146.731 377.707 147.18 376.96 147.18H375.166C374.718 147.18 374.569 147.031 374.569 146.731C374.569 146.582 374.718 146.132 375.017 145.983C375.166 145.983 375.465 145.983 375.615 145.833C376.81 145.384 378.155 145.234 379.501 145.234C379.65 145.234 380.098 145.234 380.248 145.084L380.098 144.935C378.006 144.485 375.615 144.785 373.522 145.533L371.729 145.983C370.384 146.582 369.188 146.582 367.843 147.18C366.648 147.779 365.452 148.528 364.107 149.576C361.118 151.672 359.324 154.068 358.129 156.913L356.933 159.907C355.588 162.003 354.99 164.399 354.392 166.795C354.243 167.393 353.795 168.292 353.645 169.789L353.197 172.484C353.047 173.832 352.748 174.88 352.748 175.778C352.599 178.323 352.898 180.869 353.496 183.414C354.093 185.81 354.841 188.056 355.588 190.601C356.186 193.146 357.68 195.392 358.727 197.937C358.727 198.087 358.727 198.087 358.876 198.387C359.474 199.435 359.623 200.483 360.371 201.381L360.819 201.98C361.865 204.825 363.509 206.771 365.302 209.167L369.188 214.258C369.936 215.605 370.533 216.354 371.281 217.402C372.177 219.199 373.373 220.546 374.27 222.642L375.017 224.439C376.512 228.182 378.006 231.476 378.454 235.069C378.903 237.615 379.052 240.01 378.903 242.107C378.903 243.604 378.305 245.251 377.408 246.598C376.81 247.497 376.063 248.395 375.316 249.293C374.569 250.641 373.373 251.689 372.327 253.037C371.43 254.384 369.786 255.582 367.993 256.331C365.9 257.079 364.107 257.828 362.014 259.325C359.922 260.673 358.577 262.32 357.232 264.416C356.485 265.314 355.887 266.212 355.737 266.811C355.14 267.71 355.289 268.608 356.335 268.908C357.83 269.506 359.623 269.656 360.968 270.255C361.417 270.405 361.716 270.405 362.164 270.255C362.762 270.255 363.36 270.405 363.659 270.854C364.256 271.752 365.452 272.201 366.797 272.052C367.395 271.902 367.993 272.052 368.74 272.201C368.889 272.351 369.338 272.351 369.936 272.351C370.533 272.351 370.683 272.201 371.281 272.201C372.028 272.052 372.626 272.052 373.224 272.351C373.971 272.501 374.569 272.8 375.166 272.8L379.949 272.351H380.397C381.742 272.201 383.087 271.603 384.731 271.752C386.077 271.902 387.422 271.303 388.767 270.255C389.365 270.105 389.813 269.806 389.962 269.806C390.56 269.656 391.158 269.207 391.457 268.608C392.802 267.26 394.147 266.811 395.791 266.662C397.286 266.512 398.631 266.212 400.125 265.464C400.723 264.865 401.171 264.865 401.62 264.266C402.965 263.368 404.16 262.32 404.758 261.271C404.908 260.822 405.356 260.523 405.804 260.373C405.954 260.223 406.402 259.774 406.552 259.175C406.701 257.828 407 256.78 407 256.181C406.851 254.983 407.149 254.085 406.552 253.186ZM360.52 196.44C359.922 196.59 359.474 196.59 359.175 196.29C359.025 196.29 358.727 196.141 358.727 195.841C358.129 194.494 358.129 193.745 357.979 192.398L357.232 190.152C356.634 189.553 356.485 188.954 355.887 188.205L355.439 187.007C355.588 186.409 355.439 185.66 356.036 185.51C356.485 185.51 356.784 185.959 357.232 186.708C357.83 187.606 357.83 188.505 358.428 189.403L360.221 193.446C360.371 194.045 360.819 194.194 360.968 194.793C361.118 195.392 360.819 195.991 360.52 196.44ZM365.751 206.322C365.153 206.322 364.854 206.172 364.854 205.573C364.705 205.124 364.854 204.975 365.004 204.825C365.452 204.675 365.751 204.825 365.9 204.975C365.9 205.124 366.05 205.424 366.349 205.873C366.05 206.172 365.9 206.322 365.751 206.322Z" fill="#F15C4C"/>
</svg>
