<svg width="156" height="50" viewBox="0 0 156 50" fill="none" xmlns="http://www.w3.org/2000/svg">
<path d="M7.98323 0.251465L13.7621 18.3419H13.8459L19.7085 0.251465H27.665V26.1309H21.6348V19.682L22.2211 7.87291H22.1373L15.9397 26.1309H11.8358L5.63817 8.04041H5.55442L6.14069 19.682V26.1309H0.110535V0.251465H7.98323Z" fill="white"/>
<path d="M45.8392 21.1057H37.7152L36.2914 26.1309H30.2613L38.6365 0.251465H45.0854L53.4606 26.1309H47.4305L45.8392 21.1057ZM38.9715 16.4994H44.4992L41.8191 7.28664H41.7353L38.9715 16.4994Z" fill="white"/>
<path d="M75.4037 22.6131C74.5662 23.6181 73.2261 24.5394 71.5511 25.3769C69.8761 26.1307 67.7823 26.5494 65.2697 26.5494C62.0871 26.5494 59.4908 25.5444 57.4807 23.6181C55.4707 21.6918 54.4657 19.0955 54.4657 15.9967V10.5528C54.4657 7.45394 55.4707 4.85762 57.397 2.93132C59.3233 0.921273 61.8359 0 64.9347 0C68.2848 0 70.7973 0.753769 72.3886 2.34506C74.0637 3.8526 74.9849 6.03015 75.2362 8.62647V8.71022H69.6248C69.4573 7.37019 68.9548 6.28141 68.2848 5.61139C67.6148 4.94138 66.526 4.60637 65.1859 4.60637C63.7621 4.60637 62.6734 5.19263 61.8359 6.28141C60.9983 7.37019 60.5796 8.79397 60.5796 10.5528V15.9967C60.5796 17.8392 60.9983 19.263 61.8359 20.3518C62.6734 21.4405 63.8459 22.0268 65.3534 22.0268C66.4422 22.0268 67.2797 21.9431 67.9498 21.7756C68.6198 21.608 69.0385 21.3568 69.4573 21.1055V17.0017H65.3534V12.9816H75.4874V22.6131H75.4037Z" fill="white"/>
<path d="M92.8241 21.1057H84.7002L83.2764 26.1309H77.1625L85.5377 0.251465H91.9866L100.362 26.1309H94.3317L92.8241 21.1057ZM86.0402 16.4994H91.5678L88.8878 7.20289H88.804L86.0402 16.4994Z" fill="white"/>
<path d="M108.737 21.5245H120.546V26.1309H101.367V23.4508L112.925 4.94158H101.283V0.251465H120.379V2.84778L108.737 21.5245Z" fill="white"/>
<path d="M129.843 26.1309H123.812V0.251465H129.843V26.1309Z" fill="white"/>
<path d="M155.889 26.1309H149.859L140.395 9.6317H140.312V26.1309H134.281V0.251465H140.312L149.776 16.7506H149.859V0.251465H155.889V26.1309Z" fill="white"/>
<path d="M155.889 30.7368H0.110535V49.9998H155.889V30.7368Z" fill="#EA2839"/>
<path d="M10.747 42.2947C10.747 41.8759 10.5795 41.5409 10.3283 41.2896C9.99327 41.0384 9.49076 40.7871 8.73699 40.6196C7.81571 40.3684 7.06194 40.0334 6.55943 39.6146C6.05692 39.1958 5.80566 38.6096 5.80566 37.9396C5.80566 37.2695 6.05692 36.6833 6.64318 36.1808C7.22945 35.6782 7.98322 35.5107 8.82074 35.5107C9.82576 35.5107 10.5795 35.762 11.1658 36.3483C11.7521 36.8508 12.0033 37.5208 12.0033 38.1908H10.8308C10.8308 37.6883 10.6633 37.2695 10.3283 36.9345C9.99327 36.5995 9.49076 36.432 8.82074 36.432C8.23447 36.432 7.73196 36.5995 7.39695 36.8508C7.06194 37.102 6.89444 37.437 6.89444 37.9396C6.89444 38.3583 7.06194 38.6933 7.39695 38.9446C7.73196 39.1958 8.31823 39.4471 9.072 39.6146C9.99327 39.8659 10.747 40.2009 11.2496 40.6196C11.7521 41.0384 12.0033 41.6246 12.0033 42.2947C12.0033 43.0484 11.6683 43.6347 11.082 44.0535C10.4958 44.4722 9.74201 44.7235 8.73699 44.7235C7.81571 44.7235 7.06194 44.4722 6.39193 43.9697C5.72191 43.4672 5.3869 42.7972 5.3869 42.0434H6.55943C6.55943 42.6297 6.81069 43.0484 7.22945 43.3834C7.64821 43.7184 8.15072 43.8022 8.82074 43.8022C9.407 43.8022 9.90952 43.6347 10.2445 43.3834C10.5795 43.0484 10.747 42.7134 10.747 42.2947Z" fill="white"/>
<path d="M21.216 42.2109H17.4472L16.6097 44.4722H15.3534L18.7872 35.5107H19.7923L23.2261 44.4722H21.9698L21.216 42.2109ZM17.866 41.2059H20.881L19.3735 37.1858L17.866 41.2059Z" fill="white"/>
<path d="M28.335 43.6349H32.5226V44.5562H27.0787V35.5947H28.2512V43.6349H28.335Z" fill="white"/>
<path d="M37.3802 43.6349H42.4053V44.5562H36.0402V43.6349L40.8141 36.516H36.1239V35.5947H42.2378V36.4322L37.3802 43.6349Z" fill="white"/>
<path d="M46.6767 44.5562V35.5947H49.608C50.5293 35.5947 51.2831 35.7622 51.7856 36.181C52.2881 36.5998 52.5393 37.186 52.5393 38.0235C52.5393 38.4423 52.3718 38.7773 52.1206 39.1123C51.8693 39.4473 51.5343 39.6986 51.1156 39.7823C51.6181 39.8661 52.1206 40.2011 52.3718 40.5361C52.7069 40.9549 52.8744 41.4574 52.8744 41.9599C52.8744 42.7974 52.6231 43.3837 52.1206 43.8024C51.6181 44.2212 50.8643 44.4725 49.943 44.4725H46.6767V44.5562ZM47.933 39.4473H49.8593C50.278 39.4473 50.6968 39.3636 50.9481 39.1123C51.1993 38.8611 51.3668 38.5261 51.3668 38.1073C51.3668 37.6048 51.1993 37.2698 50.9481 37.0185C50.6131 36.7673 50.1943 36.6835 49.608 36.6835H47.933V39.4473ZM47.933 40.3686V43.6349H50.0268C50.613 43.6349 51.0318 43.4674 51.2831 43.2162C51.6181 42.9649 51.7018 42.5462 51.7018 42.0436C51.7018 41.5411 51.5343 41.1224 51.2831 40.7874C51.0318 40.4523 50.6131 40.3686 50.1105 40.3686H47.933Z" fill="white"/>
<path d="M63.9296 35.5947V41.6249C63.9296 42.6299 63.5946 43.3837 63.0084 43.8862C62.3384 44.3887 61.5846 44.64 60.4958 44.64C59.4908 44.64 58.737 44.3887 58.067 43.8862C57.4807 43.3837 57.1457 42.6299 57.1457 41.6249V35.5947H58.3183V41.6249C58.3183 42.2949 58.4858 42.7974 58.9045 43.1324C59.3233 43.4674 59.8258 43.6349 60.4121 43.6349C61.0821 43.6349 61.5846 43.4674 62.0033 43.1324C62.4221 42.7974 62.5896 42.2949 62.5896 41.6249V35.5947H63.9296Z" fill="white"/>
<path d="M69.7085 40.7036V44.5562H68.536V35.5947H71.8023C72.8074 35.5947 73.5611 35.846 74.0637 36.2647C74.5662 36.6835 74.8174 37.3535 74.8174 38.191C74.8174 38.6098 74.7337 39.0286 74.4824 39.3636C74.2312 39.6986 73.8961 39.9498 73.4774 40.2011C73.9799 40.3686 74.3149 40.6199 74.5662 40.9549C74.8174 41.2899 74.9012 41.7924 74.9012 42.2949V43.1324C74.9012 43.3837 74.9012 43.6349 74.9849 43.8862C75.0687 44.1374 75.1524 44.3049 75.3199 44.3887V44.5562H74.0637C73.8962 44.3887 73.8124 44.2212 73.7286 43.9699C73.6449 43.7187 73.6449 43.3837 73.6449 43.1324V42.2949C73.6449 41.7924 73.4774 41.4574 73.2261 41.1224C72.9749 40.7874 72.5561 40.7036 72.0536 40.7036H69.7085ZM69.7085 39.6986H71.6348C72.3049 39.6986 72.8074 39.5311 73.1424 39.2798C73.4774 39.0286 73.5611 38.6098 73.5611 38.1073C73.5611 37.6048 73.3936 37.186 73.1424 36.9348C72.8911 36.6835 72.3886 36.516 71.8023 36.516H69.7923V39.6986H69.7085Z" fill="white"/>
<path d="M85.9564 43.3834C85.7052 43.7184 85.3702 44.0535 84.8677 44.3047C84.3651 44.556 83.6951 44.7235 82.8576 44.7235C81.7688 44.7235 80.9313 44.3885 80.1775 43.7184C79.5075 43.0484 79.1725 42.1272 79.1725 41.0384V39.1958C79.1725 38.1071 79.5075 37.2695 80.1775 36.5158C80.8476 35.8458 81.6851 35.5107 82.6901 35.5107C83.6951 35.5107 84.5327 35.762 85.1189 36.2645C85.7052 36.767 86.0402 37.437 86.0402 38.1908H84.8677C84.8677 37.6883 84.6164 37.2695 84.2814 36.9345C83.9464 36.5995 83.4439 36.432 82.7739 36.432C82.1038 36.432 81.5176 36.6833 81.0988 37.1858C80.6801 37.6883 80.5125 38.3583 80.5125 39.1121V40.9546C80.5125 41.7084 80.7638 42.3784 81.1826 42.8809C81.6851 43.3834 82.2713 43.6347 82.9414 43.6347C83.4439 43.6347 83.8626 43.5509 84.1976 43.4672C84.5327 43.2997 84.7839 43.2159 84.8677 43.0484V41.0384H82.9414V40.1171H86.1239V43.3834H85.9564Z" fill="white"/>
<path d="M96.0067 40.3686H91.9028V43.5512H96.5929V44.4725H90.6465V35.5947H96.5092V36.516H91.8191V39.4473H95.9229V40.3686H96.0067Z" fill="white"/>
<path d="M101.869 40.7036V44.5562H100.697V35.5947H103.963C104.968 35.5947 105.722 35.846 106.224 36.2647C106.727 36.6835 106.978 37.3535 106.978 38.191C106.978 38.6098 106.894 39.0286 106.643 39.3636C106.392 39.6986 106.057 39.9498 105.638 40.2011C106.141 40.3686 106.476 40.6199 106.727 40.9549C106.978 41.2899 107.062 41.7924 107.062 42.2949V43.1324C107.062 43.3837 107.062 43.6349 107.146 43.8862C107.229 44.1374 107.313 44.3049 107.481 44.3887V44.5562H106.224C106.057 44.3887 105.973 44.2212 105.889 43.9699C105.806 43.7187 105.806 43.3837 105.806 43.1324V42.2949C105.806 41.7924 105.638 41.4574 105.387 41.1224C105.136 40.7874 104.717 40.7036 104.214 40.7036H101.869ZM101.869 39.6986H103.796C104.466 39.6986 104.968 39.5311 105.303 39.2798C105.638 39.0286 105.722 38.6098 105.722 38.1073C105.722 37.6048 105.554 37.186 105.303 36.9348C105.052 36.6835 104.549 36.516 103.963 36.516H101.953V39.6986H101.869Z" fill="white"/>
<path d="M112.841 43.6349H117.028V44.5562H111.585V35.5947H112.757V43.6349H112.841Z" fill="white"/>
<path d="M125.99 42.2109H122.221L121.384 44.4722H120.127L123.561 35.5107H124.566L128 44.4722H126.744L125.99 42.2109ZM122.64 41.2059H125.655L124.147 37.102L122.64 41.2059Z" fill="white"/>
<path d="M138.72 44.5562H137.464L133.193 37.6885V44.5562H132.02V35.5947H133.193L137.464 42.4624V35.5947H138.637V44.5562H138.72Z" fill="white"/>
<path d="M143.578 44.5562V35.5947H146.342C147.514 35.5947 148.436 35.9297 149.189 36.6835C149.859 37.4373 150.278 38.3585 150.278 39.4473V40.7036C150.278 41.8761 149.943 42.7974 149.189 43.4674C148.519 44.2212 147.514 44.5562 146.342 44.5562H143.578ZM144.75 36.5998V43.6349H146.258C147.095 43.6349 147.766 43.3837 148.184 42.7974C148.687 42.2949 148.938 41.5411 148.938 40.7036V39.4473C148.938 38.6098 148.687 37.9398 148.184 37.3535C147.682 36.851 147.095 36.516 146.258 36.516H144.75V36.5998Z" fill="white"/>
</svg>
